<?xml version="1.0" encoding="utf-8"?>
<!-- Generator: Adobe Illustrator 24.0.0, SVG Export Plug-In . SVG Version: 6.00 Build 0)  -->
<svg version="1.1" id="Layer_1" xmlns="http://www.w3.org/2000/svg" xmlns:xlink="http://www.w3.org/1999/xlink" x="0px" y="0px"
	 viewBox="0 0 1300.5 576" style="enable-background:new 0 0 1300.5 576;" xml:space="preserve">
<style type="text/css">
	.st0{fill:#0062AE;}
	.st1{fill:#CDD23E;}
	.st2{fill:#611336;}
	.st3{enable-background:new    ;}
</style>
<g>
	<path class="st0" d="M1196.2,203.7V228l0.1,0.9l-0.9-0.1h-11.8l-0.9,0.1l0.1-0.9v-22.1c0-6.5-3.7-9.5-8.3-9.5
		c-4.6,0-8.3,3.1-8.3,9.5V228l0.1,0.9l-0.9-0.1h-11.8l-0.9,0.1l0.1-0.9v-22.1c0-12.1,9.8-21.8,21.8-21.8c5.1,0,9.8,1.8,13.6,4.7
		l0.3,0.8l0.2-0.8c0.4-0.4,0.8-0.8,1.2-1.2l0.8-0.2l-0.7-0.3c-3.2-3.6-5.2-8.3-5.2-13.5v-48.4l-0.1-0.9l0.9,0.1h11.8l0.9-0.1
		l-0.1,0.9v48.3c0,5.3,3,7.8,6.8,7.8c3.7,0,6.7-2.5,6.7-7.8v-48.4l-0.1-0.9l0.9,0.1h11.8l0.9-0.1l-0.1,0.9v48.4
		c0,5.2-2,9.9-5.2,13.5l-0.7,0.3l0.8,0.2c0.4,0.4,0.8,0.8,1.2,1.2l0.3,0.8l0.3-0.8c3.7-3,8.4-4.7,13.6-4.7
		c12.1,0,21.8,9.8,21.8,21.8v22.1l0.1,0.9l-0.9-0.1h-11.8l-0.9,0.1l0.1-0.9v-22.1c0-6.5-3.7-9.5-8.3-9.5c-4.6,0-8.3,3.1-8.3,9.5
		v22.1l0.1,0.9l-0.9-0.1h-11.8l-0.9,0.1l0.1-0.9v-24.3c0-6.7-3.9-9.9-8.6-9.9C1200.1,193.8,1196.2,197,1196.2,203.7"/>
	<path d="M930.7,282.9c-1.7,1.4-3.9,2.5-7.1,2.5c-4.3,0-7.9-3.1-7.9-11.5c0-8.7,3-12.7,7.9-12.7c3.3,0,5.6,1.2,7.2,2.9v18.8H930.7z
		 M930.7,288.6h12.5v-1.3l-4.6-1.1v-42.4h-12.8v1.5l5,1.4V261c-2.2-1.8-5.5-3.3-9.8-3.3c-7.8,0-13.5,6.8-13.5,16.3
		c0,9.7,5.3,15.4,13.6,15.4c4,0,7.4-1.6,9.8-3.7L930.7,288.6L930.7,288.6z"/>
	<polygon points="1047.9,243.8 1047.9,245.2 1043.3,246.4 1043.3,286 1047.9,287.3 1047.9,288.6 1028.5,288.6 1028.5,287.2 
		1034.7,286 1034.7,254.5 1020.2,288.6 1016.8,288.6 1002.5,254.3 1002.5,286 1008.5,287.1 1008.5,288.6 994.4,288.6 994.4,287.3 
		998.4,286.1 998.4,246.4 994.4,245.2 994.4,243.8 1007,243.8 1020.9,278.1 1035.2,243.8 	"/>
	<path d="M1067.5,259.9c5.4,0,8.2,6,8.2,13.6c0,7.5-2.8,13.7-8.2,13.7c-5.3,0-8.2-6.2-8.2-13.7
		C1059.3,265.9,1062.2,259.9,1067.5,259.9 M1067.5,257.7c-8.8,0-16.7,6.1-16.7,15.8c0,9.4,8,15.8,16.7,15.8
		c8.8,0,16.8-6.4,16.8-15.8C1084.3,263.8,1076.3,257.7,1067.5,257.7"/>
	<path d="M1229.7,283.6c-1.6,1-3,2.1-5.4,2.1c-4,0.1-5.1-2.4-5.1-5.3c0-3,2-4.9,5.6-5.6l4.9-0.6V283.6L1229.7,283.6z M1229.7,267
		v5.2l-6.9,0.3c-6.8,0.2-11,3.9-11,8.9c0,5.1,3.8,7.9,8.8,7.9c4.1,0,7.1-2,9.1-3.4v2.8h11.4v-1.3l-3.7-1.1v-20.5
		c0-4.5-3-8.1-9.7-8.1c-6.8,0-11.1,1.9-13.5,3v7.1h3.4l1.1-5.9c0.8-0.3,2.9-1.1,6.3-0.8C1229.1,261.4,1229.6,264.2,1229.7,267"/>
	<polygon points="1261.7,287.3 1261.7,288.6 1244.6,288.6 1244.6,287.3 1249.2,286.2 1249.2,246.4 1244.6,245.3 1244.6,243.8 
		1257.1,243.8 1257.1,286.2 	"/>
	<path d="M866.9,186.8l-6.7-1.3v-1.4h15.5v1.4l-4.8,1.4V214c0,11.3-6.2,15.9-18.7,15.9c-12.9,0-18.2-4.9-18.2-15.1v-28l-4.6-1.2
		v-1.4h19.8v1.5l-6.7,1.2v27.5c0,8.3,2.8,12.4,11.5,12.4c9.4,0,12.9-4.2,12.9-13.2V186.8L866.9,186.8z"/>
	<path d="M893.6,227.6v1.3h-16.7v-1.3l4.5-1.1v-25.6l-4.1-1.2v-1.4h12v4.7c1.4-1.2,5.7-5,11.3-5c5.8,0,8.7,3.2,8.7,8.9v19.6l4.4,1.1
		v1.4h-16.2v-1.5l4.1-1v-18.8c0-3-0.9-5.6-4.6-5.6c-3.3,0-6.7,2.3-7.7,3v21.4L893.6,227.6z"/>
	<polygon points="928.9,226.5 933.4,227.6 933.4,228.9 916.4,228.9 916.4,227.6 921,226.5 921,200.8 916.9,199.7 916.9,198.2 
		928.9,198.2 	"/>
	<path d="M929.3,187.7c0,2.3-2.1,4.3-4.5,4.3s-4.5-1.9-4.5-4.3c0-2.3,2.1-4.3,4.5-4.3C927.2,183.3,929.3,185.3,929.3,187.7"/>
	<polygon points="1064.2,226.5 1068.7,227.6 1068.7,228.9 1051.7,228.9 1051.7,227.6 1056.3,226.5 1056.3,200.8 1052.2,199.7 
		1052.2,198.2 1064.2,198.2 	"/>
	<path d="M1064.6,187.7c0,2.3-2.1,4.3-4.5,4.3s-4.5-1.9-4.5-4.3c0-2.3,2.1-4.3,4.5-4.3C1062.5,183.3,1064.6,185.3,1064.6,187.7"/>
	<polygon points="935.9,200.4 933.7,199.5 933.7,198.2 948.6,198.2 948.6,199.5 943.8,200.6 950.6,219.3 957.4,200.5 953.3,199.5 
		953.3,198.2 963.5,198.2 963.5,199.5 961,200.6 949.3,229.4 946.8,229.4 	"/>
	<path d="M985.1,209.2h-12.2c0.7-5.2,2.8-9.1,6.4-9.1C983.4,200.1,984.8,205,985.1,209.2 M972.6,211.7h20.3
		c-0.2-8.5-4.6-13.8-13.5-13.8c-8.8,0-15.2,7.6-15.2,15.8c0,9.6,6.3,15.8,15.3,15.8c7.7,0,11.7-3,14.1-4.8l-1.3-2.1
		c-1.8,1.1-5.4,3.5-11.3,3.2C974.9,225.5,971.9,219.3,972.6,211.7"/>
	<path d="M1045.5,199.5l-0.7,7.5h-2.8l-0.7-5.1c-1-0.6-2.4-1.7-5.5-1.7c-2.5,0-4.4,1.3-4.4,4c0,3.2,3.5,4.4,7,6
		c3.4,1.4,8.9,3.5,8.9,9c0,6.2-5.1,10.5-11.2,10.5c-5.6,0-8.9-1.3-9.9-1.6l-0.6-8.3l2.9-0.3l1.6,5.7c0.8,0.6,3.1,2.4,5.9,2.3
		c3.9,0,5.8-2.1,5.8-5c0-3.5-4.9-5-8.1-6.5c-3-1.4-7.7-2.8-7.7-9c0-5.2,4.3-8.8,10.1-8.8C1041.1,197.9,1044.2,199,1045.5,199.5"/>
	<polygon points="1120.9,188.1 1117.9,183.7 1107.4,191.9 1109.1,194.4 	"/>
	<path d="M1115.1,209.2h-12.2c0.7-5.2,2.8-9.1,6.4-9.1C1113.4,200.1,1114.8,205,1115.1,209.2 M1102.6,211.7h20.3
		c-0.2-8.5-4.6-13.8-13.5-13.8c-8.7,0-15.2,7.6-15.2,15.8c0,9.6,6.3,15.8,15.3,15.8c7.7,0,11.7-3,14.1-4.8l-1.3-2.1
		c-1.8,1.1-5.4,3.5-11.3,3.2C1104.9,225.5,1101.9,219.3,1102.6,211.7"/>
	<path d="M1018.7,197.9c-4.4,0-7.6,3.5-9.4,7.5h-0.2v-7.2h-12.5v1.3l4.6,1.3v25.7l-4.6,1.1v1.3h19.2v-1.5l-6.7-1.1v-17.4
		c1.8-4,4.5-5.6,6.3-5.6c1.3,0,1.8,0.3,2.8,1.1c0.4,0.3,1.7,0.7,2.5,0.3c1.5-0.6,1.9-1.7,1.9-3.4
		C1022.6,199.5,1020.9,197.9,1018.7,197.9"/>
	<path d="M1104.1,287.3v1.3h-16.7v-1.3l4.5-1.1v-25.6l-4.1-1.2V258h12v4.7c1.4-1.2,5.7-5,11.3-5c5.8,0,8.7,3.2,8.7,8.9v19.6l4.4,1.1
		v1.4H1108v-1.4l4.1-1v-18.8c0-3-0.9-5.6-4.6-5.6c-3.3,0-6.7,2.3-7.7,3v21.4L1104.1,287.3z"/>
	<path d="M1172.9,257.7c-4.4,0-7.6,3.5-9.4,7.5h-0.1V258h-12.5v1.3l4.6,1.3v25.6l-4.6,1.1v1.3h19.1v-1.5l-6.7-1.1v-17.4
		c1.8-4,4.5-5.7,6.2-5.7c1.3,0,1.8,0.3,2.8,1.1c0.4,0.3,1.7,0.7,2.5,0.3c1.5-0.6,1.9-1.7,1.9-3.3
		C1176.8,259.3,1175,257.7,1172.9,257.7"/>
	<path d="M1091.7,225.4c-1.1,0.8-2.3,1.3-4.1,1.3c-2.8,0-3.7-2-3.7-6.6v-19.3l7.9-1.2v-1.5h-7.9v-14.2h-2.6
		c-0.5,8.1-3.4,13.5-10.6,14.2h-1.2v1.5l6.5,1.2v19.7c0,6.2,1.5,8.9,7.4,8.9c4.2,0,7.6-1.6,9-2.9L1091.7,225.4z"/>
	<path d="M1147.3,285.2c-1.2,0.8-2.3,1.3-4.1,1.3c-2.8,0-3.6-2-3.6-6.6v-19.3l7.9-1.2v-1.5h-7.9v-14.2h-2.6
		c-0.5,8.1-3.4,13.5-10.6,14.2h-1.2v1.5l6.5,1.2v19.7c0,6.2,1.5,8.9,7.4,8.9c4.2,0,7.6-1.6,9-2.9L1147.3,285.2z"/>
	<path d="M966.5,269h-12.2c0.7-5.2,2.8-9.1,6.4-9.1C964.8,259.9,966.2,264.7,966.5,269 M953.9,271.4h20.3
		c-0.2-8.5-4.6-13.8-13.5-13.8c-8.7,0-15.2,7.6-15.2,15.8c0,9.6,6.3,15.8,15.3,15.8c7.7,0,11.7-3,14-4.8l-1.3-2.1
		c-1.8,1.1-5.4,3.5-11.3,3.2C956.3,285.3,953.3,279.1,953.9,271.4"/>
	<path d="M1198.5,269h-12.2c0.7-5.2,2.8-9.1,6.4-9.1C1196.8,259.9,1198.2,264.7,1198.5,269 M1204.2,247.9l-3-4.4l-10.5,8.3l1.7,2.5
		L1204.2,247.9z M1185.9,271.4h20.2c-0.2-8.5-4.6-13.8-13.5-13.8c-8.8,0-15.2,7.6-15.2,15.8c0,9.6,6.3,15.8,15.3,15.8
		c7.7,0,11.7-3,14.1-4.8l-1.3-2.1c-1.8,1.1-5.4,3.5-11.3,3.2C1188.3,285.3,1185.3,279.1,1185.9,271.4"/>
</g>
<g>
	<path class="st1" d="M640.3,164.9L640.3,164.9l0.1,0.1h6.6v-0.1c0,0-0.1-4.6,0.7-11.7c9.2,2.2,20.1,3.5,32.2,3.7l0.1-0.1v-6.7V150
		c-11.9-0.2-22.4-1.4-31.3-3.7c1.7-10.8,5.6-26.6,14.4-40.4l0,0c1.7-2.7,3.5-5.2,5.4-7.5v-0.1c-2.9,0.3-6,0.8-9.4,1.5l0,0
		c-8.2,1.5-16,3.8-23.3,6.8c-5.4,2.2-10.7,4.9-15.6,7.9l0,0c-2.5,1.5-5.5,3.4-8.3,5.4l-0.3,0.2l0,0c-7.1,5.1-13.7,11.1-19.7,17.9
		c-4.9,5.5-9.4,11.6-13.4,18c-6.8,10.9-10.2,19.7-11,22.1v0.1h7.2l0,0c2.7-6.7,10.8-24.1,26.9-40.4c-9.1,20.1-11,39.5-11.1,40.3v0.1
		h6.7l0,0c0.1-1.1,2.9-26.1,16.2-48.1c1.8,3.9,4.5,7.5,8.2,10.7c5,4.3,11.5,7.9,19.5,10.5C640.3,158.3,640.3,163.2,640.3,164.9z
		 M642,144.6c-7-2.4-12.6-5.5-16.7-9.2c-3.6-3.3-6-7.1-6.9-11l-0.1-0.4c10.8-7.3,22.8-12.7,35.7-15.9
		C648.3,118.6,644.3,130.9,642,144.6z"/>
	<path class="st1" d="M788.4,242l-7-0.1l0,0c-0.3,0.9-6.8,21.6-26.1,41.4c-1.3-2.6-3.2-5-5.6-7.4c-3.3-3.3-7.6-6.2-12.6-8.7
		c5.1-7,10.6-16.5,14.8-25.3v-0.1h-7.5l0,0c-4,8.4-8,14.9-13.7,22.6c-10-3.7-22.2-6-36.5-6.8c-4.8-0.3-9.7-0.4-14.4-0.2
		c0.3-8.8,0.3-15.1,0.3-15.4l0,0l0,0l0,0l0,0l0,0h-6.6l0,0h-0.1c0,0.1,0,6.6-0.3,15.7l0,0l0,0c-7.9,0.6-15.6,1.6-21.1,2.9
		c-2.7-10.4-3.9-17.9-4.1-18.8l0,0l0,0l0,0H641l0,0l0,0l0,0l0,0l0,0v0.1c0.5,3,1.9,10.9,4.3,20.5l0,0v0.1c0,0,0,0,0,0.1
		c-4.2,1.3-7.3,2.5-10.6,4.1v0.1l2.9,6h0.1c2.9-1.4,5.6-2.4,9.3-3.6c4.8,16.6,12.2,32.2,19.9,41.7l0,0c0.2,0.3,0.4,0.5,0.6,0.8
		c0.1,0.1,0.2,0.2,0.3,0.4c0.1,0.1,0.2,0.3,0.3,0.4l1.2,1.4l0,0l1.8-0.3h0.1c0.2,0,0.5-0.1,0.8-0.2s0.6-0.1,1-0.2l0,0
		c7.9-1.9,35.6-10.3,59.7-40.4c13.3,6.2,16.5,13.6,17.1,15.5c-19.2,17-42.7,25.9-69.9,26.2l0,0v6.7l0,0c14.4-0.2,28-2.6,40.3-7.2
		c10.7-4,20.5-9.6,29.2-16.7l0,0c5-3.8,7.5-6.6,7.6-6.6l0,0c11.9-11.3,19.7-23.8,24.1-32.3C786.1,249.4,788.2,242.8,788.4,242
		L788.4,242z M653.4,267.4L653.4,267.4c4.9-1.2,11.9-2.1,19.2-2.7c-0.5,13.4-2,28.6-3.6,37.9C663,293.4,657,279.9,653.4,267.4
		L653.4,267.4z M679.4,264.3c4.6-0.1,9.4-0.1,14.3,0.2c12.7,0.7,23.6,2.6,32.5,5.6c-19.8,23.7-42.1,32.6-50.8,35.4
		C677.5,294.5,678.9,276.9,679.4,264.3z"/>
</g>
<g>
	<g>
		<path class="st2" d="M596.3,194.9v18.5c0,4.9-1.3,8.9-3.9,11.7c-2.6,2.9-6.1,4.3-10.5,4.3s-7.9-1.4-10.5-4.3
			c-2.6-2.9-3.9-6.8-3.9-11.7v-18.5h6.1v19.6c0,2.7,0.8,4.9,2.4,6.5c1.6,1.7,3.6,2.5,6,2.5c2.5,0,4.5-0.8,6-2.5
			c1.6-1.7,2.3-3.9,2.3-6.5v-19.6H596.3"/>
	</g>
	<g>
		<path class="st2" d="M603.7,228.9v-18.5c0-4.9,1.3-8.9,3.9-11.7c2.6-2.9,6.1-4.3,10.5-4.3s7.9,1.4,10.5,4.3
			c2.6,2.9,3.9,6.8,3.9,11.7v18.5h-6v-19.6c0-2.7-0.8-4.8-2.3-6.5c-1.6-1.7-3.6-2.5-6-2.5s-4.4,0.8-6,2.5s-2.4,3.9-2.4,6.5v19.6
			H603.7"/>
	</g>
	<g>
		<path class="st2" d="M640.3,182.2c0-1,0.4-1.9,1.1-2.6c0.7-0.7,1.6-1.1,2.6-1.1s1.9,0.4,2.6,1.1c0.7,0.7,1.1,1.6,1.1,2.6
			c0,1.1-0.3,1.9-1.1,2.7c-0.7,0.7-1.6,1.1-2.6,1.1s-1.9-0.4-2.6-1.1C640.6,184.1,640.3,183.3,640.3,182.2 M647,228.9h-6.1V195h6.1
			V228.9z"/>
	</g>
	<g>
		<polygon class="st2" points="673.5,228.9 673.5,185.4 655.2,185.4 655.2,179.3 737.2,179.3 737.2,185.4 680.1,185.4 680.1,228.9 
					"/>
	</g>
	<g>
		<path class="st2" d="M737.1,194.9v19.6c0,4.6-1.2,8.3-3.6,10.9c-2.4,2.7-5.7,4-9.7,4c-2.1,0-4.1-0.4-5.8-1.3
			c-1.8-0.9-3.3-2.2-4.6-3.9c-1.4,1.7-2.9,3-4.7,3.9s-3.7,1.3-5.7,1.3c-4.1,0-7.3-1.3-9.8-4c-2.4-2.7-3.6-6.3-3.6-10.9v-19.6h6.1
			v20.7c0,2.4,0.7,4.3,2,5.8s3.1,2.2,5.3,2.2s4-0.7,5.3-2.2c1.4-1.5,2.1-3.4,2.1-5.8v-20.7h6v20.7c0,2.4,0.7,4.3,2,5.8
			c1.4,1.5,3.1,2.2,5.3,2.2s3.9-0.7,5.3-2.2c1.4-1.5,2.1-3.4,2.1-5.8v-20.7H737.1"/>
	</g>
	<g>
		<path class="st2" d="M744.5,182.2c0-1,0.4-1.9,1.1-2.6c0.7-0.7,1.6-1.1,2.6-1.1s1.9,0.4,2.6,1.1c0.7,0.7,1.1,1.6,1.1,2.6
			c0,1.1-0.4,1.9-1.1,2.7c-0.7,0.7-1.6,1.1-2.6,1.1s-1.9-0.4-2.6-1.1C744.8,184.1,744.5,183.3,744.5,182.2 M751.2,228.9h-6.1V195
			h6.1V228.9z"/>
	</g>
	<path class="st2" d="M759,228.9v-18.5c0-4.9,1.3-8.9,3.9-11.7c2.6-2.9,6.1-4.3,10.5-4.3s7.9,1.4,10.5,4.3c2.6,2.9,3.9,6.8,3.9,11.7
		v18.5h-6v-19.6c0-2.7-0.8-4.8-2.3-6.5c-1.6-1.7-3.6-2.5-6-2.5s-4.4,0.8-6,2.5s-2.4,3.9-2.4,6.5v19.6H759"/>
</g>
<g>
	<path d="M584.6,365.3h3.6V381c0,2.7-0.3,4.9-0.9,6.5c-0.6,1.6-1.7,2.9-3.3,3.9s-3.7,1.5-6.3,1.5c-2.5,0-4.6-0.4-6.2-1.3
		c-1.6-0.9-2.8-2.1-3.5-3.8c-0.7-1.7-1-3.9-1-6.8v-15.7h3.6v15.6c0,2.4,0.2,4.1,0.7,5.2c0.4,1.1,1.2,2,2.3,2.6s2.4,0.9,3.9,0.9
		c2.6,0,4.5-0.6,5.6-1.8c1.1-1.2,1.7-3.5,1.7-6.9v-15.6H584.6z"/>
	<path d="M594.1,392.4v-27.1h3.7l14.2,21.3v-21.3h3.4v27.1h-3.7l-14.2-21.3v21.3H594.1z"/>
	<path d="M621.6,392.4v-27.1h19.6v3.2h-16v8.3h15v3.2h-15v9.2h16.6v3.2L621.6,392.4L621.6,392.4z"/>
	<path d="M645.6,383.7l3.4-0.3c0.2,1.4,0.5,2.5,1.1,3.3c0.6,0.9,1.5,1.6,2.7,2.1s2.6,0.8,4.2,0.8c1.4,0,2.6-0.2,3.6-0.6
		s1.8-1,2.3-1.7s0.8-1.5,0.8-2.3c0-0.9-0.2-1.6-0.7-2.2s-1.3-1.2-2.4-1.6c-0.7-0.3-2.3-0.7-4.8-1.3c-2.5-0.6-4.2-1.2-5.2-1.7
		c-1.3-0.7-2.3-1.5-2.9-2.5c-0.6-1-1-2.1-1-3.4c0-1.4,0.4-2.6,1.2-3.8c0.8-1.2,1.9-2.1,3.4-2.7s3.2-0.9,5-0.9c2,0,3.8,0.3,5.3,1
		c1.5,0.6,2.7,1.6,3.5,2.9s1.3,2.7,1.3,4.3l-3.4,0.3c-0.2-1.7-0.8-3-1.9-3.9s-2.6-1.3-4.7-1.3c-2.2,0-3.8,0.4-4.7,1.2
		c-1,0.8-1.5,1.8-1.5,2.9c0,1,0.4,1.8,1.1,2.4c0.7,0.6,2.5,1.3,5.4,1.9c2.9,0.7,4.9,1.2,6,1.7c1.6,0.7,2.7,1.6,3.5,2.8
		s1.1,2.4,1.1,3.9c0,1.4-0.4,2.8-1.2,4.1s-2,2.3-3.6,3s-3.3,1.1-5.2,1.1c-2.5,0-4.5-0.4-6.2-1.1s-3-1.8-3.9-3.2
		S645.6,385.5,645.6,383.7z"/>
	<path d="M691.4,382.9l3.6,0.9c-0.8,2.9-2.1,5.2-4.1,6.7s-4.3,2.3-7.2,2.3s-5.3-0.6-7.1-1.8c-1.8-1.2-3.2-2.9-4.2-5.2
		c-1-2.3-1.4-4.7-1.4-7.3c0-2.8,0.5-5.3,1.6-7.4s2.6-3.7,4.6-4.8c2-1.1,4.2-1.6,6.6-1.6c2.7,0,5,0.7,6.8,2.1s3.1,3.3,3.9,5.8
		l-3.5,0.9c-0.6-2-1.5-3.4-2.7-4.3s-2.7-1.4-4.5-1.4c-2.1,0-3.8,0.5-5.2,1.5s-2.4,2.3-3,4s-0.9,3.4-0.9,5.2c0,2.3,0.3,4.3,1,6
		s1.7,3,3.1,3.9c1.4,0.9,3,1.3,4.6,1.3c2,0,3.7-0.6,5.1-1.7C690,386.9,690.9,385.2,691.4,382.9z"/>
	<path d="M698.3,379.2c0-4.5,1.2-8,3.6-10.6c2.4-2.5,5.5-3.8,9.4-3.8c2.5,0,4.8,0.6,6.8,1.8c2,1.2,3.5,2.9,4.6,5s1.6,4.6,1.6,7.3
		c0,2.8-0.6,5.2-1.7,7.4c-1.1,2.2-2.7,3.8-4.7,4.9s-4.2,1.7-6.6,1.7c-2.6,0-4.8-0.6-6.8-1.9c-2-1.2-3.5-2.9-4.6-5
		C698.8,383.8,698.3,381.6,698.3,379.2z M702,379.2c0,3.3,0.9,5.8,2.6,7.7c1.8,1.9,4,2.8,6.6,2.8c2.7,0,4.9-0.9,6.7-2.8
		c1.7-1.9,2.6-4.6,2.6-8.1c0-2.2-0.4-4.1-1.1-5.8c-0.7-1.6-1.8-2.9-3.3-3.8c-1.4-0.9-3-1.4-4.8-1.4c-2.5,0-4.7,0.9-6.6,2.6
		C702.9,372.2,702,375.2,702,379.2z"/>
	<path d="M758.7,382.9l3.6,0.9c-0.8,2.9-2.1,5.2-4.1,6.7s-4.3,2.3-7.2,2.3s-5.3-0.6-7.1-1.8c-1.8-1.2-3.2-2.9-4.2-5.2
		c-1-2.3-1.4-4.7-1.4-7.3c0-2.8,0.5-5.3,1.6-7.4s2.6-3.7,4.6-4.8c2-1.1,4.2-1.6,6.6-1.6c2.7,0,5,0.7,6.8,2.1s3.1,3.3,3.9,5.8
		l-3.5,0.8c-0.6-2-1.5-3.4-2.7-4.3s-2.7-1.4-4.5-1.4c-2.1,0-3.8,0.5-5.2,1.5s-2.4,2.3-3,4s-0.9,3.4-0.9,5.2c0,2.3,0.3,4.3,1,6
		s1.7,3,3.1,3.9c1.4,0.9,3,1.3,4.6,1.3c2,0,3.7-0.6,5.1-1.7C757.3,386.9,758.2,385.2,758.7,382.9z"/>
	<path d="M766.3,392.4v-27.1h3.3v9.7c1.6-1.8,3.5-2.7,5.9-2.7c1.5,0,2.7,0.3,3.8,0.9s1.8,1.4,2.3,2.4s0.7,2.5,0.7,4.4v12.4H779V380
		c0-1.7-0.4-2.9-1.1-3.6c-0.7-0.8-1.7-1.1-3.1-1.1c-1,0-1.9,0.3-2.8,0.8c-0.9,0.5-1.5,1.2-1.9,2.1s-0.6,2.1-0.6,3.6v10.7
		L766.3,392.4L766.3,392.4z"/>
	<path d="M800.2,390c-1.2,1-2.4,1.8-3.6,2.2s-2.4,0.6-3.7,0.6c-2.2,0-3.8-0.5-5-1.6s-1.7-2.4-1.7-4c0-1,0.2-1.8,0.7-2.6
		c0.4-0.8,1-1.4,1.7-1.9s1.5-0.8,2.4-1.1c0.7-0.2,1.6-0.3,3-0.5c2.7-0.3,4.7-0.7,5.9-1.1c0-0.5,0-0.7,0-0.9c0-1.4-0.3-2.3-0.9-2.9
		c-0.9-0.8-2.1-1.1-3.8-1.1c-1.6,0-2.7,0.3-3.5,0.8s-1.3,1.5-1.7,2.9l-3.3-0.4c0.3-1.4,0.8-2.5,1.5-3.4s1.7-1.5,2.9-2
		c1.3-0.5,2.8-0.7,4.5-0.7s3,0.2,4.1,0.6s1.8,0.9,2.3,1.5s0.8,1.4,1,2.3c0.1,0.6,0.2,1.6,0.2,3.1v4.4c0,3.1,0.1,5.1,0.2,5.9
		c0.1,0.8,0.4,1.6,0.8,2.4h-3.5C800.5,391.7,800.3,390.9,800.2,390z M799.9,382.5c-1.2,0.5-3,0.9-5.4,1.3c-1.4,0.2-2.3,0.4-2.9,0.7
		c-0.6,0.2-1,0.6-1.3,1.1s-0.5,1-0.5,1.6c0,0.9,0.3,1.6,1,2.2s1.7,0.9,3,0.9s2.4-0.3,3.4-0.8c1-0.6,1.7-1.3,2.2-2.3
		c0.4-0.8,0.5-1.9,0.5-3.3V382.5z"/>
	<path d="M808.5,369.1v-3.8h3.3v3.8H808.5z M808.5,392.4v-19.6h3.3v19.6H808.5z"/>
	<path d="M816.8,392.4v-19.6h3v3c0.8-1.4,1.5-2.3,2.1-2.8c0.6-0.4,1.4-0.7,2.1-0.7c1.1,0,2.3,0.4,3.4,1.1l-1.1,3.1
		c-0.8-0.5-1.6-0.7-2.4-0.7c-0.7,0-1.4,0.2-2,0.7c-0.6,0.4-1,1-1.2,1.8c-0.4,1.2-0.6,2.5-0.6,3.9v10.3L816.8,392.4L816.8,392.4z"/>
	<path d="M566.4,410.4v-3.9h3.3v3.8h-3.3V410.4z M566.4,433.6V414h3.3v19.6H566.4z"/>
	<path d="M574.8,433.6V414h3v2.8c1.4-2.2,3.5-3.2,6.3-3.2c1.2,0,2.3,0.2,3.3,0.6s1.7,1,2.2,1.7s0.8,1.5,1,2.5
		c0.1,0.6,0.2,1.7,0.2,3.2v12.1h-3.3v-11.9c0-1.4-0.1-2.4-0.4-3c-0.3-0.7-0.7-1.2-1.4-1.6s-1.4-0.6-2.3-0.6c-1.4,0-2.6,0.5-3.7,1.4
		s-1.5,2.6-1.5,5.1v10.7h-3.4V433.6z"/>
	<path d="M624.6,406.5h3.6v15.7c0,2.7-0.3,4.9-0.9,6.5c-0.6,1.6-1.7,2.9-3.3,3.9s-3.7,1.5-6.3,1.5c-2.5,0-4.6-0.4-6.2-1.3
		c-1.6-0.9-2.8-2.1-3.5-3.8c-0.7-1.7-1-3.9-1-6.8v-15.7h3.6v15.6c0,2.4,0.2,4.1,0.7,5.2c0.4,1.1,1.2,2,2.3,2.6s2.4,0.9,3.9,0.9
		c2.6,0,4.5-0.6,5.6-1.8c1.1-1.2,1.7-3.5,1.7-6.9v-15.6H624.6z"/>
	<path d="M633.7,433.6V414h3v3c0.8-1.4,1.5-2.3,2.1-2.8c0.6-0.4,1.4-0.7,2.1-0.7c1.1,0,2.3,0.4,3.4,1.1l-1.1,3.1
		c-0.8-0.5-1.6-0.7-2.4-0.7c-0.7,0-1.4,0.2-2,0.7c-0.6,0.4-1,1-1.2,1.8c-0.4,1.2-0.6,2.5-0.6,3.9v10.3L633.7,433.6L633.7,433.6z"/>
	<path d="M649.4,433.6h-3.1v-27.1h3.3v9.7c1.4-1.8,3.2-2.6,5.4-2.6c1.2,0,2.4,0.2,3.4,0.7s2,1.2,2.7,2.1s1.2,1.9,1.6,3.2
		c0.4,1.2,0.6,2.6,0.6,4c0,3.4-0.8,6-2.5,7.8s-3.7,2.8-6,2.8s-4.1-1-5.5-2.9L649.4,433.6L649.4,433.6z M649.4,423.7
		c0,2.4,0.3,4.1,1,5.1c1,1.7,2.5,2.6,4.3,2.6c1.5,0,2.7-0.6,3.8-1.9s1.6-3.1,1.6-5.7s-0.5-4.5-1.5-5.7s-2.2-1.8-3.7-1.8
		s-2.7,0.6-3.8,1.9C649.9,419.5,649.4,421.3,649.4,423.7z"/>
	<path d="M680.2,431.2c-1.2,1-2.4,1.8-3.6,2.2s-2.4,0.6-3.7,0.6c-2.2,0-3.8-0.5-5-1.6s-1.7-2.4-1.7-4c0-1,0.2-1.8,0.7-2.6
		c0.4-0.8,1-1.4,1.7-1.9s1.5-0.8,2.4-1.1c0.7-0.2,1.6-0.3,3-0.5c2.7-0.3,4.7-0.7,5.9-1.1c0-0.5,0-0.7,0-0.9c0-1.4-0.3-2.3-0.9-2.9
		c-0.9-0.8-2.1-1.1-3.8-1.1c-1.6,0-2.7,0.3-3.5,0.8s-1.3,1.5-1.7,2.9l-3.3-0.4c0.3-1.4,0.8-2.5,1.5-3.4s1.7-1.5,2.9-2
		c1.3-0.5,2.8-0.7,4.5-0.7s3,0.2,4.1,0.6s1.8,0.9,2.3,1.5s0.8,1.4,1,2.3c0.1,0.6,0.2,1.6,0.2,3.1v4.4c0,3.1,0.1,5.1,0.2,5.9
		c0.1,0.8,0.4,1.6,0.8,2.4h-3.5C680.6,433,680.3,432.1,680.2,431.2z M680,423.8c-1.2,0.5-3,0.9-5.4,1.3c-1.4,0.2-2.3,0.4-2.9,0.7
		c-0.6,0.2-1,0.6-1.3,1.1s-0.5,1-0.5,1.6c0,0.9,0.3,1.6,1,2.2s1.7,0.9,3,0.9s2.4-0.3,3.4-0.8c1-0.6,1.7-1.3,2.2-2.3
		c0.4-0.8,0.5-1.9,0.5-3.3V423.8z"/>
	<path d="M688.5,433.6V414h3v2.8c1.4-2.2,3.5-3.2,6.3-3.2c1.2,0,2.3,0.2,3.3,0.6s1.7,1,2.2,1.7s0.8,1.5,1,2.5
		c0.1,0.6,0.2,1.7,0.2,3.2v12.1h-3.3v-11.9c0-1.4-0.1-2.4-0.4-3c-0.3-0.7-0.7-1.2-1.4-1.6s-1.4-0.6-2.3-0.6c-1.4,0-2.6,0.5-3.7,1.4
		s-1.5,2.6-1.5,5.1v10.7h-3.4V433.6z"/>
	<path d="M720.4,433.6v-27.1h3.6v23.9h13.4v3.2H720.4z"/>
	<path d="M754,431.2c-1.2,1-2.4,1.8-3.6,2.2s-2.4,0.6-3.7,0.6c-2.2,0-3.8-0.5-5-1.6s-1.7-2.4-1.7-4c0-1,0.2-1.8,0.7-2.6
		c0.4-0.8,1-1.4,1.7-1.9s1.5-0.8,2.4-1.1c0.7-0.2,1.6-0.3,3-0.5c2.7-0.3,4.7-0.7,5.9-1.1c0-0.5,0-0.7,0-0.9c0-1.4-0.3-2.3-0.9-2.9
		c-0.9-0.8-2.1-1.1-3.8-1.1c-1.6,0-2.7,0.3-3.5,0.8s-1.3,1.5-1.7,2.9l-3.3-0.4c0.3-1.4,0.8-2.5,1.5-3.4s1.7-1.5,2.9-2
		c1.3-0.5,2.8-0.7,4.5-0.7s3,0.2,4.1,0.6s1.8,0.9,2.3,1.5s0.8,1.4,1,2.3c0.1,0.6,0.2,1.6,0.2,3.1v4.4c0,3.1,0.1,5.1,0.2,5.9
		c0.1,0.8,0.4,1.6,0.8,2.4h-3.5C754.3,433,754.1,432.1,754,431.2z M753.7,423.8c-1.2,0.5-3,0.9-5.4,1.3c-1.4,0.2-2.3,0.4-2.9,0.7
		c-0.6,0.2-1,0.6-1.3,1.1s-0.5,1-0.5,1.6c0,0.9,0.3,1.6,1,2.2s1.7,0.9,3,0.9s2.4-0.3,3.4-0.8c1-0.6,1.7-1.3,2.2-2.3
		c0.4-0.8,0.5-1.9,0.5-3.3V423.8z"/>
	<path d="M762.2,433.6V414h3v2.8c1.4-2.2,3.5-3.2,6.3-3.2c1.2,0,2.3,0.2,3.3,0.6s1.7,1,2.2,1.7s0.8,1.5,1,2.5
		c0.1,0.6,0.2,1.7,0.2,3.2v12.1h-3.3v-11.9c0-1.4-0.1-2.4-0.4-3c-0.3-0.7-0.7-1.2-1.4-1.6s-1.4-0.6-2.3-0.6c-1.4,0-2.6,0.5-3.7,1.4
		s-1.5,2.6-1.5,5.1v10.7h-3.4V433.6z"/>
	<path d="M796,433.6v-2.5c-1.2,1.9-3.1,2.9-5.5,2.9c-1.6,0-3-0.4-4.3-1.3s-2.3-2.1-3.1-3.6c-0.7-1.5-1.1-3.3-1.1-5.3s0.3-3.7,1-5.3
		c0.7-1.6,1.6-2.8,2.9-3.7c1.3-0.9,2.8-1.3,4.4-1.3c1.2,0,2.2,0.3,3.2,0.8c0.9,0.5,1.7,1.1,2.3,2v-9.8h3.3v27.1H796z M785.5,423.8
		c0,2.5,0.5,4.4,1.6,5.6s2.3,1.9,3.8,1.9s2.7-0.6,3.7-1.8c1-1.2,1.5-3,1.5-5.4c0-2.7-0.5-4.7-1.6-5.9c-1-1.3-2.3-1.9-3.8-1.9
		s-2.7,0.6-3.7,1.8S785.5,421.2,785.5,423.8z"/>
	<path d="M803,427.8l3.3-0.5c0.2,1.3,0.7,2.3,1.5,3s2,1.1,3.5,1.1s2.7-0.3,3.4-0.9s1.1-1.4,1.1-2.2c0-0.8-0.3-1.3-1-1.8
		c-0.5-0.3-1.6-0.7-3.4-1.1c-2.4-0.6-4.1-1.1-5.1-1.6s-1.7-1.1-2.1-1.9c-0.5-0.8-0.7-1.7-0.7-2.6s0.2-1.7,0.6-2.4s0.9-1.4,1.6-1.9
		c0.5-0.4,1.2-0.7,2.1-1c0.9-0.3,1.9-0.4,2.9-0.4c1.5,0,2.9,0.2,4.1,0.7c1.2,0.4,2,1,2.6,1.8s0.9,1.8,1.1,3l-3.3,0.4
		c-0.1-1-0.6-1.8-1.3-2.4s-1.7-0.9-3-0.9c-1.5,0-2.6,0.3-3.3,0.8s-1,1.1-1,1.8c0,0.4,0.1,0.8,0.4,1.2c0.3,0.4,0.7,0.7,1.3,0.9
		c0.3,0.1,1.3,0.4,2.9,0.9c2.4,0.6,4,1.1,4.9,1.5s1.7,1,2.2,1.7s0.8,1.7,0.8,2.8c0,1.1-0.3,2.2-1,3.1s-1.6,1.7-2.8,2.3
		c-1.2,0.5-2.6,0.8-4.1,0.8c-2.6,0-4.5-0.5-5.8-1.6C804.2,431.4,803.4,429.9,803,427.8z"/>
	<path d="M836.1,426.4l3.3,0.4c-0.4,2.3-1.3,4-2.7,5.3c-1.5,1.3-3.3,1.9-5.4,1.9c-2.7,0-4.8-0.9-6.5-2.6c-1.6-1.8-2.5-4.3-2.5-7.6
		c0-2.1,0.4-4,1.1-5.6s1.8-2.8,3.2-3.6c1.4-0.8,3-1.2,4.7-1.2c2.1,0,3.9,0.5,5.2,1.6c1.4,1.1,2.2,2.6,2.6,4.6l-3.2,0.5
		c-0.3-1.3-0.9-2.3-1.6-3s-1.7-1-2.8-1c-1.7,0-3,0.6-4.1,1.8c-1,1.2-1.6,3.1-1.6,5.7s0.5,4.6,1.5,5.8c1,1.2,2.3,1.8,4,1.8
		c1.3,0,2.4-0.4,3.3-1.2C835.3,429.3,835.9,428.1,836.1,426.4z"/>
	<path d="M855.1,431.2c-1.2,1-2.4,1.8-3.6,2.2s-2.4,0.6-3.7,0.6c-2.2,0-3.8-0.5-5-1.6s-1.7-2.4-1.7-4c0-1,0.2-1.8,0.7-2.6
		c0.4-0.8,1-1.4,1.7-1.9s1.5-0.8,2.4-1.1c0.7-0.2,1.6-0.3,3-0.5c2.7-0.3,4.7-0.7,5.9-1.1c0-0.5,0-0.7,0-0.9c0-1.4-0.3-2.3-0.9-2.9
		c-0.9-0.8-2.1-1.1-3.8-1.1c-1.6,0-2.7,0.3-3.5,0.8s-1.3,1.5-1.7,2.9l-3.3-0.4c0.3-1.4,0.8-2.5,1.5-3.4s1.7-1.5,2.9-2
		c1.3-0.5,2.8-0.7,4.5-0.7s3,0.2,4.1,0.6s1.8,0.9,2.3,1.5s0.8,1.4,1,2.3c0.1,0.6,0.2,1.6,0.2,3.1v4.4c0,3.1,0.1,5.1,0.2,5.9
		c0.1,0.8,0.4,1.6,0.8,2.4h-3.5C855.4,433,855.2,432.1,855.1,431.2z M854.8,423.8c-1.2,0.5-3,0.9-5.4,1.3c-1.4,0.2-2.3,0.4-2.9,0.7
		c-0.6,0.2-1,0.6-1.3,1.1s-0.5,1-0.5,1.6c0,0.9,0.3,1.6,1,2.2s1.7,0.9,3,0.9s2.4-0.3,3.4-0.8c1-0.6,1.7-1.3,2.2-2.3
		c0.4-0.8,0.5-1.9,0.5-3.3V423.8z"/>
	<path d="M863.3,441.2V414h3v2.6c0.7-1,1.5-1.7,2.4-2.2s2-0.8,3.3-0.8c1.7,0,3.2,0.4,4.4,1.3c1.3,0.9,2.3,2.1,2.9,3.7
		c0.7,1.6,1,3.3,1,5.2c0,2-0.4,3.8-1.1,5.4s-1.8,2.8-3.1,3.7c-1.4,0.9-2.8,1.3-4.3,1.3c-1.1,0-2.1-0.2-3-0.7s-1.6-1.1-2.2-1.8v9.6
		h-3.3V441.2z M866.3,423.9c0,2.5,0.5,4.4,1.5,5.6s2.3,1.8,3.7,1.8c1.5,0,2.7-0.6,3.8-1.9s1.6-3.2,1.6-5.8c0-2.5-0.5-4.4-1.5-5.6
		s-2.3-1.9-3.7-1.9s-2.7,0.7-3.8,2C866.9,419.5,866.3,421.4,866.3,423.9z"/>
	<path d="M897.8,427.3l3.4,0.4c-0.5,2-1.5,3.6-3,4.7s-3.3,1.7-5.6,1.7c-2.9,0-5.2-0.9-6.8-2.7c-1.7-1.8-2.5-4.3-2.5-7.4
		c0-3.3,0.9-5.9,2.6-7.7c1.7-1.8,3.9-2.7,6.6-2.7c2.6,0,4.8,0.9,6.4,2.7c1.7,1.8,2.5,4.3,2.5,7.5c0,0.2,0,0.5,0,0.9h-14.7
		c0.1,2.2,0.7,3.8,1.8,5c1.1,1.1,2.5,1.7,4.1,1.7c1.2,0,2.3-0.3,3.1-1C896.6,429.7,897.3,428.7,897.8,427.3z M886.9,421.9h11
		c-0.1-1.7-0.6-2.9-1.3-3.7c-1.1-1.3-2.4-1.9-4.1-1.9c-1.5,0-2.8,0.5-3.9,1.5S887,420.2,886.9,421.9z"/>
</g>
<path d="M523.5,58.3c0,2.2-1.8,4-4,4s-4-1.8-4-4s1.8-4,4-4C521.6,54.3,523.5,56.1,523.5,58.3"/>
<path d="M523.5,72.7c0,2.2-1.8,4-4,4s-4-1.8-4-4c0-2.2,1.8-4,4-4C521.6,68.7,523.5,70.5,523.5,72.7"/>
<path d="M523.5,88.3c0,2.2-1.8,4-4,4s-4-1.8-4-4s1.8-4,4-4C521.6,84.2,523.5,86.1,523.5,88.3"/>
<path d="M523.5,103.9c0,2.2-1.8,4-4,4s-4-1.8-4-4s1.8-4,4-4C521.6,99.8,523.5,101.7,523.5,103.9"/>
<path d="M523.5,120.7c0,2.2-1.8,4-4,4s-4-1.8-4-4s1.8-4,4-4C521.6,116.6,523.5,118.5,523.5,120.7"/>
<path d="M523.5,137.5c0,2.2-1.8,4-4,4s-4-1.8-4-4s1.8-4,4-4C521.6,133.4,523.5,135.3,523.5,137.5"/>
<path d="M523.5,154.8c0,2.2-1.8,4-4,4s-4-1.8-4-4s1.8-4,4-4C521.6,150.7,523.5,152.5,523.5,154.8"/>
<path d="M523.5,172c0,2.2-1.8,4-4,4s-4-1.8-4-4s1.8-4,4-4C521.6,168,523.5,169.8,523.5,172"/>
<path d="M523.5,190.8c0,2.2-1.8,4-4,4s-4-1.8-4-4s1.8-4,4-4C521.6,186.7,523.5,188.5,523.5,190.8"/>
<path d="M523.5,209.5c0,2.2-1.8,4-4,4s-4-1.8-4-4s1.8-4,4-4C521.6,205.4,523.5,207.2,523.5,209.5"/>
<path d="M523.5,229.2c0,2.2-1.8,4-4,4s-4-1.8-4-4s1.8-4,4-4C521.6,225.1,523.5,226.9,523.5,229.2"/>
<path d="M523.5,249.3c0,2.2-1.8,4-4,4s-4-1.8-4-4s1.8-4,4-4C521.6,245.3,523.5,247.1,523.5,249.3"/>
<path d="M523.5,270.4c0,2.2-1.8,4-4,4s-4-1.8-4-4s1.8-4,4-4C521.6,266.4,523.5,268.2,523.5,270.4"/>
<path d="M523.5,294.4c0,2.2-1.8,4-4,4s-4-1.8-4-4s1.8-4,4-4C521.6,290.4,523.5,292.2,523.5,294.4"/>
<path d="M523.5,320.8c0,2.2-1.8,4-4,4s-4-1.8-4-4s1.8-4,4-4C521.6,316.8,523.5,318.6,523.5,320.8"/>
<path d="M523.5,352c0,2.2-1.8,4-4,4s-4-1.8-4-4s1.8-4,4-4C521.6,348,523.5,349.8,523.5,352"/>
<path d="M523.5,385.6c0,2.2-1.8,4-4,4s-4-1.8-4-4s1.8-4,4-4C521.6,381.6,523.5,383.4,523.5,385.6"/>
<path d="M523.5,424c0,2.2-1.8,4-4,4s-4-1.8-4-4s1.8-4,4-4C521.6,419.9,523.5,421.8,523.5,424"/>
<path d="M523.5,467.2c0,2.2-1.8,4-4,4s-4-1.8-4-4s1.8-4.1,4-4.1C521.6,463.2,523.5,465,523.5,467.2"/>
<path d="M523.5,515.2c0,2.2-1.8,4-4,4s-4-1.8-4-4s1.8-4.1,4-4.1C521.6,511.2,523.5,513,523.5,515.2"/>
<rect x="213.1" y="277.6" width="237.4" height="10"/>
<rect x="199.6" y="294.5" width="263.8" height="10"/>
<rect x="187.2" y="311.4" width="289.2" height="10"/>
<rect x="213.1" y="152.1" width="237.4" height="10"/>
<polygon points="261.1,145.7 331.8,124.5 401,145.7 429.8,145.7 331.8,115.3 232.2,145.7 "/>
<polygon points="213.1,145.7 331,109.6 450.5,145.7 450.5,135 331.8,98.4 213.1,135 "/>
<path d="M227,264.7c0,0,0,7.5,8.5,7.5s8-7.5,8-7.5v-96.6h-6.2v96.8c0,0,0,1.7-2.2,1.7s-1.7-2.2-1.7-2.2v-96.3H227V264.7z"/>
<polygon points="266.1,272.1 271,272.1 271,209.6 277.3,272.1 282.5,272.1 282.5,168.1 277.3,168.1 277.3,223.7 271,168.1 
	266.1,168.1 "/>
<polygon points="305.6,272.1 321.6,272.1 321.6,266.6 312.6,266.6 312.6,219.6 319.3,219.6 319.3,213.9 312.6,213.9 312.6,173.3 
	319.3,173.3 319.3,168.1 305.6,168.1 "/>
<path d="M397.2,199v-23.4c0,0-0.2-7.5-8.2-7.5s-8,7.5-8,7.5v89.1c0,0-0.3,7.5,8,7.5c8.2,0,8.2-7.5,8.2-7.5v-26.2H391v26.1
	c0,0,0,2-2,2c-1.9,0-2.2-2-2.2-2v-89.1c0,0,0-2.2,2.2-2.2c2,0,2,2.2,2,2.2v23.4h6.2V199z"/>
<path d="M436.8,175.6c0,0,0.5-7.5-8.2-7.5s-8.7,7.5-8.7,7.5v89.1c0,0,0,7.5,8.2,7.5c8.7,0,8.7-7.5,8.7-7.5V175.6z M430.8,264.7
	c0,0,0.2,2-2.2,2c-2.5,0-2.5-2-2.5-2v-89.1c0,0,0-2.2,2.2-2.2c2.5,0,2.5,2.2,2.5,2.2V264.7z"/>
<path d="M351.7,264.7c0,0,0,2-1.6,1.9c-1.6-0.1-1.6-1.9-1.6-1.9v-26.2H342v26.1c0,0-0.2,7.5,8,7.5s8.2-7.5,8.2-7.5s0-17.4,0-22.5
	c0-12.2-9.7-35.5-9.7-43.2v-23.4c0,0-0.3-2.2,1.5-2.2c1.7,0,1.7,2.2,1.7,2.2v23.4h6.5v-23.4c0,0,0.2-7.7-8-7.5
	c-8.2,0.3-8.2,7.5-8.2,7.5v20c0,13.1,9.7,35.1,9.7,45.2V264.7z"/>
<g class="st3">
	<path d="M251.4,365.4h3.6V381c0,2.7-0.3,4.9-0.9,6.5c-0.6,1.6-1.7,2.9-3.3,3.9s-3.7,1.5-6.3,1.5c-2.5,0-4.6-0.4-6.2-1.3
		c-1.6-0.9-2.8-2.1-3.4-3.8s-1-3.9-1-6.8v-15.6h3.6V381c0,2.3,0.2,4.1,0.7,5.2c0.4,1.1,1.2,2,2.2,2.6c1.1,0.6,2.4,0.9,3.9,0.9
		c2.6,0,4.5-0.6,5.6-1.8c1.1-1.2,1.7-3.5,1.7-6.9C251.4,381,251.4,365.4,251.4,365.4z"/>
	<path d="M260.5,392.4v-19.6h3v2.8c1.4-2.1,3.5-3.2,6.2-3.2c1.2,0,2.3,0.2,3.2,0.6c1,0.4,1.7,1,2.2,1.7s0.8,1.5,1,2.5
		c0.1,0.6,0.2,1.7,0.2,3.2v12H273v-11.9c0-1.4-0.1-2.4-0.4-3c-0.3-0.7-0.7-1.2-1.4-1.6c-0.7-0.4-1.4-0.6-2.3-0.6
		c-1.4,0-2.6,0.4-3.7,1.3c-1,0.9-1.5,2.6-1.5,5.1v10.7H260.5L260.5,392.4z"/>
	<path d="M281.5,369.2v-3.8h3.3v3.8H281.5z M281.5,392.4v-19.6h3.3v19.6H281.5z"/>
	<path d="M297.1,389.4l0.5,2.9c-0.9,0.2-1.8,0.3-2.5,0.3c-1.2,0-2.1-0.2-2.8-0.6c-0.7-0.4-1.1-0.9-1.4-1.5s-0.4-1.9-0.4-3.9v-11.3
		H288v-2.6h2.4v-4.8l3.3-2v6.8h3.3v2.6h-3.3v11.4c0,0.9,0.1,1.6,0.2,1.8c0.1,0.3,0.3,0.5,0.6,0.6c0.3,0.2,0.6,0.2,1.1,0.2
		C296,389.5,296.5,389.5,297.1,389.4z"/>
	<path d="M313.7,386.1l3.4,0.4c-0.5,2-1.5,3.6-3,4.7s-3.3,1.7-5.6,1.7c-2.9,0-5.1-0.9-6.8-2.6c-1.7-1.8-2.5-4.2-2.5-7.4
		c0-3.3,0.8-5.8,2.5-7.7c1.7-1.8,3.9-2.7,6.6-2.7c2.6,0,4.8,0.9,6.4,2.7c1.7,1.8,2.5,4.3,2.5,7.5c0,0.2,0,0.5,0,0.9h-14.6
		c0.1,2.1,0.7,3.8,1.8,4.9c1.1,1.1,2.5,1.7,4.1,1.7c1.2,0,2.3-0.3,3.1-1S313.2,387.5,313.7,386.1z M302.8,380.7h10.9
		c-0.1-1.6-0.6-2.9-1.3-3.7c-1.1-1.3-2.4-1.9-4.1-1.9c-1.5,0-2.8,0.5-3.8,1.5C303.5,377.7,303,379,302.8,380.7z"/>
	<path d="M334,392.4v-2.5c-1.2,1.9-3.1,2.9-5.5,2.9c-1.6,0-3-0.4-4.3-1.3s-2.3-2.1-3-3.6s-1.1-3.3-1.1-5.3s0.3-3.7,1-5.3
		s1.6-2.8,2.9-3.7c1.3-0.8,2.8-1.3,4.4-1.3c1.2,0,2.2,0.2,3.1,0.7s1.7,1.1,2.2,1.9v-9.7h3.3v27C337.1,392.4,334,392.4,334,392.4z
		 M323.5,382.6c0,2.5,0.5,4.4,1.6,5.6s2.3,1.9,3.7,1.9c1.4,0,2.7-0.6,3.7-1.8c1-1.2,1.5-3,1.5-5.4c0-2.7-0.5-4.6-1.5-5.9
		s-2.3-1.9-3.8-1.9s-2.7,0.6-3.7,1.8C324,378.1,323.5,380,323.5,382.6z"/>
	<path d="M353.2,392.4v-27h3.7l14.2,21.2v-21.2h3.4v27h-3.7l-14.2-21.2v21.2H353.2z"/>
	<path d="M392.8,390c-1.2,1-2.4,1.8-3.5,2.2c-1.1,0.4-2.4,0.6-3.7,0.6c-2.1,0-3.8-0.5-5-1.6s-1.7-2.4-1.7-4c0-1,0.2-1.8,0.7-2.6
		c0.4-0.8,1-1.4,1.7-1.9s1.5-0.8,2.4-1.1c0.7-0.2,1.6-0.3,2.9-0.5c2.7-0.3,4.6-0.7,5.9-1.1c0-0.5,0-0.7,0-0.9c0-1.4-0.3-2.3-0.9-2.9
		c-0.8-0.8-2.1-1.1-3.8-1.1c-1.6,0-2.7,0.3-3.5,0.8c-0.7,0.5-1.3,1.5-1.6,2.9l-3.2-0.4c0.3-1.4,0.8-2.5,1.5-3.4s1.6-1.5,2.9-2
		s2.8-0.7,4.4-0.7c1.7,0,3,0.2,4.1,0.6s1.8,0.9,2.3,1.5s0.8,1.3,1,2.3c0.1,0.6,0.2,1.6,0.2,3.1v4.4c0,3.1,0.1,5,0.2,5.8
		s0.4,1.6,0.8,2.3h-3.5C393.1,391.7,392.9,390.9,392.8,390z M392.5,382.6c-1.2,0.5-3,0.9-5.4,1.3c-1.4,0.2-2.3,0.4-2.9,0.7
		c-0.6,0.2-1,0.6-1.3,1.1s-0.5,1-0.5,1.6c0,0.9,0.3,1.6,1,2.2s1.6,0.9,2.9,0.9s2.4-0.3,3.4-0.8s1.7-1.3,2.2-2.3
		c0.4-0.8,0.5-1.9,0.5-3.3L392.5,382.6L392.5,382.6z"/>
	<path d="M408.2,389.4l0.5,2.9c-0.9,0.2-1.8,0.3-2.5,0.3c-1.2,0-2.1-0.2-2.8-0.6c-0.7-0.4-1.1-0.9-1.4-1.5s-0.4-1.9-0.4-3.9v-11.3
		h-2.4v-2.6h2.4v-4.8l3.3-2v6.8h3.3v2.6h-3.3v11.4c0,0.9,0.1,1.6,0.2,1.8c0.1,0.3,0.3,0.5,0.6,0.6c0.3,0.2,0.6,0.2,1.1,0.2
		C407.1,389.5,407.6,389.5,408.2,389.4z"/>
	<path d="M411.5,369.2v-3.8h3.3v3.8H411.5z M411.5,392.4v-19.6h3.3v19.6H411.5z"/>
	<path d="M418.6,382.6c0-3.6,1-6.3,3-8c1.7-1.5,3.7-2.2,6.2-2.2c2.7,0,4.9,0.9,6.6,2.6s2.6,4.2,2.6,7.3c0,2.5-0.4,4.5-1.1,5.9
		c-0.8,1.4-1.9,2.6-3.3,3.4s-3,1.2-4.7,1.2c-2.7,0-5-0.9-6.6-2.6C419.4,388.4,418.6,385.9,418.6,382.6z M422,382.6
		c0,2.5,0.5,4.4,1.6,5.6s2.5,1.9,4.1,1.9s3-0.6,4.1-1.9s1.6-3.2,1.6-5.7c0-2.4-0.5-4.2-1.6-5.5c-1.1-1.2-2.5-1.9-4.1-1.9
		c-1.7,0-3,0.6-4.1,1.9S422,380.1,422,382.6z"/>
	<path d="M440.8,392.4v-19.6h3v2.8c1.4-2.1,3.5-3.2,6.2-3.2c1.2,0,2.3,0.2,3.2,0.6c1,0.4,1.7,1,2.2,1.7s0.8,1.5,1,2.5
		c0.1,0.6,0.2,1.7,0.2,3.2v12h-3.3v-11.9c0-1.4-0.1-2.4-0.4-3c-0.3-0.7-0.7-1.2-1.4-1.6c-0.7-0.4-1.4-0.6-2.3-0.6
		c-1.4,0-2.6,0.4-3.7,1.3c-1,0.9-1.5,2.6-1.5,5.1v10.7H440.8L440.8,392.4z"/>
	<path d="M460.4,386.5l3.3-0.5c0.2,1.3,0.7,2.3,1.5,3s2,1.1,3.5,1.1s2.6-0.3,3.4-0.9c0.7-0.6,1.1-1.3,1.1-2.2c0-0.7-0.3-1.3-1-1.8
		c-0.5-0.3-1.6-0.7-3.4-1.1c-2.4-0.6-4.1-1.1-5.1-1.6c-0.9-0.4-1.7-1.1-2.1-1.9c-0.5-0.8-0.7-1.7-0.7-2.6s0.2-1.7,0.6-2.4
		c0.4-0.7,0.9-1.4,1.6-1.9c0.5-0.4,1.2-0.7,2.1-1s1.8-0.4,2.9-0.4c1.5,0,2.9,0.2,4,0.7c1.2,0.4,2,1,2.6,1.8s0.9,1.8,1.1,3l-3.2,0.4
		c-0.1-1-0.6-1.8-1.3-2.4c-0.7-0.6-1.7-0.8-3-0.8c-1.5,0-2.6,0.3-3.3,0.8c-0.7,0.5-1,1.1-1,1.8c0,0.4,0.1,0.8,0.4,1.2
		c0.3,0.4,0.7,0.6,1.3,0.9c0.3,0.1,1.3,0.4,2.9,0.8c2.3,0.6,4,1.1,4.9,1.5s1.7,1,2.2,1.7c0.5,0.8,0.8,1.7,0.8,2.8
		c0,1.1-0.3,2.1-1,3.1c-0.6,1-1.6,1.7-2.8,2.3c-1.2,0.5-2.6,0.8-4.1,0.8c-2.5,0-4.5-0.5-5.8-1.6
		C461.7,390.2,460.8,388.6,460.4,386.5z"/>
</g>
<g class="st3">
	<path d="M38.8,433.5v-27h19.5v3.2H42.4v8.3h14.9v3.2H42.4v9.2H59v3.2L38.8,433.5L38.8,433.5z"/>
	<path d="M76.2,433.5V431c-1.2,1.9-3.1,2.9-5.5,2.9c-1.6,0-3-0.4-4.3-1.3c-1.3-0.9-2.3-2.1-3-3.6s-1.1-3.3-1.1-5.3s0.3-3.7,1-5.3
		s1.6-2.8,2.9-3.7c1.3-0.8,2.8-1.3,4.4-1.3c1.2,0,2.2,0.2,3.1,0.7s1.7,1.1,2.2,1.9v-9.5h3.3v27H76.2z M65.7,423.8
		c0,2.5,0.5,4.4,1.6,5.6c1.1,1.2,2.3,1.9,3.7,1.9s2.7-0.6,3.7-1.8c1-1.2,1.5-3,1.5-5.4c0-2.7-0.5-4.6-1.5-5.9s-2.3-1.9-3.8-1.9
		s-2.7,0.6-3.7,1.8S65.7,421.2,65.7,423.8z"/>
	<path d="M97.3,433.5v-2.9c-1.5,2.2-3.6,3.3-6.2,3.3c-1.2,0-2.2-0.2-3.2-0.7c-1-0.4-1.7-1-2.2-1.7s-0.8-1.5-1-2.5
		c-0.1-0.6-0.2-1.7-0.2-3.1v-12.1h3.3v10.8c0,1.7,0.1,2.9,0.2,3.5c0.2,0.9,0.7,1.6,1.3,2.1c0.7,0.5,1.5,0.7,2.5,0.7s1.9-0.3,2.8-0.8
		s1.5-1.2,1.9-2.1s0.5-2.2,0.5-3.8v-10.5h3.3v19.8H97.3L97.3,433.5z"/>
	<path d="M118.2,426.4l3.3,0.4c-0.4,2.2-1.3,4-2.7,5.3c-1.5,1.3-3.3,1.9-5.4,1.9c-2.7,0-4.8-0.9-6.5-2.6c-1.6-1.7-2.4-4.3-2.4-7.5
		c0-2.1,0.3-4,1-5.5c0.7-1.6,1.8-2.8,3.2-3.6c1.4-0.8,3-1.2,4.7-1.2c2.1,0,3.9,0.5,5.2,1.6c1.4,1.1,2.2,2.6,2.6,4.6l-3.2,0.5
		c-0.3-1.3-0.9-2.3-1.6-3c-0.8-0.7-1.7-1-2.8-1c-1.7,0-3,0.6-4.1,1.8c-1,1.2-1.6,3.1-1.6,5.7s0.5,4.5,1.5,5.7s2.3,1.8,3.9,1.8
		c1.3,0,2.4-0.4,3.3-1.2C117.4,429.2,117.9,428,118.2,426.4z"/>
	<path d="M137,431.1c-1.2,1-2.4,1.8-3.5,2.2c-1.1,0.4-2.4,0.6-3.7,0.6c-2.1,0-3.8-0.5-5-1.6s-1.7-2.4-1.7-4c0-1,0.2-1.8,0.7-2.6
		c0.4-0.8,1-1.4,1.7-1.9s1.5-0.8,2.4-1.1c0.7-0.2,1.6-0.3,2.9-0.5c2.7-0.3,4.6-0.7,5.9-1.1c0-0.5,0-0.7,0-0.9c0-1.4-0.3-2.3-0.9-2.9
		c-0.8-0.8-2.1-1.1-3.8-1.1c-1.6,0-2.7,0.3-3.5,0.8c-0.7,0.5-1.3,1.5-1.6,2.9l-3.2-0.4c0.3-1.4,0.8-2.5,1.5-3.4s1.6-1.5,2.9-2
		s2.8-0.7,4.4-0.7c1.7,0,3,0.2,4.1,0.6s1.8,0.9,2.3,1.5s0.8,1.3,1,2.3c0.1,0.6,0.2,1.6,0.2,3.1v4.4c0,3.1,0.1,5,0.2,5.8
		c0.1,0.8,0.4,1.6,0.8,2.3h-3.5C137.4,432.8,137.1,432,137,431.1z M136.8,423.7c-1.2,0.5-3,0.9-5.4,1.3c-1.4,0.2-2.3,0.4-2.9,0.7
		c-0.6,0.2-1,0.6-1.3,1.1s-0.5,1-0.5,1.6c0,0.9,0.3,1.6,1,2.2s1.6,0.9,2.9,0.9c1.3,0,2.4-0.3,3.4-0.8c1-0.6,1.7-1.3,2.2-2.3
		c0.4-0.8,0.5-1.9,0.5-3.3L136.8,423.7L136.8,423.7z"/>
	<path d="M152.5,430.6l0.5,2.9c-0.9,0.2-1.8,0.3-2.5,0.3c-1.2,0-2.1-0.2-2.8-0.6s-1.1-0.9-1.4-1.5s-0.4-1.9-0.4-3.9v-11.3h-2.4v-2.6
		h2.4v-4.8l3.3-2v6.8h3.3v2.6h-3.3v11.4c0,0.9,0.1,1.6,0.2,1.8c0.1,0.3,0.3,0.5,0.6,0.6c0.3,0.2,0.6,0.2,1.1,0.2
		C151.4,430.7,151.9,430.6,152.5,430.6z"/>
	<path d="M155.7,410.3v-3.8h3.3v3.8H155.7z M155.7,433.5v-19.6h3.3v19.6H155.7z"/>
	<path d="M162.9,423.7c0-3.6,1-6.3,3-8c1.7-1.5,3.7-2.2,6.2-2.2c2.7,0,4.9,0.9,6.6,2.6s2.6,4.2,2.6,7.3c0,2.5-0.4,4.5-1.1,5.9
		c-0.8,1.4-1.9,2.6-3.3,3.4c-1.4,0.8-3,1.2-4.7,1.2c-2.7,0-5-0.9-6.6-2.6C163.7,429.6,162.9,427,162.9,423.7z M166.3,423.7
		c0,2.5,0.5,4.4,1.6,5.6s2.5,1.9,4.1,1.9s3-0.6,4.1-1.9s1.6-3.2,1.6-5.7c0-2.4-0.5-4.2-1.6-5.5c-1.1-1.2-2.5-1.9-4.1-1.9
		c-1.7,0-3,0.6-4.1,1.9S166.3,421.2,166.3,423.7z"/>
	<path d="M185.1,433.5v-19.6h3v2.8c1.4-2.1,3.5-3.2,6.2-3.2c1.2,0,2.3,0.2,3.2,0.6c1,0.4,1.7,1,2.2,1.7s0.8,1.5,1,2.5
		c0.1,0.6,0.2,1.7,0.2,3.2v12h-3.3v-11.9c0-1.4-0.1-2.4-0.4-3c-0.3-0.7-0.7-1.2-1.4-1.6s-1.4-0.6-2.3-0.6c-1.4,0-2.6,0.4-3.7,1.3
		c-1,0.9-1.5,2.6-1.5,5.1v10.7H185.1L185.1,433.5z"/>
	<path d="M218.8,431.1c-1.2,1-2.4,1.8-3.5,2.2c-1.1,0.4-2.4,0.6-3.7,0.6c-2.1,0-3.8-0.5-5-1.6s-1.7-2.4-1.7-4c0-1,0.2-1.8,0.7-2.6
		c0.4-0.8,1-1.4,1.7-1.9s1.5-0.8,2.4-1.1c0.7-0.2,1.6-0.3,2.9-0.5c2.7-0.3,4.6-0.7,5.9-1.1c0-0.5,0-0.7,0-0.9c0-1.4-0.3-2.3-0.9-2.9
		c-0.8-0.8-2.1-1.1-3.8-1.1c-1.6,0-2.7,0.3-3.5,0.8c-0.7,0.5-1.3,1.5-1.6,2.9l-3.2-0.4c0.3-1.4,0.8-2.5,1.5-3.4s1.6-1.5,2.9-2
		c1.3-0.5,2.8-0.7,4.4-0.7c1.7,0,3,0.2,4.1,0.6s1.8,0.9,2.3,1.5s0.8,1.3,1,2.3c0.1,0.6,0.2,1.6,0.2,3.1v4.4c0,3.1,0.1,5,0.2,5.8
		c0.1,0.8,0.4,1.6,0.8,2.3h-3.5C219.1,432.8,218.9,432,218.8,431.1z M218.5,423.7c-1.2,0.5-3,0.9-5.4,1.3c-1.4,0.2-2.3,0.4-2.9,0.7
		c-0.6,0.2-1,0.6-1.3,1.1s-0.5,1-0.5,1.6c0,0.9,0.3,1.6,1,2.2s1.6,0.9,2.9,0.9c1.3,0,2.4-0.3,3.4-0.8c1-0.6,1.7-1.3,2.2-2.3
		c0.4-0.8,0.5-1.9,0.5-3.3L218.5,423.7L218.5,423.7z"/>
	<path d="M226.9,433.5v-27h3.3v27H226.9z"/>
	<path d="M236.3,433.5v-3.8h3.8v3.8c0,1.4-0.2,2.5-0.7,3.4s-1.3,1.5-2.3,2l-0.9-1.4c0.7-0.3,1.2-0.8,1.5-1.4s0.5-1.5,0.6-2.6H236.3
		L236.3,433.5z"/>
	<path d="M255.6,424.9l3.4-0.3c0.2,1.4,0.5,2.5,1.1,3.3c0.6,0.9,1.5,1.6,2.7,2.1s2.6,0.8,4.1,0.8c1.4,0,2.6-0.2,3.6-0.6
		s1.8-1,2.3-1.7s0.8-1.5,0.8-2.3s-0.2-1.6-0.7-2.2s-1.3-1.2-2.4-1.6c-0.7-0.3-2.3-0.7-4.8-1.3c-2.5-0.6-4.2-1.2-5.2-1.7
		c-1.3-0.7-2.2-1.5-2.9-2.5c-0.6-1-0.9-2.1-0.9-3.4c0-1.4,0.4-2.6,1.2-3.8c0.8-1.2,1.9-2.1,3.4-2.7s3.1-0.9,5-0.9c2,0,3.8,0.3,5.3,1
		c1.5,0.6,2.7,1.6,3.5,2.8s1.3,2.7,1.3,4.3l-3.4,0.3c-0.2-1.7-0.8-3-1.9-3.9s-2.6-1.3-4.7-1.3c-2.2,0-3.7,0.4-4.7,1.2
		c-1,0.8-1.5,1.7-1.5,2.9c0,1,0.3,1.8,1,2.4c0.7,0.6,2.5,1.3,5.4,1.9c2.9,0.7,4.9,1.2,6,1.7c1.6,0.7,2.7,1.6,3.5,2.8
		c0.7,1.1,1.1,2.4,1.1,3.8s-0.4,2.8-1.2,4.1c-0.8,1.3-2,2.3-3.5,3s-3.3,1.1-5.2,1.1c-2.4,0-4.5-0.4-6.1-1.1s-2.9-1.8-3.9-3.2
		C256.1,428.3,255.6,426.7,255.6,424.9z"/>
	<path d="M294.3,426.4l3.3,0.4c-0.4,2.2-1.3,4-2.7,5.3c-1.5,1.3-3.3,1.9-5.4,1.9c-2.7,0-4.8-0.9-6.5-2.6c-1.6-1.7-2.4-4.3-2.4-7.5
		c0-2.1,0.3-4,1-5.5c0.7-1.6,1.8-2.8,3.2-3.6c1.4-0.8,3-1.2,4.7-1.2c2.1,0,3.9,0.5,5.2,1.6c1.4,1.1,2.2,2.6,2.6,4.6l-3.2,0.5
		c-0.3-1.3-0.9-2.3-1.6-3c-0.8-0.7-1.7-1-2.8-1c-1.7,0-3,0.6-4.1,1.8c-1,1.2-1.6,3.1-1.6,5.7s0.5,4.5,1.5,5.7s2.3,1.8,3.9,1.8
		c1.3,0,2.4-0.4,3.3-1.2C293.5,429.2,294,428,294.3,426.4z"/>
	<path d="M300.4,410.3v-3.8h3.3v3.8H300.4z M300.4,433.5v-19.6h3.3v19.6H300.4z"/>
	<path d="M322.1,427.2l3.4,0.4c-0.5,2-1.5,3.6-3,4.7s-3.3,1.7-5.6,1.7c-2.9,0-5.1-0.9-6.8-2.6c-1.7-1.8-2.5-4.2-2.5-7.4
		c0-3.3,0.8-5.8,2.5-7.7c1.7-1.8,3.9-2.7,6.6-2.7c2.6,0,4.8,0.9,6.4,2.7c1.7,1.8,2.5,4.3,2.5,7.5c0,0.2,0,0.5,0,0.9H311
		c0.1,2.1,0.7,3.8,1.8,4.9c1.1,1.1,2.5,1.7,4.1,1.7c1.2,0,2.3-0.3,3.1-1S321.6,428.6,322.1,427.2z M311.2,421.9h10.9
		c-0.1-1.6-0.6-2.9-1.3-3.7c-1.1-1.3-2.4-1.9-4.1-1.9c-1.5,0-2.8,0.5-3.8,1.5C311.9,418.8,311.4,420.2,311.2,421.9z"/>
	<path d="M329.7,433.5v-19.6h3v2.8c1.4-2.1,3.5-3.2,6.2-3.2c1.2,0,2.3,0.2,3.2,0.6c1,0.4,1.7,1,2.2,1.7s0.8,1.5,1,2.5
		c0.1,0.6,0.2,1.7,0.2,3.2v12h-3.3v-11.9c0-1.4-0.1-2.4-0.4-3c-0.3-0.7-0.7-1.2-1.4-1.6c-0.7-0.4-1.4-0.6-2.3-0.6
		c-1.4,0-2.6,0.4-3.7,1.3c-1,0.9-1.5,2.6-1.5,5.1v10.7H329.7L329.7,433.5z"/>
	<path d="M357.9,430.6l0.5,2.9c-0.9,0.2-1.8,0.3-2.5,0.3c-1.2,0-2.1-0.2-2.8-0.6c-0.7-0.4-1.1-0.9-1.4-1.5s-0.4-1.9-0.4-3.9v-11.3
		h-2.4v-2.6h2.4v-4.8l3.3-2v6.8h3.3v2.6h-3.3v11.4c0,0.9,0.1,1.6,0.2,1.8c0.1,0.3,0.3,0.5,0.6,0.6c0.3,0.2,0.6,0.2,1.1,0.2
		C356.8,430.7,357.3,430.6,357.9,430.6z"/>
	<path d="M361.2,410.3v-3.8h3.3v3.8H361.2z M361.2,433.5v-19.6h3.3v19.6H361.2z"/>
	<path d="M370.4,433.5v-17h-2.9v-2.6h2.9V412c0-1.9,0.4-3.4,1.3-4.5s2.2-1.5,4-1.5c1.2,0,2.3,0.1,3.4,0.4l-0.5,2.8
		c-0.7-0.1-1.2-0.2-1.8-0.2c-1.1,0-1.9,0.2-2.3,0.7s-0.6,1.4-0.6,2.9v1.3h3.8v2.6h-3.8v17L370.4,433.5L370.4,433.5z M380,410.3v-3.8
		h3.3v3.8H380z M380,433.5v-19.6h3.3v19.6H380z"/>
	<path d="M401.1,426.4l3.3,0.4c-0.4,2.2-1.3,4-2.7,5.3c-1.5,1.3-3.3,1.9-5.4,1.9c-2.7,0-4.8-0.9-6.5-2.6c-1.6-1.7-2.4-4.3-2.4-7.5
		c0-2.1,0.3-4,1-5.5c0.7-1.6,1.8-2.8,3.2-3.6c1.4-0.8,3-1.2,4.7-1.2c2.1,0,3.9,0.5,5.2,1.6c1.4,1.1,2.2,2.6,2.6,4.6l-3.2,0.5
		c-0.3-1.3-0.9-2.3-1.6-3c-0.8-0.7-1.7-1-2.8-1c-1.7,0-3,0.6-4.1,1.8c-1,1.2-1.6,3.1-1.6,5.7s0.5,4.5,1.5,5.7s2.3,1.8,3.9,1.8
		c1.3,0,2.4-0.4,3.3-1.2C400.4,429.2,400.9,428,401.1,426.4z"/>
	<path d="M430.5,431.1c-1.2,1-2.4,1.8-3.5,2.2c-1.1,0.4-2.4,0.6-3.7,0.6c-2.1,0-3.8-0.5-5-1.6s-1.7-2.4-1.7-4c0-1,0.2-1.8,0.7-2.6
		c0.4-0.8,1-1.4,1.7-1.9s1.5-0.8,2.4-1.1c0.7-0.2,1.6-0.3,2.9-0.5c2.7-0.3,4.6-0.7,5.9-1.1c0-0.5,0-0.7,0-0.9c0-1.4-0.3-2.3-0.9-2.9
		c-0.8-0.8-2.1-1.1-3.8-1.1c-1.6,0-2.7,0.3-3.5,0.8c-0.7,0.5-1.3,1.5-1.6,2.9l-3.2-0.4c0.3-1.4,0.8-2.5,1.5-3.4s1.6-1.5,2.9-2
		s2.8-0.7,4.4-0.7c1.7,0,3,0.2,4.1,0.6s1.8,0.9,2.3,1.5s0.8,1.3,1,2.3c0.1,0.6,0.2,1.6,0.2,3.1v4.4c0,3.1,0.1,5,0.2,5.8
		s0.4,1.6,0.8,2.3h-3.5C430.8,432.8,430.6,432,430.5,431.1z M430.2,423.7c-1.2,0.5-3,0.9-5.4,1.3c-1.4,0.2-2.3,0.4-2.9,0.7
		c-0.6,0.2-1,0.6-1.3,1.1s-0.5,1-0.5,1.6c0,0.9,0.3,1.6,1,2.2s1.6,0.9,2.9,0.9s2.4-0.3,3.4-0.8c1-0.6,1.7-1.3,2.2-2.3
		c0.4-0.8,0.5-1.9,0.5-3.3L430.2,423.7L430.2,423.7z"/>
	<path d="M438.7,433.5v-19.6h3v2.8c1.4-2.1,3.5-3.2,6.2-3.2c1.2,0,2.3,0.2,3.2,0.6c1,0.4,1.7,1,2.2,1.7s0.8,1.5,1,2.5
		c0.1,0.6,0.2,1.7,0.2,3.2v12h-3.3v-11.9c0-1.4-0.1-2.4-0.4-3c-0.3-0.7-0.7-1.2-1.4-1.6c-0.7-0.4-1.4-0.6-2.3-0.6
		c-1.4,0-2.6,0.4-3.7,1.3c-1,0.9-1.5,2.6-1.5,5.1v10.7H438.7L438.7,433.5z"/>
	<path d="M472.4,433.5V431c-1.2,1.9-3.1,2.9-5.5,2.9c-1.6,0-3-0.4-4.3-1.3s-2.3-2.1-3-3.6s-1.1-3.3-1.1-5.3s0.3-3.7,1-5.3
		s1.6-2.8,2.9-3.7c1.3-0.8,2.8-1.3,4.4-1.3c1.2,0,2.2,0.2,3.1,0.7s1.7,1.1,2.2,1.9v-9.5h3.3v27H472.4z M461.9,423.8
		c0,2.5,0.5,4.4,1.6,5.6s2.3,1.9,3.7,1.9c1.4,0,2.7-0.6,3.7-1.8c1-1.2,1.5-3,1.5-5.4c0-2.7-0.5-4.6-1.5-5.9s-2.3-1.9-3.8-1.9
		s-2.7,0.6-3.7,1.8C462.4,419.3,461.9,421.2,461.9,423.8z"/>
</g>
<g class="st3">
	<path d="M146.1,465.2l3.6,0.9c-0.7,2.9-2.1,5.2-4,6.7s-4.3,2.3-7.1,2.3c-2.9,0-5.3-0.6-7.1-1.8c-1.8-1.2-3.2-2.9-4.2-5.1
		c-0.9-2.2-1.4-4.7-1.4-7.2c0-2.8,0.5-5.3,1.6-7.4s2.6-3.7,4.6-4.8c2-1.1,4.2-1.6,6.5-1.6c2.7,0,5,0.7,6.8,2.1s3.1,3.3,3.8,5.8
		l-3.5,0.8c-0.6-2-1.5-3.4-2.7-4.3s-2.7-1.3-4.5-1.3c-2.1,0-3.8,0.5-5.2,1.5s-2.4,2.3-2.9,4c-0.6,1.7-0.8,3.4-0.8,5.2
		c0,2.3,0.3,4.3,1,6c0.7,1.7,1.7,3,3.1,3.8s2.9,1.3,4.6,1.3c2,0,3.7-0.6,5.1-1.7C144.7,469.2,145.6,467.5,146.1,465.2z"/>
	<path d="M166.5,474.7v-2.9c-1.5,2.2-3.6,3.3-6.2,3.3c-1.2,0-2.2-0.2-3.2-0.7c-1-0.4-1.7-1-2.2-1.7s-0.8-1.5-1-2.5
		c-0.1-0.6-0.2-1.7-0.2-3.1V455h3.3v10.8c0,1.7,0.1,2.9,0.2,3.5c0.2,0.9,0.7,1.6,1.3,2.1c0.7,0.5,1.5,0.7,2.5,0.7s1.9-0.3,2.8-0.8
		c0.9-0.5,1.5-1.2,1.9-2.1s0.5-2.2,0.5-3.8v-10.5h3.3v19.6L166.5,474.7L166.5,474.7z"/>
	<path d="M174.5,474.7v-27h3.3v27H174.5z"/>
	<path d="M190.2,471.7l0.5,2.9c-0.9,0.2-1.8,0.3-2.5,0.3c-1.2,0-2.1-0.2-2.8-0.6s-1.1-0.9-1.4-1.5c-0.3-0.6-0.4-1.9-0.4-3.9v-11.3
		h-2.4V455h2.4v-4.8l3.3-2v6.8h3.3v2.6h-3.3V469c0,0.9,0.1,1.6,0.2,1.8c0.1,0.3,0.3,0.5,0.6,0.6c0.3,0.2,0.6,0.2,1.1,0.2
		C189.1,471.8,189.6,471.8,190.2,471.7z"/>
	<path d="M206.3,474.7v-2.9c-1.5,2.2-3.6,3.3-6.2,3.3c-1.2,0-2.2-0.2-3.2-0.7c-1-0.4-1.7-1-2.2-1.7s-0.8-1.5-1-2.5
		c-0.1-0.6-0.2-1.7-0.2-3.1V455h3.3v10.8c0,1.7,0.1,2.9,0.2,3.5c0.2,0.9,0.7,1.6,1.3,2.1c0.7,0.5,1.5,0.7,2.5,0.7s1.9-0.3,2.8-0.8
		c0.9-0.5,1.5-1.2,1.9-2.1s0.5-2.2,0.5-3.8v-10.5h3.3v19.6L206.3,474.7L206.3,474.7z"/>
	<path d="M214.4,474.7v-19.6h3v3c0.8-1.4,1.5-2.3,2.1-2.7c0.6-0.4,1.4-0.7,2.1-0.7c1.1,0,2.3,0.4,3.4,1.1l-1.1,3.1
		c-0.8-0.5-1.6-0.7-2.4-0.7c-0.7,0-1.4,0.2-2,0.7c-0.6,0.4-1,1-1.2,1.8c-0.4,1.2-0.6,2.5-0.6,3.9v10.2L214.4,474.7L214.4,474.7z"/>
	<path d="M239.8,472.3c-1.2,1-2.4,1.8-3.5,2.2c-1.1,0.4-2.4,0.6-3.7,0.6c-2.1,0-3.8-0.5-5-1.6s-1.7-2.4-1.7-4c0-1,0.2-1.8,0.7-2.6
		c0.4-0.8,1-1.4,1.7-1.9s1.5-0.8,2.4-1.1c0.7-0.2,1.6-0.3,2.9-0.5c2.7-0.3,4.6-0.7,5.9-1.1c0-0.5,0-0.7,0-0.9c0-1.4-0.3-2.3-0.9-2.9
		c-0.8-0.8-2.1-1.1-3.8-1.1c-1.6,0-2.7,0.3-3.5,0.8c-0.7,0.5-1.3,1.5-1.6,2.9l-3.2-0.4c0.3-1.4,0.8-2.5,1.5-3.4s1.6-1.5,2.9-2
		c1.3-0.5,2.8-0.7,4.4-0.7c1.7,0,3,0.2,4.1,0.6s1.8,0.9,2.3,1.5s0.8,1.3,1,2.3c0.1,0.6,0.2,1.6,0.2,3.1v4.4c0,3.1,0.1,5,0.2,5.8
		c0.1,0.8,0.4,1.6,0.8,2.3h-3.5C240.1,474,239.9,473.2,239.8,472.3z M239.5,464.8c-1.2,0.5-3,0.9-5.4,1.3c-1.4,0.2-2.3,0.4-2.9,0.7
		c-0.6,0.2-1,0.6-1.3,1.1s-0.5,1-0.5,1.6c0,0.9,0.3,1.6,1,2.2s1.6,0.9,2.9,0.9c1.3,0,2.4-0.3,3.4-0.8c1-0.6,1.7-1.3,2.2-2.3
		c0.4-0.8,0.5-1.9,0.5-3.3L239.5,464.8L239.5,464.8z"/>
	<path d="M247.9,474.7v-27h3.3v27H247.9z"/>
	<path d="M266.2,461.5c0-4.5,1.2-8,3.6-10.5s5.5-3.8,9.3-3.8c2.5,0,4.7,0.6,6.7,1.8c2,1.2,3.5,2.8,4.6,5c1.1,2.1,1.6,4.5,1.6,7.2
		s-0.6,5.2-1.7,7.3c-1.1,2.2-2.7,3.8-4.7,4.9s-4.2,1.7-6.6,1.7c-2.5,0-4.8-0.6-6.8-1.8c-2-1.2-3.5-2.9-4.5-5
		C266.7,466.1,266.2,463.9,266.2,461.5z M269.8,461.6c0,3.2,0.9,5.8,2.6,7.7c1.8,1.9,3.9,2.8,6.6,2.8s4.9-0.9,6.6-2.8s2.6-4.6,2.6-8
		c0-2.2-0.4-4.1-1.1-5.8c-0.7-1.6-1.8-2.9-3.3-3.8c-1.4-0.9-3-1.4-4.8-1.4c-2.5,0-4.7,0.9-6.5,2.6
		C270.8,454.6,269.8,457.5,269.8,461.6z"/>
	<path d="M296.1,474.7v-19.6h3v3c0.8-1.4,1.5-2.3,2.1-2.7c0.6-0.4,1.4-0.7,2.1-0.7c1.1,0,2.3,0.4,3.4,1.1l-1.1,3.1
		c-0.8-0.5-1.6-0.7-2.4-0.7c-0.7,0-1.4,0.2-2,0.7c-0.6,0.4-1,1-1.2,1.8c-0.4,1.2-0.6,2.5-0.6,3.9v10.2L296.1,474.7L296.1,474.7z"/>
	<path d="M308.1,476.3l3.2,0.5c0.1,1,0.5,1.7,1.1,2.2c0.8,0.6,1.9,0.9,3.4,0.9s2.7-0.3,3.6-0.9s1.4-1.5,1.7-2.6
		c0.2-0.7,0.3-2.1,0.2-4.3c-1.4,1.7-3.3,2.6-5.4,2.6c-2.7,0-4.8-1-6.2-2.9s-2.2-4.3-2.2-7c0-1.9,0.3-3.6,1-5.2s1.7-2.8,2.9-3.7
		c1.3-0.9,2.8-1.3,4.5-1.3c2.3,0,4.2,0.9,5.7,2.8V455h3.1v16.9c0,3-0.3,5.2-0.9,6.5s-1.6,2.3-2.9,3s-3,1.1-5,1.1
		c-2.3,0-4.2-0.5-5.7-1.6C308.8,480,308.1,478.4,308.1,476.3z M310.9,464.5c0,2.6,0.5,4.4,1.5,5.6s2.3,1.8,3.8,1.8s2.8-0.6,3.8-1.8
		s1.5-3,1.5-5.5c0-2.4-0.5-4.2-1.6-5.4c-1.1-1.2-2.3-1.8-3.8-1.8s-2.7,0.6-3.8,1.8C311.4,460.4,310.9,462.2,310.9,464.5z"/>
	<path d="M342.5,472.3c-1.2,1-2.4,1.8-3.5,2.2c-1.1,0.4-2.4,0.6-3.7,0.6c-2.1,0-3.8-0.5-5-1.6s-1.7-2.4-1.7-4c0-1,0.2-1.8,0.7-2.6
		c0.4-0.8,1-1.4,1.7-1.9s1.5-0.8,2.4-1.1c0.7-0.2,1.6-0.3,2.9-0.5c2.7-0.3,4.6-0.7,5.9-1.1c0-0.5,0-0.7,0-0.9c0-1.4-0.3-2.3-0.9-2.9
		c-0.8-0.8-2.1-1.1-3.8-1.1c-1.6,0-2.7,0.3-3.5,0.8c-0.7,0.5-1.3,1.5-1.6,2.9l-3.2-0.4c0.3-1.4,0.8-2.5,1.5-3.4s1.6-1.5,2.9-2
		s2.8-0.7,4.4-0.7c1.7,0,3,0.2,4.1,0.6s1.8,0.9,2.3,1.5s0.8,1.3,1,2.3c0.1,0.6,0.2,1.6,0.2,3.1v4.4c0,3.1,0.1,5,0.2,5.8
		s0.4,1.6,0.8,2.3h-3.5C342.8,474,342.6,473.2,342.5,472.3z M342.2,464.8c-1.2,0.5-3,0.9-5.4,1.3c-1.4,0.2-2.3,0.4-2.9,0.7
		c-0.6,0.2-1,0.6-1.3,1.1s-0.5,1-0.5,1.6c0,0.9,0.3,1.6,1,2.2s1.6,0.9,2.9,0.9s2.4-0.3,3.4-0.8c1-0.6,1.7-1.3,2.2-2.3
		c0.4-0.8,0.5-1.9,0.5-3.3L342.2,464.8L342.2,464.8z"/>
	<path d="M350.7,474.7v-19.6h3v2.8c1.4-2.1,3.5-3.2,6.2-3.2c1.2,0,2.3,0.2,3.2,0.6c1,0.4,1.7,1,2.2,1.7s0.8,1.5,1,2.5
		c0.1,0.6,0.2,1.7,0.2,3.2v12h-3.3v-11.9c0-1.4-0.1-2.4-0.4-3c-0.3-0.7-0.7-1.2-1.4-1.6c-0.7-0.4-1.4-0.6-2.3-0.6
		c-1.4,0-2.6,0.4-3.7,1.3c-1,0.9-1.5,2.6-1.5,5.1v10.7H350.7L350.7,474.7z"/>
	<path d="M371.7,451.5v-3.8h3.3v3.8H371.7z M371.7,474.7v-19.6h3.3v19.6H371.7z"/>
	<path d="M378.3,474.7V472l12.4-14.3c-1.4,0.1-2.7,0.1-3.7,0.1h-8v-2.7h16v2.2l-10.6,12.4l-2,2.3c1.5-0.1,2.9-0.2,4.2-0.2h9v2.9
		L378.3,474.7L378.3,474.7z"/>
	<path d="M411.6,472.3c-1.2,1-2.4,1.8-3.5,2.2c-1.1,0.4-2.4,0.6-3.7,0.6c-2.1,0-3.8-0.5-5-1.6s-1.7-2.4-1.7-4c0-1,0.2-1.8,0.7-2.6
		c0.4-0.8,1-1.4,1.7-1.9s1.5-0.8,2.4-1.1c0.7-0.2,1.6-0.3,2.9-0.5c2.7-0.3,4.6-0.7,5.9-1.1c0-0.5,0-0.7,0-0.9c0-1.4-0.3-2.3-0.9-2.9
		c-0.8-0.8-2.1-1.1-3.8-1.1c-1.6,0-2.7,0.3-3.5,0.8c-0.7,0.5-1.3,1.5-1.6,2.9l-3.2-0.4c0.3-1.4,0.8-2.5,1.5-3.4s1.6-1.5,2.9-2
		s2.8-0.7,4.4-0.7c1.7,0,3,0.2,4.1,0.6s1.8,0.9,2.3,1.5s0.8,1.3,1,2.3c0.1,0.6,0.2,1.6,0.2,3.1v4.4c0,3.1,0.1,5,0.2,5.8
		s0.4,1.6,0.8,2.3h-3.5C412,474,411.7,473.2,411.6,472.3z M411.4,464.8c-1.2,0.5-3,0.9-5.4,1.3c-1.4,0.2-2.3,0.4-2.9,0.7
		c-0.6,0.2-1,0.6-1.3,1.1s-0.5,1-0.5,1.6c0,0.9,0.3,1.6,1,2.2s1.6,0.9,2.9,0.9s2.4-0.3,3.4-0.8c1-0.6,1.7-1.3,2.2-2.3
		c0.4-0.8,0.5-1.9,0.5-3.3L411.4,464.8L411.4,464.8z"/>
	<path d="M427.1,471.7l0.5,2.9c-0.9,0.2-1.8,0.3-2.5,0.3c-1.2,0-2.1-0.2-2.8-0.6c-0.7-0.4-1.1-0.9-1.4-1.5s-0.4-1.9-0.4-3.9v-11.3
		H418V455h2.4v-4.8l3.3-2v6.8h3.3v2.6h-3.3V469c0,0.9,0.1,1.6,0.2,1.8s0.3,0.5,0.6,0.6c0.3,0.2,0.6,0.2,1.1,0.2
		C426,471.8,426.5,471.8,427.1,471.7z"/>
	<path d="M430.3,451.5v-3.8h3.3v3.8H430.3z M430.3,474.7v-19.6h3.3v19.6H430.3z"/>
	<path d="M437.5,464.9c0-3.6,1-6.3,3-8c1.7-1.5,3.7-2.2,6.2-2.2c2.7,0,4.9,0.9,6.6,2.6c1.7,1.8,2.6,4.2,2.6,7.3
		c0,2.5-0.4,4.5-1.1,5.9c-0.8,1.4-1.9,2.6-3.3,3.4s-3,1.2-4.7,1.2c-2.7,0-5-0.9-6.6-2.6C438.3,470.7,437.5,468.2,437.5,464.9z
		 M440.9,464.9c0,2.5,0.5,4.4,1.6,5.6s2.5,1.9,4.1,1.9s3-0.6,4.1-1.9s1.6-3.2,1.6-5.7c0-2.4-0.5-4.2-1.6-5.5
		c-1.1-1.2-2.5-1.9-4.1-1.9c-1.7,0-3,0.6-4.1,1.9S440.9,462.4,440.9,464.9z"/>
	<path d="M459.7,474.7v-19.6h3v2.8c1.4-2.1,3.5-3.2,6.2-3.2c1.2,0,2.3,0.2,3.2,0.6c1,0.4,1.7,1,2.2,1.7s0.8,1.5,1,2.5
		c0.1,0.6,0.2,1.7,0.2,3.2v12h-3.3v-11.9c0-1.4-0.1-2.4-0.4-3c-0.3-0.7-0.7-1.2-1.4-1.6c-0.7-0.4-1.4-0.6-2.3-0.6
		c-1.4,0-2.6,0.4-3.7,1.3c-1,0.9-1.5,2.6-1.5,5.1v10.7H459.7L459.7,474.7z"/>
</g>
</svg>
