<?xml version="1.0" encoding="utf-8"?>
<!-- Generator: Adobe Illustrator 24.0.0, SVG Export Plug-In . SVG Version: 6.00 Build 0)  -->
<svg version="1.1" id="Layer_1" xmlns="http://www.w3.org/2000/svg" xmlns:xlink="http://www.w3.org/1999/xlink" x="0px" y="0px"
	 viewBox="0 0 1154 600" style="enable-background:new 0 0 1154 600;" xml:space="preserve">
<style type="text/css">
	.st0{fill:#231F20;}
	.st1{fill:#EC1C24;}
</style>
<g>
	<g>
		<path class="st0" d="M554.2,189.1v-72.7c0-3.5-3.1-6.6-6.7-6.7h-1.4c-3.4,0-5.7,1.7-7,4.6s-15.8,36.1-15.8,36.1
			s-14.5-33.2-15.8-36.1s-3.6-4.6-7-4.6h-1.4c-3.5,0.1-6.6,3.1-6.7,6.7v72.7c0,4.3,3.4,6.5,6.7,6.5c3.2,0,6.7-2.2,6.7-6.5v-46.5
			c0,0,9.1,21.2,10.8,25.1c1.2,2.8,4,4.1,6.7,4.1s5.5-1.3,6.7-4.1c1.7-3.9,10.8-25.1,10.8-25.1v46.5c0,4.3,3.4,6.5,6.7,6.5
			C550.8,195.7,554.2,193.5,554.2,189.1z"/>
		<path class="st0" d="M928.1,195.7c2.6,0.1,5.5-1.4,6.5-4.8l4.4-14.8h23.5L967,191c1.1,3.3,3.8,4.7,6.3,4.7h0.1
			c3.9,0,6.8-2.6,6.8-6.3c0-0.5-0.1-1.1-0.2-1.9L958.4,115c-1.1-3.7-4.3-5.2-7.5-5.2c-3.1,0-6.4,1.8-7.5,5.2l-21.8,72.3
			c-0.1,1-0.3,1.6-0.3,2.2C921.3,193,924.3,195.7,928.1,195.7z M950.6,135.1l7.9,27.7H943L950.6,135.1z"/>
		<path class="st0" d="M872.8,101l22.1-4.6c3.2-0.6,5.3-3.8,4.6-7s-3.8-5.2-7-4.6l-22.1,4.6c-3.2,0.7-5.3,3.8-4.6,7.1
			C866.4,99.6,869.6,101.7,872.8,101z"/>
		<path class="st0" d="M657.9,195.7c3.2,0,6.5-2.2,6.6-6.5v-46l20.3,47.2c1.9,4.6,5.3,5.4,7.1,5.4h0.2h1.3c3.8,0,6.7-3,6.7-6.5
			v-72.7c0-4.4-3.6-6.7-6.8-6.7c-3.3,0-6.6,2.4-6.6,6.7v45.3l-20.3-47.2c-1.9-4.6-5.5-4.8-6.9-4.8h-1.3c-4.3,0-7.1,3.3-7.1,6.9v72.5
			C651.1,193.6,654.7,195.7,657.9,195.7z"/>
		<path class="st0" d="M627.1,171.9v-38.3c0-13.4-10.9-23.7-24.4-23.8h-0.4c-13.5,0.1-25.5,10.4-25.5,23.8v38.3
			c0,13.6,12,23.8,25.3,23.8h0.5C616.1,195.7,627,185.5,627.1,171.9z M613.7,171.9c0,6.2-4.8,10.7-11,10.7h-0.5
			c-6.1,0-10.9-4.5-10.9-10.7v-38.3c0-6.1,4.8-10.6,10.9-10.6h0.5c6.1,0,10.9,4.4,11,10.6V171.9z"/>
		<path class="st0" d="M907.4,188.6c0-3.3-2.3-6.7-6.7-6.7h-29v-23.6h19.1c4.4,0,6.7-3.4,6.7-6.7s-2.4-6.6-6.7-6.6h-19.1v-21.3h29
			c4.3,0,6.6-3.4,6.7-6.5c0-3.2-2.3-6.7-6.7-6.7H865c-3.6,0.1-6.6,3.2-6.7,6.7v71.3c0,3.5,3.1,6.7,6.7,6.7h35.7
			C905.1,195.1,907.4,191.7,907.4,188.6z"/>
		<path class="st0" d="M1043.7,188.6c0-3.3-2.3-6.7-6.6-6.7h-24.8v-65.5c0-4.3-3.3-6.7-6.6-6.7s-6.7,2.3-6.7,6.7v72
			c0,3.5,2.9,6.7,6.7,6.7h31.3C1041.4,195.1,1043.7,191.7,1043.7,188.6z"/>
		<path class="st0" d="M822.7,192c1.2,2.5,3.5,3.6,5.6,3.6h0.1c4.1,0,7.1-2.8,7.1-6.5c0-0.9-0.3-1.9-0.7-2.9L822,158.5
			c9-3.5,14.5-12.4,14.5-22.7v-1.1c0-13.4-10.9-24.3-24.4-24.3h-19.2c-3.6,0.1-6.7,3.1-6.7,6.7v72c0,4.4,3.5,6.5,6.8,6.5
			c3.2,0,6.6-2.2,6.6-6.5V160h8.3L822.7,192z M799.5,146.8v-23.1h12.9c6.1,0.1,10.6,4.8,10.6,11v1.1c0,6.1-4.4,10.9-10.5,10.9
			L799.5,146.8L799.5,146.8z"/>
		<path class="st0" d="M736.1,189.1c0,4.3,3.4,6.5,6.7,6.5c3.2,0,6.7-2.2,6.7-6.5v-65.5H760c4.3,0,6.7-3.4,6.7-6.5
			c0-3.2-2.3-6.7-6.7-6.7h-34.4c-4.4,0-6.7,3.4-6.7,6.7c0,3.1,2.3,6.5,6.7,6.5h10.5V189.1z"/>
		<path class="st0" d="M647.1,343.8h-15.9c-1.8,0-3,1.4-3,2.9v57.5c0,1.5,1.2,3,3,3h15.9c9.9-0.1,18-7.9,18-17.5v-28.4
			C665.1,351.5,657,343.8,647.1,343.8z M659.1,389.7c0,6.5-5.3,11.6-12,11.6h-12.9v-51.7h12.9c6.7,0,12,5.1,12,11.7V389.7z"/>
		<path class="st0" d="M511.3,343.8h-15.8c-1.8,0-3,1.4-3,2.9v57.5c0,1.5,1.3,3,3,3h15.8c9.9-0.1,18-7.9,18-17.5v-28.4
			C529.3,351.5,521.2,343.8,511.3,343.8z M523.3,389.7c0,6.5-5.3,11.6-12,11.6h-12.9v-51.7h12.9c6.8,0,12,5.1,12,11.7V389.7z"/>
		<path class="st0" d="M713.3,349.6c1.9,0,3-1.4,3-2.9s-1.1-2.9-3-2.9h-30.8c-1.8,0-3,1.4-3,2.9v57.5c0,1.5,1.3,3,3,3h30.8
			c1.9,0,3-1.5,3-3c0-1.4-1.1-2.9-3-2.9h-27.9v-24.1H705c2,0,3-1.5,3-2.8c0-1.4-1-3-3-3h-19.1v-21.8L713.3,349.6L713.3,349.6z"/>
		<path class="st0" d="M578.7,349.6c2,0,3-1.5,3-2.9s-1.1-2.9-3-2.9h-30.8c-1.8,0-3,1.4-3,2.9v57.5c0,1.5,1.2,3,3,3h30.8
			c2,0,3-1.5,3-3c0-1.4-1.1-2.9-3-2.9h-27.8v-24.1h19.6c2,0,3-1.5,3-2.8c0-1.4-1-3-3-3h-19.1v-21.8L578.7,349.6L578.7,349.6z"/>
		<path class="st0" d="M892.4,343.2c-1.4,0-3,1-3,3V395L866,345.1c-0.6-1.2-1.7-1.8-2.7-1.9h-1.7c-1.6,0.1-3,1.4-3,3v58.6
			c0,2,1.7,2.8,3,2.8c1.4,0,3-0.9,3-2.8V356l23.2,49.8c0.7,1.4,2.1,1.9,3,1.9h1.7c1.5,0,2.9-1.1,2.9-2.9v-58.5
			C895.4,344.2,893.8,343.2,892.4,343.2z"/>
		<path class="st0" d="M825.5,343.2h-1c-9.9,0.1-17.9,7.8-17.9,17.5v29.6c0,9.8,8.1,17.4,17.9,17.4h1c9.9,0,18-7.6,18-17.4v-14.2
			c0-1.6-1.3-2.9-3-2.9h-13.8c-1.9,0-3,1.5-3,3c0,1.4,1.2,2.8,3,2.8h10.9v11.2c0,6.5-5.2,11.7-12,11.7h-1c-6.7,0-12-5.1-12-11.7
			v-29.6c0-6.5,5.2-11.6,12-11.6h1c6.5,0,11.5,4.7,11.9,10.6c0,1.7,1.3,2.9,3,2.9s3-1.3,3-2.9v-0.2
			C843.5,350.2,835.1,343.3,825.5,343.2z"/>
		<path class="st0" d="M786,343.2c-1.4,0-3,1-3,3v58.6c0,2,1.7,2.8,3,2.8c1.4,0,3.1-0.9,3.1-2.8v-58.6
			C789.1,344.2,787.4,343.2,786,343.2z"/>
		<path class="st0" d="M749.2,372.6c-7.7-3.6-15.2-6.2-15.2-12.9c0-6.6,5-10.5,11-10.6h1c6.6,0.1,11.2,3.1,11.3,9
			c0,1.9,1.6,2.9,3,2.9s2.9-1,2.9-2.9c0-9.5-7.9-14.9-17.2-14.9h-1c-9.1,0-17,6.4-17,16.3c0,10.4,8,13.4,15.5,16.8
			c7.7,3.5,14.8,6.5,14.8,14.8c0,6.7-5.3,10.5-12.4,10.6h-1c-6.8,0-12-4.2-12-11.5c0-1.9-1.5-2.9-3-2.9s-3,1-3,2.9
			c0,11,8.3,17.4,18,17.4h1c10.3,0,18.4-6.4,18.5-16.4C764.4,380.1,756.8,376.2,749.2,372.6z"/>
		<path class="st0" d="M975.3,237.1h-1c-9.9,0.1-18.1,7.8-18.1,17.5v29.6c0,9.8,8.1,17.4,18.1,17.4h1c9.1,0,16.7-6.3,17.8-14.9v-0.4
			c0-1.7-1.4-2.9-3-2.9c-1.5,0-2.6,1.1-3,2.4c-0.7,5.6-5.7,10.1-11.8,10.1h-1c-6.8,0-12.1-5.1-12.1-11.7v-29.6
			c0-6.5,5.4-11.6,12.1-11.6h1c6.1,0,11.1,4.4,11.8,9.9c0.4,1.5,1.6,2.6,3,2.6c1.6,0,3-1.3,3-3v-0.3
			C992,243.5,984.4,237.1,975.3,237.1z"/>
		<path class="st0" d="M1026.1,237.1h-0.9c-9.9,0.1-18,7.8-18,17.5v29.6c0,9.8,8.1,17.4,18,17.4h0.9c9.9,0,17.9-7.6,17.9-17.4v-29.6
			C1044.1,244.8,1036,237.1,1026.1,237.1z M1038.1,284.1c0,6.5-5.2,11.7-12,11.7h-0.9c-6.8,0-12-5.2-12-11.7v-29.6
			c0-6.5,5.2-11.6,12-11.6h0.9c6.8,0,12,5.1,12,11.6V284.1z"/>
		<path class="st0" d="M691.3,243.5c2,0,3-1.4,3-2.9c0-1.4-1.1-2.9-3-2.9h-30.8c-1.8,0-3,1.4-3,2.9v57.5c0,1.5,1.3,3,3,3h30.8
			c2,0,3-1.5,3-3c0-1.4-1.1-2.9-3-2.9h-27.9v-24.1H683c2,0,3-1.4,3-2.8s-1-3-3-3h-19.1v-21.8L691.3,243.5L691.3,243.5z"/>
		<path class="st0" d="M926.9,266.5c-7.7-3.6-15.3-6.1-15.3-12.9c0-6.6,5-10.5,11-10.6h0.9c6.7,0.1,11.2,3.1,11.3,8.9
			c0,1.9,1.6,2.9,3,2.9s2.9-1,2.9-2.9c0-9.5-7.9-14.9-17.2-14.9h-0.9c-9.1,0-17,6.4-17,16.3c0,10.4,8,13.4,15.6,16.8
			c7.6,3.5,14.8,6.5,14.8,14.8c0,6.7-5.2,10.5-12.4,10.6h-0.9c-6.8,0-12-4.2-12-11.5c0-1.9-1.5-2.9-3-2.9s-3,1-3,2.9
			c0,11.1,8.3,17.4,18,17.4h0.9c10.3,0,18.4-6.4,18.5-16.4C942,274,934.4,270.1,926.9,266.5z"/>
		<path class="st0" d="M777.8,237.1c-1.4,0-2.9,1.1-2.9,3v44.1c0,6.5-5.3,11.7-12,11.7H762c-6.8,0-12-5.1-12-11.7V240
			c0-1.9-1.5-3-2.9-3c-1.5,0-3,1-3,3v44.1c0,9.8,8.1,17.4,18,17.4h0.9c9.9,0,17.9-7.6,18-17.4V240
			C780.8,238.2,779.3,237.1,777.8,237.1z"/>
		<path class="st0" d="M599.1,295.2H578v-55.1c0-1.9-1.5-3-3-3c-1.4,0-3,1-3,3v58c0,1.6,1.4,2.9,3,3h24.2c2,0,3-1.6,3-3
			C602.1,296.7,601.1,295.2,599.1,295.2z"/>
		<path class="st0" d="M645,298.1c0-1.4-1.1-2.9-3-2.9h-21.1v-55.1c0-1.9-1.6-3-3-3s-3,1-3,3v58c0,1.6,1.4,2.9,3,3H642
			C644,301,645,299.5,645,298.1z"/>
		<path class="st0" d="M549.6,237.1c-1.4,0-3,1-3,3v58.6c0,2,1.7,2.8,3,2.8c1.4,0,3-0.9,3-2.8V240C552.6,238,551,237.1,549.6,237.1z
			"/>
		<path class="st0" d="M528.2,237.1c-1.3,0-2.6,0.8-2.9,2.3l-13.8,53.5l-13.8-53.5c-0.3-1.5-1.7-2.3-2.9-2.3c-1.4,0-3,1.1-3,2.9
			c0,0.2,0,0.6,0.2,0.9c-0.1-0.1,14.6,55.4,15.1,57.1c0.7,2.4,2.7,3.5,4.4,3.5l0,0c1.7,0,3.7-1.1,4.4-3.5
			c0.5-1.7,15.2-57.3,15.2-57.3c0.1-0.2,0.1-0.5,0.1-0.8C531.2,238.2,529.7,237.1,528.2,237.1z"/>
		<path class="st0" d="M890.2,301c2,0,3-1.5,3-3c0-1.4-1.1-2.9-3-2.9h-27.9V271h19.6c1.9,0,3-1.4,3-2.8s-1-3-3-3h-19.1v-21.8h27.4
			c1.9,0,3-1.4,3-2.9c0-1.4-1.1-2.9-3-2.9h-30.8c-1.8,0-3,1.4-3,2.9V298c0,1.5,1.2,3,3,3H890.2z"/>
		<path class="st0" d="M807.6,298.6v-48.8l23.2,49.8c0.6,1.4,2.1,1.9,2.9,1.9h1.7c1.5,0,3-1.1,3-2.9V240c0-2-1.7-3-3.1-3
			c-1.4,0-3,1-3,3v48.8L809,238.9c-0.6-1.2-1.7-1.8-2.7-1.9h-1.7c-1.6,0.1-3,1.4-3,3v58.6c0,2,1.7,2.8,3,2.8
			C806,301.5,807.6,300.6,807.6,298.6z"/>
	</g>
</g>
<g>
	<path class="st1" d="M279.4,471.3v21.2c11.7,0,21.2-9.5,21.2-21.2v-63.7h-21.2V471.3z"/>
	<rect x="236.9" y="195.1" class="st1" width="21.2" height="21.2"/>
	<path class="st1" d="M364.4,343.8v148.7h21.2V365C385.6,353.3,376.1,343.8,364.4,343.8z"/>
	<rect x="321.9" y="343.8" class="st1" width="21.2" height="148.7"/>
	<path class="st1" d="M279.4,343.8v42.5h21.2V365C300.7,353.3,291.1,343.8,279.4,343.8z"/>
	<path class="st1" d="M109.5,407.5c0,11.7,9.5,21.2,21.2,21.2V195.1h-21.2V407.5z"/>
	<path class="st1" d="M109.5,471.3c0,11.7,9.5,21.2,21.2,21.2V450h-21.2V471.3z"/>
	<path class="st1" d="M152,407.5v85c11.7,0,21.2-9.5,21.2-21.2v-42.5C173.2,417,163.7,407.5,152,407.5z"/>
	<path class="st1" d="M152,195.1v191.2h21.2V216.4C173.2,204.6,163.7,195.1,152,195.1z"/>
	<path class="st1" d="M236.9,471.3c0,11.7,9.5,21.2,21.2,21.2V322.6h-21.2L236.9,471.3L236.9,471.3z"/>
	<polygon class="st1" points="236.9,258.8 215.7,258.8 215.7,195.1 194.4,195.1 194.4,492.5 215.7,492.5 215.7,280.1 236.9,280.1 	
		"/>
</g>
</svg>
