<?xml version="1.0" encoding="utf-8"?>
<!-- Generator: Adobe Illustrator 24.0.0, SVG Export Plug-In . SVG Version: 6.00 Build 0)  -->
<svg version="1.1" id="Layer_1" xmlns="http://www.w3.org/2000/svg" xmlns:xlink="http://www.w3.org/1999/xlink" x="0px" y="0px"
	 viewBox="0 0 1312 600" style="enable-background:new 0 0 1312 600;" xml:space="preserve">
<style type="text/css">
	.st0{fill:#EC1C24;}
	.st1{fill:#231F20;}
</style>
<g>
	<path class="st0" d="M443.2,492.6h21.3V365.1c0-11.7-9.5-21.3-21.3-21.3V492.6z M358.2,386.3h21.3V365c0-11.7-9.5-21.3-21.3-21.3
		V386.3z M230.7,492.6c11.7,0,21.3-9.5,21.3-21.3v-42.5c0-11.7-9.5-21.3-21.3-21.3V492.6z M358.2,471.4v21.3
		c11.7,0,21.3-9.5,21.3-21.3v-63.8h-21.3V471.4z M315.7,471.4c0,11.7,9.5,21.3,21.3,21.3v-170h-21.3V471.4z M188.2,471.4
		c0,11.7,9.5,21.3,21.3,21.3v-42.5h-21.3V471.4z M188.2,407.6c0,11.7,9.5,21.3,21.3,21.3V195h-21.3V407.6z M230.7,386.3H252v-170
		c0-11.7-9.5-21.3-21.3-21.3V386.3z M422,343.8h-21.3v148.8H422V343.8z M294.4,280.1h21.3v-21.3h-21.3V195h-21.3v297.6h21.3V280.1z
		 M336.9,216.3h-21.3V195h21.3V216.3z"/>
</g>
<g>
	<path class="st1" d="M737,195.6c3.2,0,6.6-2.2,6.6-6.5v-46l20.3,47.2c1.9,4.6,5.3,5.4,7.1,5.4h1.6c3.8,0,6.7-3,6.7-6.5v-72.8
		c0-4.4-3.6-6.7-6.8-6.7c-3.3,0-6.6,2.4-6.6,6.7v45.3l-20.3-47.2c-1.9-4.6-5.5-4.8-6.9-4.8h-1.3c-4.3,0-7.1,3.3-7.1,6.9v72.5
		C730.1,193.5,733.7,195.6,737,195.6z"/>
	<path class="st1" d="M804.7,123.5h10.5V189c0,4.3,3.4,6.5,6.7,6.5c3.2,0,6.7-2.2,6.7-6.5v-65.5h10.5c4.4,0,6.7-3.4,6.7-6.5
		c0-3.2-2.3-6.7-6.7-6.7h-34.4c-4.4,0-6.7,3.4-6.7,6.7C798,120.1,800.3,123.5,804.7,123.5z"/>
	<path class="st1" d="M706.1,171.8v-38.4c0-13.4-10.9-23.8-24.4-23.8h-0.4c-13.5,0-25.5,10.4-25.5,23.8v38.4
		c0,13.6,12,23.8,25.4,23.8h0.5C695.2,195.6,706,185.4,706.1,171.8z M692.7,171.8c0,6.2-4.8,10.7-11,10.7h-0.5
		c-6.1,0-10.9-4.5-10.9-10.7v-38.4c0-6.1,4.8-10.6,10.9-10.6h0.5c6.1,0,10.9,4.4,11,10.6V171.8z"/>
	<path class="st1" d="M952,100.9l22.1-4.6c3.2-0.6,5.3-3.8,4.6-7s-3.8-5.3-7-4.6l-22.1,4.6c-3.2,0.7-5.3,3.8-4.6,7.1
		C945.6,99.5,948.8,101.6,952,100.9z"/>
	<path class="st1" d="M726.6,343.7h-15.4c-1.8,0-3.2,1.4-3.2,3.1v57.4c0,1.8,1.4,3.1,3.2,3.1h15.4c9.7,0,17.7-7.7,17.7-17.3v-29
		C744.3,351.5,736.4,343.7,726.6,343.7z M738,390.1c0,6.2-5,11.1-11.4,11.1h-12.3v-51.3h12.3c6.4,0,11.4,4.9,11.4,11.1V390.1z"/>
	<path class="st1" d="M659.4,240.1v47.8l-22.3-49c-0.6-1.3-1.9-1.9-2.8-1.9h-1.7c-1.7,0-3.2,1.5-3.2,3.1v58.4c0,4.2,6.4,4.2,6.4,0
		v-47.8l22.1,48.9c0.6,1.4,2,2,3.1,2h1.7c1.8,0,3.1-1.3,3.1-3.1v-58.3C665.7,236,659.4,235.9,659.4,240.1z"/>
	<path class="st1" d="M604.1,236.9c-1.5,0-3.1,1.1-3.1,3.1v44.3c0,6.2-5,11.1-11.4,11.1h-0.9c-6.4,0-11.4-4.9-11.4-11.1V240
		c0-2.1-1.6-3.1-3.1-3.1c-1.9,0-3.2,1.3-3.2,3.1v44.3c0,9.5,7.9,17.2,17.7,17.2h0.9c9.7,0,17.7-7.7,17.7-17.2V240
		C607.3,238.2,606,236.9,604.1,236.9z"/>
	<path class="st1" d="M633.2,189.1v-72.8c0-3.5-3.1-6.6-6.7-6.7h-1.4c-3.4,0-5.7,1.7-7,4.6s-15.8,36.2-15.8,36.2
		s-14.5-33.3-15.8-36.2c-1.3-2.9-3.6-4.6-7-4.6H578c-3.5,0-6.6,3.1-6.7,6.7v72.8c0,4.3,3.4,6.5,6.7,6.5c3.2,0,6.7-2.2,6.7-6.5v-46.5
		c0,0,9.1,21.3,10.8,25.2c1.2,2.8,4,4.1,6.7,4.1s5.5-1.3,6.7-4.1c1.7-3.9,10.8-25.2,10.8-25.2v46.5c0,4.3,3.4,6.5,6.7,6.5
		S633.2,193.4,633.2,189.1z"/>
	<path class="st1" d="M772.4,285.2c0-11.8-9.1-16.1-17.1-19.8c-6.7-3.1-12.5-5.8-12.5-12.2c0-5.9,4.3-10,10.5-10h0.9
		c5.2,0,10.7,2.2,10.7,8.4c0,4,6.3,4.1,6.3,0.1c0-8.7-7-14.8-16.9-14.8h-0.9c-9.6,0-16.8,7-16.8,16.2c0,10.3,7.9,14,15.6,17.5
		c7.1,3.3,13.9,6.3,13.9,14.7c0,6-4.7,10.1-11.8,10.1h-0.9c-6.8,0-11.4-4.4-11.4-11c0-1.8-1.3-3.1-3.2-3.1s-3.2,1.3-3.2,3.1
		c0,10.1,7.3,17.2,17.8,17.2h0.9C765,301.5,772.4,294.8,772.4,285.2z"/>
	<path class="st1" d="M662.5,343.7h-29.9c-1.8,0-3.2,1.4-3.2,3.1v57.9c0,2.1,1.7,3,3.2,3s3.1-0.9,3.1-3v-27.2h18.7
		c1.9,0,3.2-1.3,3.2-3.1c0-1.8-1.3-3.1-3.2-3.1h-18.7v-21.4h26.8c2.1,0,3.2-1.6,3.2-3.1C665.7,345.3,664.6,343.7,662.5,343.7z"/>
	<path class="st1" d="M589.3,343.2h-0.9c-9.8,0-17.7,7.7-17.7,17.3v30.2c0,9.5,7.9,17.2,17.7,17.2h0.9c9.7,0,17.7-7.7,17.7-17.2
		v-30.2C607,350.9,599.1,343.2,589.3,343.2z M600.8,390.6c0,6.2-5,11.1-11.4,11.1h-0.9c-6.4,0-11.4-4.9-11.4-11.1v-30.2
		c0-6.2,5-11.1,11.4-11.1h0.9c6.4,0,11.4,4.9,11.4,11.1V390.6z"/>
	<path class="st1" d="M721.8,297.9c0-1.5-1.1-3-3.2-3h-26.8v-23.6h18.8c2.1,0,3.2-1.5,3.2-3c0-1.6-1.1-3.2-3.2-3.2h-18.3v-21.4h26.4
		c2.1,0,3.2-1.5,3.2-3c0-1.8-1.3-3.1-3.2-3.1h-29.9c-1.8,0-3.2,1.4-3.2,3.1V298c0,1.8,1.4,3.1,3.2,3.1h29.9
		C720.5,301.1,721.8,299.8,721.8,297.9z"/>
	<path class="st1" d="M990.5,240.1v58.4c0,2.1,1.7,3,3.2,3s3.2-0.9,3.2-3v-58.4C996.9,235.9,990.5,235.9,990.5,240.1z"/>
	<path class="st1" d="M979.9,123.5c4.4,0,6.6-3.4,6.7-6.5c0-3.2-2.3-6.7-6.7-6.7h-35.7c-3.6,0.1-6.6,3.2-6.7,6.7v71.3
		c0,3.5,3.1,6.7,6.7,6.7h35.7c4.4,0,6.6-3.4,6.7-6.5c0-3.3-2.3-6.7-6.7-6.7h-29v-23.7H970c4.4,0,6.7-3.4,6.7-6.7s-2.4-6.6-6.7-6.6
		h-19.1v-21.3H979.9z"/>
	<path class="st1" d="M1042.2,237.5H1014c-1.9,0-3.2,1.3-3.2,3.1c0,1.5,1.1,3,3.2,3h10.9v54.9c0,2.1,1.6,3,3.1,3
		c1.9,0,3.2-1.2,3.2-3v-54.9h10.9c2.1,0,3.2-1.5,3.2-3C1045.3,238.7,1044,237.5,1042.2,237.5z"/>
	<path class="st1" d="M1116.4,181.8h-24.8v-65.5c0-4.3-3.3-6.7-6.6-6.7c-3.3,0-6.7,2.3-6.7,6.7v72.1c0,3.5,2.9,6.7,6.7,6.7h31.3
		c4.3,0,6.7-3.4,6.7-6.5C1123,185.2,1120.7,181.8,1116.4,181.8z"/>
	<path class="st1" d="M967.7,346.3v47.8l-22.3-49c-0.6-1.3-1.9-1.9-2.8-1.9H941c-1.7,0-3.2,1.5-3.2,3.1v58.4c0,4.2,6.4,4.2,6.4,0
		V357l22.1,48.8c0.6,1.4,2,2,3.1,2h1.7c1.8,0,3.1-1.3,3.1-3.1v-58.3C974.1,342.2,967.7,342.2,967.7,346.3z"/>
	<path class="st1" d="M1086.8,236.9c-1.3,0-2.3,0.7-2.8,1.9l-12.4,29.1l-12.4-29c-0.5-1.2-1.5-1.9-2.8-1.9c-1.6,0-3.3,1.1-3.3,3
		c0,0.1,0,0.3,0.1,0.6l15.2,35.9v22c0,2.1,1.6,3,3.2,3c1.5,0,3.2-0.9,3.2-3v-22l15.1-35.4l0.2-1.1
		C1090,238.1,1088.4,236.9,1086.8,236.9z"/>
	<path class="st1" d="M792,349.9c2.1,0,3.2-1.5,3.2-3c0-1.8-1.3-3.1-3.2-3.1h-29.9c-1.8,0-3.2,1.4-3.2,3.1v57.4
		c0,1.8,1.4,3.1,3.2,3.1H792c1.9,0,3.2-1.3,3.2-3.1c0-1.5-1.1-3-3.2-3h-26.8v-23.6h18.7c2.1,0,3.2-1.5,3.2-3c0-1.6-1.1-3.2-3.2-3.2
		h-18.3v-21.4H792V349.9z"/>
	<path class="st1" d="M1059.5,189.3c0-0.5-0.1-1.1-0.2-1.9l-21.6-72.6c-1.1-3.7-4.4-5.2-7.5-5.2c-3.1,0-6.3,1.8-7.5,5.2l-21.8,72.4
		c-0.1,1-0.3,1.6-0.3,2.2c0,3.5,3,6.2,6.8,6.2c2.6,0.1,5.6-1.4,6.5-4.8l4.4-14.8h23.5l4.5,14.9c1.1,3.3,3.8,4.7,6.3,4.7h0.1
		C1056.5,195.6,1059.5,193,1059.5,189.3z M1022.2,162.7l7.6-27.7l7.9,27.7H1022.2z"/>
	<path class="st1" d="M861.3,346.3v58.4c0,2.1,1.6,3,3.2,3c1.5,0,3.2-0.9,3.2-3v-58.4C867.7,342.2,861.3,342.2,861.3,346.3z"/>
	<path class="st1" d="M826.4,371.7c-6.7-3.1-12.5-5.8-12.5-12.2c0-5.9,4.3-10,10.5-10h0.9c5.2,0,10.7,2.2,10.7,8.4
		c0,4,6.3,4.1,6.3,0.1c0-8.7-7-14.7-16.9-14.7h-0.9c-9.6,0-16.8,7-16.8,16.2c0,10.3,7.9,14,15.6,17.5c7.1,3.3,13.9,6.3,13.9,14.7
		c0,6.1-4.7,10.1-11.8,10.1h-0.9c-6.8,0-11.4-4.4-11.4-11c0-1.8-1.3-3.1-3.2-3.1s-3.2,1.3-3.2,3.1c0,10.1,7.3,17.2,17.8,17.2h0.9
		c10.7,0,18.1-6.7,18.1-16.3C843.4,379.7,834.4,375.5,826.4,371.7z"/>
	<path class="st1" d="M824.9,286.7v-0.3c0-1.8-1.3-3.1-3.1-3.1c-1.5,0-2.8,1-3.2,2.7c-0.7,5.4-5.5,9.5-11.2,9.5h-0.9
		c-6.4,0-11.5-4.9-11.5-11.1v-30.1c0-6.2,5.1-11.1,11.5-11.1h0.9c5.7,0,10.5,4.1,11.2,9.6c0.4,1.5,1.7,2.5,3.1,2.5
		c1.8,0,3.1-1.3,3.1-3.1v-0.4c-1.1-8.4-8.6-14.8-17.5-14.8h-0.9c-9.8,0-17.8,7.7-17.8,17.3v30.1c0,9.5,8,17.2,17.8,17.2h0.9
		C816.5,301.5,823.8,295.3,824.9,286.7z"/>
	<path class="st1" d="M858.7,236.9h-0.9c-9.7,0-17.7,7.7-17.7,17.3v30.1c0,9.5,7.9,17.2,17.7,17.2h0.9c9.7,0,17.7-7.7,17.7-17.2
		v-30.1C876.4,244.7,868.4,236.9,858.7,236.9z M870.1,284.3c0,6.2-5,11.1-11.4,11.1h-0.9c-6.4,0-11.4-4.9-11.4-11.1v-30.1
		c0-6.2,5-11.1,11.4-11.1h0.9c6.4,0,11.4,4.9,11.4,11.1V284.3z"/>
	<path class="st1" d="M903.3,349.4h0.9c6,0,10.9,4.4,11.3,10.2c0.1,1.9,1.2,3,3.2,3s3.2-1.1,3.2-3.3c0-8.8-7.9-16-17.7-16h-0.9
		c-9.7,0-17.7,7.7-17.7,17.3v30.2c0,9.5,7.9,17.2,17.7,17.2h0.9c9.7,0,17.7-7.7,17.7-17.2v-14.5c0-1.7-1.4-3-3.2-3h-13.4
		c-1.8,0-3.2,1.3-3.2,3.1c0,1.5,1.1,3,3.2,3h10.3v11.4c0,6.2-5,11.1-11.4,11.1h-0.9c-6.4,0-11.4-4.9-11.4-11.1v-30.2
		C891.9,354.2,896.9,349.4,903.3,349.4z"/>
	<path class="st1" d="M901.8,192c1.2,2.5,3.5,3.6,5.6,3.6h0.1c4.1,0,7.1-2.8,7.1-6.5c0-0.9-0.3-1.9-0.7-2.8L901,158.5
		c9-3.5,14.5-12.4,14.5-22.7v-1.1c0-13.4-10.9-24.3-24.4-24.3H872c-3.6,0.1-6.7,3.1-6.7,6.7v72.1c0,4.4,3.5,6.5,6.8,6.5
		c3.2,0,6.6-2.2,6.6-6.5V160h8.3L901.8,192z M878.6,146.7v-23.1h13c6.1,0.1,10.6,4.8,10.6,11.1v1.1c0,6.1-4.4,10.9-10.5,10.9H878.6z
		"/>
	<path class="st1" d="M955.3,301.5h0.9c9.1,0,16.4-6.2,17.5-14.8v-0.3c0-1.8-1.3-3.1-3.1-3.1c-1.5,0-2.8,1-3.2,2.7
		c-0.7,5.4-5.5,9.5-11.2,9.5h-0.9c-6.4,0-11.5-4.9-11.5-11.1v-30.1c0-6.2,5.1-11.1,11.5-11.1h0.9c5.7,0,10.5,4.1,11.2,9.6
		c0.4,1.5,1.7,2.5,3.1,2.5c1.8,0,3.1-1.3,3.1-3.1v-0.4c-1.1-8.4-8.6-14.8-17.5-14.8h-0.9c-9.8,0-17.8,7.7-17.8,17.3v30.1
		C937.6,293.8,945.6,301.5,955.3,301.5z"/>
</g>
</svg>
