<?xml version="1.0" encoding="utf-8"?>
<!-- Generator: Adobe Illustrator 24.0.0, SVG Export Plug-In . SVG Version: 6.00 Build 0)  -->
<svg version="1.1" id="Layer_1" xmlns="http://www.w3.org/2000/svg" xmlns:xlink="http://www.w3.org/1999/xlink" x="0px" y="0px"
	 viewBox="0 0 348.521 163.25" style="enable-background:new 0 0 348.521 163.25;" xml:space="preserve">
<style type="text/css">
	.st0{clip-path:url(#SVGID_2_);}
	.st1{clip-path:url(#SVGID_4_);}
	.st2{clip-path:url(#SVGID_6_);}
	.st3{clip-path:url(#SVGID_8_);}
	.st4{clip-path:url(#SVGID_10_);}
	.st5{clip-path:url(#SVGID_12_);}
	.st6{clip-path:url(#SVGID_14_);}
	.st7{clip-path:url(#SVGID_16_);}
	.st8{clip-path:url(#SVGID_18_);}
	.st9{clip-path:url(#SVGID_20_);}
	.st10{clip-path:url(#SVGID_22_);}
	.st11{clip-path:url(#SVGID_24_);}
	.st12{clip-path:url(#SVGID_26_);}
	.st13{clip-path:url(#SVGID_28_);}
	.st14{clip-path:url(#SVGID_30_);}
	.st15{clip-path:url(#SVGID_32_);}
	.st16{clip-path:url(#SVGID_34_);}
	.st17{clip-path:url(#SVGID_36_);}
	.st18{clip-path:url(#SVGID_38_);}
	.st19{clip-path:url(#SVGID_40_);}
	.st20{clip-path:url(#SVGID_42_);}
	.st21{clip-path:url(#SVGID_44_);}
	.st22{clip-path:url(#SVGID_46_);}
	.st23{clip-path:url(#SVGID_48_);}
	.st24{clip-path:url(#SVGID_50_);}
	.st25{clip-path:url(#SVGID_52_);}
	.st26{clip-path:url(#SVGID_54_);}
	.st27{clip-path:url(#SVGID_56_);}
	.st28{clip-path:url(#SVGID_58_);}
	.st29{clip-path:url(#SVGID_60_);}
	.st30{clip-path:url(#SVGID_62_);}
	.st31{clip-path:url(#SVGID_64_);}
	.st32{clip-path:url(#SVGID_66_);}
	.st33{enable-background:new    ;}
	.st34{fill:#121617;}
</style>
<g>
	<g>
		<defs>
			<rect id="SVGID_1_" width="348.521" height="163.25"/>
		</defs>
		<clipPath id="SVGID_2_">
			<use xlink:href="#SVGID_1_"  style="overflow:visible;"/>
		</clipPath>
		<path class="st0" d="M131.634,6.415c0,0.651-0.531,1.18-1.18,1.18c-0.652,0-1.179-0.529-1.179-1.18s0.527-1.18,1.179-1.18
			C131.103,5.235,131.634,5.764,131.634,6.415"/>
	</g>
	<g>
		<defs>
			<rect id="SVGID_3_" width="348.521" height="163.25"/>
		</defs>
		<clipPath id="SVGID_4_">
			<use xlink:href="#SVGID_3_"  style="overflow:visible;"/>
		</clipPath>
		<path class="st1" d="M131.634,10.61c0,0.651-0.531,1.18-1.18,1.18c-0.652,0-1.179-0.529-1.179-1.18s0.527-1.18,1.179-1.18
			C131.103,9.43,131.634,9.959,131.634,10.61"/>
	</g>
	<g>
		<defs>
			<rect id="SVGID_5_" width="348.521" height="163.25"/>
		</defs>
		<clipPath id="SVGID_6_">
			<use xlink:href="#SVGID_5_"  style="overflow:visible;"/>
		</clipPath>
		<path class="st2" d="M131.634,15.158c0,0.651-0.531,1.18-1.18,1.18c-0.652,0-1.179-0.529-1.179-1.18s0.527-1.18,1.179-1.18
			C131.103,13.978,131.634,14.507,131.634,15.158"/>
	</g>
	<g>
		<defs>
			<rect id="SVGID_7_" width="348.521" height="163.25"/>
		</defs>
		<clipPath id="SVGID_8_">
			<use xlink:href="#SVGID_7_"  style="overflow:visible;"/>
		</clipPath>
		<path class="st3" d="M131.634,19.709c0,0.651-0.531,1.18-1.18,1.18c-0.652,0-1.179-0.529-1.179-1.18s0.527-1.18,1.179-1.18
			C131.103,18.529,131.634,19.058,131.634,19.709"/>
	</g>
	<g>
		<defs>
			<rect id="SVGID_9_" width="348.521" height="163.25"/>
		</defs>
		<clipPath id="SVGID_10_">
			<use xlink:href="#SVGID_9_"  style="overflow:visible;"/>
		</clipPath>
		<path class="st4" d="M131.634,24.608c0,0.651-0.531,1.18-1.18,1.18c-0.652,0-1.179-0.529-1.179-1.18
			c0-0.651,0.527-1.18,1.179-1.18C131.103,23.428,131.634,23.957,131.634,24.608"/>
	</g>
	<g>
		<defs>
			<rect id="SVGID_11_" width="348.521" height="163.25"/>
		</defs>
		<clipPath id="SVGID_12_">
			<use xlink:href="#SVGID_11_"  style="overflow:visible;"/>
		</clipPath>
		<path class="st5" d="M131.634,29.508c0,0.651-0.531,1.18-1.18,1.18c-0.652,0-1.179-0.529-1.179-1.18s0.527-1.18,1.179-1.18
			C131.103,28.328,131.634,28.857,131.634,29.508"/>
	</g>
	<g>
		<defs>
			<rect id="SVGID_13_" width="348.521" height="163.25"/>
		</defs>
		<clipPath id="SVGID_14_">
			<use xlink:href="#SVGID_13_"  style="overflow:visible;"/>
		</clipPath>
		<path class="st6" d="M131.634,34.549c0,0.651-0.531,1.18-1.18,1.18c-0.652,0-1.179-0.529-1.179-1.18s0.527-1.18,1.179-1.18
			C131.103,33.369,131.634,33.898,131.634,34.549"/>
	</g>
	<g>
		<defs>
			<rect id="SVGID_15_" width="348.521" height="163.25"/>
		</defs>
		<clipPath id="SVGID_16_">
			<use xlink:href="#SVGID_15_"  style="overflow:visible;"/>
		</clipPath>
		<path class="st7" d="M131.634,39.588c0,0.651-0.531,1.18-1.18,1.18c-0.652,0-1.179-0.529-1.179-1.18s0.527-1.18,1.179-1.18
			C131.103,38.408,131.634,38.937,131.634,39.588"/>
	</g>
	<g>
		<defs>
			<rect id="SVGID_17_" width="348.521" height="163.25"/>
		</defs>
		<clipPath id="SVGID_18_">
			<use xlink:href="#SVGID_17_"  style="overflow:visible;"/>
		</clipPath>
		<path class="st8" d="M131.634,45.049c0,0.651-0.531,1.18-1.18,1.18c-0.652,0-1.179-0.529-1.179-1.18s0.527-1.18,1.179-1.18
			C131.103,43.869,131.634,44.398,131.634,45.049"/>
	</g>
	<g>
		<defs>
			<rect id="SVGID_19_" width="348.521" height="163.25"/>
		</defs>
		<clipPath id="SVGID_20_">
			<use xlink:href="#SVGID_19_"  style="overflow:visible;"/>
		</clipPath>
		<path class="st9" d="M131.634,50.508c0,0.651-0.531,1.18-1.18,1.18c-0.652,0-1.179-0.529-1.179-1.18s0.527-1.18,1.179-1.18
			C131.103,49.328,131.634,49.857,131.634,50.508"/>
	</g>
	<g>
		<defs>
			<rect id="SVGID_21_" width="348.521" height="163.25"/>
		</defs>
		<clipPath id="SVGID_22_">
			<use xlink:href="#SVGID_21_"  style="overflow:visible;"/>
		</clipPath>
		<path class="st10" d="M131.634,56.248c0,0.651-0.531,1.18-1.18,1.18c-0.652,0-1.179-0.529-1.179-1.18s0.527-1.18,1.179-1.18
			C131.103,55.068,131.634,55.597,131.634,56.248"/>
	</g>
	<g>
		<defs>
			<rect id="SVGID_23_" width="348.521" height="163.25"/>
		</defs>
		<clipPath id="SVGID_24_">
			<use xlink:href="#SVGID_23_"  style="overflow:visible;"/>
		</clipPath>
		<path class="st11" d="M131.634,62.129c0,0.651-0.531,1.18-1.18,1.18c-0.652,0-1.179-0.529-1.179-1.18s0.527-1.18,1.179-1.18
			C131.103,60.949,131.634,61.478,131.634,62.129"/>
	</g>
	<g>
		<defs>
			<rect id="SVGID_25_" width="348.521" height="163.25"/>
		</defs>
		<clipPath id="SVGID_26_">
			<use xlink:href="#SVGID_25_"  style="overflow:visible;"/>
		</clipPath>
		<path class="st12" d="M131.634,68.289c0,0.651-0.531,1.18-1.18,1.18c-0.652,0-1.179-0.529-1.179-1.18s0.527-1.18,1.179-1.18
			C131.103,67.109,131.634,67.638,131.634,68.289"/>
	</g>
	<g>
		<defs>
			<rect id="SVGID_27_" width="348.521" height="163.25"/>
		</defs>
		<clipPath id="SVGID_28_">
			<use xlink:href="#SVGID_27_"  style="overflow:visible;"/>
		</clipPath>
		<path class="st13" d="M131.634,75.29c0,0.65-0.531,1.179-1.18,1.179c-0.652,0-1.179-0.529-1.179-1.179
			c0-0.652,0.527-1.18,1.179-1.18C131.103,74.11,131.634,74.638,131.634,75.29"/>
	</g>
	<g>
		<defs>
			<rect id="SVGID_29_" width="348.521" height="163.25"/>
		</defs>
		<clipPath id="SVGID_30_">
			<use xlink:href="#SVGID_29_"  style="overflow:visible;"/>
		</clipPath>
		<path class="st14" d="M131.634,82.988c0,0.65-0.531,1.18-1.18,1.18c-0.652,0-1.179-0.53-1.179-1.18c0-0.651,0.527-1.18,1.179-1.18
			C131.103,81.808,131.634,82.337,131.634,82.988"/>
	</g>
	<g>
		<defs>
			<rect id="SVGID_31_" width="348.521" height="163.25"/>
		</defs>
		<clipPath id="SVGID_32_">
			<use xlink:href="#SVGID_31_"  style="overflow:visible;"/>
		</clipPath>
		<path class="st15" d="M131.634,92.089c0,0.65-0.531,1.18-1.18,1.18c-0.652,0-1.179-0.53-1.179-1.18c0-0.652,0.527-1.18,1.179-1.18
			C131.103,90.909,131.634,91.437,131.634,92.089"/>
	</g>
	<g>
		<defs>
			<rect id="SVGID_33_" width="348.521" height="163.25"/>
		</defs>
		<clipPath id="SVGID_34_">
			<use xlink:href="#SVGID_33_"  style="overflow:visible;"/>
		</clipPath>
		<path class="st16" d="M131.634,101.89c0,0.65-0.531,1.18-1.18,1.18c-0.652,0-1.179-0.53-1.179-1.18c0-0.652,0.527-1.18,1.179-1.18
			C131.103,100.71,131.634,101.238,131.634,101.89"/>
	</g>
	<g>
		<defs>
			<rect id="SVGID_35_" width="348.521" height="163.25"/>
		</defs>
		<clipPath id="SVGID_36_">
			<use xlink:href="#SVGID_35_"  style="overflow:visible;"/>
		</clipPath>
		<path class="st17" d="M131.634,113.077c0,0.652-0.531,1.18-1.18,1.18c-0.652,0-1.179-0.528-1.179-1.18
			c0-0.648,0.527-1.18,1.179-1.18C131.103,111.897,131.634,112.429,131.634,113.077"/>
	</g>
	<g>
		<defs>
			<rect id="SVGID_37_" width="348.521" height="163.25"/>
		</defs>
		<clipPath id="SVGID_38_">
			<use xlink:href="#SVGID_37_"  style="overflow:visible;"/>
		</clipPath>
		<path class="st18" d="M131.634,125.7c0,0.652-0.531,1.178-1.18,1.178c-0.652,0-1.179-0.526-1.179-1.178
			c0-0.654,0.527-1.182,1.179-1.182C131.103,124.518,131.634,125.046,131.634,125.7"/>
	</g>
	<g>
		<defs>
			<rect id="SVGID_39_" width="348.521" height="163.25"/>
		</defs>
		<clipPath id="SVGID_40_">
			<use xlink:href="#SVGID_39_"  style="overflow:visible;"/>
		</clipPath>
		<path class="st19" d="M131.634,139.7c0,0.652-0.531,1.178-1.18,1.178c-0.652,0-1.179-0.526-1.179-1.178
			c0-0.654,0.527-1.182,1.179-1.182C131.103,138.518,131.634,139.046,131.634,139.7"/>
	</g>
	<g>
		<defs>
			<rect id="SVGID_41_" width="348.521" height="163.25"/>
		</defs>
		<clipPath id="SVGID_42_">
			<use xlink:href="#SVGID_41_"  style="overflow:visible;"/>
		</clipPath>
		<path class="st20" d="M131.634,155.102c0,0.65-0.531,1.178-1.18,1.178c-0.652,0-1.179-0.528-1.179-1.178
			c0-0.652,0.527-1.182,1.179-1.182C131.103,153.921,131.634,154.451,131.634,155.102"/>
	</g>
	<g>
		<defs>
			<rect id="SVGID_43_" width="348.521" height="163.25"/>
		</defs>
		<clipPath id="SVGID_44_">
			<use xlink:href="#SVGID_43_"  style="overflow:visible;"/>
		</clipPath>
		<rect x="41.087" y="70.368" class="st21" width="69.254" height="2.903"/>
	</g>
	<g>
		<defs>
			<rect id="SVGID_45_" width="348.521" height="163.25"/>
		</defs>
		<clipPath id="SVGID_46_">
			<use xlink:href="#SVGID_45_"  style="overflow:visible;"/>
		</clipPath>
		<rect x="37.167" y="75.305" class="st22" width="76.949" height="2.903"/>
	</g>
	<g>
		<defs>
			<rect id="SVGID_47_" width="348.521" height="163.25"/>
		</defs>
		<clipPath id="SVGID_48_">
			<use xlink:href="#SVGID_47_"  style="overflow:visible;"/>
		</clipPath>
		<rect x="33.538" y="80.241" class="st23" width="84.354" height="2.904"/>
	</g>
	<g>
		<defs>
			<rect id="SVGID_49_" width="348.521" height="163.25"/>
		</defs>
		<clipPath id="SVGID_50_">
			<use xlink:href="#SVGID_49_"  style="overflow:visible;"/>
		</clipPath>
		<rect x="41.087" y="33.764" class="st24" width="69.254" height="2.903"/>
	</g>
	<g>
		<defs>
			<rect id="SVGID_51_" width="348.521" height="163.25"/>
		</defs>
		<clipPath id="SVGID_52_">
			<use xlink:href="#SVGID_51_"  style="overflow:visible;"/>
		</clipPath>
		<polygon class="st25" points="55.099,31.894 75.714,25.723 95.896,31.894 104.316,31.894 75.714,23.038 46.677,31.894 		"/>
	</g>
	<g>
		<defs>
			<rect id="SVGID_53_" width="348.521" height="163.25"/>
		</defs>
		<clipPath id="SVGID_54_">
			<use xlink:href="#SVGID_53_"  style="overflow:visible;"/>
		</clipPath>
		<polygon class="st26" points="41.087,31.894 75.497,21.368 110.341,31.894 110.341,28.772 75.714,18.101 41.087,28.772 		"/>
	</g>
	<g>
		<defs>
			<rect id="SVGID_55_" width="348.521" height="163.25"/>
		</defs>
		<clipPath id="SVGID_56_">
			<use xlink:href="#SVGID_55_"  style="overflow:visible;"/>
		</clipPath>
		<path class="st27" d="M45.153,66.606c0,0,0,2.177,2.467,2.177c2.469,0,2.324-2.177,2.324-2.177V38.439h-1.816v28.239
			c0,0,0,0.509-0.653,0.509c-0.654,0-0.508-0.653-0.508-0.653V38.439h-1.814V66.606z"/>
	</g>
	<g>
		<defs>
			<rect id="SVGID_57_" width="348.521" height="163.25"/>
		</defs>
		<clipPath id="SVGID_58_">
			<use xlink:href="#SVGID_57_"  style="overflow:visible;"/>
		</clipPath>
		<polygon class="st28" points="56.55,68.783 58.001,68.783 58.001,50.54 59.816,68.783 61.341,68.783 61.341,38.439 59.816,38.439 
			59.816,54.657 58.001,38.439 56.55,38.439 		"/>
	</g>
	<g>
		<defs>
			<rect id="SVGID_59_" width="348.521" height="163.25"/>
		</defs>
		<clipPath id="SVGID_60_">
			<use xlink:href="#SVGID_59_"  style="overflow:visible;"/>
		</clipPath>
		<polygon class="st29" points="68.093,68.783 72.738,68.783 72.738,67.186 70.124,67.186 70.124,53.466 72.085,53.466 
			72.085,51.797 70.124,51.797 70.124,39.964 72.085,39.964 72.085,38.439 68.093,38.439 		"/>
	</g>
	<g>
		<defs>
			<rect id="SVGID_61_" width="348.521" height="163.25"/>
		</defs>
		<clipPath id="SVGID_62_">
			<use xlink:href="#SVGID_61_"  style="overflow:visible;"/>
		</clipPath>
		<path class="st30" d="M94.806,47.441v-6.824c0,0-0.072-2.178-2.395-2.178c-2.322,0-2.322,2.178-2.322,2.178v25.989
			c0,0-0.076,2.177,2.322,2.177c2.395,0,2.395-2.177,2.395-2.177v-7.623h-1.814v7.623c0,0,0,0.58-0.581,0.58
			c-0.544,0-0.654-0.58-0.654-0.58V40.617c0,0,0-0.654,0.654-0.654c0.581,0,0.581,0.654,0.581,0.654v6.824H94.806z"/>
	</g>
	<g>
		<defs>
			<rect id="SVGID_63_" width="348.521" height="163.25"/>
		</defs>
		<clipPath id="SVGID_64_">
			<use xlink:href="#SVGID_63_"  style="overflow:visible;"/>
		</clipPath>
		<path class="st31" d="M106.348,40.618c0,0,0.145-2.179-2.396-2.179c-2.539,0-2.539,2.179-2.539,2.179v25.988
			c0,0,0,2.177,2.394,2.177c2.541,0,2.541-2.177,2.541-2.177S106.348,40.618,106.348,40.618z M104.606,66.606
			c0,0,0.072,0.581-0.654,0.581c-0.725,0-0.725-0.581-0.725-0.581V40.618c0,0,0-0.654,0.652-0.654c0.727,0,0.727,0.654,0.727,0.654
			V66.606z"/>
	</g>
	<g>
		<defs>
			<rect id="SVGID_65_" width="348.521" height="163.25"/>
		</defs>
		<clipPath id="SVGID_66_">
			<use xlink:href="#SVGID_65_"  style="overflow:visible;"/>
		</clipPath>
		<path class="st32" d="M81.522,66.606c0,0,0,0.581-0.473,0.543c-0.472-0.035-0.472-0.543-0.472-0.543v-7.622H78.69v7.622
			c0,0-0.072,2.177,2.322,2.177c2.397,0,2.397-2.177,2.397-2.177s0-5.082-0.002-6.565c-0.006-3.562-2.83-10.35-2.83-12.597v-6.826
			c0,0-0.073-0.654,0.435-0.654c0.51,0,0.51,0.654,0.51,0.654v6.823h1.887v-6.823c0,0,0.072-2.251-2.323-2.179
			c-2.396,0.073-2.396,2.179-2.396,2.179v5.807c0,3.811,2.832,10.235,2.832,13.175V66.606z"/>
	</g>
</g>
<g class="st33">
	<path class="st34" d="M151.471,46.604l2.522,0.8c-0.387,1.406-1.03,2.451-1.929,3.133c-0.899,0.684-2.041,1.024-3.423,1.024
		c-1.711,0-3.117-0.585-4.219-1.753c-1.102-1.17-1.652-2.768-1.652-4.795c0-2.145,0.554-3.811,1.661-4.996
		c1.107-1.188,2.563-1.78,4.368-1.78c1.576,0,2.856,0.466,3.841,1.397c0.586,0.551,1.025,1.342,1.318,2.373l-2.575,0.615
		c-0.152-0.668-0.47-1.195-0.954-1.582s-1.071-0.58-1.762-0.58c-0.955,0-1.73,0.343-2.325,1.028s-0.892,1.796-0.892,3.331
		c0,1.629,0.293,2.789,0.879,3.48s1.348,1.037,2.285,1.037c0.691,0,1.286-0.22,1.784-0.659S151.254,47.547,151.471,46.604z"/>
	<path class="st34" d="M155.637,46.542c0-0.82,0.202-1.614,0.606-2.382s0.977-1.354,1.718-1.758s1.569-0.606,2.483-0.606
		c1.412,0,2.569,0.459,3.472,1.375c0.902,0.918,1.354,2.076,1.354,3.477c0,1.412-0.456,2.583-1.367,3.512s-2.058,1.393-3.441,1.393
		c-0.855,0-1.671-0.193-2.448-0.58s-1.367-0.953-1.771-1.701C155.839,48.525,155.637,47.615,155.637,46.542z M158.168,46.674
		c0,0.926,0.22,1.635,0.659,2.127s0.981,0.738,1.626,0.738s1.185-0.246,1.622-0.738s0.655-1.207,0.655-2.145
		c0-0.914-0.218-1.617-0.655-2.109s-0.977-0.738-1.622-0.738s-1.187,0.246-1.626,0.738S158.168,45.749,158.168,46.674z"/>
	<path class="st34" d="M169.049,44.855l-2.241-0.404c0.252-0.902,0.686-1.57,1.301-2.004s1.529-0.65,2.742-0.65
		c1.102,0,1.922,0.131,2.461,0.391c0.539,0.262,0.918,0.593,1.138,0.994s0.33,1.138,0.33,2.21l-0.026,2.883
		c0,0.82,0.04,1.426,0.119,1.815s0.227,0.807,0.444,1.252h-2.443c-0.064-0.164-0.144-0.407-0.237-0.729
		c-0.041-0.146-0.07-0.243-0.088-0.29c-0.422,0.41-0.873,0.718-1.354,0.923s-0.993,0.308-1.538,0.308
		c-0.961,0-1.718-0.261-2.272-0.782s-0.831-1.181-0.831-1.978c0-0.527,0.126-0.998,0.378-1.41c0.252-0.414,0.605-0.73,1.059-0.949
		c0.454-0.221,1.109-0.412,1.964-0.576c1.154-0.217,1.954-0.419,2.399-0.606v-0.246c0-0.475-0.117-0.813-0.352-1.015
		c-0.234-0.203-0.677-0.304-1.327-0.304c-0.439,0-0.782,0.087-1.028,0.259C169.4,44.119,169.201,44.421,169.049,44.855z
		 M172.354,46.859c-0.316,0.105-0.817,0.231-1.503,0.378s-1.134,0.29-1.345,0.431c-0.322,0.229-0.483,0.519-0.483,0.87
		c0,0.346,0.129,0.645,0.387,0.896s0.586,0.378,0.984,0.378c0.445,0,0.87-0.146,1.274-0.439c0.299-0.223,0.495-0.495,0.589-0.817
		c0.064-0.211,0.097-0.612,0.097-1.204V46.859z"/>
	<path class="st34" d="M177.214,51.341V38.457h2.47v12.885H177.214z"/>
	<path class="st34" d="M182.215,40.742v-2.285h2.47v2.285H182.215z M182.215,51.341v-9.334h2.47v9.334H182.215z"/>
	<path class="st34" d="M191.496,42.007v1.969h-1.688v3.762c0,0.762,0.016,1.206,0.049,1.332c0.031,0.126,0.105,0.229,0.219,0.312
		c0.115,0.082,0.254,0.123,0.418,0.123c0.229,0,0.56-0.079,0.993-0.237l0.211,1.916c-0.574,0.246-1.225,0.369-1.951,0.369
		c-0.445,0-0.847-0.074-1.204-0.225c-0.357-0.148-0.619-0.342-0.787-0.58c-0.166-0.236-0.282-0.558-0.347-0.962
		c-0.053-0.287-0.079-0.867-0.079-1.74v-4.069h-1.134v-1.969h1.134v-1.854l2.479-1.441v3.296H191.496z"/>
	<path class="st34" d="M193.21,40.742v-2.285h2.47v2.285H193.21z M193.21,51.341v-9.334h2.47v9.334H193.21z"/>
	<path class="st34" d="M197.64,46.542c0-0.82,0.202-1.614,0.606-2.382s0.977-1.354,1.719-1.758c0.74-0.404,1.568-0.606,2.482-0.606
		c1.412,0,2.569,0.459,3.472,1.375c0.902,0.918,1.354,2.076,1.354,3.477c0,1.412-0.456,2.583-1.366,3.512
		c-0.912,0.929-2.059,1.393-3.441,1.393c-0.855,0-1.672-0.193-2.447-0.58c-0.777-0.387-1.367-0.953-1.771-1.701
		C197.842,48.525,197.64,47.615,197.64,46.542z M200.171,46.674c0,0.926,0.22,1.635,0.659,2.127s0.981,0.738,1.626,0.738
		s1.185-0.246,1.622-0.738c0.436-0.492,0.654-1.207,0.654-2.145c0-0.914-0.219-1.617-0.654-2.109
		c-0.438-0.492-0.978-0.738-1.622-0.738s-1.187,0.246-1.626,0.738S200.171,45.749,200.171,46.674z"/>
	<path class="st34" d="M217.696,51.341h-2.47v-4.764c0-1.008-0.053-1.659-0.158-1.955s-0.277-0.526-0.514-0.69
		c-0.238-0.164-0.523-0.246-0.857-0.246c-0.428,0-0.812,0.117-1.151,0.352s-0.573,0.545-0.698,0.932
		c-0.127,0.387-0.189,1.102-0.189,2.145v4.228h-2.47v-9.334h2.294v1.371c0.814-1.055,1.84-1.582,3.076-1.582
		c0.545,0,1.043,0.099,1.494,0.295s0.793,0.446,1.023,0.751c0.232,0.305,0.393,0.65,0.484,1.037c0.09,0.387,0.136,0.94,0.136,1.661
		V51.341z"/>
	<path class="st34" d="M225.202,40.742v-2.285h2.47v2.285H225.202z M225.202,51.341v-9.334h2.47v9.334H225.202z"/>
	<path class="st34" d="M238.693,51.341h-2.47v-4.764c0-1.008-0.053-1.659-0.158-1.955s-0.276-0.526-0.515-0.69
		c-0.236-0.164-0.522-0.246-0.856-0.246c-0.428,0-0.812,0.117-1.151,0.352s-0.572,0.545-0.699,0.932
		c-0.125,0.387-0.188,1.102-0.188,2.145v4.228h-2.47v-9.334h2.294v1.371c0.814-1.055,1.84-1.582,3.076-1.582
		c0.545,0,1.043,0.099,1.494,0.295s0.792,0.446,1.024,0.751c0.23,0.305,0.393,0.65,0.482,1.037c0.092,0.387,0.137,0.94,0.137,1.661
		V51.341z"/>
	<path class="st34" d="M245.479,42.007v1.969h-1.688v3.762c0,0.762,0.016,1.206,0.049,1.332c0.031,0.126,0.105,0.229,0.219,0.312
		c0.115,0.082,0.254,0.123,0.418,0.123c0.229,0,0.56-0.079,0.993-0.237l0.211,1.916c-0.574,0.246-1.225,0.369-1.951,0.369
		c-0.445,0-0.847-0.074-1.204-0.225c-0.357-0.148-0.619-0.342-0.787-0.58c-0.166-0.236-0.282-0.558-0.347-0.962
		c-0.053-0.287-0.079-0.867-0.079-1.74v-4.069h-1.134v-1.969h1.134v-1.854l2.479-1.441v3.296H245.479z"/>
	<path class="st34" d="M252.598,48.371l2.461,0.413c-0.316,0.902-0.816,1.59-1.498,2.062c-0.684,0.472-1.537,0.707-2.563,0.707
		c-1.623,0-2.824-0.53-3.604-1.591c-0.615-0.85-0.923-1.922-0.923-3.217c0-1.547,0.404-2.758,1.213-3.634s1.831-1.314,3.067-1.314
		c1.389,0,2.484,0.459,3.287,1.375c0.803,0.918,1.187,2.322,1.151,4.215h-6.188c0.018,0.732,0.217,1.303,0.598,1.709
		c0.381,0.408,0.855,0.611,1.424,0.611c0.387,0,0.712-0.105,0.976-0.316S252.463,48.839,252.598,48.371z M252.738,45.875
		c-0.018-0.715-0.202-1.258-0.554-1.631c-0.352-0.371-0.779-0.558-1.283-0.558c-0.539,0-0.984,0.196-1.336,0.589
		s-0.524,0.926-0.519,1.6H252.738z"/>
	<path class="st34" d="M259.567,51.341h-2.47v-9.334h2.294v1.327c0.393-0.627,0.745-1.04,1.06-1.239
		c0.313-0.199,0.669-0.299,1.067-0.299c0.563,0,1.104,0.155,1.626,0.466l-0.765,2.153c-0.416-0.27-0.803-0.404-1.16-0.404
		c-0.346,0-0.639,0.096-0.879,0.285c-0.24,0.191-0.429,0.535-0.567,1.033c-0.137,0.498-0.206,1.541-0.206,3.129V51.341z"/>
	<path class="st34" d="M272.698,51.341h-2.47v-4.764c0-1.008-0.053-1.659-0.158-1.955s-0.277-0.526-0.514-0.69
		c-0.238-0.164-0.523-0.246-0.857-0.246c-0.428,0-0.812,0.117-1.151,0.352s-0.573,0.545-0.698,0.932
		c-0.127,0.387-0.189,1.102-0.189,2.145v4.228h-2.47v-9.334h2.294v1.371c0.814-1.055,1.84-1.582,3.076-1.582
		c0.545,0,1.043,0.099,1.494,0.295s0.793,0.446,1.023,0.751c0.232,0.305,0.393,0.65,0.484,1.037c0.09,0.387,0.136,0.94,0.136,1.661
		V51.341z"/>
	<path class="st34" d="M277.049,44.855l-2.241-0.404c0.252-0.902,0.686-1.57,1.301-2.004s1.529-0.65,2.742-0.65
		c1.102,0,1.922,0.131,2.461,0.391c0.539,0.262,0.919,0.593,1.138,0.994c0.221,0.401,0.33,1.138,0.33,2.21l-0.026,2.883
		c0,0.82,0.04,1.426,0.118,1.815c0.08,0.39,0.228,0.807,0.444,1.252h-2.443c-0.064-0.164-0.144-0.407-0.237-0.729
		c-0.041-0.146-0.07-0.243-0.088-0.29c-0.422,0.41-0.873,0.718-1.354,0.923s-0.993,0.308-1.538,0.308
		c-0.961,0-1.718-0.261-2.272-0.782c-0.553-0.521-0.83-1.181-0.83-1.978c0-0.527,0.126-0.998,0.378-1.41
		c0.252-0.414,0.604-0.73,1.06-0.949c0.453-0.221,1.108-0.412,1.964-0.576c1.154-0.217,1.954-0.419,2.399-0.606v-0.246
		c0-0.475-0.117-0.813-0.352-1.015c-0.234-0.203-0.677-0.304-1.327-0.304c-0.439,0-0.782,0.087-1.028,0.259
		C277.4,44.119,277.201,44.421,277.049,44.855z M280.354,46.859c-0.316,0.105-0.817,0.231-1.503,0.378s-1.134,0.29-1.345,0.431
		c-0.322,0.229-0.483,0.519-0.483,0.87c0,0.346,0.129,0.645,0.387,0.896s0.586,0.378,0.984,0.378c0.445,0,0.87-0.146,1.274-0.439
		c0.299-0.223,0.495-0.495,0.589-0.817c0.064-0.211,0.097-0.612,0.097-1.204V46.859z"/>
	<path class="st34" d="M289.494,42.007v1.969h-1.688v3.762c0,0.762,0.016,1.206,0.049,1.332c0.031,0.126,0.105,0.229,0.219,0.312
		c0.115,0.082,0.254,0.123,0.418,0.123c0.229,0,0.56-0.079,0.993-0.237l0.211,1.916c-0.574,0.246-1.225,0.369-1.951,0.369
		c-0.445,0-0.847-0.074-1.204-0.225c-0.357-0.148-0.619-0.342-0.787-0.58c-0.166-0.236-0.282-0.558-0.347-0.962
		c-0.053-0.287-0.079-0.867-0.079-1.74v-4.069h-1.134v-1.969h1.134v-1.854l2.479-1.441v3.296H289.494z"/>
	<path class="st34" d="M291.208,40.742v-2.285h2.47v2.285H291.208z M291.208,51.341v-9.334h2.47v9.334H291.208z"/>
	<path class="st34" d="M295.638,46.542c0-0.82,0.202-1.614,0.606-2.382s0.977-1.354,1.719-1.758c0.74-0.404,1.568-0.606,2.482-0.606
		c1.412,0,2.569,0.459,3.472,1.375c0.902,0.918,1.354,2.076,1.354,3.477c0,1.412-0.456,2.583-1.366,3.512
		c-0.912,0.929-2.059,1.393-3.441,1.393c-0.855,0-1.672-0.193-2.447-0.58c-0.777-0.387-1.367-0.953-1.771-1.701
		C295.84,48.525,295.638,47.615,295.638,46.542z M298.169,46.674c0,0.926,0.22,1.635,0.659,2.127s0.981,0.738,1.626,0.738
		s1.185-0.246,1.622-0.738c0.436-0.492,0.654-1.207,0.654-2.145c0-0.914-0.219-1.617-0.654-2.109
		c-0.438-0.492-0.978-0.738-1.622-0.738s-1.187,0.246-1.626,0.738S298.169,45.749,298.169,46.674z"/>
	<path class="st34" d="M315.694,51.341h-2.47v-4.764c0-1.008-0.053-1.659-0.158-1.955s-0.277-0.526-0.514-0.69
		c-0.238-0.164-0.523-0.246-0.857-0.246c-0.428,0-0.812,0.117-1.151,0.352s-0.573,0.545-0.698,0.932
		c-0.127,0.387-0.189,1.102-0.189,2.145v4.228h-2.47v-9.334h2.294v1.371c0.814-1.055,1.84-1.582,3.076-1.582
		c0.545,0,1.043,0.099,1.494,0.295s0.793,0.446,1.023,0.751c0.232,0.305,0.393,0.65,0.484,1.037c0.09,0.387,0.136,0.94,0.136,1.661
		V51.341z"/>
	<path class="st34" d="M320.045,44.855l-2.241-0.404c0.252-0.902,0.686-1.57,1.301-2.004s1.529-0.65,2.742-0.65
		c1.102,0,1.922,0.131,2.461,0.391c0.539,0.262,0.919,0.593,1.138,0.994c0.221,0.401,0.33,1.138,0.33,2.21l-0.026,2.883
		c0,0.82,0.04,1.426,0.118,1.815c0.08,0.39,0.228,0.807,0.444,1.252h-2.443c-0.064-0.164-0.144-0.407-0.237-0.729
		c-0.041-0.146-0.07-0.243-0.088-0.29c-0.422,0.41-0.873,0.718-1.354,0.923s-0.993,0.308-1.538,0.308
		c-0.961,0-1.718-0.261-2.272-0.782c-0.553-0.521-0.83-1.181-0.83-1.978c0-0.527,0.126-0.998,0.378-1.41
		c0.252-0.414,0.604-0.73,1.06-0.949c0.453-0.221,1.108-0.412,1.964-0.576c1.154-0.217,1.954-0.419,2.399-0.606v-0.246
		c0-0.475-0.117-0.813-0.352-1.015c-0.234-0.203-0.677-0.304-1.327-0.304c-0.439,0-0.782,0.087-1.028,0.259
		C320.396,44.119,320.197,44.421,320.045,44.855z M323.35,46.859c-0.316,0.105-0.817,0.231-1.503,0.378s-1.134,0.29-1.345,0.431
		c-0.322,0.229-0.483,0.519-0.483,0.87c0,0.346,0.129,0.645,0.387,0.896s0.586,0.378,0.984,0.378c0.445,0,0.87-0.146,1.274-0.439
		c0.299-0.223,0.495-0.495,0.589-0.817c0.064-0.211,0.097-0.612,0.097-1.204V46.859z"/>
	<path class="st34" d="M328.21,51.341V38.457h2.47v12.885H328.21z"/>
	<path class="st34" d="M338.616,48.371l2.461,0.413c-0.316,0.902-0.815,1.59-1.499,2.062c-0.682,0.472-1.536,0.707-2.562,0.707
		c-1.623,0-2.824-0.53-3.604-1.591c-0.615-0.85-0.923-1.922-0.923-3.217c0-1.547,0.404-2.758,1.213-3.634s1.831-1.314,3.067-1.314
		c1.389,0,2.484,0.459,3.287,1.375c0.803,0.918,1.187,2.322,1.151,4.215h-6.188c0.018,0.732,0.217,1.303,0.598,1.709
		c0.381,0.408,0.855,0.611,1.424,0.611c0.387,0,0.712-0.105,0.976-0.316S338.481,48.839,338.616,48.371z M338.757,45.875
		c-0.018-0.715-0.202-1.258-0.554-1.631c-0.352-0.371-0.779-0.558-1.283-0.558c-0.539,0-0.984,0.196-1.336,0.589
		s-0.524,0.926-0.519,1.6H338.757z"/>
</g>
<g class="st33">
	<path class="st34" d="M151.77,70.349h-2.294v-1.371c-0.381,0.533-0.831,0.931-1.349,1.191c-0.519,0.26-1.042,0.391-1.569,0.391
		c-1.072,0-1.991-0.432-2.755-1.297c-0.765-0.863-1.147-2.069-1.147-3.616c0-1.582,0.372-2.784,1.116-3.608
		c0.744-0.822,1.685-1.234,2.821-1.234c1.043,0,1.945,0.434,2.707,1.301v-4.641h2.47V70.349z M145.178,65.48
		c0,0.996,0.138,1.717,0.413,2.162c0.398,0.645,0.955,0.967,1.67,0.967c0.568,0,1.052-0.242,1.45-0.725
		c0.398-0.484,0.598-1.206,0.598-2.167c0-1.072-0.193-1.844-0.58-2.315s-0.882-0.708-1.485-0.708c-0.586,0-1.077,0.233-1.472,0.698
		C145.375,63.859,145.178,64.554,145.178,65.48z"/>
	<path class="st34" d="M159.609,67.378l2.461,0.413c-0.316,0.902-0.816,1.59-1.499,2.062s-1.537,0.707-2.562,0.707
		c-1.623,0-2.824-0.53-3.604-1.591c-0.615-0.85-0.923-1.922-0.923-3.217c0-1.547,0.404-2.758,1.213-3.634s1.831-1.314,3.067-1.314
		c1.389,0,2.484,0.459,3.287,1.375c0.803,0.918,1.187,2.322,1.151,4.215h-6.188c0.018,0.732,0.217,1.303,0.598,1.709
		c0.381,0.408,0.855,0.611,1.424,0.611c0.387,0,0.712-0.105,0.976-0.316S159.475,67.847,159.609,67.378z M159.75,64.882
		c-0.018-0.715-0.202-1.258-0.554-1.631c-0.352-0.371-0.779-0.558-1.283-0.558c-0.539,0-0.984,0.196-1.336,0.589
		s-0.524,0.926-0.519,1.6H159.75z"/>
	<path class="st34" d="M163.345,67.686l2.479-0.378c0.105,0.48,0.319,0.846,0.642,1.094c0.322,0.25,0.773,0.374,1.354,0.374
		c0.639,0,1.119-0.117,1.441-0.352c0.217-0.164,0.325-0.384,0.325-0.659c0-0.188-0.059-0.343-0.176-0.466
		c-0.123-0.117-0.398-0.226-0.826-0.325c-1.992-0.439-3.255-0.841-3.788-1.204c-0.738-0.504-1.107-1.204-1.107-2.101
		c0-0.809,0.319-1.488,0.958-2.039s1.629-0.826,2.971-0.826c1.277,0,2.227,0.208,2.848,0.624s1.049,1.031,1.283,1.846l-2.329,0.431
		c-0.1-0.363-0.289-0.642-0.567-0.835s-0.675-0.29-1.191-0.29c-0.65,0-1.116,0.091-1.397,0.272
		c-0.188,0.129-0.281,0.296-0.281,0.501c0,0.176,0.082,0.325,0.246,0.448c0.223,0.164,0.992,0.396,2.307,0.694
		s2.234,0.665,2.755,1.099c0.516,0.439,0.773,1.052,0.773,1.837c0,0.855-0.357,1.591-1.072,2.206s-1.772,0.923-3.173,0.923
		c-1.271,0-2.278-0.258-3.019-0.773S163.573,68.571,163.345,67.686z"/>
	<path class="st34" d="M181.793,70.349l-3.762-9.334h2.593l1.758,4.764l0.51,1.591c0.135-0.404,0.22-0.671,0.255-0.8
		c0.082-0.264,0.17-0.527,0.264-0.791l1.775-4.764h2.54l-3.709,9.334H181.793z"/>
	<path class="st34" d="M189.237,59.75v-2.285h2.47v2.285H189.237z M189.237,70.349v-9.334h2.47v9.334H189.237z"/>
	<path class="st34" d="M194.238,70.349V57.464h2.47v12.885H194.238z"/>
	<path class="st34" d="M199.239,70.349V57.464h2.47v12.885H199.239z"/>
	<path class="st34" d="M209.646,67.378l2.461,0.413c-0.316,0.902-0.815,1.59-1.499,2.062c-0.682,0.472-1.536,0.707-2.562,0.707
		c-1.623,0-2.824-0.53-3.604-1.591c-0.615-0.85-0.923-1.922-0.923-3.217c0-1.547,0.404-2.758,1.213-3.634s1.831-1.314,3.067-1.314
		c1.389,0,2.484,0.459,3.287,1.375c0.803,0.918,1.187,2.322,1.151,4.215h-6.188c0.018,0.732,0.217,1.303,0.598,1.709
		c0.381,0.408,0.855,0.611,1.424,0.611c0.387,0,0.712-0.105,0.976-0.316S209.511,67.847,209.646,67.378z M209.786,64.882
		c-0.018-0.715-0.202-1.258-0.554-1.631c-0.352-0.371-0.779-0.558-1.283-0.558c-0.539,0-0.984,0.196-1.336,0.589
		s-0.524,0.926-0.519,1.6H209.786z"/>
	<path class="st34" d="M213.381,67.686l2.479-0.378c0.105,0.48,0.319,0.846,0.642,1.094c0.322,0.25,0.773,0.374,1.354,0.374
		c0.639,0,1.119-0.117,1.441-0.352c0.217-0.164,0.325-0.384,0.325-0.659c0-0.188-0.059-0.343-0.176-0.466
		c-0.123-0.117-0.398-0.226-0.826-0.325c-1.992-0.439-3.255-0.841-3.788-1.204c-0.738-0.504-1.107-1.204-1.107-2.101
		c0-0.809,0.319-1.488,0.958-2.039s1.629-0.826,2.971-0.826c1.277,0,2.227,0.208,2.848,0.624s1.049,1.031,1.283,1.846l-2.329,0.431
		c-0.1-0.363-0.288-0.642-0.567-0.835c-0.277-0.193-0.675-0.29-1.19-0.29c-0.65,0-1.116,0.091-1.397,0.272
		c-0.188,0.129-0.281,0.296-0.281,0.501c0,0.176,0.082,0.325,0.246,0.448c0.223,0.164,0.992,0.396,2.307,0.694
		c1.316,0.299,2.234,0.665,2.756,1.099c0.516,0.439,0.773,1.052,0.773,1.837c0,0.855-0.357,1.591-1.072,2.206
		s-1.772,0.923-3.173,0.923c-1.271,0-2.278-0.258-3.019-0.773C214.094,69.271,213.609,68.571,213.381,67.686z"/>
	<path class="st34" d="M229.263,59.75v-2.285h2.47v2.285H229.263z M229.263,70.349v-9.334h2.47v9.334H229.263z"/>
	<path class="st34" d="M242.754,70.349h-2.47v-4.764c0-1.008-0.053-1.659-0.158-1.955s-0.276-0.526-0.515-0.69
		c-0.236-0.164-0.522-0.246-0.856-0.246c-0.428,0-0.812,0.117-1.151,0.352s-0.572,0.545-0.699,0.932
		c-0.125,0.387-0.188,1.102-0.188,2.145v4.228h-2.47v-9.334h2.294v1.371c0.814-1.055,1.84-1.582,3.076-1.582
		c0.545,0,1.043,0.099,1.494,0.295s0.792,0.446,1.024,0.751c0.23,0.305,0.393,0.65,0.482,1.037c0.092,0.387,0.137,0.94,0.137,1.661
		V70.349z"/>
	<path class="st34" d="M253.397,63.775l-2.435,0.439c-0.082-0.486-0.268-0.853-0.559-1.099c-0.289-0.246-0.666-0.369-1.129-0.369
		c-0.615,0-1.105,0.213-1.473,0.638c-0.365,0.425-0.549,1.135-0.549,2.131c0,1.107,0.186,1.89,0.559,2.347
		c0.371,0.457,0.871,0.686,1.498,0.686c0.469,0,0.853-0.133,1.151-0.399s0.51-0.726,0.633-1.376l2.426,0.413
		c-0.252,1.113-0.735,1.954-1.45,2.522s-1.673,0.853-2.874,0.853c-1.365,0-2.454-0.431-3.265-1.292
		c-0.813-0.861-1.218-2.054-1.218-3.577c0-1.541,0.407-2.74,1.222-3.6c0.814-0.857,1.916-1.287,3.305-1.287
		c1.137,0,2.041,0.245,2.711,0.734C252.623,62.028,253.104,62.773,253.397,63.775z"/>
	<path class="st34" d="M255.27,70.349V57.464h2.47v12.885H255.27z"/>
	<path class="st34" d="M266.414,70.349v-1.397c-0.34,0.498-0.787,0.891-1.34,1.178c-0.555,0.287-1.139,0.431-1.754,0.431
		c-0.627,0-1.189-0.138-1.688-0.413s-0.858-0.662-1.081-1.16s-0.334-1.187-0.334-2.065v-5.906h2.47v4.289
		c0,1.313,0.045,2.117,0.137,2.412c0.09,0.297,0.256,0.531,0.496,0.703c0.24,0.174,0.545,0.26,0.914,0.26
		c0.422,0,0.8-0.115,1.134-0.348c0.334-0.23,0.563-0.518,0.686-0.861c0.123-0.342,0.185-1.182,0.185-2.518v-3.938h2.47v9.334
		H266.414z"/>
	<path class="st34" d="M270.396,67.686l2.479-0.378c0.105,0.48,0.319,0.846,0.642,1.094c0.322,0.25,0.773,0.374,1.354,0.374
		c0.639,0,1.119-0.117,1.441-0.352c0.217-0.164,0.325-0.384,0.325-0.659c0-0.188-0.059-0.343-0.176-0.466
		c-0.123-0.117-0.398-0.226-0.826-0.325c-1.992-0.439-3.255-0.841-3.788-1.204c-0.738-0.504-1.107-1.204-1.107-2.101
		c0-0.809,0.319-1.488,0.958-2.039s1.629-0.826,2.971-0.826c1.277,0,2.227,0.208,2.848,0.624s1.049,1.031,1.283,1.846l-2.329,0.431
		c-0.1-0.363-0.289-0.642-0.566-0.835c-0.279-0.193-0.676-0.29-1.191-0.29c-0.65,0-1.116,0.091-1.397,0.272
		c-0.188,0.129-0.281,0.296-0.281,0.501c0,0.176,0.082,0.325,0.246,0.448c0.223,0.164,0.991,0.396,2.308,0.694
		c1.314,0.299,2.233,0.665,2.755,1.099c0.516,0.439,0.773,1.052,0.773,1.837c0,0.855-0.357,1.591-1.072,2.206
		s-1.772,0.923-3.173,0.923c-1.271,0-2.277-0.258-3.02-0.773C271.109,69.271,270.624,68.571,270.396,67.686z"/>
	<path class="st34" d="M281.276,59.75v-2.285h2.47v2.285H281.276z M281.276,70.349v-9.334h2.47v9.334H281.276z"/>
	<path class="st34" d="M288.844,70.349l-3.762-9.334h2.593l1.758,4.764l0.51,1.591c0.135-0.404,0.22-0.671,0.255-0.8
		c0.082-0.264,0.17-0.527,0.264-0.791l1.775-4.764h2.54l-3.709,9.334H288.844z"/>
	<path class="st34" d="M301.693,67.378l2.461,0.413c-0.316,0.902-0.816,1.59-1.498,2.062c-0.684,0.472-1.537,0.707-2.563,0.707
		c-1.623,0-2.824-0.53-3.604-1.591c-0.615-0.85-0.923-1.922-0.923-3.217c0-1.547,0.404-2.758,1.213-3.634s1.831-1.314,3.067-1.314
		c1.389,0,2.484,0.459,3.287,1.375c0.803,0.918,1.187,2.322,1.151,4.215h-6.188c0.018,0.732,0.217,1.303,0.598,1.709
		c0.381,0.408,0.855,0.611,1.424,0.611c0.387,0,0.712-0.105,0.976-0.316S301.559,67.847,301.693,67.378z M301.834,64.882
		c-0.018-0.715-0.202-1.258-0.554-1.631c-0.352-0.371-0.779-0.558-1.283-0.558c-0.539,0-0.984,0.196-1.336,0.589
		s-0.524,0.926-0.519,1.6H301.834z"/>
	<path class="st34" d="M305.429,67.686l2.479-0.378c0.105,0.48,0.319,0.846,0.642,1.094c0.322,0.25,0.773,0.374,1.354,0.374
		c0.639,0,1.119-0.117,1.441-0.352c0.217-0.164,0.325-0.384,0.325-0.659c0-0.188-0.059-0.343-0.176-0.466
		c-0.123-0.117-0.398-0.226-0.826-0.325c-1.992-0.439-3.255-0.841-3.788-1.204c-0.738-0.504-1.107-1.204-1.107-2.101
		c0-0.809,0.319-1.488,0.958-2.039s1.629-0.826,2.971-0.826c1.277,0,2.227,0.208,2.848,0.624s1.049,1.031,1.283,1.846l-2.329,0.431
		c-0.1-0.363-0.289-0.642-0.566-0.835c-0.279-0.193-0.676-0.29-1.191-0.29c-0.65,0-1.116,0.091-1.397,0.272
		c-0.188,0.129-0.281,0.296-0.281,0.501c0,0.176,0.082,0.325,0.246,0.448c0.223,0.164,0.991,0.396,2.308,0.694
		c1.314,0.299,2.233,0.665,2.755,1.099c0.516,0.439,0.773,1.052,0.773,1.837c0,0.855-0.357,1.591-1.072,2.206
		s-1.772,0.923-3.173,0.923c-1.271,0-2.277-0.258-3.02-0.773C306.143,69.271,305.657,68.571,305.429,67.686z"/>
	<path class="st34" d="M326.716,67.378l2.461,0.413c-0.316,0.902-0.815,1.59-1.499,2.062c-0.682,0.472-1.536,0.707-2.562,0.707
		c-1.623,0-2.824-0.53-3.604-1.591c-0.615-0.85-0.923-1.922-0.923-3.217c0-1.547,0.404-2.758,1.213-3.634s1.831-1.314,3.067-1.314
		c1.389,0,2.484,0.459,3.287,1.375c0.803,0.918,1.187,2.322,1.151,4.215h-6.188c0.018,0.732,0.217,1.303,0.598,1.709
		c0.381,0.408,0.855,0.611,1.424,0.611c0.387,0,0.712-0.105,0.976-0.316S326.581,67.847,326.716,67.378z M326.856,64.882
		c-0.018-0.715-0.202-1.258-0.554-1.631c-0.352-0.371-0.779-0.558-1.283-0.558c-0.539,0-0.984,0.196-1.336,0.589
		s-0.524,0.926-0.519,1.6H326.856z"/>
	<path class="st34" d="M335.602,61.015v1.969h-1.688v3.762c0,0.762,0.016,1.206,0.049,1.332c0.031,0.126,0.105,0.229,0.219,0.312
		c0.115,0.082,0.254,0.123,0.418,0.123c0.229,0,0.56-0.079,0.993-0.237l0.211,1.916c-0.574,0.246-1.225,0.369-1.951,0.369
		c-0.445,0-0.847-0.074-1.204-0.225c-0.357-0.148-0.619-0.342-0.787-0.58c-0.166-0.236-0.282-0.558-0.347-0.962
		c-0.053-0.287-0.079-0.867-0.079-1.74v-4.069h-1.134v-1.969h1.134v-1.854l2.479-1.441v3.296H335.602z"/>
</g>
<g class="st33">
	<path class="st34" d="M151.77,89.357h-2.294v-1.371c-0.381,0.533-0.831,0.931-1.349,1.191c-0.519,0.26-1.042,0.391-1.569,0.391
		c-1.072,0-1.991-0.432-2.755-1.297c-0.765-0.863-1.147-2.069-1.147-3.616c0-1.582,0.372-2.784,1.116-3.608
		c0.744-0.822,1.685-1.234,2.821-1.234c1.043,0,1.945,0.434,2.707,1.301v-4.641h2.47V89.357z M145.178,84.488
		c0,0.996,0.138,1.717,0.413,2.162c0.398,0.645,0.955,0.967,1.67,0.967c0.568,0,1.052-0.242,1.45-0.725
		c0.398-0.484,0.598-1.206,0.598-2.167c0-1.072-0.193-1.844-0.58-2.315s-0.882-0.708-1.485-0.708c-0.586,0-1.077,0.233-1.472,0.698
		C145.375,82.867,145.178,83.563,145.178,84.488z"/>
	<path class="st34" d="M160.348,89.357V87.96c-0.34,0.498-0.787,0.891-1.34,1.178s-1.138,0.431-1.753,0.431
		c-0.627,0-1.189-0.138-1.688-0.413s-0.858-0.662-1.081-1.16s-0.334-1.187-0.334-2.065v-5.906h2.47v4.289
		c0,1.313,0.045,2.117,0.136,2.412c0.091,0.297,0.256,0.531,0.497,0.703c0.24,0.174,0.545,0.26,0.914,0.26
		c0.422,0,0.8-0.115,1.134-0.348c0.334-0.23,0.563-0.518,0.686-0.861c0.123-0.342,0.185-1.182,0.185-2.518v-3.938h2.47v9.334
		H160.348z"/>
	<path class="st34" d="M167.563,89.357h-2.47v-9.334h2.294v1.327c0.393-0.627,0.746-1.04,1.059-1.239s0.669-0.299,1.068-0.299
		c0.563,0,1.104,0.155,1.626,0.466l-0.765,2.153c-0.416-0.27-0.803-0.404-1.16-0.404c-0.346,0-0.639,0.096-0.879,0.285
		c-0.24,0.191-0.429,0.535-0.567,1.033s-0.207,1.541-0.207,3.129V89.357z"/>
	<path class="st34" d="M174.05,82.871l-2.241-0.404c0.252-0.902,0.686-1.57,1.301-2.004s1.529-0.65,2.742-0.65
		c1.102,0,1.922,0.131,2.461,0.391c0.539,0.262,0.918,0.593,1.139,0.994c0.219,0.401,0.329,1.138,0.329,2.21l-0.026,2.883
		c0,0.82,0.039,1.426,0.119,1.815c0.078,0.39,0.227,0.807,0.443,1.252h-2.443c-0.064-0.164-0.144-0.407-0.237-0.729
		c-0.041-0.146-0.07-0.243-0.088-0.29c-0.422,0.41-0.873,0.718-1.354,0.923s-0.993,0.308-1.538,0.308
		c-0.961,0-1.718-0.261-2.272-0.782s-0.831-1.181-0.831-1.978c0-0.527,0.126-0.998,0.378-1.41c0.252-0.414,0.605-0.73,1.059-0.949
		c0.454-0.221,1.109-0.412,1.964-0.576c1.154-0.217,1.954-0.419,2.399-0.606v-0.246c0-0.475-0.117-0.813-0.352-1.015
		c-0.234-0.203-0.677-0.304-1.327-0.304c-0.439,0-0.782,0.087-1.028,0.259C174.401,82.135,174.202,82.438,174.05,82.871z
		 M177.354,84.875c-0.316,0.105-0.817,0.231-1.503,0.378s-1.134,0.29-1.345,0.431c-0.322,0.229-0.483,0.519-0.483,0.87
		c0,0.346,0.129,0.645,0.387,0.896s0.586,0.378,0.984,0.378c0.445,0,0.87-0.146,1.274-0.439c0.299-0.223,0.495-0.495,0.589-0.817
		c0.064-0.211,0.097-0.612,0.097-1.204V84.875z"/>
	<path class="st34" d="M182.109,89.357V76.473h2.47v4.641c0.762-0.867,1.664-1.301,2.707-1.301c1.137,0,2.077,0.412,2.821,1.234
		c0.744,0.824,1.116,2.006,1.116,3.547c0,1.594-0.38,2.821-1.138,3.683c-0.76,0.861-1.681,1.292-2.765,1.292
		c-0.533,0-1.06-0.134-1.577-0.4c-0.52-0.266-0.966-0.66-1.341-1.182v1.371H182.109z M184.562,84.488
		c0,0.967,0.152,1.682,0.457,2.145c0.428,0.656,0.996,0.984,1.705,0.984c0.545,0,1.009-0.232,1.394-0.699
		c0.383-0.465,0.575-1.199,0.575-2.201c0-1.066-0.193-1.835-0.58-2.307s-0.882-0.708-1.485-0.708c-0.592,0-1.084,0.23-1.477,0.69
		S184.562,83.551,184.562,84.488z"/>
	<path class="st34" d="M193.21,89.357V76.473h2.47v12.885H193.21z"/>
	<path class="st34" d="M203.616,86.387l2.461,0.413c-0.316,0.902-0.815,1.59-1.499,2.062c-0.682,0.472-1.536,0.707-2.562,0.707
		c-1.623,0-2.824-0.53-3.604-1.591c-0.615-0.85-0.923-1.922-0.923-3.217c0-1.547,0.404-2.758,1.213-3.634s1.831-1.314,3.067-1.314
		c1.389,0,2.484,0.459,3.287,1.375c0.803,0.918,1.187,2.322,1.151,4.215h-6.188c0.018,0.732,0.217,1.303,0.598,1.709
		c0.381,0.408,0.855,0.611,1.424,0.611c0.387,0,0.712-0.105,0.976-0.316S203.481,86.855,203.616,86.387z M203.757,83.891
		c-0.018-0.715-0.202-1.258-0.554-1.631c-0.352-0.371-0.779-0.558-1.283-0.558c-0.539,0-0.984,0.196-1.336,0.589
		s-0.524,0.926-0.519,1.6H203.757z"/>
	<path class="st34" d="M207.352,86.694l2.479-0.378c0.105,0.48,0.319,0.846,0.642,1.094c0.322,0.25,0.773,0.374,1.354,0.374
		c0.639,0,1.119-0.117,1.441-0.352c0.217-0.164,0.325-0.384,0.325-0.659c0-0.188-0.059-0.343-0.176-0.466
		c-0.123-0.117-0.398-0.226-0.826-0.325c-1.992-0.439-3.255-0.841-3.788-1.204c-0.738-0.504-1.107-1.204-1.107-2.101
		c0-0.809,0.319-1.488,0.958-2.039s1.629-0.826,2.971-0.826c1.277,0,2.227,0.208,2.848,0.624s1.049,1.031,1.283,1.846l-2.329,0.431
		c-0.1-0.363-0.288-0.642-0.567-0.835c-0.277-0.193-0.675-0.29-1.19-0.29c-0.65,0-1.116,0.091-1.397,0.272
		c-0.188,0.129-0.281,0.296-0.281,0.501c0,0.176,0.082,0.325,0.246,0.448c0.223,0.164,0.992,0.396,2.307,0.694
		c1.316,0.299,2.234,0.665,2.756,1.099c0.516,0.439,0.773,1.052,0.773,1.837c0,0.855-0.357,1.591-1.072,2.206
		s-1.772,0.923-3.173,0.923c-1.271,0-2.278-0.258-3.019-0.773C208.064,88.279,207.58,87.579,207.352,86.694z"/>
	<path class="st34" d="M221.906,85.613v-1.846h10.011v1.846H221.906z"/>
	<path class="st34" d="M238.184,89.357V76.473h2.602v12.885H238.184z"/>
	<path class="st34" d="M251.508,84.62l2.522,0.8c-0.387,1.406-1.03,2.451-1.929,3.133c-0.9,0.684-2.041,1.024-3.424,1.024
		c-1.711,0-3.117-0.585-4.219-1.753c-1.102-1.17-1.652-2.768-1.652-4.795c0-2.145,0.554-3.811,1.661-4.996
		c1.107-1.188,2.563-1.78,4.368-1.78c1.576,0,2.856,0.466,3.841,1.397c0.586,0.551,1.025,1.342,1.318,2.373l-2.575,0.615
		c-0.152-0.668-0.471-1.195-0.953-1.582c-0.484-0.387-1.071-0.58-1.763-0.58c-0.955,0-1.729,0.343-2.325,1.028
		c-0.594,0.686-0.892,1.796-0.892,3.331c0,1.629,0.293,2.789,0.879,3.48s1.348,1.037,2.285,1.037c0.691,0,1.286-0.22,1.784-0.659
		S251.291,85.563,251.508,84.62z"/>
	<path class="st34" d="M264.507,84.62l2.522,0.8c-0.387,1.406-1.029,2.451-1.93,3.133c-0.898,0.684-2.04,1.024-3.423,1.024
		c-1.711,0-3.117-0.585-4.219-1.753c-1.102-1.17-1.652-2.768-1.652-4.795c0-2.145,0.554-3.811,1.661-4.996
		c1.107-1.188,2.563-1.78,4.368-1.78c1.576,0,2.856,0.466,3.841,1.397c0.586,0.551,1.025,1.342,1.318,2.373l-2.575,0.615
		c-0.152-0.668-0.47-1.195-0.954-1.582c-0.482-0.387-1.07-0.58-1.762-0.58c-0.955,0-1.73,0.343-2.324,1.028
		c-0.596,0.686-0.893,1.796-0.893,3.331c0,1.629,0.293,2.789,0.879,3.48s1.348,1.037,2.285,1.037c0.691,0,1.286-0.22,1.784-0.659
		S264.29,85.563,264.507,84.62z"/>
	<path class="st34" d="M280.881,89.357h-2.83l-1.125-2.927h-5.15l-1.063,2.927h-2.76l5.019-12.885h2.751L280.881,89.357z
		 M276.091,84.26l-1.775-4.781l-1.74,4.781H276.091z"/>
	<path class="st34" d="M282.27,89.357V76.473h5.476c1.377,0,2.378,0.116,3.001,0.348c0.625,0.231,1.124,0.643,1.499,1.234
		s0.563,1.269,0.563,2.03c0,0.967-0.284,1.766-0.853,2.396s-1.418,1.026-2.549,1.19c0.563,0.328,1.027,0.688,1.393,1.081
		c0.367,0.393,0.86,1.09,1.481,2.092l1.573,2.514h-3.111l-1.881-2.804c-0.668-1.002-1.125-1.633-1.371-1.894
		s-0.507-0.439-0.782-0.537c-0.275-0.096-0.712-0.145-1.31-0.145h-0.527v5.379H282.27z M284.871,81.922h1.925
		c1.248,0,2.027-0.053,2.338-0.158s0.554-0.287,0.729-0.545s0.264-0.58,0.264-0.967c0-0.434-0.115-0.783-0.348-1.051
		c-0.23-0.266-0.558-0.435-0.979-0.505c-0.211-0.029-0.844-0.044-1.898-0.044h-2.03V81.922z"/>
</g>
<g class="st33">
	<path class="st34" d="M55.711,100.119c0-1.307,0.351-2.33,1.053-3.069s1.608-1.109,2.718-1.109c0.727,0,1.382,0.174,1.966,0.521
		c0.583,0.347,1.029,0.831,1.334,1.452c0.307,0.621,0.459,1.326,0.459,2.114c0,0.798-0.161,1.513-0.483,2.143
		s-0.779,1.107-1.37,1.432s-1.228,0.486-1.912,0.486c-0.741,0-1.404-0.18-1.987-0.537c-0.583-0.358-1.026-0.848-1.327-1.467
		S55.711,100.811,55.711,100.119z M56.785,100.136c0,0.948,0.255,1.696,0.765,2.242c0.511,0.546,1.15,0.818,1.92,0.818
		c0.784,0,1.43-0.275,1.936-0.826c0.507-0.552,0.76-1.334,0.76-2.348c0-0.641-0.108-1.2-0.325-1.679
		c-0.217-0.478-0.534-0.849-0.951-1.111c-0.417-0.264-0.885-0.396-1.404-0.396c-0.738,0-1.372,0.254-1.904,0.761
		C57.051,98.104,56.785,98.95,56.785,100.136z"/>
	<path class="st34" d="M64.45,103.954V98.25h0.87v0.864c0.222-0.404,0.427-0.671,0.615-0.8c0.188-0.129,0.395-0.193,0.621-0.193
		c0.326,0,0.657,0.104,0.994,0.312l-0.333,0.896c-0.236-0.139-0.473-0.209-0.709-0.209c-0.211,0-0.401,0.063-0.569,0.19
		s-0.288,0.304-0.36,0.529c-0.107,0.344-0.161,0.72-0.161,1.128v2.986H64.45z"/>
	<path class="st34" d="M67.946,104.427l0.94,0.14c0.04,0.29,0.148,0.501,0.328,0.634c0.24,0.179,0.567,0.269,0.983,0.269
		c0.448,0,0.793-0.09,1.037-0.269s0.408-0.43,0.494-0.752c0.05-0.197,0.073-0.61,0.07-1.24c-0.422,0.497-0.949,0.746-1.579,0.746
		c-0.784,0-1.391-0.283-1.821-0.849s-0.645-1.244-0.645-2.036c0-0.544,0.099-1.046,0.295-1.506s0.482-0.815,0.857-1.066
		c0.374-0.251,0.813-0.376,1.318-0.376c0.673,0,1.228,0.272,1.665,0.816V98.25h0.892v4.931c0,0.888-0.09,1.518-0.271,1.888
		c-0.181,0.371-0.467,0.663-0.859,0.878c-0.392,0.215-0.875,0.322-1.447,0.322c-0.68,0-1.23-0.152-1.649-0.459
		C68.134,105.504,67.932,105.043,67.946,104.427z M68.747,101c0,0.748,0.148,1.294,0.446,1.638s0.669,0.516,1.117,0.516
		c0.444,0,0.816-0.171,1.117-0.513s0.451-0.878,0.451-1.608c0-0.698-0.155-1.225-0.465-1.579c-0.31-0.354-0.683-0.532-1.12-0.532
		c-0.43,0-0.795,0.175-1.096,0.524C68.897,99.794,68.747,100.313,68.747,101z"/>
	<path class="st34" d="M77.963,103.251c-0.358,0.304-0.703,0.519-1.034,0.645c-0.331,0.125-0.687,0.188-1.066,0.188
		c-0.626,0-1.108-0.153-1.445-0.459c-0.336-0.307-0.505-0.697-0.505-1.174c0-0.279,0.063-0.534,0.19-0.766
		c0.127-0.23,0.294-0.416,0.5-0.556c0.206-0.14,0.438-0.245,0.695-0.317c0.19-0.05,0.476-0.098,0.859-0.145
		c0.781-0.093,1.355-0.204,1.724-0.333c0.003-0.133,0.005-0.217,0.005-0.253c0-0.394-0.091-0.671-0.274-0.832
		c-0.247-0.219-0.614-0.328-1.101-0.328c-0.455,0-0.791,0.08-1.007,0.239c-0.217,0.159-0.377,0.441-0.481,0.847l-0.945-0.129
		c0.086-0.405,0.228-0.731,0.424-0.98s0.481-0.44,0.854-0.575c0.373-0.134,0.804-0.201,1.294-0.201c0.487,0,0.883,0.058,1.187,0.172
		s0.528,0.259,0.671,0.433s0.244,0.393,0.301,0.658c0.032,0.164,0.048,0.461,0.048,0.891v1.289c0,0.899,0.021,1.468,0.062,1.706
		c0.041,0.238,0.123,0.466,0.244,0.685h-1.01C78.057,103.754,77.992,103.519,77.963,103.251z M77.883,101.091
		c-0.351,0.144-0.877,0.266-1.579,0.365c-0.397,0.058-0.679,0.122-0.843,0.193c-0.165,0.072-0.292,0.177-0.381,0.314
		s-0.134,0.291-0.134,0.459c0,0.258,0.098,0.473,0.293,0.645c0.195,0.172,0.48,0.258,0.856,0.258c0.373,0,0.704-0.081,0.994-0.244
		s0.503-0.386,0.639-0.668c0.104-0.219,0.156-0.541,0.156-0.967V101.091z"/>
	<path class="st34" d="M80.359,103.954V98.25h0.87v0.812c0.419-0.627,1.024-0.94,1.815-0.94c0.344,0,0.66,0.062,0.948,0.186
		c0.289,0.123,0.504,0.285,0.647,0.485c0.143,0.201,0.244,0.439,0.301,0.715c0.036,0.179,0.054,0.492,0.054,0.939v3.508h-0.967
		v-3.47c0-0.394-0.038-0.688-0.113-0.884s-0.208-0.351-0.4-0.467c-0.192-0.116-0.417-0.175-0.674-0.175
		c-0.412,0-0.767,0.131-1.066,0.392c-0.299,0.262-0.449,0.758-0.449,1.488v3.115H80.359z"/>
	<path class="st34" d="M86.482,97.192V96.08h0.967v1.112H86.482z M86.482,103.954V98.25h0.967v5.704H86.482z"/>
	<path class="st34" d="M88.534,102.251l0.956-0.15c0.054,0.384,0.203,0.678,0.449,0.881c0.245,0.205,0.588,0.307,1.028,0.307
		c0.444,0,0.773-0.091,0.988-0.271s0.322-0.393,0.322-0.637c0-0.218-0.095-0.39-0.285-0.516c-0.132-0.086-0.462-0.194-0.988-0.327
		c-0.709-0.179-1.201-0.334-1.474-0.465c-0.274-0.131-0.482-0.312-0.623-0.542c-0.142-0.231-0.212-0.486-0.212-0.766
		c0-0.254,0.058-0.489,0.174-0.706c0.117-0.217,0.275-0.396,0.476-0.54c0.15-0.111,0.355-0.205,0.615-0.282
		c0.259-0.077,0.538-0.115,0.835-0.115c0.448,0,0.841,0.064,1.179,0.193c0.339,0.129,0.588,0.304,0.75,0.523
		c0.161,0.221,0.272,0.515,0.333,0.884l-0.945,0.129c-0.043-0.294-0.167-0.522-0.374-0.688c-0.206-0.165-0.497-0.247-0.873-0.247
		c-0.444,0-0.761,0.073-0.951,0.22c-0.19,0.147-0.285,0.319-0.285,0.516c0,0.126,0.04,0.238,0.118,0.339
		c0.079,0.104,0.202,0.189,0.371,0.258c0.097,0.036,0.381,0.118,0.854,0.247c0.684,0.183,1.161,0.332,1.431,0.448
		c0.271,0.116,0.483,0.286,0.637,0.508s0.231,0.498,0.231,0.827c0,0.322-0.094,0.626-0.282,0.91
		c-0.188,0.285-0.459,0.505-0.814,0.661c-0.354,0.155-0.755,0.233-1.203,0.233c-0.741,0-1.306-0.154-1.695-0.462
		C88.889,103.313,88.641,102.856,88.534,102.251z"/>
	<path class="st34" d="M98.143,103.251c-0.358,0.304-0.703,0.519-1.034,0.645c-0.331,0.125-0.687,0.188-1.066,0.188
		c-0.626,0-1.108-0.153-1.445-0.459c-0.336-0.307-0.505-0.697-0.505-1.174c0-0.279,0.063-0.534,0.19-0.766
		c0.127-0.23,0.294-0.416,0.5-0.556c0.206-0.14,0.438-0.245,0.695-0.317c0.19-0.05,0.476-0.098,0.859-0.145
		c0.781-0.093,1.355-0.204,1.724-0.333c0.003-0.133,0.005-0.217,0.005-0.253c0-0.394-0.091-0.671-0.274-0.832
		c-0.247-0.219-0.614-0.328-1.101-0.328c-0.455,0-0.791,0.08-1.007,0.239c-0.217,0.159-0.377,0.441-0.481,0.847l-0.945-0.129
		c0.086-0.405,0.228-0.731,0.424-0.98s0.481-0.44,0.854-0.575c0.373-0.134,0.804-0.201,1.294-0.201c0.487,0,0.883,0.058,1.187,0.172
		s0.528,0.259,0.671,0.433s0.244,0.393,0.301,0.658c0.032,0.164,0.048,0.461,0.048,0.891v1.289c0,0.899,0.021,1.468,0.062,1.706
		c0.041,0.238,0.123,0.466,0.244,0.685h-1.01C98.236,103.754,98.171,103.519,98.143,103.251z M98.062,101.091
		c-0.351,0.144-0.877,0.266-1.579,0.365c-0.397,0.058-0.679,0.122-0.843,0.193c-0.165,0.072-0.292,0.177-0.381,0.314
		s-0.134,0.291-0.134,0.459c0,0.258,0.098,0.473,0.293,0.645c0.195,0.172,0.48,0.258,0.856,0.258c0.373,0,0.704-0.081,0.994-0.244
		s0.503-0.386,0.639-0.668c0.104-0.219,0.156-0.541,0.156-0.967V101.091z"/>
	<path class="st34" d="M102.649,103.089l0.14,0.854c-0.272,0.058-0.516,0.086-0.73,0.086c-0.351,0-0.623-0.056-0.816-0.167
		c-0.193-0.11-0.33-0.257-0.408-0.438s-0.118-0.561-0.118-1.141v-3.282h-0.709V98.25h0.709v-1.413l0.961-0.58v1.993h0.972v0.752
		h-0.972v3.335c0,0.276,0.017,0.453,0.051,0.532c0.034,0.079,0.089,0.142,0.166,0.188c0.077,0.046,0.188,0.069,0.331,0.069
		C102.332,103.127,102.474,103.114,102.649,103.089z"/>
	<path class="st34" d="M103.6,97.192V96.08h0.967v1.112H103.6z M103.6,103.954V98.25h0.967v5.704H103.6z"/>
	<path class="st34" d="M105.678,101.103c0-1.057,0.293-1.839,0.881-2.348c0.491-0.423,1.088-0.634,1.794-0.634
		c0.784,0,1.425,0.257,1.923,0.771s0.747,1.224,0.747,2.13c0,0.734-0.11,1.312-0.331,1.732c-0.22,0.421-0.541,0.747-0.961,0.979
		c-0.421,0.233-0.88,0.35-1.378,0.35c-0.798,0-1.444-0.256-1.937-0.768C105.924,102.803,105.678,102.065,105.678,101.103z
		 M106.672,101.103c0,0.73,0.159,1.277,0.478,1.641s0.72,0.545,1.203,0.545c0.48,0,0.879-0.183,1.198-0.548s0.478-0.922,0.478-1.671
		c0-0.705-0.16-1.239-0.48-1.603c-0.321-0.363-0.719-0.546-1.195-0.546c-0.483,0-0.884,0.182-1.203,0.543
		S106.672,100.372,106.672,101.103z"/>
	<path class="st34" d="M112.156,103.954V98.25h0.87v0.812c0.419-0.627,1.024-0.94,1.815-0.94c0.344,0,0.66,0.062,0.948,0.186
		c0.289,0.123,0.504,0.285,0.647,0.485c0.143,0.201,0.244,0.439,0.301,0.715c0.036,0.179,0.054,0.492,0.054,0.939v3.508h-0.967
		v-3.47c0-0.394-0.038-0.688-0.113-0.884s-0.208-0.351-0.4-0.467c-0.192-0.116-0.417-0.175-0.674-0.175
		c-0.412,0-0.767,0.131-1.066,0.392c-0.299,0.262-0.449,0.758-0.449,1.488v3.115H112.156z"/>
</g>
<g class="st33">
	<path class="st34" d="M32.71,115.955v-0.72c-0.362,0.565-0.894,0.849-1.595,0.849c-0.455,0-0.873-0.125-1.254-0.376
		c-0.381-0.251-0.677-0.601-0.886-1.05c-0.21-0.449-0.314-0.966-0.314-1.55c0-0.569,0.095-1.086,0.285-1.55s0.475-0.818,0.854-1.066
		c0.379-0.246,0.804-0.37,1.273-0.37c0.344,0,0.65,0.072,0.918,0.218c0.269,0.145,0.487,0.334,0.655,0.566v-2.825h0.961v7.874H32.71
		z M29.654,113.108c0,0.73,0.154,1.276,0.462,1.638c0.308,0.362,0.671,0.543,1.09,0.543c0.422,0,0.781-0.173,1.077-0.519
		c0.295-0.346,0.443-0.872,0.443-1.581c0-0.781-0.15-1.354-0.451-1.719s-0.671-0.549-1.112-0.549c-0.43,0-0.789,0.176-1.077,0.527
		C29.798,111.8,29.654,112.353,29.654,113.108z"/>
	<path class="st34" d="M39.032,114.118l0.999,0.124c-0.158,0.583-0.449,1.036-0.875,1.358s-0.97,0.483-1.633,0.483
		c-0.834,0-1.496-0.257-1.985-0.771c-0.488-0.514-0.733-1.234-0.733-2.162c0-0.96,0.247-1.704,0.741-2.234s1.135-0.795,1.923-0.795
		c0.763,0,1.386,0.26,1.869,0.778c0.483,0.52,0.725,1.25,0.725,2.191c0,0.058-0.002,0.144-0.005,0.258h-4.254
		c0.036,0.627,0.213,1.107,0.532,1.439c0.319,0.334,0.716,0.5,1.192,0.5c0.354,0,0.657-0.093,0.908-0.279
		S38.885,114.526,39.032,114.118z M35.857,112.555h3.185c-0.043-0.479-0.165-0.839-0.365-1.079
		c-0.308-0.372-0.707-0.559-1.198-0.559c-0.444,0-0.817,0.148-1.12,0.446C36.057,111.66,35.89,112.058,35.857,112.555z"/>
	<path class="st34" d="M40.858,114.252l0.956-0.15c0.054,0.384,0.203,0.678,0.449,0.881c0.245,0.205,0.588,0.307,1.028,0.307
		c0.444,0,0.773-0.091,0.988-0.271s0.322-0.393,0.322-0.637c0-0.218-0.095-0.39-0.285-0.516c-0.132-0.086-0.462-0.194-0.988-0.327
		c-0.709-0.179-1.201-0.334-1.474-0.465c-0.274-0.131-0.482-0.312-0.623-0.542c-0.142-0.231-0.212-0.486-0.212-0.766
		c0-0.254,0.058-0.489,0.174-0.706c0.117-0.217,0.275-0.396,0.476-0.54c0.15-0.111,0.355-0.205,0.615-0.282
		c0.259-0.077,0.538-0.115,0.835-0.115c0.448,0,0.841,0.064,1.179,0.193c0.339,0.129,0.588,0.304,0.75,0.523
		c0.161,0.221,0.272,0.515,0.333,0.884l-0.945,0.129c-0.043-0.294-0.167-0.522-0.374-0.688c-0.206-0.165-0.497-0.247-0.873-0.247
		c-0.444,0-0.761,0.073-0.951,0.22c-0.19,0.147-0.285,0.319-0.285,0.516c0,0.126,0.04,0.238,0.118,0.339
		c0.079,0.104,0.202,0.189,0.371,0.258c0.097,0.036,0.381,0.118,0.854,0.247c0.684,0.183,1.161,0.332,1.431,0.448
		c0.271,0.116,0.483,0.286,0.637,0.508s0.231,0.498,0.231,0.827c0,0.322-0.094,0.626-0.282,0.91
		c-0.188,0.285-0.459,0.505-0.814,0.661c-0.354,0.155-0.755,0.233-1.203,0.233c-0.741,0-1.306-0.154-1.695-0.462
		C41.213,115.314,40.965,114.857,40.858,114.252z"/>
	<path class="st34" d="M49.914,115.955v-7.874h1.069l4.136,6.183v-6.183h0.999v7.874h-1.069l-4.136-6.188v6.188H49.914z"/>
	<path class="st34" d="M61.467,115.252c-0.358,0.304-0.703,0.519-1.034,0.645c-0.331,0.125-0.687,0.188-1.066,0.188
		c-0.626,0-1.108-0.153-1.445-0.459c-0.336-0.307-0.505-0.697-0.505-1.174c0-0.279,0.063-0.534,0.19-0.766
		c0.127-0.23,0.294-0.416,0.5-0.556c0.206-0.14,0.438-0.245,0.695-0.317c0.19-0.05,0.476-0.098,0.859-0.145
		c0.781-0.093,1.355-0.204,1.724-0.333c0.003-0.133,0.005-0.217,0.005-0.253c0-0.394-0.091-0.671-0.274-0.832
		c-0.247-0.219-0.614-0.328-1.101-0.328c-0.455,0-0.791,0.08-1.007,0.239c-0.217,0.159-0.377,0.441-0.481,0.847l-0.945-0.129
		c0.086-0.405,0.228-0.731,0.424-0.98s0.481-0.44,0.854-0.575c0.373-0.134,0.804-0.201,1.294-0.201c0.487,0,0.883,0.058,1.187,0.172
		s0.528,0.259,0.671,0.433s0.244,0.393,0.301,0.658c0.032,0.164,0.048,0.461,0.048,0.891v1.289c0,0.899,0.021,1.468,0.062,1.706
		c0.041,0.238,0.123,0.466,0.244,0.685h-1.01C61.56,115.755,61.496,115.52,61.467,115.252z M61.386,113.092
		c-0.351,0.144-0.877,0.266-1.579,0.365c-0.397,0.058-0.679,0.122-0.843,0.193c-0.165,0.072-0.292,0.177-0.381,0.314
		s-0.134,0.291-0.134,0.459c0,0.258,0.098,0.473,0.293,0.645c0.195,0.172,0.48,0.258,0.856,0.258c0.373,0,0.704-0.081,0.994-0.244
		s0.503-0.386,0.639-0.668c0.104-0.219,0.156-0.541,0.156-0.967V113.092z"/>
	<path class="st34" d="M65.973,115.09l0.14,0.854c-0.272,0.058-0.516,0.086-0.73,0.086c-0.351,0-0.623-0.056-0.816-0.167
		c-0.193-0.11-0.33-0.257-0.408-0.438s-0.118-0.561-0.118-1.141v-3.282h-0.709v-0.752h0.709v-1.413l0.961-0.58v1.993h0.972v0.752
		h-0.972v3.335c0,0.276,0.017,0.453,0.051,0.532c0.034,0.079,0.089,0.142,0.166,0.188c0.077,0.046,0.188,0.069,0.331,0.069
		C65.656,115.128,65.798,115.115,65.973,115.09z"/>
	<path class="st34" d="M66.924,109.193v-1.112h0.967v1.112H66.924z M66.924,115.955v-5.704h0.967v5.704H66.924z"/>
	<path class="st34" d="M69.002,113.104c0-1.057,0.293-1.839,0.881-2.348c0.491-0.423,1.088-0.634,1.794-0.634
		c0.784,0,1.425,0.257,1.923,0.771s0.747,1.224,0.747,2.13c0,0.734-0.11,1.312-0.331,1.732c-0.22,0.421-0.541,0.747-0.961,0.979
		c-0.421,0.233-0.88,0.35-1.378,0.35c-0.798,0-1.444-0.256-1.937-0.768C69.249,114.804,69.002,114.066,69.002,113.104z
		 M69.996,113.104c0,0.73,0.159,1.277,0.478,1.641s0.72,0.545,1.203,0.545c0.48,0,0.879-0.183,1.198-0.548s0.478-0.922,0.478-1.671
		c0-0.705-0.16-1.239-0.48-1.603c-0.321-0.363-0.719-0.546-1.195-0.546c-0.483,0-0.884,0.182-1.203,0.543
		S69.996,112.373,69.996,113.104z"/>
	<path class="st34" d="M75.48,115.955v-5.704h0.87v0.812c0.419-0.627,1.024-0.94,1.815-0.94c0.344,0,0.66,0.062,0.948,0.186
		c0.289,0.123,0.504,0.285,0.647,0.485c0.143,0.201,0.244,0.439,0.301,0.715c0.036,0.179,0.054,0.492,0.054,0.939v3.508h-0.967
		v-3.47c0-0.394-0.038-0.688-0.113-0.884s-0.208-0.351-0.4-0.467c-0.192-0.116-0.417-0.175-0.674-0.175
		c-0.412,0-0.767,0.131-1.066,0.392c-0.299,0.262-0.449,0.758-0.449,1.488v3.115H75.48z"/>
	<path class="st34" d="M81.211,114.252l0.956-0.15c0.054,0.384,0.203,0.678,0.449,0.881c0.245,0.205,0.588,0.307,1.028,0.307
		c0.444,0,0.773-0.091,0.988-0.271s0.322-0.393,0.322-0.637c0-0.218-0.095-0.39-0.285-0.516c-0.132-0.086-0.462-0.194-0.988-0.327
		c-0.709-0.179-1.201-0.334-1.474-0.465c-0.274-0.131-0.482-0.312-0.623-0.542c-0.142-0.231-0.212-0.486-0.212-0.766
		c0-0.254,0.058-0.489,0.174-0.706c0.117-0.217,0.275-0.396,0.476-0.54c0.15-0.111,0.355-0.205,0.615-0.282
		c0.259-0.077,0.538-0.115,0.835-0.115c0.448,0,0.841,0.064,1.179,0.193c0.339,0.129,0.588,0.304,0.75,0.523
		c0.161,0.221,0.272,0.515,0.333,0.884l-0.945,0.129c-0.043-0.294-0.167-0.522-0.374-0.688c-0.206-0.165-0.497-0.247-0.873-0.247
		c-0.444,0-0.761,0.073-0.951,0.22c-0.19,0.147-0.285,0.319-0.285,0.516c0,0.126,0.04,0.238,0.118,0.339
		c0.079,0.104,0.202,0.189,0.371,0.258c0.097,0.036,0.381,0.118,0.854,0.247c0.684,0.183,1.161,0.332,1.431,0.448
		c0.271,0.116,0.483,0.286,0.637,0.508s0.231,0.498,0.231,0.827c0,0.322-0.094,0.626-0.282,0.91
		c-0.188,0.285-0.459,0.505-0.814,0.661c-0.354,0.155-0.755,0.233-1.203,0.233c-0.741,0-1.306-0.154-1.695-0.462
		C81.566,115.314,81.318,114.857,81.211,114.252z"/>
	<path class="st34" d="M95.444,108.081h1.042v4.55c0,0.791-0.089,1.419-0.269,1.885s-0.502,0.844-0.97,1.136
		c-0.467,0.292-1.08,0.438-1.839,0.438c-0.738,0-1.341-0.128-1.81-0.382s-0.804-0.622-1.004-1.104s-0.301-1.14-0.301-1.974v-4.55
		h1.042v4.544c0,0.684,0.063,1.188,0.191,1.512c0.127,0.324,0.345,0.574,0.655,0.75c0.31,0.175,0.688,0.263,1.136,0.263
		c0.766,0,1.313-0.174,1.638-0.521c0.326-0.348,0.489-1.016,0.489-2.004V108.081z"/>
	<path class="st34" d="M98.098,115.955v-5.704h0.87v0.812c0.419-0.627,1.024-0.94,1.815-0.94c0.344,0,0.66,0.062,0.948,0.186
		c0.289,0.123,0.504,0.285,0.647,0.485c0.143,0.201,0.244,0.439,0.301,0.715c0.036,0.179,0.054,0.492,0.054,0.939v3.508h-0.967
		v-3.47c0-0.394-0.038-0.688-0.113-0.884s-0.208-0.351-0.4-0.467c-0.192-0.116-0.417-0.175-0.674-0.175
		c-0.412,0-0.767,0.131-1.066,0.392c-0.299,0.262-0.449,0.758-0.449,1.488v3.115H98.098z"/>
	<path class="st34" d="M104.221,109.193v-1.112h0.967v1.112H104.221z M104.221,115.955v-5.704h0.967v5.704H104.221z"/>
	<path class="st34" d="M110.564,114.118l0.999,0.124c-0.158,0.583-0.449,1.036-0.875,1.358s-0.97,0.483-1.633,0.483
		c-0.834,0-1.496-0.257-1.985-0.771c-0.488-0.514-0.733-1.234-0.733-2.162c0-0.96,0.247-1.704,0.741-2.234s1.135-0.795,1.923-0.795
		c0.763,0,1.386,0.26,1.869,0.778c0.483,0.52,0.725,1.25,0.725,2.191c0,0.058-0.002,0.144-0.005,0.258h-4.254
		c0.036,0.627,0.213,1.107,0.532,1.439c0.319,0.334,0.716,0.5,1.192,0.5c0.354,0,0.657-0.093,0.908-0.279
		S110.417,114.526,110.564,114.118z M107.39,112.555h3.185c-0.043-0.479-0.165-0.839-0.365-1.079
		c-0.308-0.372-0.707-0.559-1.198-0.559c-0.444,0-0.817,0.148-1.12,0.446C107.589,111.66,107.422,112.058,107.39,112.555z"/>
	<path class="st34" d="M112.39,114.252l0.956-0.15c0.054,0.384,0.203,0.678,0.449,0.881c0.245,0.205,0.588,0.307,1.028,0.307
		c0.444,0,0.773-0.091,0.988-0.271s0.322-0.393,0.322-0.637c0-0.218-0.095-0.39-0.285-0.516c-0.132-0.086-0.462-0.194-0.988-0.327
		c-0.709-0.179-1.201-0.334-1.474-0.465c-0.274-0.131-0.482-0.312-0.623-0.542c-0.142-0.231-0.212-0.486-0.212-0.766
		c0-0.254,0.058-0.489,0.174-0.706c0.117-0.217,0.275-0.396,0.476-0.54c0.15-0.111,0.355-0.205,0.615-0.282
		c0.259-0.077,0.538-0.115,0.835-0.115c0.448,0,0.841,0.064,1.179,0.193c0.339,0.129,0.588,0.304,0.75,0.523
		c0.161,0.221,0.272,0.515,0.333,0.884l-0.945,0.129c-0.043-0.294-0.167-0.522-0.374-0.688c-0.206-0.165-0.497-0.247-0.873-0.247
		c-0.444,0-0.761,0.073-0.951,0.22c-0.19,0.147-0.285,0.319-0.285,0.516c0,0.126,0.04,0.238,0.118,0.339
		c0.079,0.104,0.202,0.189,0.371,0.258c0.097,0.036,0.381,0.118,0.854,0.247c0.684,0.183,1.161,0.332,1.431,0.448
		c0.271,0.116,0.483,0.286,0.637,0.508s0.231,0.498,0.231,0.827c0,0.322-0.094,0.626-0.282,0.91
		c-0.188,0.285-0.459,0.505-0.814,0.661c-0.354,0.155-0.755,0.233-1.203,0.233c-0.741,0-1.306-0.154-1.695-0.462
		C112.746,115.314,112.498,114.857,112.39,114.252z"/>
</g>
<g class="st33">
	<path class="st34" d="M40.614,130.142v-7.89h0.881v0.741c0.208-0.29,0.442-0.508,0.704-0.652c0.261-0.146,0.578-0.218,0.951-0.218
		c0.487,0,0.917,0.125,1.289,0.376s0.653,0.604,0.843,1.061c0.19,0.457,0.285,0.957,0.285,1.502c0,0.583-0.105,1.108-0.314,1.576
		c-0.21,0.467-0.514,0.825-0.913,1.074c-0.399,0.249-0.819,0.373-1.26,0.373c-0.322,0-0.611-0.068-0.867-0.204
		c-0.256-0.136-0.467-0.308-0.631-0.516v2.776H40.614z M41.49,125.136c0,0.734,0.148,1.277,0.446,1.628s0.657,0.526,1.08,0.526
		c0.43,0,0.798-0.182,1.104-0.545c0.307-0.363,0.459-0.927,0.459-1.689c0-0.727-0.149-1.271-0.449-1.633
		c-0.299-0.361-0.656-0.543-1.071-0.543c-0.412,0-0.776,0.193-1.093,0.578C41.648,123.843,41.49,124.402,41.49,125.136z"/>
	<path class="st34" d="M46.372,125.104c0-1.057,0.293-1.839,0.881-2.348c0.491-0.423,1.088-0.634,1.794-0.634
		c0.784,0,1.425,0.257,1.923,0.771s0.747,1.224,0.747,2.13c0,0.734-0.11,1.312-0.331,1.732c-0.22,0.421-0.541,0.747-0.961,0.979
		c-0.421,0.233-0.88,0.35-1.378,0.35c-0.798,0-1.444-0.256-1.937-0.768C46.618,126.805,46.372,126.067,46.372,125.104z
		 M47.366,125.104c0,0.73,0.159,1.277,0.478,1.641s0.72,0.545,1.203,0.545c0.48,0,0.879-0.183,1.198-0.548s0.478-0.922,0.478-1.671
		c0-0.705-0.16-1.239-0.48-1.603c-0.321-0.363-0.719-0.546-1.195-0.546c-0.483,0-0.884,0.182-1.203,0.543
		S47.366,124.374,47.366,125.104z"/>
	<path class="st34" d="M56.588,127.956v-0.838c-0.444,0.645-1.047,0.967-1.81,0.967c-0.336,0-0.651-0.064-0.942-0.193
		c-0.292-0.129-0.509-0.291-0.65-0.486c-0.141-0.195-0.241-0.434-0.298-0.717c-0.04-0.189-0.059-0.49-0.059-0.902v-3.534h0.967
		v3.163c0,0.506,0.02,0.846,0.059,1.021c0.061,0.254,0.19,0.453,0.387,0.599c0.197,0.145,0.44,0.218,0.73,0.218
		s0.562-0.075,0.816-0.224s0.434-0.351,0.54-0.606c0.105-0.256,0.158-0.628,0.158-1.115v-3.056h0.967v5.704H56.588z"/>
	<path class="st34" d="M58.957,127.956v-5.704h0.87v0.864c0.222-0.404,0.427-0.671,0.615-0.8c0.188-0.129,0.395-0.193,0.621-0.193
		c0.326,0,0.657,0.104,0.994,0.312l-0.333,0.896c-0.236-0.139-0.473-0.209-0.709-0.209c-0.211,0-0.401,0.063-0.569,0.19
		s-0.288,0.304-0.36,0.529c-0.107,0.344-0.161,0.72-0.161,1.128v2.986H58.957z"/>
	<path class="st34" d="M65.665,127.956v-7.874h0.967v7.874H65.665z"/>
	<path class="st34" d="M68.071,121.124v-1.123h1.037v0.887c0,0.479-0.056,0.825-0.167,1.037c-0.154,0.289-0.394,0.508-0.72,0.654
		l-0.236-0.381c0.193-0.079,0.337-0.203,0.433-0.373c0.095-0.17,0.147-0.404,0.158-0.701H68.071z"/>
	<path class="st34" d="M74.479,126.119l0.999,0.124c-0.158,0.583-0.449,1.036-0.875,1.358s-0.97,0.483-1.633,0.483
		c-0.834,0-1.496-0.257-1.985-0.771c-0.488-0.514-0.733-1.234-0.733-2.162c0-0.96,0.247-1.704,0.741-2.234s1.135-0.795,1.923-0.795
		c0.763,0,1.386,0.26,1.869,0.778c0.483,0.52,0.725,1.25,0.725,2.191c0,0.058-0.002,0.144-0.005,0.258h-4.254
		c0.036,0.627,0.213,1.107,0.532,1.439c0.319,0.334,0.716,0.5,1.192,0.5c0.354,0,0.657-0.093,0.908-0.279
		S74.332,126.527,74.479,126.119z M71.305,124.556h3.185c-0.043-0.479-0.165-0.839-0.365-1.079
		c-0.308-0.372-0.707-0.559-1.198-0.559c-0.444,0-0.817,0.148-1.12,0.446C71.504,123.661,71.337,124.059,71.305,124.556z
		 M72.347,121.543l0.714-1.504h1.268l-1.182,1.504H72.347z"/>
	<path class="st34" d="M80.393,127.956v-0.72c-0.362,0.565-0.894,0.849-1.595,0.849c-0.455,0-0.873-0.125-1.254-0.376
		c-0.381-0.251-0.677-0.601-0.886-1.05c-0.21-0.449-0.314-0.966-0.314-1.55c0-0.569,0.095-1.086,0.285-1.55s0.475-0.818,0.854-1.066
		c0.379-0.246,0.804-0.37,1.273-0.37c0.344,0,0.65,0.072,0.918,0.218c0.269,0.145,0.487,0.334,0.655,0.566v-2.825h0.961v7.874
		H80.393z M77.336,125.109c0,0.73,0.154,1.276,0.462,1.638c0.308,0.362,0.671,0.543,1.09,0.543c0.422,0,0.781-0.173,1.077-0.519
		c0.295-0.346,0.443-0.872,0.443-1.581c0-0.781-0.15-1.354-0.451-1.719s-0.671-0.549-1.112-0.549c-0.43,0-0.789,0.176-1.077,0.527
		C77.48,123.801,77.336,124.354,77.336,125.109z"/>
	<path class="st34" d="M86.548,127.956v-0.838c-0.444,0.645-1.047,0.967-1.81,0.967c-0.336,0-0.651-0.064-0.942-0.193
		c-0.292-0.129-0.509-0.291-0.65-0.486c-0.141-0.195-0.241-0.434-0.298-0.717c-0.04-0.189-0.059-0.49-0.059-0.902v-3.534h0.967
		v3.163c0,0.506,0.02,0.846,0.059,1.021c0.061,0.254,0.19,0.453,0.387,0.599c0.197,0.145,0.44,0.218,0.73,0.218
		s0.562-0.075,0.816-0.224s0.434-0.351,0.54-0.606c0.105-0.256,0.158-0.628,0.158-1.115v-3.056h0.967v5.704H86.548z"/>
	<path class="st34" d="M92.649,125.866l0.951,0.124c-0.104,0.655-0.37,1.168-0.797,1.539c-0.428,0.37-0.954,0.556-1.577,0.556
		c-0.781,0-1.408-0.255-1.882-0.766c-0.475-0.51-0.712-1.241-0.712-2.193c0-0.616,0.102-1.155,0.306-1.617s0.515-0.809,0.932-1.039
		c0.417-0.231,0.871-0.347,1.361-0.347c0.62,0,1.126,0.156,1.52,0.47s0.646,0.759,0.757,1.335l-0.94,0.146
		c-0.089-0.384-0.248-0.672-0.475-0.865c-0.228-0.193-0.502-0.29-0.825-0.29c-0.487,0-0.883,0.175-1.187,0.523
		c-0.304,0.35-0.457,0.901-0.457,1.657c0,0.767,0.147,1.323,0.44,1.67c0.293,0.348,0.677,0.521,1.149,0.521
		c0.379,0,0.696-0.116,0.951-0.35C92.42,126.708,92.582,126.351,92.649,125.866z"/>
	<path class="st34" d="M98.149,127.253c-0.358,0.304-0.703,0.519-1.034,0.645c-0.331,0.125-0.687,0.188-1.066,0.188
		c-0.626,0-1.108-0.153-1.445-0.459c-0.336-0.307-0.505-0.697-0.505-1.174c0-0.279,0.063-0.534,0.19-0.766
		c0.127-0.23,0.294-0.416,0.5-0.556c0.206-0.14,0.438-0.245,0.695-0.317c0.19-0.05,0.476-0.098,0.859-0.145
		c0.781-0.093,1.355-0.204,1.724-0.333c0.003-0.133,0.005-0.217,0.005-0.253c0-0.394-0.091-0.671-0.274-0.832
		c-0.247-0.219-0.614-0.328-1.101-0.328c-0.455,0-0.791,0.08-1.007,0.239c-0.217,0.159-0.377,0.441-0.481,0.847l-0.945-0.129
		c0.086-0.405,0.228-0.731,0.424-0.98s0.481-0.44,0.854-0.575c0.373-0.134,0.804-0.201,1.294-0.201c0.487,0,0.883,0.058,1.187,0.172
		s0.528,0.259,0.671,0.433s0.244,0.393,0.301,0.658c0.032,0.164,0.048,0.461,0.048,0.891v1.289c0,0.899,0.021,1.468,0.062,1.706
		c0.041,0.238,0.123,0.466,0.244,0.685h-1.01C98.243,127.756,98.178,127.521,98.149,127.253z M98.069,125.093
		c-0.351,0.144-0.877,0.266-1.579,0.365c-0.397,0.058-0.679,0.122-0.843,0.193c-0.165,0.072-0.292,0.177-0.381,0.314
		s-0.134,0.291-0.134,0.459c0,0.258,0.098,0.473,0.293,0.645c0.195,0.172,0.48,0.258,0.856,0.258c0.373,0,0.704-0.081,0.994-0.244
		s0.503-0.386,0.639-0.668c0.104-0.219,0.156-0.541,0.156-0.967V125.093z"/>
	<path class="st34" d="M102.656,127.091l0.14,0.854c-0.272,0.058-0.516,0.086-0.73,0.086c-0.351,0-0.623-0.056-0.816-0.167
		c-0.193-0.11-0.33-0.257-0.408-0.438s-0.118-0.561-0.118-1.141v-3.282h-0.709v-0.752h0.709v-1.413l0.961-0.58v1.993h0.972v0.752
		h-0.972v3.335c0,0.276,0.017,0.453,0.051,0.532c0.034,0.079,0.089,0.142,0.166,0.188c0.077,0.046,0.188,0.069,0.331,0.069
		C102.339,127.129,102.48,127.116,102.656,127.091z"/>
	<path class="st34" d="M103.606,121.194v-1.112h0.967v1.112H103.606z M103.606,127.956v-5.704h0.967v5.704H103.606z"/>
	<path class="st34" d="M105.685,125.104c0-1.057,0.293-1.839,0.881-2.348c0.491-0.423,1.088-0.634,1.794-0.634
		c0.784,0,1.425,0.257,1.923,0.771s0.747,1.224,0.747,2.13c0,0.734-0.11,1.312-0.331,1.732c-0.22,0.421-0.541,0.747-0.961,0.979
		c-0.421,0.233-0.88,0.35-1.378,0.35c-0.798,0-1.444-0.256-1.937-0.768C105.931,126.805,105.685,126.067,105.685,125.104z
		 M106.679,125.104c0,0.73,0.159,1.277,0.478,1.641s0.72,0.545,1.203,0.545c0.48,0,0.879-0.183,1.198-0.548s0.478-0.922,0.478-1.671
		c0-0.705-0.16-1.239-0.48-1.603c-0.321-0.363-0.719-0.546-1.195-0.546c-0.483,0-0.884,0.182-1.203,0.543
		S106.679,124.374,106.679,125.104z"/>
	<path class="st34" d="M112.163,127.956v-5.704h0.87v0.812c0.419-0.627,1.024-0.94,1.815-0.94c0.344,0,0.66,0.062,0.948,0.186
		c0.289,0.123,0.504,0.285,0.647,0.485c0.143,0.201,0.244,0.439,0.301,0.715c0.036,0.179,0.054,0.492,0.054,0.939v3.508h-0.967
		v-3.47c0-0.394-0.038-0.688-0.113-0.884s-0.208-0.351-0.4-0.467c-0.192-0.116-0.417-0.175-0.674-0.175
		c-0.412,0-0.767,0.131-1.066,0.392c-0.299,0.262-0.449,0.758-0.449,1.488v3.115H112.163z"/>
	<path class="st34" d="M118.533,127.956v-1.102h1.101v1.102c0,0.404-0.072,0.731-0.215,0.98s-0.371,0.441-0.682,0.577l-0.269-0.413
		c0.204-0.09,0.354-0.222,0.451-0.396s0.15-0.423,0.161-0.749H118.533z"/>
</g>
<g class="st33">
	<path class="st34" d="M9.43,139.957v-7.874h0.967v7.874H9.43z"/>
	<path class="st34" d="M15.617,139.254c-0.358,0.304-0.703,0.519-1.034,0.645c-0.331,0.125-0.687,0.188-1.066,0.188
		c-0.626,0-1.108-0.153-1.445-0.459c-0.336-0.307-0.505-0.697-0.505-1.174c0-0.279,0.063-0.534,0.19-0.766
		c0.127-0.23,0.294-0.416,0.5-0.556c0.206-0.14,0.438-0.245,0.695-0.317c0.19-0.05,0.476-0.098,0.859-0.145
		c0.781-0.093,1.355-0.204,1.724-0.333c0.003-0.133,0.005-0.217,0.005-0.253c0-0.394-0.091-0.671-0.274-0.832
		c-0.247-0.219-0.614-0.328-1.101-0.328c-0.455,0-0.791,0.08-1.007,0.239c-0.217,0.159-0.377,0.441-0.481,0.847l-0.945-0.129
		c0.086-0.405,0.228-0.731,0.424-0.98s0.481-0.44,0.854-0.575c0.373-0.134,0.804-0.201,1.294-0.201c0.487,0,0.883,0.058,1.187,0.172
		s0.528,0.259,0.671,0.433s0.244,0.393,0.301,0.658c0.032,0.164,0.048,0.461,0.048,0.891v1.289c0,0.899,0.021,1.468,0.062,1.706
		c0.041,0.238,0.123,0.466,0.244,0.685h-1.01C15.71,139.757,15.646,139.521,15.617,139.254z M15.537,137.094
		c-0.351,0.144-0.877,0.266-1.579,0.365c-0.397,0.058-0.679,0.122-0.843,0.193c-0.165,0.072-0.292,0.177-0.381,0.314
		s-0.134,0.291-0.134,0.459c0,0.258,0.098,0.473,0.293,0.645c0.195,0.172,0.48,0.258,0.856,0.258c0.373,0,0.704-0.081,0.994-0.244
		s0.503-0.386,0.639-0.668c0.104-0.219,0.156-0.541,0.156-0.967V137.094z"/>
	<path class="st34" d="M20.682,138.254l0.956-0.15c0.054,0.384,0.203,0.678,0.449,0.881c0.245,0.205,0.588,0.307,1.028,0.307
		c0.444,0,0.773-0.091,0.988-0.271s0.322-0.393,0.322-0.637c0-0.218-0.095-0.39-0.285-0.516c-0.132-0.086-0.462-0.194-0.988-0.327
		c-0.709-0.179-1.201-0.334-1.474-0.465c-0.274-0.131-0.482-0.312-0.623-0.542c-0.142-0.231-0.212-0.486-0.212-0.766
		c0-0.254,0.058-0.489,0.174-0.706c0.117-0.217,0.275-0.396,0.476-0.54c0.15-0.111,0.355-0.205,0.615-0.282
		c0.259-0.077,0.538-0.115,0.835-0.115c0.448,0,0.841,0.064,1.179,0.193c0.339,0.129,0.588,0.304,0.75,0.523
		c0.161,0.221,0.272,0.515,0.333,0.884l-0.945,0.129c-0.043-0.294-0.167-0.522-0.374-0.688c-0.206-0.165-0.497-0.247-0.873-0.247
		c-0.444,0-0.761,0.073-0.951,0.22c-0.19,0.147-0.285,0.319-0.285,0.516c0,0.126,0.04,0.238,0.118,0.339
		c0.079,0.104,0.202,0.189,0.371,0.258c0.097,0.036,0.381,0.118,0.854,0.247c0.684,0.183,1.161,0.332,1.431,0.448
		c0.271,0.116,0.483,0.286,0.637,0.508s0.231,0.498,0.231,0.827c0,0.322-0.094,0.626-0.282,0.91
		c-0.188,0.285-0.459,0.505-0.814,0.661c-0.354,0.155-0.755,0.233-1.203,0.233c-0.741,0-1.306-0.154-1.695-0.462
		C21.038,139.316,20.79,138.859,20.682,138.254z"/>
	<path class="st34" d="M30.291,137.867l0.951,0.124c-0.104,0.655-0.37,1.168-0.797,1.539c-0.428,0.37-0.954,0.556-1.577,0.556
		c-0.781,0-1.408-0.255-1.882-0.766c-0.475-0.51-0.712-1.241-0.712-2.193c0-0.616,0.102-1.155,0.306-1.617s0.515-0.809,0.932-1.039
		c0.417-0.231,0.871-0.347,1.361-0.347c0.62,0,1.126,0.156,1.52,0.47s0.646,0.759,0.757,1.335l-0.94,0.146
		c-0.089-0.384-0.248-0.672-0.475-0.865c-0.228-0.193-0.502-0.29-0.825-0.29c-0.487,0-0.883,0.175-1.187,0.523
		c-0.304,0.35-0.457,0.901-0.457,1.657c0,0.767,0.147,1.323,0.44,1.67c0.293,0.348,0.677,0.521,1.149,0.521
		c0.379,0,0.696-0.116,0.951-0.35C30.062,138.709,30.223,138.352,30.291,137.867z"/>
	<path class="st34" d="M32.074,133.195v-1.112h0.967v1.112H32.074z M32.074,139.957v-5.704h0.967v5.704H32.074z"/>
	<path class="st34" d="M38.417,138.12l0.999,0.124c-0.158,0.583-0.449,1.036-0.875,1.358s-0.97,0.483-1.633,0.483
		c-0.834,0-1.496-0.257-1.985-0.771c-0.488-0.514-0.733-1.234-0.733-2.162c0-0.96,0.247-1.704,0.741-2.234s1.135-0.795,1.923-0.795
		c0.763,0,1.386,0.26,1.869,0.778c0.483,0.52,0.725,1.25,0.725,2.191c0,0.058-0.002,0.144-0.005,0.258h-4.254
		c0.036,0.627,0.213,1.107,0.532,1.439c0.319,0.334,0.716,0.5,1.192,0.5c0.354,0,0.657-0.093,0.908-0.279
		S38.271,138.528,38.417,138.12z M35.243,136.557h3.185c-0.043-0.479-0.165-0.839-0.365-1.079c-0.308-0.372-0.707-0.559-1.198-0.559
		c-0.444,0-0.817,0.148-1.12,0.446C35.443,135.662,35.275,136.06,35.243,136.557z"/>
	<path class="st34" d="M40.63,139.957v-5.704h0.87v0.812c0.419-0.627,1.024-0.94,1.815-0.94c0.344,0,0.66,0.062,0.948,0.186
		c0.289,0.123,0.504,0.285,0.647,0.485c0.143,0.201,0.244,0.439,0.301,0.715c0.036,0.179,0.054,0.492,0.054,0.939v3.508h-0.967
		v-3.47c0-0.394-0.038-0.688-0.113-0.884s-0.208-0.351-0.4-0.467c-0.192-0.116-0.417-0.175-0.674-0.175
		c-0.412,0-0.767,0.131-1.066,0.392c-0.299,0.262-0.449,0.758-0.449,1.488v3.115H40.63z"/>
	<path class="st34" d="M50.47,137.867l0.951,0.124c-0.104,0.655-0.37,1.168-0.797,1.539c-0.428,0.37-0.954,0.556-1.577,0.556
		c-0.781,0-1.408-0.255-1.882-0.766c-0.475-0.51-0.712-1.241-0.712-2.193c0-0.616,0.102-1.155,0.306-1.617s0.515-0.809,0.932-1.039
		c0.417-0.231,0.871-0.347,1.361-0.347c0.62,0,1.126,0.156,1.52,0.47s0.646,0.759,0.757,1.335l-0.94,0.146
		c-0.089-0.384-0.248-0.672-0.475-0.865c-0.228-0.193-0.502-0.29-0.825-0.29c-0.487,0-0.883,0.175-1.187,0.523
		c-0.304,0.35-0.457,0.901-0.457,1.657c0,0.767,0.147,1.323,0.44,1.67c0.293,0.348,0.677,0.521,1.149,0.521
		c0.379,0,0.696-0.116,0.951-0.35C50.241,138.709,50.402,138.352,50.47,137.867z"/>
	<path class="st34" d="M56.153,138.12l0.999,0.124c-0.158,0.583-0.449,1.036-0.875,1.358s-0.97,0.483-1.633,0.483
		c-0.834,0-1.496-0.257-1.985-0.771c-0.488-0.514-0.733-1.234-0.733-2.162c0-0.96,0.247-1.704,0.741-2.234s1.135-0.795,1.923-0.795
		c0.763,0,1.386,0.26,1.869,0.778c0.483,0.52,0.725,1.25,0.725,2.191c0,0.058-0.002,0.144-0.005,0.258h-4.254
		c0.036,0.627,0.213,1.107,0.532,1.439c0.319,0.334,0.716,0.5,1.192,0.5c0.354,0,0.657-0.093,0.908-0.279
		S56.006,138.528,56.153,138.12z M52.979,136.557h3.185c-0.043-0.479-0.165-0.839-0.365-1.079c-0.308-0.372-0.707-0.559-1.198-0.559
		c-0.444,0-0.817,0.148-1.12,0.446C53.178,135.662,53.011,136.06,52.979,136.557z"/>
	<path class="st34" d="M65.327,138.12l0.999,0.124c-0.158,0.583-0.449,1.036-0.875,1.358s-0.97,0.483-1.633,0.483
		c-0.834,0-1.496-0.257-1.985-0.771c-0.488-0.514-0.733-1.234-0.733-2.162c0-0.96,0.247-1.704,0.741-2.234s1.135-0.795,1.923-0.795
		c0.763,0,1.386,0.26,1.869,0.778c0.483,0.52,0.725,1.25,0.725,2.191c0,0.058-0.002,0.144-0.005,0.258h-4.254
		c0.036,0.627,0.213,1.107,0.532,1.439c0.319,0.334,0.716,0.5,1.192,0.5c0.354,0,0.657-0.093,0.908-0.279
		S65.18,138.528,65.327,138.12z M62.152,136.557h3.185c-0.043-0.479-0.165-0.839-0.365-1.079c-0.308-0.372-0.707-0.559-1.198-0.559
		c-0.444,0-0.817,0.148-1.12,0.446C62.352,135.662,62.185,136.06,62.152,136.557z"/>
	<path class="st34" d="M69.65,139.092l0.14,0.854c-0.272,0.058-0.516,0.086-0.73,0.086c-0.351,0-0.623-0.056-0.816-0.167
		c-0.193-0.11-0.33-0.257-0.408-0.438s-0.118-0.561-0.118-1.141v-3.282h-0.709v-0.752h0.709v-1.413l0.961-0.58v1.993h0.972v0.752
		h-0.972v3.335c0,0.276,0.017,0.453,0.051,0.532c0.034,0.079,0.089,0.142,0.166,0.188c0.077,0.046,0.188,0.069,0.331,0.069
		C69.333,139.13,69.475,139.117,69.65,139.092z"/>
	<path class="st34" d="M73.63,139.957v-7.874h0.967v7.874H73.63z"/>
	<path class="st34" d="M79.818,139.254c-0.358,0.304-0.703,0.519-1.034,0.645c-0.331,0.125-0.687,0.188-1.066,0.188
		c-0.626,0-1.108-0.153-1.445-0.459c-0.336-0.307-0.505-0.697-0.505-1.174c0-0.279,0.063-0.534,0.19-0.766
		c0.127-0.23,0.294-0.416,0.5-0.556c0.206-0.14,0.438-0.245,0.695-0.317c0.19-0.05,0.476-0.098,0.859-0.145
		c0.781-0.093,1.355-0.204,1.724-0.333c0.003-0.133,0.005-0.217,0.005-0.253c0-0.394-0.091-0.671-0.274-0.832
		c-0.247-0.219-0.614-0.328-1.101-0.328c-0.455,0-0.791,0.08-1.007,0.239c-0.217,0.159-0.377,0.441-0.481,0.847l-0.945-0.129
		c0.086-0.405,0.228-0.731,0.424-0.98s0.481-0.44,0.854-0.575c0.373-0.134,0.804-0.201,1.294-0.201c0.487,0,0.883,0.058,1.187,0.172
		s0.528,0.259,0.671,0.433s0.244,0.393,0.301,0.658c0.032,0.164,0.048,0.461,0.048,0.891v1.289c0,0.899,0.021,1.468,0.062,1.706
		c0.041,0.238,0.123,0.466,0.244,0.685h-1.01C79.911,139.757,79.847,139.521,79.818,139.254z M79.737,137.094
		c-0.351,0.144-0.877,0.266-1.579,0.365c-0.397,0.058-0.679,0.122-0.843,0.193c-0.165,0.072-0.292,0.177-0.381,0.314
		s-0.134,0.291-0.134,0.459c0,0.258,0.098,0.473,0.293,0.645c0.195,0.172,0.48,0.258,0.856,0.258c0.373,0,0.704-0.081,0.994-0.244
		s0.503-0.386,0.639-0.668c0.104-0.219,0.156-0.541,0.156-0.967V137.094z"/>
	<path class="st34" d="M88.992,137.867l0.951,0.124c-0.104,0.655-0.37,1.168-0.797,1.539c-0.428,0.37-0.954,0.556-1.577,0.556
		c-0.781,0-1.408-0.255-1.882-0.766c-0.475-0.51-0.712-1.241-0.712-2.193c0-0.616,0.102-1.155,0.306-1.617s0.515-0.809,0.932-1.039
		c0.417-0.231,0.871-0.347,1.361-0.347c0.62,0,1.126,0.156,1.52,0.47s0.646,0.759,0.757,1.335l-0.94,0.146
		c-0.089-0.384-0.248-0.672-0.475-0.865c-0.228-0.193-0.502-0.29-0.825-0.29c-0.487,0-0.883,0.175-1.187,0.523
		c-0.304,0.35-0.457,0.901-0.457,1.657c0,0.767,0.147,1.323,0.44,1.67c0.293,0.348,0.677,0.521,1.149,0.521
		c0.379,0,0.696-0.116,0.951-0.35C88.763,138.709,88.924,138.352,88.992,137.867z"/>
	<path class="st34" d="M94.508,139.957v-0.838c-0.444,0.645-1.047,0.967-1.81,0.967c-0.336,0-0.651-0.064-0.942-0.193
		c-0.292-0.129-0.509-0.291-0.65-0.486c-0.141-0.195-0.241-0.434-0.298-0.717c-0.04-0.189-0.059-0.49-0.059-0.902v-3.534h0.967
		v3.163c0,0.506,0.02,0.846,0.059,1.021c0.061,0.254,0.19,0.453,0.387,0.599c0.197,0.145,0.44,0.218,0.73,0.218
		s0.562-0.075,0.816-0.224s0.434-0.351,0.54-0.606c0.105-0.256,0.158-0.628,0.158-1.115v-3.056h0.967v5.704H94.508z"/>
	<path class="st34" d="M96.866,139.957v-7.874h0.967v7.874H96.866z"/>
	<path class="st34" d="M101.442,139.092l0.14,0.854c-0.272,0.058-0.516,0.086-0.73,0.086c-0.351,0-0.623-0.056-0.816-0.167
		c-0.193-0.11-0.33-0.257-0.408-0.438s-0.118-0.561-0.118-1.141v-3.282h-0.709v-0.752h0.709v-1.413l0.961-0.58v1.993h0.972v0.752
		h-0.972v3.335c0,0.276,0.017,0.453,0.051,0.532c0.034,0.079,0.089,0.142,0.166,0.188c0.077,0.046,0.188,0.069,0.331,0.069
		C101.125,139.13,101.267,139.117,101.442,139.092z"/>
	<path class="st34" d="M106.125,139.957v-0.838c-0.444,0.645-1.047,0.967-1.81,0.967c-0.336,0-0.651-0.064-0.942-0.193
		c-0.292-0.129-0.509-0.291-0.65-0.486c-0.141-0.195-0.241-0.434-0.298-0.717c-0.04-0.189-0.059-0.49-0.059-0.902v-3.534h0.967
		v3.163c0,0.506,0.02,0.846,0.059,1.021c0.061,0.254,0.19,0.453,0.387,0.599c0.197,0.145,0.44,0.218,0.73,0.218
		s0.562-0.075,0.816-0.224s0.434-0.351,0.54-0.606c0.105-0.256,0.158-0.628,0.158-1.115v-3.056h0.967v5.704H106.125z"/>
	<path class="st34" d="M108.494,139.957v-5.704h0.87v0.864c0.222-0.404,0.427-0.671,0.615-0.8c0.188-0.129,0.395-0.193,0.621-0.193
		c0.326,0,0.657,0.104,0.994,0.312l-0.333,0.896c-0.236-0.139-0.473-0.209-0.709-0.209c-0.211,0-0.401,0.063-0.569,0.19
		s-0.288,0.304-0.36,0.529c-0.107,0.344-0.161,0.72-0.161,1.128v2.986H108.494z"/>
	<path class="st34" d="M116.073,138.12l0.999,0.124c-0.158,0.583-0.449,1.036-0.875,1.358s-0.97,0.483-1.633,0.483
		c-0.834,0-1.496-0.257-1.985-0.771c-0.488-0.514-0.733-1.234-0.733-2.162c0-0.96,0.247-1.704,0.741-2.234s1.135-0.795,1.923-0.795
		c0.763,0,1.386,0.26,1.869,0.778c0.483,0.52,0.725,1.25,0.725,2.191c0,0.058-0.002,0.144-0.005,0.258h-4.254
		c0.036,0.627,0.213,1.107,0.532,1.439c0.319,0.334,0.716,0.5,1.192,0.5c0.354,0,0.657-0.093,0.908-0.279
		S115.926,138.528,116.073,138.12z M112.898,136.557h3.185c-0.043-0.479-0.165-0.839-0.365-1.079
		c-0.308-0.372-0.707-0.559-1.198-0.559c-0.444,0-0.817,0.148-1.12,0.446C113.098,135.662,112.931,136.06,112.898,136.557z"/>
</g>
</svg>
