<?xml version="1.0" encoding="utf-8"?>
<!-- Generator: Adobe Illustrator 24.0.0, SVG Export Plug-In . SVG Version: 6.00 Build 0)  -->
<svg version="1.1" id="Layer_3" xmlns="http://www.w3.org/2000/svg" xmlns:xlink="http://www.w3.org/1999/xlink" x="0px" y="0px"
	 viewBox="0 0 306.1 141.7" style="enable-background:new 0 0 306.1 141.7;" xml:space="preserve">
<style type="text/css">
	.st0{opacity:0.25;}
	.st1{fill:#171717;}
	.st2{opacity:0.18;}
	.st3{opacity:0.51;fill:#171717;}
</style>
<g class="st0">
	
		<image style="overflow:visible;" width="529" height="354" xlink:href="2425C4E7.png"  transform="matrix(0.24 0 0 0.24 88.56 2.16)">
	</image>
</g>
<g>
	<path class="st1" d="M113.5,7.9c0,0.6-0.5,1-1,1c-0.6,0-1-0.5-1-1c0-0.6,0.4-1,1-1C113,6.9,113.5,7.4,113.5,7.9"/>
	<path class="st1" d="M113.5,11.5c0,0.6-0.5,1-1,1c-0.6,0-1-0.5-1-1c0-0.6,0.4-1,1-1C113,10.5,113.5,10.9,113.5,11.5"/>
	<path class="st1" d="M113.5,15.4c0,0.6-0.5,1-1,1c-0.6,0-1-0.5-1-1c0-0.6,0.4-1,1-1C113,14.4,113.5,14.8,113.5,15.4"/>
	<path class="st1" d="M113.5,19.2c0,0.6-0.5,1-1,1c-0.6,0-1-0.5-1-1c0-0.6,0.4-1,1-1C113,18.2,113.5,18.7,113.5,19.2"/>
	<path class="st1" d="M113.5,23.4c0,0.6-0.5,1-1,1c-0.6,0-1-0.5-1-1c0-0.6,0.4-1,1-1C113,22.4,113.5,22.9,113.5,23.4"/>
	<path class="st1" d="M113.5,27.6c0,0.6-0.5,1-1,1c-0.6,0-1-0.5-1-1c0-0.6,0.4-1,1-1C113,26.6,113.5,27,113.5,27.6"/>
	<path class="st1" d="M113.5,31.9c0,0.6-0.5,1-1,1c-0.6,0-1-0.5-1-1c0-0.6,0.4-1,1-1C113,30.9,113.5,31.3,113.5,31.9"/>
	<path class="st1" d="M113.5,36.2c0,0.6-0.5,1-1,1c-0.6,0-1-0.5-1-1c0-0.6,0.4-1,1-1C113,35.2,113.5,35.6,113.5,36.2"/>
	<path class="st1" d="M113.5,40.8c0,0.6-0.5,1-1,1c-0.6,0-1-0.5-1-1c0-0.6,0.4-1,1-1C113,39.8,113.5,40.3,113.5,40.8"/>
	<path class="st1" d="M113.5,45.5c0,0.6-0.5,1-1,1c-0.6,0-1-0.5-1-1c0-0.6,0.4-1,1-1C113,44.5,113.5,44.9,113.5,45.5"/>
	<path class="st1" d="M113.5,50.4c0,0.6-0.5,1-1,1c-0.6,0-1-0.5-1-1c0-0.6,0.4-1,1-1C113,49.4,113.5,49.8,113.5,50.4"/>
	<path class="st1" d="M113.5,55.4c0,0.6-0.5,1-1,1c-0.6,0-1-0.5-1-1c0-0.6,0.4-1,1-1C113,54.4,113.5,54.8,113.5,55.4"/>
	<path class="st1" d="M113.5,60.6c0,0.6-0.5,1-1,1c-0.6,0-1-0.5-1-1c0-0.6,0.4-1,1-1C113,59.6,113.5,60.1,113.5,60.6"/>
	<path class="st1" d="M113.5,66.6c0,0.6-0.5,1-1,1c-0.6,0-1-0.5-1-1c0-0.6,0.4-1,1-1C113,65.6,113.5,66,113.5,66.6"/>
	<path class="st1" d="M113.5,73.2c0,0.6-0.5,1-1,1c-0.6,0-1-0.5-1-1c0-0.6,0.4-1,1-1C113,72.2,113.5,72.6,113.5,73.2"/>
	<path class="st1" d="M113.5,80.9c0,0.6-0.5,1-1,1c-0.6,0-1-0.5-1-1s0.4-1,1-1C113,79.9,113.5,80.4,113.5,80.9"/>
	<path class="st1" d="M113.5,89.3c0,0.6-0.5,1-1,1c-0.6,0-1-0.5-1-1c0-0.6,0.4-1,1-1C113,88.3,113.5,88.7,113.5,89.3"/>
	<path class="st1" d="M113.5,98.8c0,0.6-0.5,1-1,1c-0.6,0-1-0.4-1-1c0-0.6,0.4-1,1-1C113,97.8,113.5,98.2,113.5,98.8"/>
	<path class="st1" d="M113.5,109.6c0,0.6-0.5,1-1,1c-0.6,0-1-0.4-1-1c0-0.6,0.4-1,1-1C113,108.5,113.5,109,113.5,109.6"/>
	<path class="st1" d="M113.5,121.5c0,0.6-0.5,1-1,1c-0.6,0-1-0.4-1-1c0-0.6,0.4-1,1-1C113,120.5,113.5,120.9,113.5,121.5"/>
	<path class="st1" d="M113.5,134.6c0,0.6-0.5,1-1,1c-0.6,0-1-0.4-1-1s0.4-1,1-1C113,133.6,113.5,134.1,113.5,134.6"/>
	<rect x="36" y="62.4" class="st1" width="59" height="2.5"/>
	<rect x="32.7" y="66.6" class="st1" width="65.6" height="2.5"/>
	<rect x="29.6" y="70.8" class="st1" width="71.9" height="2.5"/>
	<rect x="36" y="31.2" class="st1" width="59" height="2.5"/>
	<polygon class="st1" points="48,29.6 65.5,24.4 82.7,29.6 89.9,29.6 65.5,22.1 40.8,29.6 	"/>
	<polygon class="st1" points="36,29.6 65.4,20.7 95,29.6 95,27 65.5,17.9 36,27 	"/>
	<path class="st1" d="M39.5,59.2c0,0,0,1.9,2.1,1.9c2.1,0,2-1.9,2-1.9v-24H42v24.1c0,0,0,0.4-0.6,0.4c-0.6,0-0.4-0.6-0.4-0.6V35.2
		h-1.5V59.2z"/>
	<polygon class="st1" points="49.2,61.1 50.4,61.1 50.4,45.5 52,61.1 53.3,61.1 53.3,35.2 52,35.2 52,49 50.4,35.2 49.2,35.2 	"/>
	<polygon class="st1" points="59,61.1 63,61.1 63,59.7 60.8,59.7 60.8,48 62.4,48 62.4,46.6 60.8,46.6 60.8,36.5 62.4,36.5 
		62.4,35.2 59,35.2 	"/>
	<path class="st1" d="M81.8,42.9v-5.8c0,0-0.1-1.9-2-1.9c-2,0-2,1.9-2,1.9v22.1c0,0-0.1,1.9,2,1.9c2,0,2-1.9,2-1.9v-6.5h-1.5v6.5
		c0,0,0,0.5-0.5,0.5c-0.5,0-0.6-0.5-0.6-0.5V37.1c0,0,0-0.6,0.6-0.6c0.5,0,0.5,0.6,0.5,0.6v5.8H81.8z"/>
	<path class="st1" d="M91.6,37.1c0,0,0.1-1.9-2-1.9c-2.2,0-2.2,1.9-2.2,1.9v22.1c0,0,0,1.9,2,1.9c2.2,0,2.2-1.9,2.2-1.9V37.1z
		 M90.2,59.2c0,0,0.1,0.5-0.6,0.5c-0.6,0-0.6-0.5-0.6-0.5V37.1c0,0,0-0.6,0.6-0.6c0.6,0,0.6,0.6,0.6,0.6V59.2z"/>
	<path class="st1" d="M70.5,59.2c0,0,0,0.5-0.4,0.5c-0.4,0-0.4-0.5-0.4-0.5v-6.5h-1.6v6.5c0,0-0.1,1.9,2,1.9c2,0,2-1.9,2-1.9
		s0-4.3,0-5.6c0-3-2.4-8.8-2.4-10.7v-5.8c0,0-0.1-0.6,0.4-0.6c0.4,0,0.4,0.6,0.4,0.6v5.8h1.6v-5.8c0,0,0.1-1.9-2-1.9
		c-2,0.1-2,1.9-2,1.9V42c0,3.2,2.4,8.7,2.4,11.2V59.2z"/>
	<path class="st1" d="M214.4,63.7c-0.4,0.3-1,0.6-1.8,0.6c-1.1,0-2-0.8-2-2.9c0-2.2,0.7-3.1,2-3.1c0.8,0,1.4,0.3,1.8,0.7V63.7z
		 M214.4,65.2h3.1v-0.3l-1.1-0.3V54h-3.2v0.4l1.2,0.3v3.6c-0.5-0.5-1.4-0.8-2.4-0.8c-1.9,0-3.4,1.7-3.4,4.1c0,2.4,1.3,3.8,3.4,3.8
		c1,0,1.8-0.4,2.4-0.9V65.2z"/>
	<polygon class="st1" points="243.6,54 243.6,54.4 242.4,54.7 242.4,64.5 243.6,64.8 243.6,65.2 238.7,65.2 238.7,64.8 240.3,64.5 
		240.3,56.7 236.7,65.2 235.8,65.2 232.3,56.7 232.3,64.5 233.8,64.8 233.8,65.2 230.3,65.2 230.3,64.8 231.3,64.5 231.3,54.7 
		230.3,54.4 230.3,54 233.4,54 236.9,62.6 240.4,54 	"/>
	<path class="st1" d="M248.4,58c1.3,0,2,1.5,2,3.4c0,1.9-0.7,3.4-2,3.4c-1.3,0-2-1.5-2-3.4C246.4,59.5,247.1,58,248.4,58
		 M248.4,57.5c-2.2,0-4.2,1.5-4.2,3.9c0,2.3,2,3.9,4.2,3.9c2.2,0,4.2-1.6,4.2-3.9C252.6,59,250.6,57.5,248.4,57.5"/>
	<path class="st1" d="M288.8,63.9c-0.4,0.3-0.7,0.5-1.4,0.5c-1,0-1.3-0.6-1.3-1.3c0-0.7,0.5-1.2,1.4-1.4l1.2-0.1V63.9z M288.8,59.8
		v1.3l-1.7,0.1c-1.7,0.1-2.7,1-2.7,2.2c0,1.3,0.9,2,2.2,2c1,0,1.8-0.5,2.3-0.9v0.7h2.8v-0.3l-0.9-0.3v-5.1c0-1.1-0.7-2-2.4-2
		c-1.7,0-2.8,0.5-3.4,0.7V60h0.8l0.3-1.5c0.2-0.1,0.7-0.3,1.6-0.2C288.6,58.4,288.7,59.1,288.8,59.8"/>
	<polygon class="st1" points="296.7,64.9 296.7,65.2 292.5,65.2 292.5,64.9 293.6,64.6 293.6,54.7 292.5,54.4 292.5,54 295.6,54 
		295.6,64.6 	"/>
	<path class="st1" d="M198.6,39.9l-1.7-0.3v-0.4h3.9v0.3l-1.2,0.3v6.7c0,2.8-1.5,3.9-4.7,3.9c-3.2,0-4.5-1.2-4.5-3.8v-7l-1.1-0.3
		v-0.3h4.9v0.4l-1.7,0.3v6.8c0,2.1,0.7,3.1,2.9,3.1c2.3,0,3.2-1.1,3.2-3.3V39.9z"/>
	<path class="st1" d="M205.2,50v0.3H201V50l1.1-0.3v-6.4l-1-0.3v-0.4h3v1.2c0.3-0.3,1.4-1.2,2.8-1.2c1.4,0,2.2,0.8,2.2,2.2v4.9
		l1.1,0.3v0.3h-4V50l1-0.3V45c0-0.7-0.2-1.4-1.1-1.4c-0.8,0-1.7,0.6-1.9,0.7v5.3L205.2,50z"/>
	<polygon class="st1" points="214,49.7 215.1,50 215.1,50.3 210.9,50.3 210.9,50 212,49.7 212,43.4 211,43.1 211,42.7 214,42.7 	"/>
	<path class="st1" d="M214.1,40.1c0,0.6-0.5,1.1-1.1,1.1c-0.6,0-1.1-0.5-1.1-1.1c0-0.6,0.5-1.1,1.1-1.1
		C213.6,39,214.1,39.5,214.1,40.1"/>
	<polygon class="st1" points="247.6,49.7 248.7,50 248.7,50.3 244.5,50.3 244.5,50 245.7,49.7 245.7,43.4 244.6,43.1 244.6,42.7 
		247.6,42.7 	"/>
	<path class="st1" d="M247.7,40.1c0,0.6-0.5,1.1-1.1,1.1c-0.6,0-1.1-0.5-1.1-1.1c0-0.6,0.5-1.1,1.1-1.1
		C247.2,39,247.7,39.5,247.7,40.1"/>
	<polygon class="st1" points="215.7,43.2 215.2,43 215.2,42.7 218.9,42.7 218.9,43 217.7,43.3 219.4,47.9 221.1,43.3 220.1,43 
		220.1,42.7 222.6,42.7 222.6,43 222,43.3 219.1,50.4 218.4,50.4 	"/>
	<path class="st1" d="M228,45.4h-3c0.2-1.3,0.7-2.3,1.6-2.3C227.5,43.2,227.9,44.4,228,45.4 M224.8,46h5c-0.1-2.1-1.1-3.4-3.4-3.4
		c-2.2,0-3.8,1.9-3.8,3.9c0,2.4,1.6,3.9,3.8,3.9c1.9,0,2.9-0.8,3.5-1.2l-0.3-0.5c-0.4,0.3-1.3,0.9-2.8,0.8
		C225.4,49.5,224.7,47.9,224.8,46"/>
	<path class="st1" d="M243,43l-0.2,1.9h-0.7l-0.2-1.3c-0.3-0.1-0.6-0.4-1.4-0.4c-0.6,0-1.1,0.3-1.1,1c0,0.8,0.9,1.1,1.7,1.5
		c0.8,0.4,2.2,0.9,2.2,2.2c0,1.5-1.3,2.6-2.8,2.6c-1.4,0-2.2-0.3-2.5-0.4l-0.1-2.1l0.7-0.1l0.4,1.4c0.2,0.2,0.8,0.6,1.5,0.6
		c1,0,1.4-0.5,1.4-1.2c0-0.9-1.2-1.2-2-1.6c-0.8-0.4-1.9-0.7-1.9-2.2c0-1.3,1.1-2.2,2.5-2.2C241.9,42.6,242.6,42.9,243,43"/>
	<polygon class="st1" points="261.7,40.2 261,39.1 258.4,41.1 258.8,41.8 	"/>
	<path class="st1" d="M260.3,45.4h-3c0.2-1.3,0.7-2.3,1.6-2.3C259.9,43.2,260.2,44.4,260.3,45.4 M257.2,46h5
		c-0.1-2.1-1.1-3.4-3.4-3.4c-2.2,0-3.8,1.9-3.8,3.9c0,2.4,1.6,3.9,3.8,3.9c1.9,0,2.9-0.8,3.5-1.2l-0.3-0.5c-0.4,0.3-1.3,0.9-2.8,0.8
		C257.7,49.5,257,47.9,257.2,46"/>
	<path class="st1" d="M236.3,42.6c-1.1,0-1.9,0.9-2.3,1.9h0v-1.8h-3.1V43l1.1,0.3v6.4l-1.1,0.3v0.3h4.8v-0.4l-1.7-0.3v-4.3
		c0.5-1,1.1-1.4,1.6-1.4c0.3,0,0.4,0.1,0.7,0.3c0.1,0.1,0.4,0.2,0.6,0.1c0.4-0.2,0.5-0.4,0.5-0.8C237.3,43,236.8,42.6,236.3,42.6"/>
	<path class="st1" d="M257.6,64.9v0.3h-4.2v-0.3l1.1-0.3v-6.4l-1-0.3v-0.4h3v1.2c0.3-0.3,1.4-1.2,2.8-1.2c1.4,0,2.2,0.8,2.2,2.2v4.9
		l1.1,0.3v0.3h-4v-0.3l1-0.3v-4.7c0-0.7-0.2-1.4-1.1-1.4c-0.8,0-1.7,0.6-1.9,0.7v5.3L257.6,64.9z"/>
	<path class="st1" d="M274.6,57.5c-1.1,0-1.9,0.9-2.3,1.9h0v-1.8h-3.1v0.3l1.1,0.3v6.4l-1.1,0.3v0.3h4.8v-0.4l-1.7-0.3v-4.3
		c0.5-1,1.1-1.4,1.6-1.4c0.3,0,0.4,0.1,0.7,0.3c0.1,0.1,0.4,0.2,0.6,0.1c0.4-0.2,0.5-0.4,0.5-0.8C275.6,57.9,275.2,57.5,274.6,57.5"
		/>
	<path class="st1" d="M254.5,49.5c-0.3,0.2-0.6,0.3-1,0.3c-0.7,0-0.9-0.5-0.9-1.6v-4.8l2-0.3v-0.4h-2v-3.5h-0.6
		c-0.1,2-0.8,3.3-2.6,3.5H249v0.4l1.6,0.3v4.9c0,1.6,0.4,2.2,1.8,2.2c1,0,1.9-0.4,2.2-0.7L254.5,49.5z"/>
	<path class="st1" d="M268.3,64.3c-0.3,0.2-0.6,0.3-1,0.3c-0.7,0-0.9-0.5-0.9-1.6v-4.8l2-0.3v-0.4h-2V54h-0.6
		c-0.1,2-0.8,3.3-2.6,3.5h-0.3v0.4l1.6,0.3v4.9c0,1.6,0.4,2.2,1.8,2.2c1,0,1.9-0.4,2.2-0.7L268.3,64.3z"/>
	<path class="st1" d="M223.3,60.3h-3c0.2-1.3,0.7-2.3,1.6-2.3C222.9,58,223.3,59.2,223.3,60.3 M220.2,60.9h5
		c-0.1-2.1-1.1-3.4-3.4-3.4c-2.2,0-3.8,1.9-3.8,3.9c0,2.4,1.6,3.9,3.8,3.9c1.9,0,2.9-0.8,3.5-1.2l-0.3-0.5c-0.4,0.3-1.3,0.9-2.8,0.8
		C220.8,64.3,220.1,62.8,220.2,60.9"/>
	<path class="st1" d="M281,60.3h-3c0.2-1.3,0.7-2.3,1.6-2.3C280.6,58,280.9,59.2,281,60.3 M282.4,55l-0.7-1.1l-2.6,2.1l0.4,0.6
		L282.4,55z M277.9,60.9h5c0-2.1-1.1-3.4-3.4-3.4c-2.2,0-3.8,1.9-3.8,3.9c0,2.4,1.6,3.9,3.8,3.9c1.9,0,2.9-0.8,3.5-1.2l-0.3-0.5
		c-0.4,0.3-1.3,0.9-2.8,0.8C278.5,64.3,277.7,62.8,277.9,60.9"/>
</g>
<g>
	<path class="st1" d="M128.7,88.5l0.9,0.2c-0.2,0.7-0.5,1.3-1,1.7c-0.5,0.4-1.1,0.6-1.8,0.6c-0.7,0-1.3-0.1-1.8-0.4
		c-0.5-0.3-0.8-0.7-1-1.3c-0.2-0.6-0.4-1.2-0.4-1.8c0-0.7,0.1-1.3,0.4-1.8c0.3-0.5,0.6-0.9,1.1-1.2c0.5-0.3,1-0.4,1.6-0.4
		c0.7,0,1.2,0.2,1.7,0.5c0.5,0.3,0.8,0.8,1,1.4l-0.9,0.2c-0.2-0.5-0.4-0.8-0.7-1.1s-0.7-0.3-1.1-0.3c-0.5,0-0.9,0.1-1.3,0.4
		c-0.3,0.2-0.6,0.6-0.7,1c-0.1,0.4-0.2,0.8-0.2,1.3c0,0.6,0.1,1.1,0.2,1.5c0.2,0.4,0.4,0.7,0.8,1c0.4,0.2,0.7,0.3,1.1,0.3
		c0.5,0,0.9-0.1,1.3-0.4C128.3,89.5,128.5,89.1,128.7,88.5z"/>
	<path class="st1" d="M130.5,90.8v-6.7h0.8v2.4c0.4-0.4,0.9-0.7,1.5-0.7c0.4,0,0.7,0.1,0.9,0.2c0.3,0.1,0.5,0.3,0.6,0.6
		s0.2,0.6,0.2,1.1v3.1h-0.8v-3.1c0-0.4-0.1-0.7-0.3-0.9c-0.2-0.2-0.4-0.3-0.8-0.3c-0.2,0-0.5,0.1-0.7,0.2c-0.2,0.1-0.4,0.3-0.5,0.5
		c-0.1,0.2-0.1,0.5-0.1,0.9v2.7H130.5z"/>
	<path class="st1" d="M138.9,90.2c-0.3,0.3-0.6,0.4-0.9,0.5c-0.3,0.1-0.6,0.2-0.9,0.2c-0.5,0-0.9-0.1-1.2-0.4
		c-0.3-0.3-0.4-0.6-0.4-1c0-0.2,0.1-0.5,0.2-0.7s0.3-0.4,0.4-0.5s0.4-0.2,0.6-0.3c0.2,0,0.4-0.1,0.7-0.1c0.7-0.1,1.2-0.2,1.5-0.3
		c0-0.1,0-0.2,0-0.2c0-0.3-0.1-0.6-0.2-0.7c-0.2-0.2-0.5-0.3-0.9-0.3c-0.4,0-0.7,0.1-0.9,0.2c-0.2,0.1-0.3,0.4-0.4,0.7l-0.8-0.1
		c0.1-0.3,0.2-0.6,0.4-0.8c0.2-0.2,0.4-0.4,0.7-0.5c0.3-0.1,0.7-0.2,1.1-0.2c0.4,0,0.8,0,1,0.1s0.4,0.2,0.6,0.4s0.2,0.3,0.3,0.6
		c0,0.1,0,0.4,0,0.8v1.1c0,0.8,0,1.3,0.1,1.5c0,0.2,0.1,0.4,0.2,0.6h-0.9C139,90.7,138.9,90.5,138.9,90.2z M138.9,88.4
		c-0.3,0.1-0.7,0.2-1.3,0.3c-0.3,0-0.6,0.1-0.7,0.2c-0.1,0.1-0.2,0.2-0.3,0.3s-0.1,0.2-0.1,0.4c0,0.2,0.1,0.4,0.2,0.5
		c0.2,0.1,0.4,0.2,0.7,0.2c0.3,0,0.6-0.1,0.8-0.2s0.4-0.3,0.5-0.6c0.1-0.2,0.1-0.5,0.1-0.8V88.4z"/>
	<path class="st1" d="M141,85.1v-0.9h0.8v0.9H141z M141,90.8V86h0.8v4.9H141z"/>
	<path class="st1" d="M143,90.8V86h0.7v0.7c0.2-0.3,0.4-0.6,0.5-0.7c0.2-0.1,0.3-0.2,0.5-0.2c0.3,0,0.6,0.1,0.8,0.3l-0.3,0.8
		c-0.2-0.1-0.4-0.2-0.6-0.2c-0.2,0-0.3,0.1-0.5,0.2c-0.1,0.1-0.2,0.3-0.3,0.5c-0.1,0.3-0.1,0.6-0.1,1v2.5H143z"/>
	<path class="st1" d="M149.5,89.3l0.9,0.1c-0.1,0.5-0.4,0.9-0.7,1.2c-0.4,0.3-0.8,0.4-1.4,0.4c-0.7,0-1.3-0.2-1.7-0.7
		s-0.6-1.1-0.6-1.8c0-0.8,0.2-1.5,0.6-1.9c0.4-0.5,1-0.7,1.6-0.7c0.6,0,1.2,0.2,1.6,0.7c0.4,0.4,0.6,1.1,0.6,1.9c0,0,0,0.1,0,0.2
		h-3.6c0,0.5,0.2,0.9,0.5,1.2s0.6,0.4,1,0.4c0.3,0,0.6-0.1,0.8-0.2C149.2,89.9,149.4,89.6,149.5,89.3z M146.8,87.9h2.7
		c0-0.4-0.1-0.7-0.3-0.9c-0.3-0.3-0.6-0.5-1-0.5c-0.4,0-0.7,0.1-1,0.4C147,87.2,146.8,87.5,146.8,87.9z"/>
	<path class="st1" d="M158.5,84.1h0.9V88c0,0.7-0.1,1.2-0.2,1.6c-0.2,0.4-0.4,0.7-0.8,1s-0.9,0.4-1.6,0.4c-0.6,0-1.1-0.1-1.5-0.3
		c-0.4-0.2-0.7-0.5-0.9-0.9c-0.2-0.4-0.3-1-0.3-1.7v-3.9h0.9V88c0,0.6,0.1,1,0.2,1.3c0.1,0.3,0.3,0.5,0.6,0.6c0.3,0.1,0.6,0.2,1,0.2
		c0.7,0,1.1-0.1,1.4-0.4c0.3-0.3,0.4-0.9,0.4-1.7V84.1z"/>
	<path class="st1" d="M160.8,90.8v-6.7h0.9l3.5,5.3v-5.3h0.9v6.7h-0.9l-3.5-5.3v5.3H160.8z"/>
	<path class="st1" d="M167.6,90.8v-6.7h4.9v0.8h-4V87h3.7v0.8h-3.7v2.3h4.1v0.8H167.6z"/>
	<path class="st1" d="M173.6,88.7l0.8-0.1c0,0.3,0.1,0.6,0.3,0.8c0.1,0.2,0.4,0.4,0.7,0.5s0.6,0.2,1,0.2c0.3,0,0.6-0.1,0.9-0.2
		c0.3-0.1,0.5-0.2,0.6-0.4c0.1-0.2,0.2-0.4,0.2-0.6c0-0.2-0.1-0.4-0.2-0.6c-0.1-0.2-0.3-0.3-0.6-0.4c-0.2-0.1-0.6-0.2-1.2-0.3
		s-1-0.3-1.3-0.4c-0.3-0.2-0.6-0.4-0.7-0.6c-0.2-0.2-0.2-0.5-0.2-0.8c0-0.3,0.1-0.7,0.3-0.9c0.2-0.3,0.5-0.5,0.8-0.7
		c0.4-0.2,0.8-0.2,1.2-0.2c0.5,0,0.9,0.1,1.3,0.2c0.4,0.2,0.7,0.4,0.9,0.7s0.3,0.7,0.3,1.1l-0.9,0.1c0-0.4-0.2-0.7-0.5-1
		c-0.3-0.2-0.7-0.3-1.2-0.3c-0.5,0-0.9,0.1-1.2,0.3c-0.2,0.2-0.4,0.4-0.4,0.7c0,0.2,0.1,0.4,0.3,0.6c0.2,0.2,0.6,0.3,1.3,0.5
		c0.7,0.2,1.2,0.3,1.5,0.4c0.4,0.2,0.7,0.4,0.9,0.7c0.2,0.3,0.3,0.6,0.3,1c0,0.4-0.1,0.7-0.3,1c-0.2,0.3-0.5,0.6-0.9,0.7
		s-0.8,0.3-1.3,0.3c-0.6,0-1.1-0.1-1.5-0.3c-0.4-0.2-0.7-0.4-1-0.8S173.6,89.1,173.6,88.7z"/>
	<path class="st1" d="M184.9,88.5l0.9,0.2c-0.2,0.7-0.5,1.3-1,1.7c-0.5,0.4-1.1,0.6-1.8,0.6c-0.7,0-1.3-0.1-1.8-0.4s-0.8-0.7-1-1.3
		c-0.2-0.6-0.4-1.2-0.4-1.8c0-0.7,0.1-1.3,0.4-1.8c0.3-0.5,0.6-0.9,1.1-1.2c0.5-0.3,1-0.4,1.6-0.4c0.7,0,1.2,0.2,1.7,0.5
		c0.5,0.3,0.8,0.8,1,1.4l-0.9,0.2c-0.2-0.5-0.4-0.8-0.7-1.1c-0.3-0.2-0.7-0.3-1.1-0.3c-0.5,0-0.9,0.1-1.3,0.4
		c-0.3,0.2-0.6,0.6-0.7,1c-0.1,0.4-0.2,0.8-0.2,1.3c0,0.6,0.1,1.1,0.2,1.5c0.2,0.4,0.4,0.7,0.8,1s0.7,0.3,1.1,0.3
		c0.5,0,0.9-0.1,1.3-0.4C184.6,89.5,184.8,89.1,184.9,88.5z"/>
	<path class="st1" d="M186.6,87.6c0-1.1,0.3-2,0.9-2.6c0.6-0.6,1.4-0.9,2.3-0.9c0.6,0,1.2,0.1,1.7,0.4c0.5,0.3,0.9,0.7,1.1,1.2
		c0.3,0.5,0.4,1.1,0.4,1.8c0,0.7-0.1,1.3-0.4,1.8s-0.7,0.9-1.2,1.2s-1,0.4-1.6,0.4c-0.6,0-1.2-0.2-1.7-0.5c-0.5-0.3-0.9-0.7-1.1-1.2
		C186.8,88.7,186.6,88.2,186.6,87.6z M187.5,87.6c0,0.8,0.2,1.4,0.7,1.9c0.4,0.5,1,0.7,1.6,0.7c0.7,0,1.2-0.2,1.6-0.7
		c0.4-0.5,0.6-1.1,0.6-2c0-0.5-0.1-1-0.3-1.4c-0.2-0.4-0.5-0.7-0.8-0.9c-0.4-0.2-0.8-0.3-1.2-0.3c-0.6,0-1.2,0.2-1.6,0.6
		S187.5,86.6,187.5,87.6z"/>
</g>
<g>
	<path class="st1" d="M127.1,99.5l0.9,0.1c-0.1,0.5-0.4,0.9-0.7,1.2c-0.4,0.3-0.8,0.4-1.4,0.4c-0.7,0-1.3-0.2-1.7-0.7
		c-0.4-0.4-0.6-1.1-0.6-1.8c0-0.8,0.2-1.5,0.6-1.9c0.4-0.5,1-0.7,1.6-0.7c0.6,0,1.2,0.2,1.6,0.7c0.4,0.4,0.6,1.1,0.6,1.9
		c0,0,0,0.1,0,0.2h-3.6c0,0.5,0.2,0.9,0.5,1.2c0.3,0.3,0.6,0.4,1,0.4c0.3,0,0.6-0.1,0.8-0.2C126.8,100.1,127,99.8,127.1,99.5z
		 M124.4,98.2h2.7c0-0.4-0.1-0.7-0.3-0.9c-0.3-0.3-0.6-0.5-1-0.5c-0.4,0-0.7,0.1-1,0.4C124.6,97.4,124.4,97.7,124.4,98.2z"/>
	<path class="st1" d="M129,101.1v-4.9h0.7v0.7c0.4-0.5,0.9-0.8,1.5-0.8c0.3,0,0.6,0.1,0.8,0.2s0.4,0.2,0.6,0.4
		c0.1,0.2,0.2,0.4,0.3,0.6c0,0.2,0,0.4,0,0.8v3h-0.8v-3c0-0.3,0-0.6-0.1-0.8s-0.2-0.3-0.3-0.4c-0.2-0.1-0.4-0.1-0.6-0.1
		c-0.4,0-0.7,0.1-0.9,0.3s-0.4,0.6-0.4,1.3v2.7H129z"/>
	<path class="st1" d="M136.8,102.9v-6.7h0.8v0.6c0.2-0.2,0.4-0.4,0.6-0.6c0.2-0.1,0.5-0.2,0.8-0.2c0.4,0,0.8,0.1,1.1,0.3
		c0.3,0.2,0.6,0.5,0.7,0.9c0.2,0.4,0.2,0.8,0.2,1.3c0,0.5-0.1,0.9-0.3,1.3c-0.2,0.4-0.4,0.7-0.8,0.9c-0.3,0.2-0.7,0.3-1.1,0.3
		c-0.3,0-0.5-0.1-0.7-0.2c-0.2-0.1-0.4-0.3-0.5-0.4v2.4H136.8z M137.5,98.7c0,0.6,0.1,1.1,0.4,1.4c0.3,0.3,0.6,0.4,0.9,0.4
		c0.4,0,0.7-0.2,0.9-0.5c0.3-0.3,0.4-0.8,0.4-1.4c0-0.6-0.1-1.1-0.4-1.4c-0.3-0.3-0.6-0.5-0.9-0.5c-0.4,0-0.7,0.2-0.9,0.5
		S137.5,98,137.5,98.7z"/>
	<path class="st1" d="M145.2,100.5c-0.3,0.3-0.6,0.4-0.9,0.5s-0.6,0.2-0.9,0.2c-0.5,0-0.9-0.1-1.2-0.4c-0.3-0.3-0.4-0.6-0.4-1
		c0-0.2,0.1-0.5,0.2-0.7c0.1-0.2,0.3-0.4,0.4-0.5s0.4-0.2,0.6-0.3c0.2,0,0.4-0.1,0.7-0.1c0.7-0.1,1.2-0.2,1.5-0.3c0-0.1,0-0.2,0-0.2
		c0-0.3-0.1-0.6-0.2-0.7c-0.2-0.2-0.5-0.3-0.9-0.3c-0.4,0-0.7,0.1-0.9,0.2c-0.2,0.1-0.3,0.4-0.4,0.7l-0.8-0.1
		c0.1-0.3,0.2-0.6,0.4-0.8c0.2-0.2,0.4-0.4,0.7-0.5c0.3-0.1,0.7-0.2,1.1-0.2c0.4,0,0.8,0,1,0.1s0.4,0.2,0.6,0.4s0.2,0.3,0.3,0.6
		c0,0.1,0,0.4,0,0.8V99c0,0.8,0,1.3,0.1,1.5c0,0.2,0.1,0.4,0.2,0.6h-0.9C145.3,100.9,145.2,100.7,145.2,100.5z M145.1,98.6
		c-0.3,0.1-0.7,0.2-1.3,0.3c-0.3,0-0.6,0.1-0.7,0.2c-0.1,0.1-0.2,0.2-0.3,0.3s-0.1,0.2-0.1,0.4c0,0.2,0.1,0.4,0.2,0.5
		c0.2,0.1,0.4,0.2,0.7,0.2c0.3,0,0.6-0.1,0.8-0.2s0.4-0.3,0.5-0.6c0.1-0.2,0.1-0.5,0.1-0.8V98.6z"/>
	<path class="st1" d="M147.2,102.9l-0.1-0.8c0.2,0,0.3,0.1,0.5,0.1c0.2,0,0.3,0,0.4-0.1c0.1-0.1,0.2-0.1,0.3-0.3
		c0.1-0.1,0.1-0.3,0.3-0.6c0,0,0-0.1,0.1-0.2l-1.8-4.9h0.9l1,2.8c0.1,0.4,0.2,0.7,0.4,1.1c0.1-0.4,0.2-0.7,0.3-1.1l1-2.8h0.8
		l-1.8,4.9c-0.2,0.5-0.4,0.9-0.5,1.1c-0.1,0.3-0.3,0.5-0.5,0.6c-0.2,0.1-0.4,0.2-0.7,0.2C147.6,103,147.4,103,147.2,102.9z"/>
	<path class="st1" d="M151.6,99.6l0.8-0.1c0,0.3,0.2,0.6,0.4,0.8s0.5,0.3,0.9,0.3c0.4,0,0.7-0.1,0.8-0.2c0.2-0.2,0.3-0.3,0.3-0.5
		c0-0.2-0.1-0.3-0.2-0.4c-0.1-0.1-0.4-0.2-0.8-0.3c-0.6-0.2-1-0.3-1.3-0.4s-0.4-0.3-0.5-0.5s-0.2-0.4-0.2-0.7c0-0.2,0-0.4,0.1-0.6
		s0.2-0.3,0.4-0.5c0.1-0.1,0.3-0.2,0.5-0.2c0.2-0.1,0.5-0.1,0.7-0.1c0.4,0,0.7,0.1,1,0.2c0.3,0.1,0.5,0.3,0.6,0.4
		c0.1,0.2,0.2,0.4,0.3,0.8l-0.8,0.1c0-0.3-0.1-0.4-0.3-0.6c-0.2-0.1-0.4-0.2-0.7-0.2c-0.4,0-0.6,0.1-0.8,0.2
		c-0.2,0.1-0.2,0.3-0.2,0.4c0,0.1,0,0.2,0.1,0.3c0.1,0.1,0.2,0.2,0.3,0.2c0.1,0,0.3,0.1,0.7,0.2c0.6,0.2,1,0.3,1.2,0.4
		s0.4,0.2,0.5,0.4c0.1,0.2,0.2,0.4,0.2,0.7c0,0.3-0.1,0.5-0.2,0.8c-0.2,0.2-0.4,0.4-0.7,0.6s-0.6,0.2-1,0.2c-0.6,0-1.1-0.1-1.4-0.4
		C151.9,100.5,151.7,100.1,151.6,99.6z"/>
	<path class="st1" d="M159.8,100.5c-0.3,0.3-0.6,0.4-0.9,0.5s-0.6,0.2-0.9,0.2c-0.5,0-0.9-0.1-1.2-0.4c-0.3-0.3-0.4-0.6-0.4-1
		c0-0.2,0.1-0.5,0.2-0.7c0.1-0.2,0.3-0.4,0.4-0.5s0.4-0.2,0.6-0.3c0.2,0,0.4-0.1,0.7-0.1c0.7-0.1,1.2-0.2,1.5-0.3c0-0.1,0-0.2,0-0.2
		c0-0.3-0.1-0.6-0.2-0.7c-0.2-0.2-0.5-0.3-0.9-0.3c-0.4,0-0.7,0.1-0.9,0.2c-0.2,0.1-0.3,0.4-0.4,0.7l-0.8-0.1
		c0.1-0.3,0.2-0.6,0.4-0.8c0.2-0.2,0.4-0.4,0.7-0.5c0.3-0.1,0.7-0.2,1.1-0.2c0.4,0,0.8,0,1,0.1c0.3,0.1,0.4,0.2,0.6,0.4
		s0.2,0.3,0.3,0.6c0,0.1,0,0.4,0,0.8V99c0,0.8,0,1.3,0.1,1.5c0,0.2,0.1,0.4,0.2,0.6h-0.9C159.8,100.9,159.8,100.7,159.8,100.5z
		 M159.7,98.6c-0.3,0.1-0.7,0.2-1.3,0.3c-0.3,0-0.6,0.1-0.7,0.2c-0.1,0.1-0.3,0.2-0.3,0.3s-0.1,0.2-0.1,0.4c0,0.2,0.1,0.4,0.2,0.5
		c0.2,0.1,0.4,0.2,0.7,0.2c0.3,0,0.6-0.1,0.8-0.2c0.2-0.1,0.4-0.3,0.5-0.6c0.1-0.2,0.1-0.5,0.1-0.8V98.6z"/>
	<path class="st1" d="M161.7,101.5l0.8,0.1c0,0.2,0.1,0.4,0.3,0.5c0.2,0.2,0.5,0.2,0.8,0.2c0.4,0,0.7-0.1,0.9-0.2
		c0.2-0.2,0.3-0.4,0.4-0.6c0-0.2,0.1-0.5,0.1-1.1c-0.4,0.4-0.8,0.6-1.3,0.6c-0.7,0-1.2-0.2-1.6-0.7s-0.5-1.1-0.5-1.7
		c0-0.5,0.1-0.9,0.3-1.3c0.2-0.4,0.4-0.7,0.7-0.9c0.3-0.2,0.7-0.3,1.1-0.3c0.6,0,1,0.2,1.4,0.7v-0.6h0.8v4.2c0,0.8-0.1,1.3-0.2,1.6
		c-0.2,0.3-0.4,0.6-0.7,0.7s-0.7,0.3-1.2,0.3c-0.6,0-1-0.1-1.4-0.4C161.8,102.4,161.6,102,161.7,101.5z M162.3,98.5
		c0,0.6,0.1,1.1,0.4,1.4c0.3,0.3,0.6,0.4,1,0.4c0.4,0,0.7-0.1,1-0.4c0.3-0.3,0.4-0.7,0.4-1.4c0-0.6-0.1-1-0.4-1.3
		c-0.3-0.3-0.6-0.5-1-0.5c-0.4,0-0.7,0.1-0.9,0.4C162.5,97.5,162.3,98,162.3,98.5z"/>
	<path class="st1" d="M170.3,99.5l0.9,0.1c-0.1,0.5-0.4,0.9-0.7,1.2s-0.8,0.4-1.4,0.4c-0.7,0-1.3-0.2-1.7-0.7
		c-0.4-0.4-0.6-1.1-0.6-1.8c0-0.8,0.2-1.5,0.6-1.9c0.4-0.5,1-0.7,1.6-0.7c0.6,0,1.2,0.2,1.6,0.7c0.4,0.4,0.6,1.1,0.6,1.9
		c0,0,0,0.1,0,0.2h-3.6c0,0.5,0.2,0.9,0.5,1.2c0.3,0.3,0.6,0.4,1,0.4c0.3,0,0.6-0.1,0.8-0.2C170.1,100.1,170.2,99.8,170.3,99.5z
		 M167.6,98.2h2.7c0-0.4-0.1-0.7-0.3-0.9c-0.3-0.3-0.6-0.5-1-0.5c-0.4,0-0.7,0.1-1,0.4C167.8,97.4,167.7,97.7,167.6,98.2z"/>
	<path class="st1" d="M178,101.1v-0.7c-0.4,0.5-0.9,0.8-1.5,0.8c-0.3,0-0.6-0.1-0.8-0.2s-0.4-0.2-0.6-0.4s-0.2-0.4-0.3-0.6
		c0-0.2,0-0.4,0-0.8v-3h0.8v2.7c0,0.4,0,0.7,0,0.9c0.1,0.2,0.2,0.4,0.3,0.5s0.4,0.2,0.6,0.2s0.5-0.1,0.7-0.2s0.4-0.3,0.5-0.5
		c0.1-0.2,0.1-0.5,0.1-0.9v-2.6h0.8v4.9H178z"/>
	<path class="st1" d="M180,101.1v-4.9h0.7v0.7c0.2-0.3,0.4-0.6,0.5-0.7c0.2-0.1,0.3-0.2,0.5-0.2c0.3,0,0.6,0.1,0.8,0.3l-0.3,0.8
		c-0.2-0.1-0.4-0.2-0.6-0.2c-0.2,0-0.3,0.1-0.5,0.2c-0.1,0.1-0.2,0.3-0.3,0.5c-0.1,0.3-0.1,0.6-0.1,1v2.5H180z"/>
	<path class="st1" d="M183.9,101.1h-0.8v-6.7h0.8v2.4c0.3-0.4,0.8-0.7,1.3-0.7c0.3,0,0.6,0.1,0.8,0.2c0.3,0.1,0.5,0.3,0.7,0.5
		s0.3,0.5,0.4,0.8s0.1,0.6,0.1,1c0,0.8-0.2,1.5-0.6,1.9c-0.4,0.5-0.9,0.7-1.5,0.7c-0.6,0-1-0.2-1.3-0.7V101.1z M183.9,98.6
		c0,0.6,0.1,1,0.2,1.3c0.3,0.4,0.6,0.6,1.1,0.6c0.4,0,0.7-0.2,0.9-0.5c0.3-0.3,0.4-0.8,0.4-1.4c0-0.6-0.1-1.1-0.4-1.4
		s-0.6-0.5-0.9-0.5c-0.4,0-0.7,0.2-0.9,0.5C184,97.6,183.9,98,183.9,98.6z"/>
	<path class="st1" d="M191.6,100.5c-0.3,0.3-0.6,0.4-0.9,0.5c-0.3,0.1-0.6,0.2-0.9,0.2c-0.5,0-0.9-0.1-1.2-0.4
		c-0.3-0.3-0.4-0.6-0.4-1c0-0.2,0.1-0.5,0.2-0.7c0.1-0.2,0.3-0.4,0.4-0.5c0.2-0.1,0.4-0.2,0.6-0.3c0.2,0,0.4-0.1,0.7-0.1
		c0.7-0.1,1.2-0.2,1.5-0.3c0-0.1,0-0.2,0-0.2c0-0.3-0.1-0.6-0.2-0.7c-0.2-0.2-0.5-0.3-0.9-0.3c-0.4,0-0.7,0.1-0.9,0.2
		c-0.2,0.1-0.3,0.4-0.4,0.7l-0.8-0.1c0.1-0.3,0.2-0.6,0.4-0.8c0.2-0.2,0.4-0.4,0.7-0.5c0.3-0.1,0.7-0.2,1.1-0.2c0.4,0,0.8,0,1,0.1
		s0.5,0.2,0.6,0.4c0.1,0.1,0.2,0.3,0.3,0.6c0,0.1,0,0.4,0,0.8V99c0,0.8,0,1.3,0.1,1.5c0,0.2,0.1,0.4,0.2,0.6h-0.9
		C191.6,100.9,191.6,100.7,191.6,100.5z M191.5,98.6c-0.3,0.1-0.7,0.2-1.3,0.3c-0.3,0-0.6,0.1-0.7,0.2c-0.1,0.1-0.2,0.2-0.3,0.3
		s-0.1,0.2-0.1,0.4c0,0.2,0.1,0.4,0.2,0.5c0.2,0.1,0.4,0.2,0.7,0.2c0.3,0,0.6-0.1,0.8-0.2s0.4-0.3,0.5-0.6c0.1-0.2,0.1-0.5,0.1-0.8
		V98.6z"/>
	<path class="st1" d="M193.6,95.3v-0.9h0.8v0.9H193.6z M193.6,101.1v-4.9h0.8v4.9H193.6z"/>
	<path class="st1" d="M195.7,101.1v-4.9h0.7v0.7c0.4-0.5,0.9-0.8,1.5-0.8c0.3,0,0.6,0.1,0.8,0.2c0.2,0.1,0.4,0.2,0.6,0.4
		c0.1,0.2,0.2,0.4,0.3,0.6c0,0.2,0,0.4,0,0.8v3h-0.8v-3c0-0.3,0-0.6-0.1-0.8c-0.1-0.2-0.2-0.3-0.3-0.4c-0.2-0.1-0.4-0.1-0.6-0.1
		c-0.4,0-0.7,0.1-0.9,0.3s-0.4,0.6-0.4,1.3v2.7H195.7z"/>
</g>
<g>
	<path class="st1" d="M49.3,87.7c0-1.1,0.3-2,0.9-2.6c0.6-0.6,1.4-0.9,2.3-0.9c0.6,0,1.2,0.1,1.7,0.4c0.5,0.3,0.9,0.7,1.1,1.2
		c0.3,0.5,0.4,1.1,0.4,1.8c0,0.7-0.1,1.3-0.4,1.8c-0.3,0.5-0.7,0.9-1.2,1.2c-0.5,0.3-1,0.4-1.6,0.4c-0.6,0-1.2-0.2-1.7-0.5
		s-0.9-0.7-1.1-1.3C49.4,88.8,49.3,88.3,49.3,87.7z M50.2,87.7c0,0.8,0.2,1.4,0.7,1.9s1,0.7,1.6,0.7c0.7,0,1.2-0.2,1.6-0.7
		s0.6-1.1,0.6-2c0-0.5-0.1-1-0.3-1.4s-0.5-0.7-0.8-0.9c-0.4-0.2-0.8-0.3-1.2-0.3c-0.6,0-1.2,0.2-1.6,0.6S50.2,86.7,50.2,87.7z"/>
	<path class="st1" d="M56.7,90.9v-4.9h0.7v0.7c0.2-0.3,0.4-0.6,0.5-0.7s0.3-0.2,0.5-0.2c0.3,0,0.6,0.1,0.8,0.3L59.1,87
		c-0.2-0.1-0.4-0.2-0.6-0.2c-0.2,0-0.3,0.1-0.5,0.2c-0.1,0.1-0.2,0.3-0.3,0.5c-0.1,0.3-0.1,0.6-0.1,1v2.5H56.7z"/>
	<path class="st1" d="M59.7,91.3l0.8,0.1c0,0.2,0.1,0.4,0.3,0.5c0.2,0.2,0.5,0.2,0.8,0.2c0.4,0,0.7-0.1,0.9-0.2
		c0.2-0.2,0.3-0.4,0.4-0.6c0-0.2,0.1-0.5,0.1-1.1c-0.4,0.4-0.8,0.6-1.3,0.6c-0.7,0-1.2-0.2-1.6-0.7s-0.5-1.1-0.5-1.7
		c0-0.5,0.1-0.9,0.3-1.3c0.2-0.4,0.4-0.7,0.7-0.9c0.3-0.2,0.7-0.3,1.1-0.3c0.6,0,1,0.2,1.4,0.7v-0.6h0.8v4.2c0,0.8-0.1,1.3-0.2,1.6
		c-0.2,0.3-0.4,0.6-0.7,0.7s-0.7,0.3-1.2,0.3c-0.6,0-1-0.1-1.4-0.4C59.8,92.3,59.7,91.9,59.7,91.3z M60.4,88.4
		c0,0.6,0.1,1.1,0.4,1.4c0.3,0.3,0.6,0.4,1,0.4c0.4,0,0.7-0.1,1-0.4s0.4-0.7,0.4-1.4c0-0.6-0.1-1-0.4-1.3c-0.3-0.3-0.6-0.5-1-0.5
		c-0.4,0-0.7,0.1-0.9,0.4C60.5,87.4,60.4,87.8,60.4,88.4z"/>
	<path class="st1" d="M68.2,90.3c-0.3,0.3-0.6,0.4-0.9,0.5S66.7,91,66.4,91c-0.5,0-0.9-0.1-1.2-0.4c-0.3-0.3-0.4-0.6-0.4-1
		c0-0.2,0.1-0.5,0.2-0.7c0.1-0.2,0.3-0.4,0.4-0.5s0.4-0.2,0.6-0.3c0.2,0,0.4-0.1,0.7-0.1c0.7-0.1,1.2-0.2,1.5-0.3c0-0.1,0-0.2,0-0.2
		c0-0.3-0.1-0.6-0.2-0.7c-0.2-0.2-0.5-0.3-0.9-0.3c-0.4,0-0.7,0.1-0.9,0.2s-0.3,0.4-0.4,0.7l-0.8-0.1c0.1-0.3,0.2-0.6,0.4-0.8
		c0.2-0.2,0.4-0.4,0.7-0.5c0.3-0.1,0.7-0.2,1.1-0.2c0.4,0,0.8,0,1,0.1s0.4,0.2,0.6,0.4c0.1,0.1,0.2,0.3,0.3,0.6c0,0.1,0,0.4,0,0.8
		v1.1c0,0.8,0,1.3,0.1,1.5s0.1,0.4,0.2,0.6h-0.9C68.3,90.8,68.2,90.6,68.2,90.3z M68.1,88.5c-0.3,0.1-0.7,0.2-1.3,0.3
		c-0.3,0-0.6,0.1-0.7,0.2c-0.1,0.1-0.2,0.2-0.3,0.3c-0.1,0.1-0.1,0.2-0.1,0.4c0,0.2,0.1,0.4,0.2,0.5c0.2,0.1,0.4,0.2,0.7,0.2
		c0.3,0,0.6-0.1,0.8-0.2s0.4-0.3,0.5-0.6c0.1-0.2,0.1-0.5,0.1-0.8V88.5z"/>
	<path class="st1" d="M70.3,90.9v-4.9H71v0.7c0.4-0.5,0.9-0.8,1.5-0.8c0.3,0,0.6,0.1,0.8,0.2s0.4,0.2,0.6,0.4s0.2,0.4,0.3,0.6
		c0,0.2,0,0.4,0,0.8v3h-0.8v-3c0-0.3,0-0.6-0.1-0.8c-0.1-0.2-0.2-0.3-0.3-0.4c-0.2-0.1-0.4-0.1-0.6-0.1c-0.4,0-0.7,0.1-0.9,0.3
		s-0.4,0.6-0.4,1.3v2.7H70.3z"/>
	<path class="st1" d="M75.5,85.2v-0.9h0.8v0.9H75.5z M75.5,90.9v-4.9h0.8v4.9H75.5z"/>
	<path class="st1" d="M77.2,89.5l0.8-0.1c0,0.3,0.2,0.6,0.4,0.8c0.2,0.2,0.5,0.3,0.9,0.3c0.4,0,0.7-0.1,0.8-0.2s0.3-0.3,0.3-0.5
		c0-0.2-0.1-0.3-0.2-0.4c-0.1-0.1-0.4-0.2-0.8-0.3c-0.6-0.2-1-0.3-1.3-0.4s-0.4-0.3-0.5-0.5s-0.2-0.4-0.2-0.7c0-0.2,0-0.4,0.1-0.6
		s0.2-0.3,0.4-0.5c0.1-0.1,0.3-0.2,0.5-0.2s0.5-0.1,0.7-0.1c0.4,0,0.7,0.1,1,0.2c0.3,0.1,0.5,0.3,0.6,0.4s0.2,0.4,0.3,0.8l-0.8,0.1
		c0-0.3-0.1-0.4-0.3-0.6c-0.2-0.1-0.4-0.2-0.7-0.2c-0.4,0-0.6,0.1-0.8,0.2s-0.2,0.3-0.2,0.4c0,0.1,0,0.2,0.1,0.3
		c0.1,0.1,0.2,0.2,0.3,0.2c0.1,0,0.3,0.1,0.7,0.2c0.6,0.2,1,0.3,1.2,0.4s0.4,0.2,0.5,0.4c0.1,0.2,0.2,0.4,0.2,0.7
		c0,0.3-0.1,0.5-0.2,0.8s-0.4,0.4-0.7,0.6C80,91,79.7,91,79.3,91c-0.6,0-1.1-0.1-1.4-0.4C77.5,90.4,77.3,90,77.2,89.5z"/>
	<path class="st1" d="M85.4,90.3c-0.3,0.3-0.6,0.4-0.9,0.5S83.9,91,83.6,91c-0.5,0-0.9-0.1-1.2-0.4c-0.3-0.3-0.4-0.6-0.4-1
		c0-0.2,0.1-0.5,0.2-0.7c0.1-0.2,0.3-0.4,0.4-0.5s0.4-0.2,0.6-0.3c0.2,0,0.4-0.1,0.7-0.1c0.7-0.1,1.2-0.2,1.5-0.3c0-0.1,0-0.2,0-0.2
		c0-0.3-0.1-0.6-0.2-0.7c-0.2-0.2-0.5-0.3-0.9-0.3c-0.4,0-0.7,0.1-0.9,0.2s-0.3,0.4-0.4,0.7l-0.8-0.1c0.1-0.3,0.2-0.6,0.4-0.8
		c0.2-0.2,0.4-0.4,0.7-0.5c0.3-0.1,0.7-0.2,1.1-0.2c0.4,0,0.8,0,1,0.1s0.4,0.2,0.6,0.4c0.1,0.1,0.2,0.3,0.3,0.6c0,0.1,0,0.4,0,0.8
		v1.1c0,0.8,0,1.3,0.1,1.5s0.1,0.4,0.2,0.6h-0.9C85.5,90.8,85.4,90.6,85.4,90.3z M85.3,88.5c-0.3,0.1-0.7,0.2-1.3,0.3
		c-0.3,0-0.6,0.1-0.7,0.2c-0.1,0.1-0.2,0.2-0.3,0.3c-0.1,0.1-0.1,0.2-0.1,0.4c0,0.2,0.1,0.4,0.2,0.5c0.2,0.1,0.4,0.2,0.7,0.2
		c0.3,0,0.6-0.1,0.8-0.2s0.4-0.3,0.5-0.6c0.1-0.2,0.1-0.5,0.1-0.8V88.5z"/>
	<path class="st1" d="M89.2,90.2l0.1,0.7c-0.2,0-0.4,0.1-0.6,0.1c-0.3,0-0.5,0-0.7-0.1c-0.2-0.1-0.3-0.2-0.3-0.4
		c-0.1-0.2-0.1-0.5-0.1-1v-2.8H87v-0.6h0.6v-1.2l0.8-0.5v1.7h0.8v0.6h-0.8v2.8c0,0.2,0,0.4,0,0.5c0,0.1,0.1,0.1,0.1,0.2
		c0.1,0,0.2,0.1,0.3,0.1C89,90.2,89.1,90.2,89.2,90.2z"/>
	<path class="st1" d="M90.1,85.2v-0.9h0.8v0.9H90.1z M90.1,90.9v-4.9h0.8v4.9H90.1z"/>
	<path class="st1" d="M91.8,88.5c0-0.9,0.3-1.6,0.8-2c0.4-0.4,0.9-0.5,1.5-0.5c0.7,0,1.2,0.2,1.6,0.7c0.4,0.4,0.6,1,0.6,1.8
		c0,0.6-0.1,1.1-0.3,1.5c-0.2,0.4-0.5,0.6-0.8,0.8c-0.4,0.2-0.8,0.3-1.2,0.3c-0.7,0-1.2-0.2-1.6-0.7C92,90,91.8,89.3,91.8,88.5z
		 M92.7,88.5c0,0.6,0.1,1.1,0.4,1.4s0.6,0.5,1,0.5c0.4,0,0.7-0.2,1-0.5c0.3-0.3,0.4-0.8,0.4-1.4c0-0.6-0.1-1.1-0.4-1.4
		c-0.3-0.3-0.6-0.5-1-0.5c-0.4,0-0.8,0.2-1,0.5S92.7,87.9,92.7,88.5z"/>
	<path class="st1" d="M97.3,90.9v-4.9h0.7v0.7c0.4-0.5,0.9-0.8,1.5-0.8c0.3,0,0.6,0.1,0.8,0.2s0.4,0.2,0.6,0.4s0.2,0.4,0.3,0.6
		c0,0.2,0,0.4,0,0.8v3h-0.8v-3c0-0.3,0-0.6-0.1-0.8c-0.1-0.2-0.2-0.3-0.3-0.4c-0.2-0.1-0.4-0.1-0.6-0.1c-0.4,0-0.7,0.1-0.9,0.3
		s-0.4,0.6-0.4,1.3v2.7H97.3z"/>
</g>
<g>
	<path class="st1" d="M29.7,101.2v-0.6c-0.3,0.5-0.8,0.7-1.4,0.7c-0.4,0-0.7-0.1-1.1-0.3c-0.3-0.2-0.6-0.5-0.8-0.9
		c-0.2-0.4-0.3-0.8-0.3-1.3c0-0.5,0.1-0.9,0.2-1.3s0.4-0.7,0.7-0.9s0.7-0.3,1.1-0.3c0.3,0,0.6,0.1,0.8,0.2c0.2,0.1,0.4,0.3,0.6,0.5
		v-2.4h0.8v6.7H29.7z M27.1,98.7c0,0.6,0.1,1.1,0.4,1.4s0.6,0.5,0.9,0.5c0.4,0,0.7-0.1,0.9-0.4c0.3-0.3,0.4-0.7,0.4-1.3
		c0-0.7-0.1-1.2-0.4-1.5c-0.3-0.3-0.6-0.5-0.9-0.5c-0.4,0-0.7,0.1-0.9,0.4S27.1,98.1,27.1,98.7z"/>
	<path class="st1" d="M35,99.6l0.9,0.1c-0.1,0.5-0.4,0.9-0.7,1.2c-0.4,0.3-0.8,0.4-1.4,0.4c-0.7,0-1.3-0.2-1.7-0.7
		c-0.4-0.4-0.6-1.1-0.6-1.8c0-0.8,0.2-1.5,0.6-1.9c0.4-0.5,1-0.7,1.6-0.7c0.6,0,1.2,0.2,1.6,0.7c0.4,0.4,0.6,1.1,0.6,1.9
		c0,0,0,0.1,0,0.2h-3.6c0,0.5,0.2,0.9,0.5,1.2c0.3,0.3,0.6,0.4,1,0.4c0.3,0,0.6-0.1,0.8-0.2C34.7,100.2,34.9,99.9,35,99.6z
		 M32.3,98.3h2.7c0-0.4-0.1-0.7-0.3-0.9c-0.3-0.3-0.6-0.5-1-0.5c-0.4,0-0.7,0.1-1,0.4S32.4,97.8,32.3,98.3z"/>
	<path class="st1" d="M36.6,99.7l0.8-0.1c0,0.3,0.2,0.6,0.4,0.8c0.2,0.2,0.5,0.3,0.9,0.3c0.4,0,0.7-0.1,0.8-0.2s0.3-0.3,0.3-0.5
		c0-0.2-0.1-0.3-0.2-0.4c-0.1-0.1-0.4-0.2-0.8-0.3c-0.6-0.2-1-0.3-1.3-0.4s-0.4-0.3-0.5-0.5s-0.2-0.4-0.2-0.7c0-0.2,0-0.4,0.1-0.6
		c0.1-0.2,0.2-0.3,0.4-0.5c0.1-0.1,0.3-0.2,0.5-0.2c0.2-0.1,0.5-0.1,0.7-0.1c0.4,0,0.7,0.1,1,0.2c0.3,0.1,0.5,0.3,0.6,0.4
		s0.2,0.4,0.3,0.8l-0.8,0.1c0-0.3-0.1-0.4-0.3-0.6c-0.2-0.1-0.4-0.2-0.7-0.2c-0.4,0-0.6,0.1-0.8,0.2s-0.2,0.3-0.2,0.4
		c0,0.1,0,0.2,0.1,0.3c0.1,0.1,0.2,0.2,0.3,0.2c0.1,0,0.3,0.1,0.7,0.2c0.6,0.2,1,0.3,1.2,0.4s0.4,0.2,0.5,0.4
		c0.1,0.2,0.2,0.4,0.2,0.7c0,0.3-0.1,0.5-0.2,0.8s-0.4,0.4-0.7,0.6c-0.3,0.1-0.6,0.2-1,0.2c-0.6,0-1.1-0.1-1.4-0.4
		C36.9,100.6,36.7,100.2,36.6,99.7z"/>
	<path class="st1" d="M44.3,101.2v-6.7h0.9l3.5,5.3v-5.3h0.9v6.7h-0.9l-3.5-5.3v5.3H44.3z"/>
	<path class="st1" d="M54.2,100.6c-0.3,0.3-0.6,0.4-0.9,0.5s-0.6,0.2-0.9,0.2c-0.5,0-0.9-0.1-1.2-0.4c-0.3-0.3-0.4-0.6-0.4-1
		c0-0.2,0.1-0.5,0.2-0.7c0.1-0.2,0.3-0.4,0.4-0.5s0.4-0.2,0.6-0.3c0.2,0,0.4-0.1,0.7-0.1c0.7-0.1,1.2-0.2,1.5-0.3c0-0.1,0-0.2,0-0.2
		c0-0.3-0.1-0.6-0.2-0.7c-0.2-0.2-0.5-0.3-0.9-0.3c-0.4,0-0.7,0.1-0.9,0.2s-0.3,0.4-0.4,0.7l-0.8-0.1c0.1-0.3,0.2-0.6,0.4-0.8
		c0.2-0.2,0.4-0.4,0.7-0.5c0.3-0.1,0.7-0.2,1.1-0.2c0.4,0,0.8,0,1,0.1s0.4,0.2,0.6,0.4s0.2,0.3,0.3,0.6c0,0.1,0,0.4,0,0.8v1.1
		c0,0.8,0,1.3,0.1,1.5s0.1,0.4,0.2,0.6h-0.9C54.2,101,54.2,100.8,54.2,100.6z M54.1,98.7c-0.3,0.1-0.7,0.2-1.3,0.3
		c-0.3,0-0.6,0.1-0.7,0.2c-0.1,0.1-0.2,0.2-0.3,0.3c-0.1,0.1-0.1,0.2-0.1,0.4c0,0.2,0.1,0.4,0.2,0.5c0.2,0.1,0.4,0.2,0.7,0.2
		c0.3,0,0.6-0.1,0.8-0.2s0.4-0.3,0.5-0.6c0.1-0.2,0.1-0.5,0.1-0.8V98.7z"/>
	<path class="st1" d="M58,100.4l0.1,0.7c-0.2,0-0.4,0.1-0.6,0.1c-0.3,0-0.5,0-0.7-0.1c-0.2-0.1-0.3-0.2-0.3-0.4
		c-0.1-0.2-0.1-0.5-0.1-1v-2.8h-0.6v-0.6h0.6v-1.2l0.8-0.5v1.7H58v0.6h-0.8v2.8c0,0.2,0,0.4,0,0.5c0,0.1,0.1,0.1,0.1,0.2
		c0.1,0,0.2,0.1,0.3,0.1C57.7,100.5,57.8,100.4,58,100.4z"/>
	<path class="st1" d="M58.8,95.4v-0.9h0.8v0.9H58.8z M58.8,101.2v-4.9h0.8v4.9H58.8z"/>
	<path class="st1" d="M60.6,98.7c0-0.9,0.3-1.6,0.8-2c0.4-0.4,0.9-0.5,1.5-0.5c0.7,0,1.2,0.2,1.6,0.7c0.4,0.4,0.6,1,0.6,1.8
		c0,0.6-0.1,1.1-0.3,1.5c-0.2,0.4-0.5,0.6-0.8,0.8c-0.4,0.2-0.8,0.3-1.2,0.3c-0.7,0-1.2-0.2-1.6-0.7C60.8,100.2,60.6,99.6,60.6,98.7
		z M61.4,98.7c0,0.6,0.1,1.1,0.4,1.4s0.6,0.5,1,0.5c0.4,0,0.7-0.2,1-0.5c0.3-0.3,0.4-0.8,0.4-1.4c0-0.6-0.1-1.1-0.4-1.4
		c-0.3-0.3-0.6-0.5-1-0.5c-0.4,0-0.8,0.2-1,0.5S61.4,98.1,61.4,98.7z"/>
	<path class="st1" d="M66.1,101.2v-4.9h0.7V97c0.4-0.5,0.9-0.8,1.5-0.8c0.3,0,0.6,0.1,0.8,0.2s0.4,0.2,0.6,0.4
		c0.1,0.2,0.2,0.4,0.3,0.6c0,0.2,0,0.4,0,0.8v3h-0.8v-3c0-0.3,0-0.6-0.1-0.8c-0.1-0.2-0.2-0.3-0.3-0.4c-0.2-0.1-0.4-0.1-0.6-0.1
		c-0.4,0-0.7,0.1-0.9,0.3s-0.4,0.6-0.4,1.3v2.7H66.1z"/>
	<path class="st1" d="M71,99.7l0.8-0.1c0,0.3,0.2,0.6,0.4,0.8c0.2,0.2,0.5,0.3,0.9,0.3c0.4,0,0.7-0.1,0.8-0.2s0.3-0.3,0.3-0.5
		c0-0.2-0.1-0.3-0.2-0.4c-0.1-0.1-0.4-0.2-0.8-0.3c-0.6-0.2-1-0.3-1.3-0.4s-0.4-0.3-0.5-0.5s-0.2-0.4-0.2-0.7c0-0.2,0-0.4,0.1-0.6
		c0.1-0.2,0.2-0.3,0.4-0.5c0.1-0.1,0.3-0.2,0.5-0.2c0.2-0.1,0.5-0.1,0.7-0.1c0.4,0,0.7,0.1,1,0.2c0.3,0.1,0.5,0.3,0.6,0.4
		s0.2,0.4,0.3,0.8L74,97.7c0-0.3-0.1-0.4-0.3-0.6c-0.2-0.1-0.4-0.2-0.7-0.2c-0.4,0-0.6,0.1-0.8,0.2s-0.2,0.3-0.2,0.4
		c0,0.1,0,0.2,0.1,0.3c0.1,0.1,0.2,0.2,0.3,0.2c0.1,0,0.3,0.1,0.7,0.2c0.6,0.2,1,0.3,1.2,0.4s0.4,0.2,0.5,0.4
		c0.1,0.2,0.2,0.4,0.2,0.7c0,0.3-0.1,0.5-0.2,0.8s-0.4,0.4-0.7,0.6c-0.3,0.1-0.6,0.2-1,0.2c-0.6,0-1.1-0.1-1.4-0.4
		C71.3,100.6,71.1,100.2,71,99.7z"/>
	<path class="st1" d="M83.1,94.5H84v3.9c0,0.7-0.1,1.2-0.2,1.6c-0.2,0.4-0.4,0.7-0.8,1c-0.4,0.3-0.9,0.4-1.6,0.4
		c-0.6,0-1.1-0.1-1.5-0.3c-0.4-0.2-0.7-0.5-0.9-0.9s-0.3-1-0.3-1.7v-3.9h0.9v3.9c0,0.6,0.1,1,0.2,1.3s0.3,0.5,0.6,0.6
		c0.3,0.1,0.6,0.2,1,0.2c0.7,0,1.1-0.1,1.4-0.4c0.3-0.3,0.4-0.9,0.4-1.7V94.5z"/>
	<path class="st1" d="M85.4,101.2v-4.9h0.7V97c0.4-0.5,0.9-0.8,1.5-0.8c0.3,0,0.6,0.1,0.8,0.2s0.4,0.2,0.6,0.4
		c0.1,0.2,0.2,0.4,0.3,0.6c0,0.2,0,0.4,0,0.8v3h-0.8v-3c0-0.3,0-0.6-0.1-0.8c-0.1-0.2-0.2-0.3-0.3-0.4c-0.2-0.1-0.4-0.1-0.6-0.1
		c-0.4,0-0.7,0.1-0.9,0.3s-0.4,0.6-0.4,1.3v2.7H85.4z"/>
	<path class="st1" d="M90.6,95.4v-0.9h0.8v0.9H90.6z M90.6,101.2v-4.9h0.8v4.9H90.6z"/>
	<path class="st1" d="M96,99.6l0.9,0.1c-0.1,0.5-0.4,0.9-0.7,1.2c-0.4,0.3-0.8,0.4-1.4,0.4c-0.7,0-1.3-0.2-1.7-0.7
		c-0.4-0.4-0.6-1.1-0.6-1.8c0-0.8,0.2-1.5,0.6-1.9c0.4-0.5,1-0.7,1.6-0.7c0.6,0,1.2,0.2,1.6,0.7c0.4,0.4,0.6,1.1,0.6,1.9
		c0,0,0,0.1,0,0.2h-3.6c0,0.5,0.2,0.9,0.5,1.2c0.3,0.3,0.6,0.4,1,0.4c0.3,0,0.6-0.1,0.8-0.2C95.7,100.2,95.9,99.9,96,99.6z
		 M93.3,98.3H96c0-0.4-0.1-0.7-0.3-0.9c-0.3-0.3-0.6-0.5-1-0.5c-0.4,0-0.7,0.1-1,0.4S93.3,97.8,93.3,98.3z"/>
	<path class="st1" d="M97.5,99.7l0.8-0.1c0,0.3,0.2,0.6,0.4,0.8c0.2,0.2,0.5,0.3,0.9,0.3c0.4,0,0.7-0.1,0.8-0.2s0.3-0.3,0.3-0.5
		c0-0.2-0.1-0.3-0.2-0.4c-0.1-0.1-0.4-0.2-0.8-0.3c-0.6-0.2-1-0.3-1.3-0.4s-0.4-0.3-0.5-0.5s-0.2-0.4-0.2-0.7c0-0.2,0-0.4,0.1-0.6
		c0.1-0.2,0.2-0.3,0.4-0.5c0.1-0.1,0.3-0.2,0.5-0.2c0.2-0.1,0.5-0.1,0.7-0.1c0.4,0,0.7,0.1,1,0.2c0.3,0.1,0.5,0.3,0.6,0.4
		s0.2,0.4,0.3,0.8l-0.8,0.1c0-0.3-0.1-0.4-0.3-0.6c-0.2-0.1-0.4-0.2-0.7-0.2c-0.4,0-0.6,0.1-0.8,0.2s-0.2,0.3-0.2,0.4
		c0,0.1,0,0.2,0.1,0.3c0.1,0.1,0.2,0.2,0.3,0.2c0.1,0,0.3,0.1,0.7,0.2c0.6,0.2,1,0.3,1.2,0.4s0.4,0.2,0.5,0.4
		c0.1,0.2,0.2,0.4,0.2,0.7c0,0.3-0.1,0.5-0.2,0.8s-0.4,0.4-0.7,0.6c-0.3,0.1-0.6,0.2-1,0.2c-0.6,0-1.1-0.1-1.4-0.4
		C97.8,100.6,97.6,100.2,97.5,99.7z"/>
</g>
<g>
	<path class="st1" d="M36.4,113.3v-6.7h0.8v0.6c0.2-0.2,0.4-0.4,0.6-0.6c0.2-0.1,0.5-0.2,0.8-0.2c0.4,0,0.8,0.1,1.1,0.3
		s0.6,0.5,0.7,0.9s0.2,0.8,0.2,1.3c0,0.5-0.1,0.9-0.3,1.3c-0.2,0.4-0.4,0.7-0.8,0.9s-0.7,0.3-1.1,0.3c-0.3,0-0.5-0.1-0.7-0.2
		c-0.2-0.1-0.4-0.3-0.5-0.4v2.4H36.4z M37.1,109c0,0.6,0.1,1.1,0.4,1.4c0.3,0.3,0.6,0.4,0.9,0.4c0.4,0,0.7-0.2,0.9-0.5
		c0.3-0.3,0.4-0.8,0.4-1.4c0-0.6-0.1-1.1-0.4-1.4c-0.3-0.3-0.6-0.5-0.9-0.5c-0.4,0-0.7,0.2-0.9,0.5C37.3,107.9,37.1,108.4,37.1,109z
		"/>
	<path class="st1" d="M41.3,109c0-0.9,0.3-1.6,0.8-2c0.4-0.4,0.9-0.5,1.5-0.5c0.7,0,1.2,0.2,1.6,0.7c0.4,0.4,0.6,1,0.6,1.8
		c0,0.6-0.1,1.1-0.3,1.5c-0.2,0.4-0.5,0.6-0.8,0.8s-0.8,0.3-1.2,0.3c-0.7,0-1.2-0.2-1.6-0.7C41.5,110.4,41.3,109.8,41.3,109z
		 M42.1,109c0,0.6,0.1,1.1,0.4,1.4c0.3,0.3,0.6,0.5,1,0.5c0.4,0,0.7-0.2,1-0.5s0.4-0.8,0.4-1.4c0-0.6-0.1-1.1-0.4-1.4
		c-0.3-0.3-0.6-0.5-1-0.5c-0.4,0-0.8,0.2-1,0.5C42.3,107.9,42.1,108.3,42.1,109z"/>
	<path class="st1" d="M50,111.4v-0.7c-0.4,0.5-0.9,0.8-1.5,0.8c-0.3,0-0.6-0.1-0.8-0.2s-0.4-0.2-0.6-0.4s-0.2-0.4-0.3-0.6
		c0-0.2-0.1-0.4-0.1-0.8v-3h0.8v2.7c0,0.4,0,0.7,0.1,0.9c0.1,0.2,0.2,0.4,0.3,0.5c0.2,0.1,0.4,0.2,0.6,0.2s0.5-0.1,0.7-0.2
		s0.4-0.3,0.5-0.5c0.1-0.2,0.1-0.5,0.1-0.9v-2.6h0.8v4.9H50z"/>
	<path class="st1" d="M52,111.4v-4.9h0.7v0.7c0.2-0.3,0.4-0.6,0.5-0.7c0.2-0.1,0.3-0.2,0.5-0.2c0.3,0,0.6,0.1,0.8,0.3l-0.3,0.8
		c-0.2-0.1-0.4-0.2-0.6-0.2c-0.2,0-0.3,0.1-0.5,0.2c-0.1,0.1-0.2,0.3-0.3,0.5c-0.1,0.3-0.1,0.6-0.1,1v2.5H52z"/>
	<path class="st1" d="M57.7,111.4v-6.7h0.8v6.7H57.7z"/>
	<path class="st1" d="M59.8,105.6v-1h0.9v0.8c0,0.4,0,0.7-0.1,0.9c-0.1,0.2-0.3,0.4-0.6,0.6l-0.2-0.3c0.2-0.1,0.3-0.2,0.4-0.3
		c0.1-0.1,0.1-0.3,0.1-0.6H59.8z"/>
	<path class="st1" d="M65.2,109.8l0.9,0.1c-0.1,0.5-0.4,0.9-0.7,1.2c-0.4,0.3-0.8,0.4-1.4,0.4c-0.7,0-1.3-0.2-1.7-0.7
		s-0.6-1.1-0.6-1.8c0-0.8,0.2-1.5,0.6-1.9c0.4-0.5,1-0.7,1.6-0.7c0.6,0,1.2,0.2,1.6,0.7c0.4,0.4,0.6,1.1,0.6,1.9c0,0,0,0.1,0,0.2
		h-3.6c0,0.5,0.2,0.9,0.5,1.2s0.6,0.4,1,0.4c0.3,0,0.6-0.1,0.8-0.2C64.9,110.4,65.1,110.2,65.2,109.8z M62.5,108.5h2.7
		c0-0.4-0.1-0.7-0.3-0.9c-0.3-0.3-0.6-0.5-1-0.5c-0.4,0-0.7,0.1-1,0.4C62.7,107.7,62.6,108.1,62.5,108.5z M63.4,105.9l0.6-1.3h1.1
		l-1,1.3H63.4z"/>
	<path class="st1" d="M70.3,111.4v-0.6c-0.3,0.5-0.8,0.7-1.4,0.7c-0.4,0-0.7-0.1-1.1-0.3c-0.3-0.2-0.6-0.5-0.8-0.9
		c-0.2-0.4-0.3-0.8-0.3-1.3c0-0.5,0.1-0.9,0.2-1.3c0.2-0.4,0.4-0.7,0.7-0.9s0.7-0.3,1.1-0.3c0.3,0,0.6,0.1,0.8,0.2
		c0.2,0.1,0.4,0.3,0.6,0.5v-2.4H71v6.7H70.3z M67.7,109c0,0.6,0.1,1.1,0.4,1.4c0.3,0.3,0.6,0.5,0.9,0.5c0.4,0,0.7-0.1,0.9-0.4
		c0.3-0.3,0.4-0.7,0.4-1.3c0-0.7-0.1-1.2-0.4-1.5s-0.6-0.5-0.9-0.5c-0.4,0-0.7,0.1-0.9,0.4S67.7,108.3,67.7,109z"/>
	<path class="st1" d="M75.5,111.4v-0.7c-0.4,0.5-0.9,0.8-1.5,0.8c-0.3,0-0.6-0.1-0.8-0.2s-0.4-0.2-0.6-0.4c-0.1-0.2-0.2-0.4-0.3-0.6
		c0-0.2-0.1-0.4-0.1-0.8v-3h0.8v2.7c0,0.4,0,0.7,0.1,0.9c0.1,0.2,0.2,0.4,0.3,0.5c0.2,0.1,0.4,0.2,0.6,0.2s0.5-0.1,0.7-0.2
		s0.4-0.3,0.5-0.5c0.1-0.2,0.1-0.5,0.1-0.9v-2.6h0.8v4.9H75.5z"/>
	<path class="st1" d="M80.7,109.6l0.8,0.1c-0.1,0.6-0.3,1-0.7,1.3c-0.4,0.3-0.8,0.5-1.3,0.5c-0.7,0-1.2-0.2-1.6-0.7
		c-0.4-0.4-0.6-1.1-0.6-1.9c0-0.5,0.1-1,0.3-1.4s0.4-0.7,0.8-0.9s0.7-0.3,1.2-0.3c0.5,0,1,0.1,1.3,0.4c0.3,0.3,0.6,0.6,0.6,1.1
		l-0.8,0.1c-0.1-0.3-0.2-0.6-0.4-0.7c-0.2-0.2-0.4-0.2-0.7-0.2c-0.4,0-0.8,0.1-1,0.4c-0.3,0.3-0.4,0.8-0.4,1.4
		c0,0.7,0.1,1.1,0.4,1.4c0.3,0.3,0.6,0.4,1,0.4c0.3,0,0.6-0.1,0.8-0.3C80.5,110.3,80.7,110,80.7,109.6z"/>
	<path class="st1" d="M85.4,110.8c-0.3,0.3-0.6,0.4-0.9,0.5c-0.3,0.1-0.6,0.2-0.9,0.2c-0.5,0-0.9-0.1-1.2-0.4
		c-0.3-0.3-0.4-0.6-0.4-1c0-0.2,0.1-0.5,0.2-0.7s0.3-0.4,0.4-0.5s0.4-0.2,0.6-0.3c0.2,0,0.4-0.1,0.7-0.1c0.7-0.1,1.2-0.2,1.5-0.3
		c0-0.1,0-0.2,0-0.2c0-0.3-0.1-0.6-0.2-0.7c-0.2-0.2-0.5-0.3-0.9-0.3c-0.4,0-0.7,0.1-0.9,0.2c-0.2,0.1-0.3,0.4-0.4,0.7l-0.8-0.1
		c0.1-0.3,0.2-0.6,0.4-0.8c0.2-0.2,0.4-0.4,0.7-0.5c0.3-0.1,0.7-0.2,1.1-0.2c0.4,0,0.8,0,1,0.1s0.4,0.2,0.6,0.4s0.2,0.3,0.3,0.6
		c0,0.1,0,0.4,0,0.8v1.1c0,0.8,0,1.3,0.1,1.5c0,0.2,0.1,0.4,0.2,0.6h-0.9C85.5,111.2,85.4,111,85.4,110.8z M85.3,108.9
		c-0.3,0.1-0.7,0.2-1.3,0.3c-0.3,0-0.6,0.1-0.7,0.2c-0.1,0.1-0.2,0.2-0.3,0.3s-0.1,0.2-0.1,0.4c0,0.2,0.1,0.4,0.2,0.5
		c0.2,0.1,0.4,0.2,0.7,0.2c0.3,0,0.6-0.1,0.8-0.2s0.4-0.3,0.5-0.6c0.1-0.2,0.1-0.5,0.1-0.8V108.9z"/>
	<path class="st1" d="M89.3,110.7l0.1,0.7c-0.2,0-0.4,0.1-0.6,0.1c-0.3,0-0.5,0-0.7-0.1c-0.2-0.1-0.3-0.2-0.3-0.4
		c-0.1-0.2-0.1-0.5-0.1-1v-2.8H87v-0.6h0.6v-1.2l0.8-0.5v1.7h0.8v0.6h-0.8v2.8c0,0.2,0,0.4,0,0.5c0,0.1,0.1,0.1,0.1,0.2
		c0.1,0,0.2,0.1,0.3,0.1C89,110.7,89.1,110.7,89.3,110.7z"/>
	<path class="st1" d="M90.1,105.6v-0.9h0.8v0.9H90.1z M90.1,111.4v-4.9h0.8v4.9H90.1z"/>
	<path class="st1" d="M91.8,109c0-0.9,0.3-1.6,0.8-2c0.4-0.4,0.9-0.5,1.5-0.5c0.7,0,1.2,0.2,1.6,0.7c0.4,0.4,0.6,1,0.6,1.8
		c0,0.6-0.1,1.1-0.3,1.5c-0.2,0.4-0.5,0.6-0.8,0.8s-0.8,0.3-1.2,0.3c-0.7,0-1.2-0.2-1.6-0.7C92,110.4,91.8,109.8,91.8,109z
		 M92.7,109c0,0.6,0.1,1.1,0.4,1.4c0.3,0.3,0.6,0.5,1,0.5c0.4,0,0.7-0.2,1-0.5s0.4-0.8,0.4-1.4c0-0.6-0.1-1.1-0.4-1.4
		c-0.3-0.3-0.6-0.5-1-0.5c-0.4,0-0.8,0.2-1,0.5C92.8,107.9,92.7,108.3,92.7,109z"/>
	<path class="st1" d="M97.4,111.4v-4.9h0.7v0.7c0.4-0.5,0.9-0.8,1.5-0.8c0.3,0,0.6,0.1,0.8,0.2s0.4,0.2,0.6,0.4
		c0.1,0.2,0.2,0.4,0.3,0.6c0,0.2,0,0.4,0,0.8v3h-0.8v-3c0-0.3,0-0.6-0.1-0.8s-0.2-0.3-0.3-0.4c-0.2-0.1-0.4-0.1-0.6-0.1
		c-0.4,0-0.7,0.1-0.9,0.3s-0.4,0.6-0.4,1.3v2.7H97.4z"/>
	<path class="st1" d="M102.8,111.4v-0.9h0.9v0.9c0,0.3-0.1,0.6-0.2,0.8s-0.3,0.4-0.6,0.5l-0.2-0.4c0.2-0.1,0.3-0.2,0.4-0.3
		c0.1-0.1,0.1-0.4,0.1-0.6H102.8z"/>
</g>
<g>
	<path class="st1" d="M9.8,121.6v-6.7h0.8v6.7H9.8z"/>
	<path class="st1" d="M15.1,121c-0.3,0.3-0.6,0.4-0.9,0.5s-0.6,0.2-0.9,0.2c-0.5,0-0.9-0.1-1.2-0.4c-0.3-0.3-0.4-0.6-0.4-1
		c0-0.2,0.1-0.5,0.2-0.7c0.1-0.2,0.3-0.4,0.4-0.5s0.4-0.2,0.6-0.3c0.2,0,0.4-0.1,0.7-0.1c0.7-0.1,1.2-0.2,1.5-0.3c0-0.1,0-0.2,0-0.2
		c0-0.3-0.1-0.6-0.2-0.7c-0.2-0.2-0.5-0.3-0.9-0.3c-0.4,0-0.7,0.1-0.9,0.2s-0.3,0.4-0.4,0.7l-0.8-0.1c0.1-0.3,0.2-0.6,0.4-0.8
		c0.2-0.2,0.4-0.4,0.7-0.5c0.3-0.1,0.7-0.2,1.1-0.2c0.4,0,0.8,0,1,0.1s0.4,0.2,0.6,0.4c0.1,0.1,0.2,0.3,0.3,0.6c0,0.1,0,0.4,0,0.8
		v1.1c0,0.8,0,1.3,0.1,1.5c0,0.2,0.1,0.4,0.2,0.6h-0.9C15.2,121.4,15.1,121.2,15.1,121z M15,119.2c-0.3,0.1-0.7,0.2-1.3,0.3
		c-0.3,0-0.6,0.1-0.7,0.2c-0.1,0.1-0.2,0.2-0.3,0.3s-0.1,0.2-0.1,0.4c0,0.2,0.1,0.4,0.2,0.5c0.2,0.1,0.4,0.2,0.7,0.2
		c0.3,0,0.6-0.1,0.8-0.2s0.4-0.3,0.5-0.6c0.1-0.2,0.1-0.5,0.1-0.8V119.2z"/>
	<path class="st1" d="M19.4,120.2l0.8-0.1c0,0.3,0.2,0.6,0.4,0.8s0.5,0.3,0.9,0.3c0.4,0,0.7-0.1,0.8-0.2c0.2-0.2,0.3-0.3,0.3-0.5
		c0-0.2-0.1-0.3-0.2-0.4c-0.1-0.1-0.4-0.2-0.8-0.3c-0.6-0.2-1-0.3-1.3-0.4s-0.4-0.3-0.5-0.5s-0.2-0.4-0.2-0.7c0-0.2,0-0.4,0.1-0.6
		s0.2-0.3,0.4-0.5c0.1-0.1,0.3-0.2,0.5-0.2c0.2-0.1,0.5-0.1,0.7-0.1c0.4,0,0.7,0.1,1,0.2c0.3,0.1,0.5,0.3,0.6,0.4s0.2,0.4,0.3,0.8
		l-0.8,0.1c0-0.3-0.1-0.4-0.3-0.6c-0.2-0.1-0.4-0.2-0.7-0.2c-0.4,0-0.6,0.1-0.8,0.2s-0.2,0.3-0.2,0.4c0,0.1,0,0.2,0.1,0.3
		c0.1,0.1,0.2,0.2,0.3,0.2c0.1,0,0.3,0.1,0.7,0.2c0.6,0.2,1,0.3,1.2,0.4s0.4,0.2,0.5,0.4c0.1,0.2,0.2,0.4,0.2,0.7
		c0,0.3-0.1,0.5-0.2,0.8c-0.2,0.2-0.4,0.4-0.7,0.6c-0.3,0.1-0.6,0.2-1,0.2c-0.6,0-1.1-0.1-1.4-0.4C19.7,121.1,19.5,120.7,19.4,120.2
		z"/>
	<path class="st1" d="M27.6,119.8l0.8,0.1c-0.1,0.6-0.3,1-0.7,1.3c-0.4,0.3-0.8,0.5-1.3,0.5c-0.7,0-1.2-0.2-1.6-0.7
		c-0.4-0.4-0.6-1.1-0.6-1.9c0-0.5,0.1-1,0.3-1.4c0.2-0.4,0.4-0.7,0.8-0.9c0.4-0.2,0.7-0.3,1.2-0.3c0.5,0,1,0.1,1.3,0.4
		c0.3,0.3,0.6,0.6,0.6,1.1l-0.8,0.1c-0.1-0.3-0.2-0.6-0.4-0.7c-0.2-0.2-0.4-0.2-0.7-0.2c-0.4,0-0.8,0.1-1,0.4
		c-0.3,0.3-0.4,0.8-0.4,1.4c0,0.7,0.1,1.1,0.4,1.4s0.6,0.4,1,0.4c0.3,0,0.6-0.1,0.8-0.3C27.4,120.5,27.5,120.2,27.6,119.8z"/>
	<path class="st1" d="M29.1,115.8v-0.9h0.8v0.9H29.1z M29.1,121.6v-4.9h0.8v4.9H29.1z"/>
	<path class="st1" d="M34.5,120l0.9,0.1c-0.1,0.5-0.4,0.9-0.7,1.2c-0.4,0.3-0.8,0.4-1.4,0.4c-0.7,0-1.3-0.2-1.7-0.7
		c-0.4-0.4-0.6-1.1-0.6-1.8c0-0.8,0.2-1.5,0.6-1.9c0.4-0.5,1-0.7,1.6-0.7c0.6,0,1.2,0.2,1.6,0.7c0.4,0.4,0.6,1.1,0.6,1.9
		c0,0,0,0.1,0,0.2h-3.6c0,0.5,0.2,0.9,0.5,1.2c0.3,0.3,0.6,0.4,1,0.4c0.3,0,0.6-0.1,0.8-0.2C34.2,120.6,34.4,120.4,34.5,120z
		 M31.8,118.7h2.7c0-0.4-0.1-0.7-0.3-0.9c-0.3-0.3-0.6-0.5-1-0.5c-0.4,0-0.7,0.1-1,0.4C32,118,31.8,118.3,31.8,118.7z"/>
	<path class="st1" d="M36.4,121.6v-4.9h0.7v0.7c0.4-0.5,0.9-0.8,1.5-0.8c0.3,0,0.6,0.1,0.8,0.2s0.4,0.2,0.6,0.4s0.2,0.4,0.3,0.6
		c0,0.2,0,0.4,0,0.8v3h-0.8v-3c0-0.3,0-0.6-0.1-0.8s-0.2-0.3-0.3-0.4c-0.2-0.1-0.4-0.1-0.6-0.1c-0.4,0-0.7,0.1-0.9,0.3
		s-0.4,0.6-0.4,1.3v2.7H36.4z"/>
	<path class="st1" d="M44.8,119.8l0.8,0.1c-0.1,0.6-0.3,1-0.7,1.3c-0.4,0.3-0.8,0.5-1.3,0.5c-0.7,0-1.2-0.2-1.6-0.7
		c-0.4-0.4-0.6-1.1-0.6-1.9c0-0.5,0.1-1,0.3-1.4c0.2-0.4,0.4-0.7,0.8-0.9c0.4-0.2,0.7-0.3,1.2-0.3c0.5,0,1,0.1,1.3,0.4
		c0.3,0.3,0.6,0.6,0.6,1.1l-0.8,0.1c-0.1-0.3-0.2-0.6-0.4-0.7c-0.2-0.2-0.4-0.2-0.7-0.2c-0.4,0-0.8,0.1-1,0.4
		c-0.3,0.3-0.4,0.8-0.4,1.4c0,0.7,0.1,1.1,0.4,1.4s0.6,0.4,1,0.4c0.3,0,0.6-0.1,0.8-0.3C44.6,120.5,44.7,120.2,44.8,119.8z"/>
	<path class="st1" d="M49.6,120l0.9,0.1c-0.1,0.5-0.4,0.9-0.7,1.2c-0.4,0.3-0.8,0.4-1.4,0.4c-0.7,0-1.3-0.2-1.7-0.7
		c-0.4-0.4-0.6-1.1-0.6-1.8c0-0.8,0.2-1.5,0.6-1.9c0.4-0.5,1-0.7,1.6-0.7c0.6,0,1.2,0.2,1.6,0.7c0.4,0.4,0.6,1.1,0.6,1.9
		c0,0,0,0.1,0,0.2h-3.6c0,0.5,0.2,0.9,0.5,1.2c0.3,0.3,0.6,0.4,1,0.4c0.3,0,0.6-0.1,0.8-0.2C49.3,120.6,49.5,120.4,49.6,120z
		 M46.9,118.7h2.7c0-0.4-0.1-0.7-0.3-0.9c-0.3-0.3-0.6-0.5-1-0.5c-0.4,0-0.7,0.1-1,0.4C47.1,118,47,118.3,46.9,118.7z"/>
	<path class="st1" d="M57.4,120l0.9,0.1c-0.1,0.5-0.4,0.9-0.7,1.2c-0.4,0.3-0.8,0.4-1.4,0.4c-0.7,0-1.3-0.2-1.7-0.7
		c-0.4-0.4-0.6-1.1-0.6-1.8c0-0.8,0.2-1.5,0.6-1.9c0.4-0.5,1-0.7,1.6-0.7c0.6,0,1.2,0.2,1.6,0.7c0.4,0.4,0.6,1.1,0.6,1.9
		c0,0,0,0.1,0,0.2h-3.6c0,0.5,0.2,0.9,0.5,1.2c0.3,0.3,0.6,0.4,1,0.4c0.3,0,0.6-0.1,0.8-0.2C57.2,120.6,57.3,120.4,57.4,120z
		 M54.7,118.7h2.7c0-0.4-0.1-0.7-0.3-0.9c-0.3-0.3-0.6-0.5-1-0.5c-0.4,0-0.7,0.1-1,0.4C54.9,118,54.8,118.3,54.7,118.7z"/>
	<path class="st1" d="M61.1,120.9l0.1,0.7c-0.2,0-0.4,0.1-0.6,0.1c-0.3,0-0.5,0-0.7-0.1s-0.3-0.2-0.3-0.4c-0.1-0.2-0.1-0.5-0.1-1
		v-2.8h-0.6v-0.6h0.6v-1.2l0.8-0.5v1.7h0.8v0.6h-0.8v2.8c0,0.2,0,0.4,0,0.5c0,0.1,0.1,0.1,0.1,0.2c0.1,0,0.2,0.1,0.3,0.1
		C60.9,120.9,61,120.9,61.1,120.9z"/>
	<path class="st1" d="M64.5,121.6v-6.7h0.8v6.7H64.5z"/>
	<path class="st1" d="M69.8,121c-0.3,0.3-0.6,0.4-0.9,0.5s-0.6,0.2-0.9,0.2c-0.5,0-0.9-0.1-1.2-0.4c-0.3-0.3-0.4-0.6-0.4-1
		c0-0.2,0.1-0.5,0.2-0.7c0.1-0.2,0.3-0.4,0.4-0.5s0.4-0.2,0.6-0.3c0.2,0,0.4-0.1,0.7-0.1c0.7-0.1,1.2-0.2,1.5-0.3c0-0.1,0-0.2,0-0.2
		c0-0.3-0.1-0.6-0.2-0.7c-0.2-0.2-0.5-0.3-0.9-0.3c-0.4,0-0.7,0.1-0.9,0.2s-0.3,0.4-0.4,0.7l-0.8-0.1c0.1-0.3,0.2-0.6,0.4-0.8
		c0.2-0.2,0.4-0.4,0.7-0.5c0.3-0.1,0.7-0.2,1.1-0.2c0.4,0,0.8,0,1,0.1s0.4,0.2,0.6,0.4c0.1,0.1,0.2,0.3,0.3,0.6c0,0.1,0,0.4,0,0.8
		v1.1c0,0.8,0,1.3,0.1,1.5c0,0.2,0.1,0.4,0.2,0.6H70C69.9,121.4,69.8,121.2,69.8,121z M69.7,119.2c-0.3,0.1-0.7,0.2-1.3,0.3
		c-0.3,0-0.6,0.1-0.7,0.2c-0.1,0.1-0.2,0.2-0.3,0.3s-0.1,0.2-0.1,0.4c0,0.2,0.1,0.4,0.2,0.5c0.2,0.1,0.4,0.2,0.7,0.2
		c0.3,0,0.6-0.1,0.8-0.2s0.4-0.3,0.5-0.6c0.1-0.2,0.1-0.5,0.1-0.8V119.2z"/>
	<path class="st1" d="M77.6,119.8l0.8,0.1c-0.1,0.6-0.3,1-0.7,1.3c-0.4,0.3-0.8,0.5-1.3,0.5c-0.7,0-1.2-0.2-1.6-0.7
		c-0.4-0.4-0.6-1.1-0.6-1.9c0-0.5,0.1-1,0.3-1.4c0.2-0.4,0.4-0.7,0.8-0.9c0.4-0.2,0.7-0.3,1.2-0.3c0.5,0,1,0.1,1.3,0.4
		c0.3,0.3,0.6,0.6,0.6,1.1l-0.8,0.1c-0.1-0.3-0.2-0.6-0.4-0.7c-0.2-0.2-0.4-0.2-0.7-0.2c-0.4,0-0.8,0.1-1,0.4
		c-0.3,0.3-0.4,0.8-0.4,1.4c0,0.7,0.1,1.1,0.4,1.4s0.6,0.4,1,0.4c0.3,0,0.6-0.1,0.8-0.3C77.4,120.5,77.6,120.2,77.6,119.8z"/>
	<path class="st1" d="M82.3,121.6v-0.7c-0.4,0.5-0.9,0.8-1.5,0.8c-0.3,0-0.6-0.1-0.8-0.2s-0.4-0.2-0.6-0.4s-0.2-0.4-0.3-0.6
		c0-0.2-0.1-0.4-0.1-0.8v-3h0.8v2.7c0,0.4,0,0.7,0.1,0.9c0.1,0.2,0.2,0.4,0.3,0.5c0.2,0.1,0.4,0.2,0.6,0.2s0.5-0.1,0.7-0.2
		s0.4-0.3,0.5-0.5c0.1-0.2,0.1-0.5,0.1-0.9v-2.6H83v4.9H82.3z"/>
	<path class="st1" d="M84.3,121.6v-6.7h0.8v6.7H84.3z"/>
	<path class="st1" d="M88.2,120.9l0.1,0.7c-0.2,0-0.4,0.1-0.6,0.1c-0.3,0-0.5,0-0.7-0.1s-0.3-0.2-0.3-0.4c-0.1-0.2-0.1-0.5-0.1-1
		v-2.8H86v-0.6h0.6v-1.2l0.8-0.5v1.7h0.8v0.6h-0.8v2.8c0,0.2,0,0.4,0,0.5c0,0.1,0.1,0.1,0.1,0.2c0.1,0,0.2,0.1,0.3,0.1
		C87.9,120.9,88.1,120.9,88.2,120.9z"/>
	<path class="st1" d="M92.2,121.6v-0.7c-0.4,0.5-0.9,0.8-1.5,0.8c-0.3,0-0.6-0.1-0.8-0.2s-0.4-0.2-0.6-0.4s-0.2-0.4-0.3-0.6
		c0-0.2-0.1-0.4-0.1-0.8v-3h0.8v2.7c0,0.4,0,0.7,0.1,0.9c0.1,0.2,0.2,0.4,0.3,0.5c0.2,0.1,0.4,0.2,0.6,0.2s0.5-0.1,0.7-0.2
		s0.4-0.3,0.5-0.5c0.1-0.2,0.1-0.5,0.1-0.9v-2.6h0.8v4.9H92.2z"/>
	<path class="st1" d="M94.2,121.6v-4.9H95v0.7c0.2-0.3,0.4-0.6,0.5-0.7s0.3-0.2,0.5-0.2c0.3,0,0.6,0.1,0.8,0.3l-0.3,0.8
		c-0.2-0.1-0.4-0.2-0.6-0.2c-0.2,0-0.3,0.1-0.5,0.2c-0.1,0.1-0.2,0.3-0.3,0.5c-0.1,0.3-0.1,0.6-0.1,1v2.5H94.2z"/>
	<path class="st1" d="M100.7,120l0.9,0.1c-0.1,0.5-0.4,0.9-0.7,1.2c-0.4,0.3-0.8,0.4-1.4,0.4c-0.7,0-1.3-0.2-1.7-0.7
		c-0.4-0.4-0.6-1.1-0.6-1.8c0-0.8,0.2-1.5,0.6-1.9c0.4-0.5,1-0.7,1.6-0.7c0.6,0,1.2,0.2,1.6,0.7c0.4,0.4,0.6,1.1,0.6,1.9
		c0,0,0,0.1,0,0.2h-3.6c0,0.5,0.2,0.9,0.5,1.2c0.3,0.3,0.6,0.4,1,0.4c0.3,0,0.6-0.1,0.8-0.2C100.4,120.6,100.6,120.4,100.7,120z
		 M98,118.7h2.7c0-0.4-0.1-0.7-0.3-0.9c-0.3-0.3-0.6-0.5-1-0.5c-0.4,0-0.7,0.1-1,0.4C98.1,118,98,118.3,98,118.7z"/>
</g>
<g class="st2">
	<path class="st1" d="M179.1,53.6L179.1,53.6l-1.8-0.1l0,0c-0.1,0.2-1.7,5.3-6.4,10.2c-0.6-1.1-1.8-2.6-4.5-3.9
		c1.3-1.7,2.6-4.1,3.7-6.3l0-0.1h-1.9l0,0c-1,2.1-2,3.7-3.4,5.6c-2.5-0.9-5.5-1.5-9.1-1.7c-1.2-0.1-2.3-0.1-3.5-0.1
		c0.1-2.2,0.1-3.7,0.1-3.8l0-0.1l-1.7,0l-0.1,0c0,0,0,1.6-0.1,3.9c-1.9,0.1-3.8,0.4-5.2,0.7c-0.7-2.6-1-4.4-1-4.6l0,0h-1.7l0,0.1
		l0,0c0.1,0.6,0.4,2.6,1.1,5.1c-1,0.3-1.8,0.6-2.6,1l0,0.1l0.7,1.5l0.1,0c0.7-0.3,1.4-0.6,2.3-0.9c1.2,4.1,3,8,5,10.3l0,0
		c0.1,0.1,0.1,0.1,0.2,0.2c0,0,0,0.1,0.1,0.1c0,0,0.1,0.1,0.1,0.1l0.3,0.3l0,0l0.5-0.1c0,0,0.1,0,0.2,0c0.1,0,0.2,0,0.2-0.1l0,0
		c2-0.5,8.8-2.6,14.8-10c3.3,1.5,4.1,3.4,4.2,3.8c-4.8,4.2-10.6,6.4-17.3,6.5l0,0v1.7l0.1,0c8.4-0.1,14.1-3.3,17.3-5.9l0,0
		c1.3-1,1.9-1.6,1.9-1.6v0C177,60.4,179,53.9,179.1,53.6L179.1,53.6L179.1,53.6z M150.2,59.3c-0.1,3.3-0.5,7-0.9,9.3
		c-1.5-2.3-2.9-5.5-3.8-8.6C146.7,59.6,148.4,59.4,150.2,59.3z M151,69.3c0.5-2.7,0.9-7,1-10.1c1.1,0,2.3,0,3.5,0.1
		c3.1,0.2,5.8,0.6,8,1.4C158.7,66.4,153.2,68.6,151,69.3z M165.8,60.6C165.8,60.6,165.8,60.6,165.8,60.6
		C165.8,60.6,165.8,60.6,165.8,60.6L165.8,60.6z M171.3,65.7L171.3,65.7L171.3,65.7L171.3,65.7L171.3,65.7L171.3,65.7L171.3,65.7z"
		/>
	<path class="st1" d="M142.2,34.4L142.2,34.4L142.2,34.4l1.7,0.1l0-0.1c0,0,0-1.1,0.2-2.9c2.3,0.6,5,0.9,8,0.9l0.1,0v-1.7l0,0
		c-2.9-0.1-5.5-0.4-7.7-0.9c0.4-2.7,1.4-6.6,3.6-10l0-0.1c0.4-0.7,0.8-1.2,1.3-1.8l0-0.1c-0.7,0.1-1.5,0.2-2.4,0.4
		c-2,0.4-4,1-5.8,1.7c-1.3,0.6-2.7,1.2-3.9,2l0,0c-0.6,0.4-1.4,0.8-2.1,1.4l-0.1,0.1l0,0c-7.5,5.4-10.4,13-11,14.4l0,0.1h1.8l0,0
		c0.7-1.7,2.6-5.9,6.5-9.9c-2.2,4.9-2.7,9.6-2.7,9.9l0,0.1h1.7l0,0c0-0.3,0.7-6.4,4-11.9c0.8,1.6,2.6,3.8,6.9,5.2
		C142.2,32.8,142.2,34,142.2,34.4z M142.6,29.3c-4.4-1.5-5.5-3.8-5.8-5l0-0.1c2.6-1.8,5.6-3.1,8.8-3.9
		C144.2,22.9,143.2,26,142.6,29.3z M144.2,30.2C144.2,30.2,144.2,30.2,144.2,30.2C144.2,30.2,144.2,30.2,144.2,30.2L144.2,30.2z"/>
</g>
<path class="st3" d="M280.5,44.1v6l0,0.2l-0.2,0h-2.9l-0.2,0l0-0.2v-5.5c0-1.6-0.9-2.4-2.1-2.4c-1.1,0-2.1,0.8-2.1,2.4v5.5l0,0.2
	l-0.2,0h-2.9l-0.2,0l0-0.2v-5.5c0-3,2.4-5.4,5.4-5.4c1.3,0,2.4,0.4,3.4,1.2l0.1,0.2l0.1-0.2c0.1-0.1,0.2-0.2,0.3-0.3l0.2,0l-0.2-0.1
	c-0.8-0.9-1.3-2.1-1.3-3.4v-12l0-0.2l0.2,0h2.9l0.2,0l0,0.2v12c0,1.3,0.8,1.9,1.7,1.9c0.9,0,1.7-0.6,1.7-1.9v-12l0-0.2l0.2,0h2.9
	l0.2,0l0,0.2v12c0,1.3-0.5,2.5-1.3,3.4l-0.2,0.1l0.2,0c0.1,0.1,0.2,0.2,0.3,0.3l0.1,0.2l0.1-0.2c0.9-0.7,2.1-1.2,3.4-1.2
	c3,0,5.4,2.4,5.4,5.4v5.5l0,0.2l-0.2,0h-2.9l-0.2,0l0-0.2v-5.5c0-1.6-0.9-2.4-2.1-2.4c-1.1,0-2.1,0.8-2.1,2.4v5.5l0,0.2l-0.2,0h-2.9
	l-0.2,0l0-0.2v-6c0-1.7-1-2.5-2.1-2.5C281.4,41.6,280.5,42.4,280.5,44.1"/>
<g>
	<g>
		<path class="st1" d="M131.3,41.9v4.6c0,1.2-0.3,2.2-1,2.9c-0.6,0.7-1.5,1.1-2.6,1.1c-1.1,0-2-0.4-2.6-1.1c-0.6-0.7-1-1.7-1-2.9
			v-4.6h1.5v4.9c0,0.7,0.2,1.2,0.6,1.6c0.4,0.4,0.9,0.6,1.5,0.6c0.6,0,1.1-0.2,1.5-0.6c0.4-0.4,0.6-1,0.6-1.6v-4.9H131.3"/>
	</g>
	<g>
		<path class="st1" d="M133.1,50.3v-4.6c0-1.2,0.3-2.2,1-2.9c0.7-0.7,1.5-1.1,2.6-1.1s2,0.4,2.6,1.1c0.6,0.7,1,1.7,1,2.9v4.6h-1.5
			v-4.9c0-0.7-0.2-1.2-0.6-1.6c-0.4-0.4-0.9-0.6-1.5-0.6c-0.6,0-1.1,0.2-1.5,0.6c-0.4,0.4-0.6,1-0.6,1.6v4.9H133.1"/>
	</g>
	<g>
		<path class="st1" d="M142.2,38.7c0-0.3,0.1-0.5,0.3-0.6c0.2-0.2,0.4-0.3,0.7-0.3c0.3,0,0.5,0.1,0.6,0.3c0.2,0.2,0.3,0.4,0.3,0.6
			c0,0.3-0.1,0.5-0.3,0.7c-0.2,0.2-0.4,0.3-0.6,0.3c-0.3,0-0.5-0.1-0.6-0.3C142.3,39.2,142.2,39,142.2,38.7 M143.9,50.3h-1.5v-8.4
			h1.5V50.3z"/>
	</g>
	<g>
		<polygon class="st1" points="150.5,50.3 150.5,39.5 146,39.5 146,38 166.3,38 166.3,39.5 152.1,39.5 152.1,50.3 		"/>
	</g>
	<g>
		<path class="st1" d="M166.3,41.9v4.9c0,1.1-0.3,2.1-0.9,2.7c-0.6,0.7-1.4,1-2.4,1c-0.5,0-1-0.1-1.5-0.3c-0.4-0.2-0.8-0.5-1.1-1
			c-0.3,0.4-0.7,0.8-1.2,1c-0.4,0.2-0.9,0.3-1.4,0.3c-1,0-1.8-0.3-2.4-1c-0.6-0.7-0.9-1.6-0.9-2.7v-4.9h1.5V47
			c0,0.6,0.2,1.1,0.5,1.4c0.3,0.4,0.8,0.5,1.3,0.5c0.5,0,1-0.2,1.3-0.6c0.3-0.4,0.5-0.8,0.5-1.4v-5.1h1.5V47c0,0.6,0.2,1.1,0.5,1.4
			c0.3,0.4,0.8,0.5,1.3,0.5c0.5,0,1-0.2,1.3-0.6c0.3-0.4,0.5-0.8,0.5-1.4v-5.1H166.3"/>
	</g>
	<g>
		<path class="st1" d="M168.1,38.7c0-0.3,0.1-0.5,0.3-0.6c0.2-0.2,0.4-0.3,0.7-0.3c0.3,0,0.5,0.1,0.6,0.3c0.2,0.2,0.3,0.4,0.3,0.6
			c0,0.3-0.1,0.5-0.3,0.7c-0.2,0.2-0.4,0.3-0.6,0.3c-0.3,0-0.5-0.1-0.6-0.3C168.2,39.2,168.1,39,168.1,38.7 M169.8,50.3h-1.5v-8.4
			h1.5V50.3z"/>
	</g>
	<path class="st1" d="M171.8,50.3v-4.6c0-1.2,0.3-2.2,1-2.9c0.7-0.7,1.5-1.1,2.6-1.1c1.1,0,2,0.4,2.6,1.1c0.6,0.7,1,1.7,1,2.9v4.6
		h-1.5v-4.9c0-0.7-0.2-1.2-0.6-1.6c-0.4-0.4-0.9-0.6-1.5-0.6c-0.6,0-1.1,0.2-1.5,0.6c-0.4,0.4-0.6,1-0.6,1.6v4.9H171.8"/>
</g>
</svg>
