<?xml version="1.0" encoding="utf-8"?>
<!-- Generator: Adobe Illustrator 24.0.0, SVG Export Plug-In . SVG Version: 6.00 Build 0)  -->
<svg version="1.1" id="Layer_1" xmlns="http://www.w3.org/2000/svg" xmlns:xlink="http://www.w3.org/1999/xlink" x="0px" y="0px"
	 viewBox="0 0 1228.6 576" style="enable-background:new 0 0 1228.6 576;" xml:space="preserve">
<style type="text/css">
	.st0{fill:#0062AE;}
	.st1{fill:#CDD23E;}
	.st2{fill:#611336;}
</style>
<g>
	<path d="M454.2,34.8c0,2.2-1.8,4-4,4s-4-1.8-4-4s1.8-4,4-4C452.4,30.8,454.2,32.6,454.2,34.8"/>
	<path d="M454.2,49.2c0,2.2-1.8,4-4,4s-4-1.8-4-4s1.8-4,4-4C452.4,45.1,454.2,47,454.2,49.2"/>
	<path d="M454.2,64.8c0,2.2-1.8,4-4,4s-4-1.8-4-4c0-2.2,1.8-4,4-4C452.4,60.7,454.2,62.5,454.2,64.8"/>
	<path d="M454.2,80.4c0,2.2-1.8,4-4,4s-4-1.8-4-4s1.8-4,4-4C452.4,76.3,454.2,78.1,454.2,80.4"/>
	<path d="M454.2,97.2c0,2.2-1.8,4-4,4s-4-1.8-4-4s1.8-4,4-4C452.4,93.1,454.2,94.9,454.2,97.2"/>
	<path d="M454.2,114c0,2.2-1.8,4-4,4s-4-1.8-4-4s1.8-4,4-4C452.4,109.9,454.2,111.7,454.2,114"/>
	<path d="M454.2,131.2c0,2.2-1.8,4-4,4s-4-1.8-4-4s1.8-4,4-4C452.4,127.2,454.2,129,454.2,131.2"/>
	<path d="M454.2,148.5c0,2.2-1.8,4-4,4s-4-1.8-4-4s1.8-4,4-4C452.4,144.5,454.2,146.3,454.2,148.5"/>
	<path d="M454.2,167.2c0,2.2-1.8,4-4,4s-4-1.8-4-4s1.8-4,4-4C452.4,163.2,454.2,165,454.2,167.2"/>
	<path d="M454.2,185.9c0,2.2-1.8,4-4,4s-4-1.8-4-4s1.8-4,4-4C452.4,181.9,454.2,183.7,454.2,185.9"/>
	<path d="M454.2,205.6c0,2.2-1.8,4-4,4s-4-1.8-4-4s1.8-4,4-4C452.4,201.6,454.2,203.4,454.2,205.6"/>
	<path d="M454.2,225.8c0,2.2-1.8,4-4,4s-4-1.8-4-4s1.8-4,4-4C452.4,221.7,454.2,223.5,454.2,225.8"/>
	<path d="M454.2,246.9c0,2.2-1.8,4-4,4s-4-1.8-4-4s1.8-4,4-4C452.4,242.8,454.2,244.6,454.2,246.9"/>
	<path d="M454.2,270.9c0,2.2-1.8,4-4,4s-4-1.8-4-4s1.8-4,4-4C452.4,266.8,454.2,268.6,454.2,270.9"/>
	<path d="M454.2,297.2c0,2.2-1.8,4-4,4s-4-1.8-4-4s1.8-4,4-4C452.4,293.2,454.2,295,454.2,297.2"/>
	<path d="M454.2,328.4c0,2.2-1.8,4-4,4s-4-1.8-4-4s1.8-4,4-4C452.4,324.4,454.2,326.2,454.2,328.4"/>
	<path d="M454.2,362c0,2.2-1.8,4-4,4s-4-1.8-4-4s1.8-4,4-4C452.4,358,454.2,359.8,454.2,362"/>
	<path d="M454.2,400.4c0,2.2-1.8,4-4,4s-4-1.8-4-4s1.8-4,4-4C452.4,396.3,454.2,398.1,454.2,400.4"/>
	<path d="M454.2,443.6c0,2.2-1.8,4-4,4s-4-1.8-4-4s1.8-4.1,4-4.1C452.4,439.6,454.2,441.4,454.2,443.6"/>
	<path d="M454.2,491.6c0,2.2-1.8,4-4,4s-4-1.8-4-4s1.8-4,4-4C452.4,487.6,454.2,489.4,454.2,491.6"/>
	<path d="M454.2,544.4c0,2.2-1.8,4-4,4s-4-1.8-4-4s1.8-4,4-4C452.4,540.3,454.2,542.2,454.2,544.4"/>
	<rect x="142.7" y="254" width="237.3" height="9.9"/>
	<rect x="129.3" y="270.9" width="263.7" height="10"/>
	<rect x="116.8" y="287.8" width="289.1" height="10"/>
	<rect x="142.7" y="128.5" width="237.3" height="9.9"/>
	<polygon points="190.7,122.1 261.4,101 330.5,122.1 359.4,122.1 261.4,91.8 161.9,122.1 	"/>
	<polygon points="142.7,122.1 260.6,86.1 380,122.1 380,111.4 261.4,74.9 142.7,111.4 	"/>
	<path d="M156.6,241.1c0,0,0,7.5,8.5,7.5s8-7.5,8-7.5v-96.5h-6.2v96.8c0,0,0,1.7-2.2,1.7s-1.7-2.2-1.7-2.2v-96.3h-6.2v96.5H156.6z"
		/>
	<polygon points="195.7,248.6 200.7,248.6 200.7,186 206.9,248.6 212.1,248.6 212.1,144.6 206.9,144.6 206.9,200.1 200.7,144.6 
		195.7,144.6 	"/>
	<polygon points="235.3,248.6 251.2,248.6 251.2,243.1 242.2,243.1 242.2,196.1 248.9,196.1 248.9,190.3 242.2,190.3 242.2,149.8 
		248.9,149.8 248.9,144.6 235.3,144.6 	"/>
	<path d="M326.8,175.4V152c0,0-0.2-7.5-8.2-7.5s-8,7.5-8,7.5v89.1c0,0-0.3,7.5,8,7.5c8.2,0,8.2-7.5,8.2-7.5V215h-6.2v26.1
		c0,0,0,2-2,2c-1.9,0-2.2-2-2.2-2V152c0,0,0-2.2,2.2-2.2c2,0,2,2.2,2,2.2v23.4H326.8L326.8,175.4z"/>
	<path d="M366.4,152c0,0,0.5-7.5-8.2-7.5s-8.7,7.5-8.7,7.5v89.1c0,0,0,7.5,8.2,7.5c8.7,0,8.7-7.5,8.7-7.5V152L366.4,152z
		 M360.4,241.1c0,0,0.2,2-2.2,2s-2.5-2-2.5-2V152c0,0,0-2.2,2.2-2.2c2.5,0,2.5,2.2,2.5,2.2V241.1L360.4,241.1z"/>
	<path d="M281.3,241.1c0,0,0,2-1.6,1.9s-1.6-1.9-1.6-1.9V215h-6.5v26.1c0,0-0.2,7.5,8,7.5s8.2-7.5,8.2-7.5s0-17.4,0-22.5
		c0-12.2-9.7-35.5-9.7-43.2V152c0,0-0.3-2.2,1.5-2.2s1.8,2.2,1.8,2.2v23.4h6.5V152c0,0,0.2-7.7-8-7.5s-8.2,7.5-8.2,7.5v19.9
		c0,13.1,9.7,35.1,9.7,45.2L281.3,241.1L281.3,241.1z"/>
	<path class="st0" d="M1125.8,180.2v24.3l0.1,0.9l-0.9-0.1h-11.8l-0.9,0.1l0.1-0.9v-22.1c0-6.5-3.7-9.5-8.3-9.5
		c-4.6,0-8.3,3.1-8.3,9.5v22.1l0.1,0.9l-0.9-0.1h-11.8l-0.9,0.1l0.1-0.9v-22.1c0-12.1,9.8-21.8,21.8-21.8c5.1,0,9.8,1.8,13.6,4.7
		l0.3,0.8l0.2-0.8c0.4-0.4,0.8-0.8,1.2-1.2l0.8-0.2l-0.7-0.3c-3.2-3.6-5.2-8.3-5.2-13.5v-48.4l-0.1-0.9l0.9,0.1h11.8l0.9-0.1
		l-0.1,0.9V150c0,5.3,3,7.8,6.8,7.8c3.7,0,6.7-2.5,6.7-7.8v-48.4l-0.1-0.9l0.9,0.1h11.8l0.9-0.1l-0.1,0.9V150c0,5.2-2,9.9-5.2,13.5
		l-0.7,0.3l0.8,0.2c0.4,0.4,0.8,0.8,1.2,1.2l0.3,0.8l0.3-0.8c3.7-3,8.4-4.7,13.6-4.7c12.1,0,21.8,9.8,21.8,21.8v22.1l0.1,0.9
		l-0.9-0.1h-11.8l-0.9,0.1l0.1-0.9v-22.1c0-6.5-3.7-9.5-8.3-9.5c-4.6,0-8.3,3.1-8.3,9.5v22.1l0.1,0.9l-0.9-0.1h-11.8l-0.9,0.1
		l0.1-0.9v-24.3c0-6.7-3.9-9.9-8.6-9.9C1129.7,170.3,1125.8,173.5,1125.8,180.2"/>
	<path d="M860.3,259.4c-1.7,1.4-3.9,2.5-7.1,2.5c-4.3,0-7.9-3.1-7.9-11.5c0-8.7,3-12.7,7.9-12.7c3.3,0,5.6,1.2,7.2,2.9v18.8H860.3z
		 M860.3,265.1h12.5v-1.3l-4.6-1.1v-42.4h-12.8v1.5l5,1.4v14.3c-2.2-1.8-5.5-3.3-9.8-3.3c-7.8,0-13.5,6.8-13.5,16.3
		c0,9.7,5.3,15.4,13.6,15.4c4,0,7.4-1.6,9.8-3.7L860.3,265.1L860.3,265.1z"/>
	<polygon points="977.5,220.3 977.5,221.7 972.8,222.9 972.8,262.5 977.5,263.8 977.5,265.1 958.1,265.1 958.1,263.7 964.3,262.5 
		964.3,231 949.8,265.1 946.4,265.1 932.1,230.8 932.1,262.5 938.1,263.6 938.1,265.1 924,265.1 924,263.8 928,262.6 928,222.9 
		924,221.7 924,220.3 936.6,220.3 950.5,254.6 964.8,220.3 	"/>
	<path d="M997.1,236.4c5.4,0,8.2,6,8.2,13.6c0,7.5-2.8,13.7-8.2,13.7c-5.3,0-8.2-6.2-8.2-13.7C988.9,242.4,991.8,236.4,997.1,236.4
		 M997.1,234.2c-8.8,0-16.7,6.1-16.7,15.8c0,9.4,8,15.8,16.7,15.8c8.8,0,16.8-6.4,16.8-15.8C1013.9,240.3,1005.9,234.2,997.1,234.2"
		/>
	<path d="M1159.3,260.1c-1.6,1-3,2.1-5.4,2.1c-4,0.1-5.1-2.4-5.1-5.3c0-3,2-4.9,5.6-5.6l4.9-0.6V260.1L1159.3,260.1z M1159.3,243.5
		v5.2l-6.9,0.3c-6.8,0.2-11,3.9-11,8.9c0,5.1,3.8,7.9,8.8,7.9c4.1,0,7.1-2,9.1-3.4v2.8h11.4v-1.3l-3.7-1.1v-20.5
		c0-4.5-3-8.1-9.7-8.1c-6.8,0-11.1,1.9-13.5,3v7.1h3.4l1.1-5.9c0.8-0.3,2.9-1.1,6.3-0.8C1158.7,237.9,1159.2,240.7,1159.3,243.5"/>
	<polygon points="1191.3,263.8 1191.3,265.1 1174.2,265.1 1174.2,263.8 1178.8,262.7 1178.8,222.9 1174.2,221.8 1174.2,220.3 
		1186.7,220.3 1186.7,262.7 	"/>
	<path d="M796.5,163.3l-6.7-1.3v-1.4h15.5v1.4l-4.8,1.4v27.1c0,11.3-6.2,15.9-18.7,15.9c-12.9,0-18.2-4.9-18.2-15.1v-28l-4.6-1.2
		v-1.4h19.8v1.5l-6.7,1.2v27.5c0,8.3,2.8,12.4,11.5,12.4c9.4,0,12.9-4.2,12.9-13.2V163.3L796.5,163.3z"/>
	<path d="M823.2,204.1v1.3h-16.7v-1.3l4.5-1.1v-25.6l-4.1-1.2v-1.4h12v4.7c1.4-1.2,5.7-5,11.3-5c5.8,0,8.7,3.2,8.7,8.9V203l4.4,1.1
		v1.4h-16.2V204l4.1-1v-18.8c0-3-0.9-5.6-4.6-5.6c-3.3,0-6.7,2.3-7.7,3V203L823.2,204.1z"/>
	<polygon points="858.5,203 863,204.1 863,205.4 846,205.4 846,204.1 850.6,203 850.6,177.3 846.5,176.2 846.5,174.7 858.5,174.7 	
		"/>
	<path d="M858.9,164.2c0,2.3-2.1,4.3-4.5,4.3s-4.5-1.9-4.5-4.3c0-2.3,2.1-4.3,4.5-4.3C856.8,159.8,858.9,161.8,858.9,164.2"/>
	<polygon points="993.7,203 998.3,204.1 998.3,205.4 981.3,205.4 981.3,204.1 985.9,203 985.9,177.3 981.8,176.2 981.8,174.7 
		993.7,174.7 	"/>
	<path d="M994.1,164.2c0,2.3-2.1,4.3-4.5,4.3s-4.5-1.9-4.5-4.3c0-2.3,2.1-4.3,4.5-4.3C992.1,159.8,994.1,161.8,994.1,164.2"/>
	<polygon points="865.5,176.9 863.3,176 863.3,174.7 878.2,174.7 878.2,176 873.4,177.1 880.2,195.8 887,177 882.9,176 882.9,174.7 
		893.1,174.7 893.1,176 890.6,177.1 878.9,205.9 876.4,205.9 	"/>
	<path d="M914.7,185.7h-12.2c0.7-5.2,2.8-9.1,6.4-9.1C913,176.6,914.4,181.5,914.7,185.7 M902.1,188.2h20.3
		c-0.2-8.5-4.6-13.8-13.5-13.8c-8.8,0-15.2,7.6-15.2,15.8c0,9.6,6.3,15.8,15.3,15.8c7.7,0,11.7-3,14.1-4.8l-1.3-2.1
		c-1.8,1.1-5.4,3.5-11.3,3.2C904.5,202,901.5,195.8,902.1,188.2"/>
	<path d="M975.1,176l-0.7,7.5h-2.8l-0.7-5.1c-1-0.6-2.4-1.7-5.5-1.7c-2.5,0-4.4,1.3-4.4,4c0,3.2,3.5,4.4,7,6c3.4,1.4,8.9,3.5,8.9,9
		c0,6.2-5.1,10.5-11.2,10.5c-5.6,0-8.9-1.3-9.9-1.6l-0.6-8.3l2.9-0.3l1.6,5.7c0.8,0.6,3.1,2.4,5.9,2.3c3.9,0,5.8-2.1,5.8-5
		c0-3.5-4.9-5-8.1-6.5c-3-1.4-7.7-2.8-7.7-9c0-5.2,4.3-8.8,10.1-8.8C970.6,174.4,973.7,175.5,975.1,176"/>
	<polygon points="1050.5,164.6 1047.5,160.2 1037,168.4 1038.7,170.9 	"/>
	<path d="M1044.7,185.7h-12.2c0.7-5.2,2.8-9.1,6.4-9.1C1043,176.6,1044.4,181.5,1044.7,185.7 M1032.1,188.2h20.3
		c-0.2-8.5-4.6-13.8-13.5-13.8c-8.7,0-15.2,7.6-15.2,15.8c0,9.6,6.3,15.8,15.3,15.8c7.7,0,11.7-3,14.1-4.8l-1.3-2.1
		c-1.8,1.1-5.4,3.5-11.3,3.2C1034.5,202,1031.5,195.8,1032.1,188.2"/>
	<path d="M948.3,174.4c-4.4,0-7.6,3.5-9.4,7.5h-0.2v-7.2h-12.5v1.3l4.6,1.3V203l-4.6,1.1v1.3h19.2v-1.5l-6.7-1.1v-17.4
		c1.8-4,4.5-5.6,6.3-5.6c1.3,0,1.8,0.3,2.8,1.1c0.4,0.3,1.7,0.7,2.5,0.3c1.5-0.6,1.9-1.7,1.9-3.4C952.2,176,950.4,174.4,948.3,174.4
		"/>
	<path d="M1033.7,263.8v1.3H1017v-1.3l4.5-1.1v-25.6l-4.1-1.2v-1.4h12v4.7c1.4-1.2,5.7-5,11.3-5c5.8,0,8.7,3.2,8.7,8.9v19.6l4.4,1.1
		v1.4h-16.3v-1.4l4.1-1V244c0-3-0.9-5.6-4.6-5.6c-3.3,0-6.7,2.3-7.7,3v21.4L1033.7,263.8z"/>
	<path d="M1102.5,234.2c-4.4,0-7.6,3.5-9.4,7.5h-0.1v-7.2h-12.5v1.3l4.6,1.3v25.6l-4.6,1.1v1.3h19.1v-1.5l-6.7-1.1v-17.4
		c1.8-4,4.5-5.7,6.2-5.7c1.3,0,1.8,0.3,2.8,1.1c0.4,0.3,1.7,0.7,2.5,0.3c1.5-0.6,1.9-1.7,1.9-3.3
		C1106.3,235.8,1104.6,234.2,1102.5,234.2"/>
	<path d="M1021.3,201.9c-1.1,0.8-2.3,1.3-4.1,1.3c-2.8,0-3.7-2-3.7-6.6v-19.3l7.9-1.2v-1.5h-7.9v-14.2h-2.6
		c-0.5,8.1-3.4,13.5-10.6,14.2h-1.2v1.5l6.5,1.2V197c0,6.2,1.5,8.9,7.4,8.9c4.2,0,7.6-1.6,9-2.9L1021.3,201.9z"/>
	<path d="M1076.9,261.7c-1.2,0.8-2.3,1.3-4.1,1.3c-2.8,0-3.6-2-3.6-6.6v-19.3l7.9-1.2v-1.5h-7.9v-14.2h-2.6
		c-0.5,8.1-3.4,13.5-10.6,14.2h-1.2v1.5l6.5,1.2v19.7c0,6.2,1.5,8.9,7.4,8.9c4.2,0,7.6-1.6,9-2.9L1076.9,261.7z"/>
	<path d="M896.1,245.5h-12.2c0.7-5.2,2.8-9.1,6.4-9.1C894.4,236.4,895.8,241.2,896.1,245.5 M883.5,247.9h20.3
		c-0.2-8.5-4.6-13.8-13.5-13.8c-8.7,0-15.2,7.6-15.2,15.8c0,9.6,6.3,15.8,15.3,15.8c7.7,0,11.7-3,14-4.8l-1.3-1.9
		c-1.8,1.1-5.4,3.5-11.3,3.2C885.9,261.8,882.9,255.6,883.5,247.9"/>
	<path d="M1128.1,245.5h-12.2c0.7-5.2,2.8-9.1,6.4-9.1C1126.4,236.4,1127.8,241.2,1128.1,245.5 M1133.8,224.4l-3-4.4l-10.5,8.3
		l1.7,2.5L1133.8,224.4z M1115.5,247.9h20.2c-0.2-8.5-4.6-13.8-13.5-13.8c-8.8,0-15.2,7.6-15.2,15.8c0,9.6,6.3,15.8,15.3,15.8
		c7.7,0,11.7-3,14.1-4.8l-1.3-2.1c-1.8,1.1-5.4,3.5-11.3,3.2C1117.9,261.8,1114.9,255.6,1115.5,247.9"/>
</g>
<g>
	<path class="st1" d="M569.9,141.4L569.9,141.4l0.1,0.1h6.6v-0.1c0,0-0.1-4.6,0.7-11.7c9.2,2.2,20.1,3.5,32.2,3.7l0.1-0.1v-6.7v-0.1
		c-11.9-0.2-22.4-1.4-31.3-3.7c1.7-10.8,5.6-26.6,14.4-40.4l0,0c1.7-2.7,3.5-5.2,5.4-7.5v-0.1c-2.9,0.3-6,0.8-9.4,1.5l0,0
		c-8.2,1.5-16,3.8-23.3,6.8c-5.4,2.2-10.7,4.9-15.6,7.9l0,0c-2.5,1.5-5.5,3.4-8.3,5.4l-0.3,0.2l0,0c-7.1,5.1-13.7,11.1-19.7,17.9
		c-4.9,5.5-9.4,11.6-13.4,18c-6.8,10.9-10.2,19.7-11,22.1v0.1h7.2l0,0c2.7-6.7,10.8-24.1,26.9-40.4c-9.1,20.1-11,39.5-11.1,40.3v0.1
		h6.7l0,0c0.1-1.1,2.9-26.1,16.2-48.1c1.8,3.9,4.5,7.5,8.2,10.7c5,4.3,11.5,7.9,19.5,10.5C569.9,134.8,569.8,139.7,569.9,141.4z
		 M571.6,121.1c-7-2.4-12.6-5.5-16.7-9.2c-3.6-3.3-6-7.1-6.9-11l-0.1-0.4c10.8-7.3,22.8-12.7,35.7-15.9
		C577.9,95.1,573.9,107.4,571.6,121.1z"/>
	<path class="st1" d="M718,218.5l-7-0.1l0,0c-0.3,0.9-6.8,21.6-26.1,41.4c-1.3-2.6-3.2-5-5.6-7.4c-3.3-3.3-7.6-6.2-12.6-8.7
		c5.1-7,10.6-16.5,14.8-25.3v-0.1H674l0,0c-4,8.4-8,14.9-13.7,22.6c-10-3.7-22.2-6-36.5-6.8c-4.8-0.3-9.7-0.4-14.4-0.2
		c0.3-8.8,0.3-15.1,0.3-15.4l0,0l0,0l0,0l0,0l0,0h-6.6l0,0H603c0,0.1,0,6.6-0.3,15.7l0,0l0,0c-7.9,0.6-15.6,1.6-21.1,2.9
		c-2.7-10.4-3.9-17.9-4.1-18.8l0,0l0,0l0,0h-6.7l0,0l0,0l0,0l0,0l0,0v0.1c0.5,3,1.9,10.9,4.3,20.5l0,0v0.1c0,0,0,0,0,0.1
		c-4.2,1.3-7.3,2.5-10.6,4.1v0.1l2.9,6h0.1c2.9-1.4,5.6-2.4,9.3-3.6c4.8,16.6,12.2,32.2,19.9,41.7l0,0c0.2,0.3,0.4,0.5,0.6,0.8
		c0.1,0.1,0.2,0.2,0.3,0.4c0.1,0.1,0.2,0.3,0.3,0.4l1.2,1.4l0,0l1.8-0.3h0.1c0.2,0,0.5-0.1,0.8-0.2s0.6-0.1,1-0.2l0,0
		c7.9-1.9,35.6-10.3,59.7-40.4c13.3,6.2,16.5,13.6,17.1,15.5c-19.2,17-42.7,25.9-69.9,26.2l0,0v6.7l0,0c14.4-0.2,28-2.6,40.3-7.2
		c10.7-4,20.5-9.6,29.2-16.7l0,0c5-3.8,7.5-6.6,7.6-6.6l0,0c11.9-11.3,19.7-23.8,24.1-32.3C715.7,225.9,717.8,219.3,718,218.5
		L718,218.5z M583,243.9L583,243.9c4.9-1.2,11.9-2.1,19.2-2.7c-0.5,13.4-2,28.6-3.6,37.9C592.6,269.9,586.6,256.4,583,243.9
		L583,243.9z M609,240.8c4.6-0.1,9.4-0.1,14.3,0.2c12.7,0.7,23.6,2.6,32.5,5.6C636,270.3,613.7,279.2,605,282
		C607.1,271,608.5,253.4,609,240.8z"/>
</g>
<g>
	<path d="M515.3,358.9l3.6,0.9c-0.7,2.9-2.1,5.2-4,6.7s-4.3,2.3-7.1,2.3c-2.9,0-5.3-0.6-7.1-1.8s-3.2-2.9-4.2-5.1s-1.4-4.7-1.4-7.2
		c0-2.8,0.5-5.3,1.6-7.4s2.6-3.7,4.6-4.8c2-1.1,4.2-1.6,6.5-1.6c2.7,0,5,0.7,6.8,2.1c1.8,1.4,3.1,3.3,3.8,5.8l-3.5,0.8
		c-0.6-2-1.5-3.4-2.7-4.3c-1.2-0.9-2.7-1.3-4.5-1.3c-2.1,0-3.8,0.5-5.2,1.5s-2.4,2.3-2.9,4c-0.6,1.7-0.8,3.4-0.8,5.2
		c0,2.3,0.3,4.3,1,6s1.7,3,3.1,3.8s2.9,1.3,4.6,1.3c2,0,3.7-0.6,5.1-1.7C513.8,362.9,514.8,361.2,515.3,358.9z"/>
	<path d="M522.8,368.4v-27h3.3v9.7c1.5-1.8,3.5-2.7,5.9-2.7c1.4,0,2.7,0.3,3.8,0.9s1.8,1.4,2.3,2.4s0.7,2.5,0.7,4.4v12.4h-3.3V356
		c0-1.7-0.4-2.9-1.1-3.6s-1.7-1.1-3-1.1c-1,0-1.9,0.3-2.8,0.8c-0.9,0.5-1.5,1.2-1.8,2.1c-0.4,0.9-0.6,2.1-0.6,3.6v10.7L522.8,368.4
		L522.8,368.4z"/>
	<path d="M556.5,365.9c-1.2,1-2.4,1.8-3.5,2.2c-1.1,0.4-2.4,0.6-3.7,0.6c-2.1,0-3.8-0.5-5-1.6c-1.2-1-1.7-2.4-1.7-4
		c0-1,0.2-1.8,0.7-2.6c0.4-0.8,1-1.4,1.7-1.9s1.5-0.8,2.4-1.1c0.7-0.2,1.6-0.3,2.9-0.5c2.7-0.3,4.6-0.7,5.9-1.1c0-0.5,0-0.7,0-0.9
		c0-1.4-0.3-2.3-0.9-2.9c-0.8-0.7-2.1-1.1-3.8-1.1c-1.6,0-2.7,0.3-3.5,0.8c-0.7,0.5-1.3,1.5-1.6,2.9l-3.2-0.4
		c0.3-1.4,0.8-2.5,1.5-3.4s1.7-1.5,2.9-2s2.8-0.7,4.4-0.7c1.7,0,3,0.2,4.1,0.6c1,0.4,1.8,0.9,2.3,1.5s0.8,1.3,1,2.3
		c0.1,0.6,0.2,1.6,0.2,3.1v4.4c0,3.1,0.1,5,0.2,5.8s0.4,1.6,0.8,2.3h-3.5C556.9,367.7,556.6,366.9,556.5,365.9z M556.3,358.5
		c-1.2,0.5-3,0.9-5.4,1.3c-1.4,0.2-2.3,0.4-2.9,0.7c-0.6,0.2-1,0.6-1.3,1.1s-0.5,1-0.5,1.6c0,0.9,0.3,1.6,1,2.2s1.6,0.9,2.9,0.9
		c1.3,0,2.4-0.3,3.4-0.8s1.7-1.3,2.2-2.3c0.4-0.7,0.5-1.9,0.5-3.3L556.3,358.5L556.3,358.5z"/>
	<path d="M564.8,345.2v-3.8h3.3v3.8H564.8z M564.8,368.4v-19.5h3.3v19.5H564.8z"/>
	<path d="M573.1,368.4v-19.5h3v3c0.8-1.4,1.5-2.3,2.1-2.7c0.6-0.4,1.4-0.7,2.1-0.7c1.1,0,2.3,0.4,3.4,1.1l-1.1,3.1
		c-0.8-0.5-1.6-0.7-2.4-0.7c-0.7,0-1.4,0.2-2,0.7s-1,1-1.2,1.8c-0.4,1.2-0.6,2.5-0.6,3.9v10.2L573.1,368.4L573.1,368.4z"/>
	<path d="M599.1,362.1l3.4,0.4c-0.5,2-1.5,3.6-3,4.7s-3.3,1.7-5.6,1.7c-2.9,0-5.1-0.9-6.8-2.6c-1.7-1.8-2.5-4.2-2.5-7.4
		c0-3.3,0.8-5.8,2.5-7.7c1.7-1.8,3.9-2.7,6.6-2.7c2.6,0,4.7,0.9,6.4,2.7c1.7,1.8,2.5,4.3,2.5,7.5c0,0.2,0,0.5,0,0.9H588
		c0.1,2.1,0.7,3.8,1.8,4.9s2.5,1.7,4.1,1.7c1.2,0,2.3-0.3,3.1-1C597.9,364.5,598.6,363.5,599.1,362.1z M588.2,356.7h10.9
		c-0.1-1.6-0.6-2.9-1.3-3.7c-1.1-1.3-2.4-1.9-4.1-1.9c-1.5,0-2.8,0.5-3.8,1.5C588.9,353.6,588.3,355,588.2,356.7z"/>
	<path d="M635.3,341.4h3.6V357c0,2.7-0.3,4.9-0.9,6.5c-0.6,1.6-1.7,2.9-3.3,3.9s-3.7,1.5-6.3,1.5c-2.5,0-4.6-0.4-6.2-1.3
		s-2.8-2.1-3.4-3.8c-0.7-1.6-1-3.9-1-6.8v-15.6h3.6V357c0,2.3,0.2,4.1,0.7,5.2c0.4,1.1,1.2,2,2.2,2.6c1.1,0.6,2.4,0.9,3.9,0.9
		c2.6,0,4.5-0.6,5.6-1.8c1.1-1.2,1.7-3.5,1.7-6.9L635.3,341.4L635.3,341.4z"/>
	<path d="M644.7,368.4v-27h3.7l14.2,21.2v-21.2h3.4v27h-3.7l-14.2-21.2v21.2H644.7L644.7,368.4z"/>
	<path d="M672.1,368.4v-27h19.5v3.2h-15.9v8.3h14.9v3.2h-14.9v9.2h16.6v3.2L672.1,368.4L672.1,368.4z"/>
	<path d="M695.9,359.7l3.4-0.3c0.2,1.4,0.5,2.5,1.1,3.3s1.5,1.6,2.7,2.1s2.6,0.8,4.1,0.8c1.4,0,2.6-0.2,3.6-0.6s1.8-1,2.3-1.7
		s0.8-1.5,0.8-2.3s-0.2-1.6-0.7-2.2s-1.3-1.2-2.4-1.6c-0.7-0.3-2.3-0.7-4.8-1.3c-2.5-0.6-4.2-1.2-5.2-1.7c-1.3-0.7-2.2-1.5-2.9-2.5
		s-0.9-2.1-0.9-3.4c0-1.4,0.4-2.6,1.2-3.8s1.9-2.1,3.4-2.7s3.1-0.9,5-0.9c2,0,3.8,0.3,5.3,1c1.5,0.6,2.7,1.6,3.5,2.8
		s1.3,2.7,1.3,4.3l-3.4,0.3c-0.2-1.7-0.8-3-1.9-3.9s-2.6-1.3-4.7-1.3c-2.2,0-3.7,0.4-4.7,1.2s-1.5,1.7-1.5,2.9c0,1,0.4,1.8,1,2.4
		c0.7,0.6,2.5,1.3,5.4,1.9c2.9,0.7,4.9,1.2,6,1.7c1.6,0.7,2.7,1.6,3.5,2.8c0.7,1.1,1.1,2.4,1.1,3.8s-0.4,2.8-1.2,4.1
		c-0.8,1.3-2,2.3-3.5,3s-3.3,1.1-5.2,1.1c-2.4,0-4.5-0.4-6.1-1.1c-1.7-0.7-2.9-1.8-3.9-3.2C696.5,363.1,696,361.5,695.9,359.7z"/>
	<path d="M741.5,358.9l3.6,0.9c-0.7,2.9-2.1,5.2-4,6.7s-4.3,2.3-7.1,2.3c-2.9,0-5.3-0.6-7.1-1.8c-1.8-1.2-3.2-2.9-4.2-5.1
		s-1.4-4.7-1.4-7.2c0-2.8,0.5-5.3,1.6-7.4s2.6-3.7,4.6-4.8s4.2-1.6,6.5-1.6c2.7,0,5,0.7,6.8,2.1s3.1,3.3,3.8,5.8l-3.5,0.8
		c-0.6-2-1.5-3.4-2.7-4.3s-2.7-1.3-4.5-1.3c-2.1,0-3.8,0.5-5.2,1.5s-2.4,2.3-2.9,4c-0.6,1.7-0.8,3.4-0.8,5.2c0,2.3,0.3,4.3,1,6
		s1.7,3,3.1,3.8c1.4,0.8,2.9,1.3,4.6,1.3c2,0,3.7-0.6,5.1-1.7C740.1,362.9,741,361.2,741.5,358.9z"/>
	<path d="M748.4,355.2c0-4.5,1.2-8,3.6-10.5s5.5-3.8,9.3-3.8c2.5,0,4.7,0.6,6.7,1.8c2,1.2,3.5,2.9,4.6,5c1,2.1,1.6,4.5,1.6,7.2
		s-0.6,5.2-1.7,7.3c-1.1,2.2-2.7,3.8-4.7,4.9s-4.2,1.7-6.6,1.7c-2.5,0-4.8-0.6-6.8-1.8c-2-1.2-3.5-2.9-4.5-5
		C748.9,359.8,748.4,357.6,748.4,355.2z M752.1,355.3c0,3.3,0.9,5.8,2.6,7.7c1.7,1.9,3.9,2.8,6.6,2.8c2.7,0,4.9-0.9,6.6-2.8
		s2.6-4.6,2.6-8c0-2.2-0.4-4.1-1.1-5.8c-0.7-1.6-1.8-2.9-3.3-3.8s-3-1.4-4.8-1.4c-2.5,0-4.7,0.9-6.5,2.6
		C753,348.3,752.1,351.2,752.1,355.3z"/>
</g>
<g>
	<path d="M509,403.2l3.4,0.4c-0.5,2-1.5,3.6-3,4.7s-3.3,1.7-5.6,1.7c-2.9,0-5.1-0.9-6.8-2.6c-1.7-1.8-2.5-4.2-2.5-7.4
		c0-3.3,0.8-5.8,2.5-7.7c1.7-1.8,3.9-2.7,6.6-2.7c2.6,0,4.7,0.9,6.4,2.7c1.7,1.8,2.5,4.3,2.5,7.5c0,0.2,0,0.5,0,0.9h-14.6
		c0.1,2.1,0.7,3.8,1.8,4.9c1.1,1.1,2.5,1.7,4.1,1.7c1.2,0,2.3-0.3,3.1-1C507.8,405.6,508.5,404.6,509,403.2z M498.1,397.8H509
		c-0.1-1.6-0.6-2.9-1.3-3.7c-1.1-1.3-2.4-1.9-4.1-1.9c-1.5,0-2.8,0.5-3.8,1.5C498.8,394.8,498.2,396.1,498.1,397.8z"/>
	<path d="M516.6,409.5V390h3v2.8c1.4-2.1,3.5-3.2,6.2-3.2c1.2,0,2.3,0.2,3.2,0.6c1,0.4,1.7,1,2.2,1.7s0.8,1.5,1,2.4
		c0.1,0.6,0.2,1.7,0.2,3.2v12h-3.3v-11.9c0-1.4-0.1-2.4-0.4-3c-0.3-0.7-0.7-1.2-1.4-1.6s-1.4-0.6-2.3-0.6c-1.4,0-2.6,0.4-3.7,1.3
		c-1,0.9-1.5,2.6-1.5,5.1v10.7H516.6L516.6,409.5z"/>
	<path d="M548,417v-27h3v2.5c0.7-1,1.5-1.7,2.4-2.2s2-0.7,3.3-0.7c1.7,0,3.1,0.4,4.4,1.3c1.3,0.9,2.2,2.1,2.9,3.6
		c0.7,1.6,1,3.3,1,5.1c0,2-0.4,3.8-1.1,5.4c-0.7,1.6-1.8,2.8-3.1,3.7c-1.4,0.9-2.8,1.3-4.3,1.3c-1.1,0-2.1-0.2-3-0.7
		s-1.6-1.1-2.2-1.8v9.5L548,417L548,417z M551,399.8c0,2.5,0.5,4.4,1.5,5.6s2.3,1.8,3.7,1.8c1.5,0,2.7-0.6,3.8-1.9
		c1-1.2,1.6-3.2,1.6-5.8c0-2.5-0.5-4.4-1.5-5.6s-2.2-1.9-3.7-1.9c-1.4,0-2.7,0.7-3.7,2S551,397.3,551,399.8z"/>
	<path d="M581.7,407.1c-1.2,1-2.4,1.8-3.5,2.2c-1.1,0.4-2.4,0.6-3.7,0.6c-2.1,0-3.8-0.5-5-1.6c-1.2-1-1.7-2.4-1.7-4
		c0-1,0.2-1.8,0.7-2.6c0.4-0.8,1-1.4,1.7-1.9s1.5-0.8,2.4-1.1c0.7-0.2,1.6-0.3,2.9-0.5c2.7-0.3,4.6-0.7,5.9-1.1c0-0.5,0-0.7,0-0.9
		c0-1.4-0.3-2.3-0.9-2.9c-0.8-0.7-2.1-1.1-3.8-1.1c-1.6,0-2.7,0.3-3.5,0.8c-0.7,0.5-1.3,1.5-1.6,2.9l-3.2-0.4
		c0.3-1.4,0.8-2.5,1.5-3.4s1.7-1.5,2.9-2s2.8-0.7,4.4-0.7c1.7,0,3,0.2,4.1,0.6c1,0.4,1.8,0.9,2.3,1.5s0.8,1.3,1,2.3
		c0.1,0.6,0.2,1.6,0.2,3.1v4.4c0,3.1,0.1,5,0.2,5.8s0.4,1.6,0.8,2.3h-3.5C582,408.8,581.8,408,581.7,407.1z M581.5,399.7
		c-1.2,0.5-3,0.9-5.4,1.3c-1.4,0.2-2.3,0.4-2.9,0.7c-0.6,0.2-1,0.6-1.3,1.1s-0.5,1-0.5,1.6c0,0.9,0.3,1.6,1,2.2s1.6,0.9,2.9,0.9
		c1.3,0,2.4-0.3,3.4-0.8s1.7-1.3,2.2-2.3c0.4-0.7,0.5-1.9,0.5-3.3L581.5,399.7L581.5,399.7z"/>
	<path d="M589.8,417l-0.4-3.1c0.7,0.2,1.4,0.3,1.9,0.3c0.7,0,1.3-0.1,1.8-0.4c0.4-0.2,0.8-0.6,1.1-1c0.2-0.3,0.5-1.2,1-2.5
		c0.1-0.2,0.2-0.5,0.3-0.8l-7.4-19.6h3.6l4.1,11.3c0.5,1.4,1,2.9,1.4,4.5c0.4-1.5,0.8-3,1.4-4.5l4.2-11.4h3.3l-7.4,19.9
		c-0.8,2.1-1.4,3.6-1.9,4.4c-0.6,1.1-1.3,1.9-2,2.4c-0.8,0.5-1.7,0.8-2.7,0.8C591.3,417.4,590.6,417.3,589.8,417z"/>
	<path d="M607.5,403.6l3.3-0.5c0.2,1.3,0.7,2.3,1.5,3s2,1,3.5,1s2.7-0.3,3.4-0.9s1.1-1.3,1.1-2.2c0-0.7-0.3-1.3-1-1.8
		c-0.5-0.3-1.6-0.7-3.4-1.1c-2.4-0.6-4.1-1.1-5.1-1.6c-0.9-0.4-1.7-1.1-2.1-1.9c-0.5-0.8-0.7-1.7-0.7-2.6s0.2-1.7,0.6-2.4
		c0.4-0.7,0.9-1.4,1.6-1.9c0.5-0.4,1.2-0.7,2.1-1c0.9-0.3,1.8-0.4,2.9-0.4c1.5,0,2.9,0.2,4,0.7c1.2,0.4,2,1,2.6,1.8s0.9,1.8,1.1,3
		l-3.2,0.4c-0.1-1-0.6-1.8-1.3-2.4s-1.7-0.8-3-0.8c-1.5,0-2.6,0.3-3.3,0.8s-1,1.1-1,1.8c0,0.4,0.1,0.8,0.4,1.2
		c0.3,0.4,0.7,0.7,1.3,0.9c0.3,0.1,1.3,0.4,2.9,0.8c2.3,0.6,4,1.1,4.9,1.5s1.7,1,2.2,1.7c0.5,0.8,0.8,1.7,0.8,2.8
		c0,1.1-0.3,2.1-1,3.1c-0.6,1-1.6,1.7-2.8,2.3s-2.6,0.8-4.1,0.8c-2.5,0-4.5-0.5-5.8-1.6C608.7,407.3,607.8,405.7,607.5,403.6z"/>
	<path d="M640.4,407.1c-1.2,1-2.4,1.8-3.5,2.2c-1.1,0.4-2.4,0.6-3.7,0.6c-2.1,0-3.8-0.5-5-1.6c-1.2-1-1.7-2.4-1.7-4
		c0-1,0.2-1.8,0.7-2.6c0.4-0.8,1-1.4,1.7-1.9s1.5-0.8,2.4-1.1c0.7-0.2,1.6-0.3,2.9-0.5c2.7-0.3,4.6-0.7,5.9-1.1c0-0.5,0-0.7,0-0.9
		c0-1.4-0.3-2.3-0.9-2.9c-0.8-0.7-2.1-1.1-3.8-1.1c-1.6,0-2.7,0.3-3.5,0.8c-0.7,0.5-1.3,1.5-1.6,2.9l-3.2-0.4
		c0.3-1.4,0.8-2.5,1.5-3.4s1.7-1.5,2.9-2s2.8-0.7,4.4-0.7c1.7,0,3,0.2,4.1,0.6s1.8,0.9,2.3,1.5s0.8,1.3,1,2.3
		c0.1,0.6,0.2,1.6,0.2,3.1v4.4c0,3.1,0.1,5,0.2,5.8c0.1,0.8,0.4,1.6,0.8,2.3h-3.4C640.7,408.8,640.5,408,640.4,407.1z M640.1,399.7
		c-1.2,0.5-3,0.9-5.4,1.3c-1.4,0.2-2.3,0.4-2.9,0.7s-1,0.6-1.3,1.1s-0.5,1-0.5,1.6c0,0.9,0.3,1.6,1,2.2s1.6,0.9,2.9,0.9
		c1.3,0,2.4-0.3,3.4-0.8c1-0.6,1.7-1.3,2.2-2.3c0.4-0.7,0.5-1.9,0.5-3.3L640.1,399.7L640.1,399.7z"/>
	<path d="M648,411.1l3.2,0.5c0.1,1,0.5,1.7,1.1,2.2c0.8,0.6,1.9,0.9,3.4,0.9s2.7-0.3,3.6-0.9c0.8-0.6,1.4-1.5,1.7-2.6
		c0.2-0.7,0.3-2.1,0.2-4.3c-1.4,1.7-3.3,2.6-5.4,2.6c-2.7,0-4.8-1-6.2-2.9s-2.2-4.3-2.2-7c0-1.9,0.3-3.6,1-5.2s1.7-2.8,2.9-3.7
		c1.3-0.9,2.8-1.3,4.5-1.3c2.3,0,4.2,0.9,5.7,2.8v-2.4h3.1v16.9c0,3-0.3,5.2-0.9,6.5c-0.6,1.3-1.6,2.3-2.9,3s-3,1.1-5,1.1
		c-2.3,0-4.2-0.5-5.7-1.6C648.6,414.8,647.9,413.2,648,411.1z M650.7,399.4c0,2.6,0.5,4.4,1.5,5.6s2.3,1.8,3.8,1.8s2.8-0.6,3.8-1.8
		c1-1.2,1.5-3,1.5-5.5c0-2.4-0.5-4.2-1.6-5.4c-1.1-1.2-2.3-1.8-3.8-1.8s-2.7,0.6-3.8,1.8C651.3,395.2,650.7,397,650.7,399.4z"/>
	<path d="M682.9,403.2l3.4,0.4c-0.5,2-1.5,3.6-3,4.7s-3.3,1.7-5.6,1.7c-2.9,0-5.1-0.9-6.8-2.6c-1.7-1.8-2.5-4.2-2.5-7.4
		c0-3.3,0.8-5.8,2.5-7.7s3.9-2.7,6.6-2.7c2.6,0,4.7,0.9,6.4,2.7c1.7,1.8,2.5,4.3,2.5,7.5c0,0.2,0,0.5,0,0.9h-14.6
		c0.1,2.1,0.7,3.8,1.8,4.9s2.5,1.7,4.1,1.7c1.2,0,2.3-0.3,3.1-1C681.8,405.6,682.4,404.6,682.9,403.2z M672.1,397.8H683
		c-0.1-1.6-0.6-2.9-1.3-3.7c-1.1-1.3-2.4-1.9-4.1-1.9c-1.5,0-2.8,0.5-3.8,1.5S672.2,396.1,672.1,397.8z"/>
	<path d="M713.8,409.5v-2.9c-1.5,2.2-3.6,3.3-6.2,3.3c-1.2,0-2.2-0.2-3.2-0.7c-1-0.4-1.7-1-2.2-1.7s-0.8-1.5-1-2.5
		c-0.1-0.6-0.2-1.7-0.2-3.1v-12.1h3.3v10.8c0,1.7,0.1,2.9,0.2,3.5c0.2,0.9,0.7,1.6,1.3,2.1s1.5,0.7,2.5,0.7s1.9-0.3,2.8-0.8
		c0.9-0.5,1.5-1.2,1.8-2.1c0.4-0.9,0.5-2.1,0.5-3.8v-10.5h3.3v19.5L713.8,409.5L713.8,409.5z"/>
	<path d="M721.9,409.5V390h3v3c0.8-1.4,1.5-2.3,2.1-2.7c0.6-0.4,1.4-0.7,2.1-0.7c1.1,0,2.3,0.4,3.4,1.1l-1.1,3.1
		c-0.8-0.5-1.6-0.7-2.4-0.7c-0.7,0-1.4,0.2-2,0.7s-1,1-1.2,1.8c-0.4,1.2-0.6,2.5-0.6,3.9v10.2L721.9,409.5L721.9,409.5z"/>
	<path d="M737.6,409.5h-3.1v-27h3.3v9.6c1.4-1.8,3.2-2.6,5.4-2.6c1.2,0,2.3,0.2,3.4,0.7c1.1,0.5,2,1.2,2.7,2s1.2,1.9,1.6,3.2
		c0.4,1.2,0.6,2.6,0.6,4c0,3.4-0.8,5.9-2.5,7.8s-3.6,2.7-6,2.7c-2.3,0-4.1-1-5.4-2.9V409.5L737.6,409.5z M737.5,399.6
		c0,2.3,0.3,4,1,5.1c1,1.7,2.5,2.6,4.2,2.6c1.4,0,2.7-0.6,3.8-1.9s1.6-3.1,1.6-5.6c0-2.6-0.5-4.4-1.5-5.6s-2.2-1.8-3.7-1.8
		c-1.4,0-2.7,0.6-3.8,1.9C738.1,395.4,737.5,397.2,737.5,399.6z"/>
	<path d="M768.2,407.1c-1.2,1-2.4,1.8-3.5,2.2c-1.1,0.4-2.4,0.6-3.7,0.6c-2.1,0-3.8-0.5-5-1.6c-1.2-1-1.7-2.4-1.7-4
		c0-1,0.2-1.8,0.7-2.6c0.4-0.8,1-1.4,1.7-1.9s1.5-0.8,2.4-1.1c0.7-0.2,1.6-0.3,2.9-0.5c2.7-0.3,4.6-0.7,5.9-1.1c0-0.5,0-0.7,0-0.9
		c0-1.4-0.3-2.3-0.9-2.9c-0.8-0.7-2.1-1.1-3.8-1.1c-1.6,0-2.7,0.3-3.5,0.8c-0.7,0.5-1.3,1.5-1.6,2.9l-3.2-0.4
		c0.3-1.4,0.8-2.5,1.5-3.4s1.7-1.5,2.9-2s2.8-0.7,4.4-0.7c1.7,0,3,0.2,4.1,0.6s1.8,0.9,2.3,1.5s0.8,1.3,1,2.3
		c0.1,0.6,0.2,1.6,0.2,3.1v4.4c0,3.1,0.1,5,0.2,5.8c0.1,0.8,0.4,1.6,0.8,2.3h-3.5C768.6,408.8,768.3,408,768.2,407.1z M768,399.7
		c-1.2,0.5-3,0.9-5.4,1.3c-1.4,0.2-2.3,0.4-2.9,0.7s-1,0.6-1.3,1.1s-0.5,1-0.5,1.6c0,0.9,0.3,1.6,1,2.2s1.6,0.9,2.9,0.9
		c1.3,0,2.4-0.3,3.4-0.8c1-0.6,1.7-1.3,2.2-2.3c0.4-0.7,0.5-1.9,0.5-3.3L768,399.7L768,399.7z"/>
	<path d="M776.5,386.3v-3.8h3.3v3.8H776.5z M776.5,409.5V390h3.3v19.5H776.5z"/>
	<path d="M784.8,409.5V390h3v2.8c1.4-2.1,3.5-3.2,6.2-3.2c1.2,0,2.3,0.2,3.2,0.6c1,0.4,1.7,1,2.2,1.7s0.8,1.5,1,2.4
		c0.1,0.6,0.2,1.7,0.2,3.2v12h-3.3v-11.9c0-1.4-0.1-2.4-0.4-3s-0.7-1.2-1.4-1.6s-1.4-0.6-2.3-0.6c-1.4,0-2.6,0.4-3.7,1.3
		s-1.5,2.6-1.5,5.1v10.7H784.8L784.8,409.5z"/>
</g>
<g>
	<path d="M195.9,355.6c0-4.5,1.2-8,3.6-10.5c2.4-2.5,5.5-3.8,9.3-3.8c2.5,0,4.7,0.6,6.7,1.8s3.5,2.9,4.6,5c1,2.1,1.6,4.5,1.6,7.2
		s-0.6,5.2-1.7,7.3c-1.1,2.2-2.7,3.8-4.7,4.9s-4.2,1.7-6.6,1.7c-2.5,0-4.8-0.6-6.8-1.8c-2-1.2-3.5-2.9-4.5-5S195.9,358,195.9,355.6z
		 M199.6,355.6c0,3.3,0.9,5.8,2.6,7.7c1.7,1.9,3.9,2.8,6.6,2.8c2.7,0,4.9-0.9,6.6-2.8c1.7-1.9,2.6-4.6,2.6-8c0-2.2-0.4-4.1-1.1-5.8
		c-0.7-1.6-1.8-2.9-3.3-3.8c-1.4-0.9-3-1.4-4.8-1.4c-2.5,0-4.7,0.9-6.5,2.6C200.5,348.7,199.6,351.6,199.6,355.6z"/>
	<path d="M225.8,368.7v-19.5h3v3c0.8-1.4,1.5-2.3,2.1-2.7c0.6-0.4,1.4-0.7,2.1-0.7c1.1,0,2.3,0.4,3.4,1.1l-1.1,3.1
		c-0.8-0.5-1.6-0.7-2.4-0.7c-0.7,0-1.4,0.2-2,0.7s-1,1-1.2,1.8c-0.4,1.2-0.6,2.5-0.6,3.9v10.2L225.8,368.7L225.8,368.7z"/>
	<path d="M237.8,370.4l3.2,0.5c0.1,1,0.5,1.7,1.1,2.2c0.8,0.6,1.9,0.9,3.4,0.9s2.7-0.3,3.6-0.9c0.8-0.6,1.4-1.5,1.7-2.6
		c0.2-0.7,0.3-2.1,0.2-4.3c-1.4,1.7-3.3,2.6-5.4,2.6c-2.7,0-4.8-1-6.2-2.9s-2.2-4.3-2.2-7c0-1.9,0.3-3.6,1-5.2s1.7-2.8,2.9-3.7
		c1.3-0.9,2.8-1.3,4.5-1.3c2.3,0,4.2,0.9,5.7,2.8v-2.4h3.1V366c0,3-0.3,5.2-0.9,6.5c-0.6,1.3-1.6,2.3-2.9,3s-3,1.1-5,1.1
		c-2.3,0-4.2-0.5-5.7-1.6C238.5,374,237.8,372.5,237.8,370.4z M240.6,358.6c0,2.6,0.5,4.4,1.5,5.6s2.3,1.8,3.8,1.8s2.8-0.6,3.8-1.8
		c1-1.2,1.5-3,1.5-5.5c0-2.4-0.5-4.2-1.6-5.4s-2.3-1.8-3.8-1.8s-2.7,0.6-3.8,1.8S240.6,356.3,240.6,358.6z"/>
	<path d="M272.1,366.3c-1.2,1-2.4,1.8-3.5,2.2c-1.1,0.4-2.4,0.6-3.7,0.6c-2.1,0-3.8-0.5-5-1.6c-1.2-1-1.7-2.4-1.7-4
		c0-1,0.2-1.8,0.7-2.6c0.4-0.8,1-1.4,1.7-1.9s1.5-0.8,2.4-1.1c0.6-0.2,1.6-0.3,2.9-0.5c2.7-0.3,4.6-0.7,5.9-1.1c0-0.5,0-0.7,0-0.9
		c0-1.4-0.3-2.3-0.9-2.9c-0.8-0.7-2.1-1.1-3.8-1.1c-1.6,0-2.7,0.3-3.5,0.8c-0.7,0.5-1.3,1.5-1.6,2.9l-3.2-0.4
		c0.3-1.4,0.8-2.5,1.5-3.4s1.6-1.5,2.9-2s2.8-0.7,4.4-0.7c1.7,0,3,0.2,4.1,0.6c1,0.4,1.8,0.9,2.3,1.5s0.8,1.3,1,2.3
		c0.1,0.6,0.2,1.6,0.2,3.1v4.4c0,3.1,0.1,5,0.2,5.8s0.4,1.6,0.8,2.3h-3.5C272.5,368,272.2,367.2,272.1,366.3z M271.9,358.9
		c-1.2,0.5-3,0.9-5.4,1.3c-1.4,0.2-2.3,0.4-2.9,0.7c-0.6,0.2-1,0.6-1.3,1.1s-0.5,1-0.5,1.6c0,0.9,0.3,1.6,1,2.2s1.6,0.9,2.9,0.9
		s2.4-0.3,3.4-0.8s1.7-1.3,2.2-2.3c0.4-0.7,0.5-1.9,0.5-3.3L271.9,358.9L271.9,358.9z"/>
	<path d="M280.4,368.7v-19.5h3v2.8c1.4-2.1,3.5-3.2,6.2-3.2c1.2,0,2.3,0.2,3.2,0.6c1,0.4,1.7,1,2.2,1.7s0.8,1.5,1,2.4
		c0.1,0.6,0.2,1.7,0.2,3.2v12h-3.3v-11.9c0-1.4-0.1-2.4-0.4-3c-0.3-0.7-0.7-1.2-1.4-1.6c-0.7-0.4-1.4-0.6-2.3-0.6
		c-1.4,0-2.6,0.4-3.7,1.3s-1.5,2.6-1.5,5.1v10.7H280.4L280.4,368.7z"/>
	<path d="M301.3,345.6v-3.8h3.3v3.8H301.3z M301.3,368.7v-19.5h3.3v19.5H301.3z"/>
	<path d="M308.4,362.9l3.3-0.5c0.2,1.3,0.7,2.3,1.5,3s2,1,3.5,1s2.7-0.3,3.4-0.9s1.1-1.3,1.1-2.2c0-0.7-0.3-1.3-1-1.8
		c-0.5-0.3-1.6-0.7-3.4-1.1c-2.4-0.6-4.1-1.1-5.1-1.6c-0.9-0.4-1.7-1.1-2.1-1.9c-0.5-0.8-0.7-1.7-0.7-2.6s0.2-1.7,0.6-2.4
		c0.4-0.7,0.9-1.4,1.6-1.9c0.5-0.4,1.2-0.7,2.1-1s1.8-0.4,2.9-0.4c1.5,0,2.9,0.2,4,0.7c1.2,0.4,2,1,2.6,1.8s0.9,1.8,1.1,3l-3.2,0.4
		c-0.1-1-0.6-1.8-1.3-2.4c-0.7-0.6-1.7-0.8-3-0.8c-1.5,0-2.6,0.3-3.3,0.8c-0.6,0.5-1,1.1-1,1.8c0,0.4,0.1,0.8,0.4,1.2
		c0.3,0.4,0.7,0.7,1.3,0.9c0.3,0.1,1.3,0.4,2.9,0.8c2.3,0.6,4,1.1,4.9,1.5s1.7,1,2.2,1.7c0.5,0.8,0.8,1.7,0.8,2.8
		c0,1.1-0.3,2.1-1,3.1c-0.6,1-1.6,1.7-2.8,2.3s-2.6,0.8-4.1,0.8c-2.5,0-4.5-0.5-5.8-1.6C309.6,366.5,308.7,365,308.4,362.9z"/>
	<path d="M341.3,366.3c-1.2,1-2.4,1.8-3.5,2.2c-1.1,0.4-2.4,0.6-3.7,0.6c-2.1,0-3.8-0.5-5-1.6c-1.2-1-1.7-2.4-1.7-4
		c0-1,0.2-1.8,0.7-2.6c0.4-0.8,1-1.4,1.7-1.9s1.5-0.8,2.4-1.1c0.6-0.2,1.6-0.3,2.9-0.5c2.7-0.3,4.6-0.7,5.9-1.1c0-0.5,0-0.7,0-0.9
		c0-1.4-0.3-2.3-0.9-2.9c-0.8-0.7-2.1-1.1-3.8-1.1c-1.6,0-2.7,0.3-3.5,0.8c-0.7,0.5-1.3,1.5-1.6,2.9l-3.2-0.4
		c0.3-1.4,0.8-2.5,1.5-3.4s1.6-1.5,2.9-2s2.8-0.7,4.4-0.7c1.7,0,3,0.2,4.1,0.6c1,0.4,1.8,0.9,2.3,1.5s0.8,1.3,1,2.3
		c0.1,0.6,0.2,1.6,0.2,3.1v4.4c0,3.1,0.1,5,0.2,5.8s0.4,1.6,0.8,2.3h-3.5C341.6,368,341.4,367.2,341.3,366.3z M341,358.9
		c-1.2,0.5-3,0.9-5.4,1.3c-1.4,0.2-2.3,0.4-2.9,0.7c-0.6,0.2-1,0.6-1.3,1.1s-0.5,1-0.5,1.6c0,0.9,0.3,1.6,1,2.2s1.6,0.9,2.9,0.9
		s2.4-0.3,3.4-0.8s1.7-1.3,2.2-2.3c0.4-0.7,0.5-1.9,0.5-3.3L341,358.9L341,358.9z"/>
	<path d="M356.7,365.8l0.5,2.9c-0.9,0.2-1.8,0.3-2.5,0.3c-1.2,0-2.1-0.2-2.8-0.6c-0.7-0.4-1.1-0.9-1.4-1.5s-0.4-1.9-0.4-3.9v-11.2
		h-2.4v-2.6h2.4v-4.8l3.3-2v6.8h3.3v2.6h-3.3v11.4c0,0.9,0.1,1.6,0.2,1.8c0.1,0.3,0.3,0.5,0.6,0.6s0.6,0.2,1.1,0.2
		C355.7,365.9,356.1,365.9,356.7,365.8z"/>
	<path d="M360,345.6v-3.8h3.3v3.8H360z M360,368.7v-19.5h3.3v19.5H360z"/>
	<path d="M367.1,359c0-3.6,1-6.3,3-8c1.7-1.4,3.7-2.2,6.1-2.2c2.7,0,4.9,0.9,6.6,2.6s2.6,4.2,2.6,7.3c0,2.5-0.4,4.5-1.1,5.9
		c-0.8,1.4-1.9,2.6-3.3,3.4s-3,1.2-4.7,1.2c-2.7,0-4.9-0.9-6.6-2.6C368,364.8,367.1,362.3,367.1,359z M370.5,359
		c0,2.5,0.5,4.4,1.6,5.6s2.5,1.9,4.1,1.9s3-0.6,4.1-1.9s1.6-3.2,1.6-5.7c0-2.4-0.5-4.2-1.6-5.5c-1.1-1.2-2.5-1.9-4.1-1.9
		c-1.7,0-3,0.6-4.1,1.9C371.1,354.6,370.5,356.5,370.5,359z"/>
	<path d="M389.3,368.7v-19.5h3v2.8c1.4-2.1,3.5-3.2,6.2-3.2c1.2,0,2.3,0.2,3.2,0.6c1,0.4,1.7,1,2.2,1.7s0.8,1.5,1,2.4
		c0.1,0.6,0.2,1.7,0.2,3.2v12h-3.3v-11.9c0-1.4-0.1-2.4-0.4-3c-0.3-0.7-0.7-1.2-1.4-1.6c-0.7-0.4-1.4-0.6-2.3-0.6
		c-1.4,0-2.6,0.4-3.7,1.3s-1.5,2.6-1.5,5.1v10.7H389.3L389.3,368.7z"/>
</g>
<g>
	<path d="M117.1,409.9v-2.5c-1.2,1.9-3.1,2.9-5.5,2.9c-1.6,0-3-0.4-4.3-1.3s-2.3-2.1-3-3.6s-1.1-3.3-1.1-5.3s0.3-3.7,1-5.3
		c0.7-1.6,1.6-2.8,2.9-3.7c1.3-0.8,2.8-1.3,4.4-1.3c1.2,0,2.2,0.2,3.1,0.7s1.7,1.1,2.2,1.9v-9.7h3.3v27L117.1,409.9L117.1,409.9z
		 M106.6,400.1c0,2.5,0.5,4.4,1.6,5.6s2.3,1.9,3.7,1.9c1.4,0,2.7-0.6,3.7-1.8c1-1.2,1.5-3,1.5-5.4c0-2.7-0.5-4.6-1.5-5.9
		s-2.3-1.9-3.8-1.9s-2.7,0.6-3.7,1.8C107.1,395.6,106.6,397.5,106.6,400.1z"/>
	<path d="M138.7,403.6l3.4,0.4c-0.5,2-1.5,3.6-3,4.7s-3.3,1.7-5.6,1.7c-2.9,0-5.1-0.9-6.8-2.6c-1.7-1.8-2.5-4.2-2.5-7.4
		c0-3.3,0.8-5.8,2.5-7.7c1.7-1.8,3.9-2.7,6.6-2.7c2.6,0,4.7,0.9,6.4,2.7c1.7,1.8,2.5,4.3,2.5,7.5c0,0.2,0,0.5,0,0.9h-14.6
		c0.1,2.1,0.7,3.8,1.8,4.9s2.5,1.7,4.1,1.7c1.2,0,2.3-0.3,3.1-1C137.5,406,138.2,405,138.7,403.6z M127.8,398.2h10.9
		c-0.1-1.6-0.6-2.9-1.3-3.7c-1.1-1.3-2.4-1.9-4.1-1.9c-1.5,0-2.8,0.5-3.8,1.5C128.5,395.1,128,396.5,127.8,398.2z"/>
	<path d="M145,404l3.3-0.5c0.2,1.3,0.7,2.3,1.5,3s2,1,3.5,1s2.7-0.3,3.4-0.9s1.1-1.3,1.1-2.2c0-0.7-0.3-1.3-1-1.8
		c-0.5-0.3-1.6-0.7-3.4-1.1c-2.4-0.6-4.1-1.1-5.1-1.6c-0.9-0.4-1.7-1.1-2.1-1.9c-0.5-0.8-0.7-1.7-0.7-2.6s0.2-1.7,0.6-2.4
		c0.4-0.7,0.9-1.4,1.6-1.9c0.5-0.4,1.2-0.7,2.1-1c0.9-0.3,1.8-0.4,2.9-0.4c1.5,0,2.9,0.2,4,0.7c1.2,0.4,2,1,2.6,1.8s0.9,1.8,1.1,3
		l-3.2,0.4c-0.1-1-0.6-1.8-1.3-2.4s-1.7-0.8-3-0.8c-1.5,0-2.6,0.3-3.3,0.8c-0.6,0.5-1,1.1-1,1.8c0,0.4,0.1,0.8,0.4,1.2
		c0.3,0.4,0.7,0.7,1.3,0.9c0.3,0.1,1.3,0.4,2.9,0.8c2.3,0.6,4,1.1,4.9,1.5s1.7,1,2.2,1.7c0.5,0.8,0.8,1.7,0.8,2.8
		c0,1.1-0.3,2.1-1,3.1c-0.6,1-1.6,1.7-2.8,2.3s-2.6,0.8-4.1,0.8c-2.5,0-4.5-0.5-5.8-1.6C146.2,407.7,145.3,406.1,145,404z"/>
	<path d="M176,409.9v-27h3.7l14.2,21.2v-21.2h3.4v27h-3.7l-14.2-21.2v21.2H176L176,409.9z"/>
	<path d="M215.6,407.5c-1.2,1-2.4,1.8-3.5,2.2c-1.1,0.4-2.4,0.6-3.7,0.6c-2.1,0-3.8-0.5-5-1.6c-1.2-1-1.7-2.4-1.7-4
		c0-1,0.2-1.8,0.7-2.6c0.4-0.8,1-1.4,1.7-1.9s1.5-0.8,2.4-1.1c0.6-0.2,1.6-0.3,2.9-0.5c2.7-0.3,4.6-0.7,5.9-1.1c0-0.5,0-0.7,0-0.9
		c0-1.4-0.3-2.3-0.9-2.9c-0.8-0.7-2.1-1.1-3.8-1.1c-1.6,0-2.7,0.3-3.5,0.8c-0.7,0.5-1.3,1.5-1.6,2.9l-3.2-0.4
		c0.3-1.4,0.8-2.5,1.5-3.4s1.6-1.5,2.9-2s2.8-0.7,4.4-0.7c1.7,0,3,0.2,4.1,0.6c1,0.4,1.8,0.9,2.3,1.5s0.8,1.3,1,2.3
		c0.1,0.6,0.2,1.6,0.2,3.1v4.4c0,3.1,0.1,5,0.2,5.8s0.4,1.6,0.8,2.3h-3.5C215.9,409.2,215.7,408.4,215.6,407.5z M215.3,400
		c-1.2,0.5-3,0.9-5.4,1.3c-1.4,0.2-2.3,0.4-2.9,0.7c-0.6,0.2-1,0.6-1.3,1.1s-0.5,1-0.5,1.6c0,0.9,0.3,1.6,1,2.2s1.6,0.9,2.9,0.9
		c1.3,0,2.4-0.3,3.4-0.8s1.7-1.3,2.2-2.3c0.4-0.7,0.5-1.9,0.5-3.3L215.3,400L215.3,400z"/>
	<path d="M231,406.9l0.5,2.9c-0.9,0.2-1.8,0.3-2.5,0.3c-1.2,0-2.1-0.2-2.8-0.6s-1.1-0.9-1.4-1.5c-0.3-0.6-0.4-1.9-0.4-3.9v-11.2H222
		v-2.6h2.4v-4.8l3.3-2v6.8h3.3v2.6h-3.3v11.4c0,0.9,0.1,1.6,0.2,1.8s0.3,0.5,0.6,0.6c0.3,0.2,0.6,0.2,1.1,0.2
		C230,407,230.4,407,231,406.9z"/>
	<path d="M234.3,386.7v-3.8h3.3v3.8H234.3z M234.3,409.9v-19.5h3.3v19.5H234.3z"/>
	<path d="M241.4,400.1c0-3.6,1-6.3,3-8c1.7-1.4,3.7-2.2,6.1-2.2c2.7,0,4.9,0.9,6.6,2.6c1.7,1.7,2.6,4.2,2.6,7.3
		c0,2.5-0.4,4.5-1.1,5.9c-0.8,1.4-1.9,2.6-3.3,3.4s-3,1.2-4.7,1.2c-2.7,0-4.9-0.9-6.6-2.6C242.3,405.9,241.4,403.4,241.4,400.1z
		 M244.8,400.1c0,2.5,0.5,4.4,1.6,5.6s2.5,1.9,4.1,1.9s3-0.6,4.1-1.9s1.6-3.2,1.6-5.7c0-2.4-0.5-4.2-1.6-5.5
		c-1.1-1.2-2.5-1.9-4.1-1.9c-1.7,0-3,0.6-4.1,1.9C245.4,395.7,244.8,397.6,244.8,400.1z"/>
	<path d="M263.6,409.9v-19.5h3v2.8c1.4-2.1,3.5-3.2,6.2-3.2c1.2,0,2.3,0.2,3.2,0.6c1,0.4,1.7,1,2.2,1.7s0.8,1.5,1,2.4
		c0.1,0.6,0.2,1.7,0.2,3.2v12h-3.3V398c0-1.4-0.1-2.4-0.4-3c-0.3-0.7-0.7-1.2-1.4-1.6c-0.7-0.4-1.4-0.6-2.3-0.6
		c-1.4,0-2.6,0.4-3.7,1.3s-1.5,2.6-1.5,5.1v10.7H263.6L263.6,409.9z"/>
	<path d="M283.3,404l3.3-0.5c0.2,1.3,0.7,2.3,1.5,3s2,1,3.5,1s2.7-0.3,3.4-0.9s1.1-1.3,1.1-2.2c0-0.7-0.3-1.3-1-1.8
		c-0.5-0.3-1.6-0.7-3.4-1.1c-2.4-0.6-4.1-1.1-5.1-1.6c-0.9-0.4-1.7-1.1-2.1-1.9c-0.5-0.8-0.7-1.7-0.7-2.6s0.2-1.7,0.6-2.4
		c0.4-0.7,0.9-1.4,1.6-1.9c0.5-0.4,1.2-0.7,2.1-1s1.8-0.4,2.9-0.4c1.5,0,2.9,0.2,4,0.7c1.2,0.4,2,1,2.6,1.8s0.9,1.8,1.1,3l-3.2,0.4
		c-0.1-1-0.6-1.8-1.3-2.4c-0.7-0.6-1.7-0.8-3-0.8c-1.5,0-2.6,0.3-3.3,0.8c-0.6,0.5-1,1.1-1,1.8c0,0.4,0.1,0.8,0.4,1.2
		c0.3,0.4,0.7,0.7,1.3,0.9c0.3,0.1,1.3,0.4,2.9,0.8c2.3,0.6,4,1.1,4.9,1.5s1.7,1,2.2,1.7c0.5,0.8,0.8,1.7,0.8,2.8
		c0,1.1-0.3,2.1-1,3.1c-0.6,1-1.6,1.7-2.8,2.3s-2.6,0.8-4.1,0.8c-2.5,0-4.5-0.5-5.8-1.6C284.5,407.7,283.6,406.1,283.3,404z"/>
	<path d="M332.1,382.9h3.6v15.6c0,2.7-0.3,4.9-0.9,6.5s-1.7,2.9-3.3,3.9c-1.6,1-3.7,1.5-6.3,1.5c-2.5,0-4.6-0.4-6.2-1.3
		s-2.8-2.1-3.4-3.8c-0.7-1.6-1-3.9-1-6.8v-15.6h3.6v15.6c0,2.3,0.2,4.1,0.7,5.2c0.4,1.1,1.2,2,2.2,2.6c1.1,0.6,2.4,0.9,3.9,0.9
		c2.6,0,4.5-0.6,5.6-1.8c1.1-1.2,1.7-3.5,1.7-6.9L332.1,382.9L332.1,382.9z"/>
	<path d="M341.1,409.9v-19.5h3v2.8c1.4-2.1,3.5-3.2,6.2-3.2c1.2,0,2.3,0.2,3.2,0.6c1,0.4,1.7,1,2.2,1.7s0.8,1.5,1,2.4
		c0.1,0.6,0.2,1.7,0.2,3.2v12h-3.3V398c0-1.4-0.1-2.4-0.4-3c-0.3-0.7-0.7-1.2-1.4-1.6c-0.7-0.4-1.4-0.6-2.3-0.6
		c-1.4,0-2.6,0.4-3.7,1.3s-1.5,2.6-1.5,5.1v10.7H341.1L341.1,409.9z"/>
	<path d="M362.1,386.7v-3.8h3.3v3.8H362.1z M362.1,409.9v-19.5h3.3v19.5H362.1z"/>
	<path d="M383.9,403.6l3.4,0.4c-0.5,2-1.5,3.6-3,4.7s-3.3,1.7-5.6,1.7c-2.9,0-5.1-0.9-6.8-2.6c-1.7-1.8-2.5-4.2-2.5-7.4
		c0-3.3,0.8-5.8,2.5-7.7c1.7-1.8,3.9-2.7,6.6-2.7c2.6,0,4.7,0.9,6.4,2.7c1.7,1.8,2.5,4.3,2.5,7.5c0,0.2,0,0.5,0,0.9h-14.6
		c0.1,2.1,0.7,3.8,1.8,4.9c1.1,1.1,2.5,1.7,4.1,1.7c1.2,0,2.3-0.3,3.1-1C382.7,406,383.4,405,383.9,403.6z M373,398.2h10.9
		c-0.1-1.6-0.6-2.9-1.3-3.7c-1.1-1.3-2.4-1.9-4.1-1.9c-1.5,0-2.8,0.5-3.8,1.5S373.1,396.5,373,398.2z"/>
	<path d="M390.1,404l3.3-0.5c0.2,1.3,0.7,2.3,1.5,3s2,1,3.5,1s2.7-0.3,3.4-0.9s1.1-1.3,1.1-2.2c0-0.7-0.3-1.3-1-1.8
		c-0.5-0.3-1.6-0.7-3.4-1.1c-2.4-0.6-4.1-1.1-5.1-1.6c-0.9-0.4-1.7-1.1-2.1-1.9c-0.5-0.8-0.7-1.7-0.7-2.6s0.2-1.7,0.6-2.4
		c0.4-0.7,0.9-1.4,1.6-1.9c0.5-0.4,1.2-0.7,2.1-1s1.8-0.4,2.9-0.4c1.5,0,2.9,0.2,4,0.7c1.2,0.4,2,1,2.6,1.8s0.9,1.8,1.1,3l-3.2,0.4
		c-0.1-1-0.6-1.8-1.3-2.4c-0.7-0.6-1.7-0.8-3-0.8c-1.5,0-2.6,0.3-3.3,0.8c-0.6,0.5-1,1.1-1,1.8c0,0.4,0.1,0.8,0.4,1.2
		c0.3,0.4,0.7,0.7,1.3,0.9c0.3,0.1,1.3,0.4,2.9,0.8c2.3,0.6,4,1.1,4.9,1.5s1.7,1,2.2,1.7c0.5,0.8,0.8,1.7,0.8,2.8
		c0,1.1-0.3,2.1-1,3.1c-0.6,1-1.6,1.7-2.8,2.3s-2.6,0.8-4.1,0.8c-2.5,0-4.5-0.5-5.8-1.6C391.3,407.7,390.5,406.1,390.1,404z"/>
</g>
<g>
	<path d="M144.1,458.5v-27h3v2.5c0.7-1,1.5-1.7,2.4-2.2s2-0.7,3.3-0.7c1.7,0,3.1,0.4,4.4,1.3c1.3,0.9,2.2,2.1,2.9,3.6
		c0.6,1.6,1,3.3,1,5.1c0,2-0.4,3.8-1.1,5.4c-0.7,1.6-1.8,2.8-3.1,3.7c-1.4,0.9-2.8,1.3-4.3,1.3c-1.1,0-2.1-0.2-3-0.7
		s-1.6-1.1-2.2-1.8v9.5L144.1,458.5L144.1,458.5z M147.1,441.3c0,2.5,0.5,4.4,1.5,5.6s2.3,1.8,3.7,1.8c1.5,0,2.7-0.6,3.8-1.9
		c1-1.2,1.6-3.2,1.6-5.8c0-2.5-0.5-4.4-1.5-5.6s-2.2-1.9-3.7-1.9c-1.4,0-2.7,0.7-3.7,2S147.1,438.8,147.1,441.3z"/>
	<path d="M163.9,441.2c0-3.6,1-6.3,3-8c1.7-1.4,3.7-2.2,6.1-2.2c2.7,0,4.9,0.9,6.6,2.6s2.6,4.2,2.6,7.3c0,2.5-0.4,4.5-1.1,5.9
		c-0.8,1.4-1.9,2.6-3.3,3.4c-1.4,0.8-3,1.2-4.7,1.2c-2.7,0-4.9-0.9-6.6-2.6C164.7,447,163.9,444.5,163.9,441.2z M167.3,441.2
		c0,2.5,0.5,4.4,1.6,5.6s2.5,1.9,4.1,1.9s3-0.6,4.1-1.9s1.6-3.2,1.6-5.7c0-2.4-0.5-4.2-1.6-5.5c-1.1-1.2-2.5-1.9-4.1-1.9
		c-1.7,0-3,0.6-4.1,1.9C167.8,436.8,167.3,438.7,167.3,441.2z"/>
	<path d="M198.9,451v-2.9c-1.5,2.2-3.6,3.3-6.2,3.3c-1.2,0-2.2-0.2-3.2-0.7c-1-0.4-1.7-1-2.2-1.7s-0.8-1.5-1-2.5
		c-0.1-0.6-0.2-1.7-0.2-3.1v-12.1h3.3v10.8c0,1.7,0.1,2.9,0.2,3.5c0.2,0.9,0.6,1.6,1.3,2.1s1.5,0.7,2.5,0.7s1.9-0.3,2.8-0.8
		c0.9-0.5,1.5-1.2,1.9-2.1s0.5-2.1,0.5-3.8v-10.5h3.3V451H198.9L198.9,451z"/>
	<path d="M207,451v-19.5h3v3c0.8-1.4,1.5-2.3,2.1-2.7c0.6-0.4,1.4-0.7,2.1-0.7c1.1,0,2.3,0.4,3.4,1.1l-1.1,3.1
		c-0.8-0.5-1.6-0.7-2.4-0.7c-0.7,0-1.4,0.2-2,0.7s-1,1-1.2,1.8c-0.4,1.2-0.6,2.5-0.6,3.9v10H207L207,451z"/>
	<path d="M230,451v-27h3.3v27H230L230,451z"/>
	<path d="M238.2,427.6v-3.8h3.6v3c0,1.6-0.2,2.8-0.6,3.6c-0.5,1-1.4,1.7-2.5,2.2l-0.8-1.3c0.7-0.3,1.2-0.7,1.5-1.3s0.5-1.4,0.5-2.4
		L238.2,427.6L238.2,427.6z"/>
	<path d="M260.2,444.7l3.4,0.4c-0.5,2-1.5,3.6-3,4.7s-3.3,1.7-5.6,1.7c-2.9,0-5.1-0.9-6.8-2.6c-1.7-1.8-2.5-4.2-2.5-7.4
		c0-3.3,0.8-5.8,2.5-7.7c1.7-1.8,3.9-2.7,6.6-2.7c2.6,0,4.7,0.9,6.4,2.7c1.7,1.8,2.5,4.3,2.5,7.5c0,0.2,0,0.5,0,0.9h-14.6
		c0.1,2.1,0.7,3.8,1.8,4.9s2.5,1.7,4.1,1.7c1.2,0,2.3-0.3,3.1-1C259,447.1,259.7,446.1,260.2,444.7z M249.3,439.3h10.9
		c-0.1-1.6-0.6-2.9-1.3-3.7c-1.1-1.3-2.4-1.9-4.1-1.9c-1.5,0-2.8,0.5-3.8,1.5C250,436.3,249.4,437.6,249.3,439.3z M252.9,429
		l2.4-5.2h4.3l-4,5.2H252.9z"/>
	<path d="M280.5,451v-2.5c-1.2,1.9-3.1,2.9-5.5,2.9c-1.6,0-3-0.4-4.3-1.3s-2.3-2.1-3-3.6s-1.1-3.3-1.1-5.3s0.3-3.7,1-5.3
		c0.6-1.6,1.6-2.8,2.9-3.7c1.3-0.8,2.8-1.3,4.4-1.3c1.2,0,2.2,0.2,3.1,0.7s1.7,1.1,2.2,1.9V424h3.3v27H280.5L280.5,451z M270,441.2
		c0,2.5,0.5,4.4,1.6,5.6s2.3,1.9,3.7,1.9c1.4,0,2.7-0.6,3.7-1.8c1-1.2,1.5-3,1.5-5.4c0-2.7-0.5-4.6-1.5-5.9s-2.3-1.9-3.8-1.9
		s-2.7,0.6-3.7,1.8C270.5,436.7,270,438.6,270,441.2z"/>
	<path d="M301.6,451v-2.9c-1.5,2.2-3.6,3.3-6.2,3.3c-1.2,0-2.2-0.2-3.2-0.7c-1-0.4-1.7-1-2.2-1.7s-0.8-1.5-1-2.5
		c-0.1-0.6-0.2-1.7-0.2-3.1v-12.1h3.3v10.8c0,1.7,0.1,2.9,0.2,3.5c0.2,0.9,0.6,1.6,1.3,2.1s1.5,0.7,2.5,0.7s1.9-0.3,2.8-0.8
		s1.5-1.2,1.9-2.1s0.5-2.1,0.5-3.8v-10.5h3.3V451H301.6L301.6,451z"/>
	<path d="M322.5,443.8l3.3,0.4c-0.4,2.2-1.3,4-2.7,5.3s-3.3,1.9-5.4,1.9c-2.7,0-4.8-0.9-6.5-2.6c-1.6-1.7-2.4-4.3-2.4-7.5
		c0-2.1,0.4-4,1-5.5c0.7-1.6,1.8-2.8,3.2-3.6c1.4-0.8,3-1.2,4.7-1.2c2.1,0,3.9,0.5,5.2,1.6c1.4,1.1,2.2,2.6,2.6,4.6l-3.2,0.5
		c-0.3-1.3-0.9-2.3-1.6-3c-0.8-0.7-1.7-1-2.8-1c-1.7,0-3,0.6-4.1,1.8c-1,1.2-1.6,3.1-1.6,5.7s0.5,4.5,1.5,5.7s2.3,1.8,3.9,1.8
		c1.3,0,2.4-0.4,3.3-1.2C321.7,446.7,322.2,445.5,322.5,443.8z"/>
	<path d="M341.3,448.6c-1.2,1-2.4,1.8-3.5,2.2c-1.1,0.4-2.4,0.6-3.7,0.6c-2.1,0-3.8-0.5-5-1.6c-1.2-1-1.7-2.4-1.7-4
		c0-1,0.2-1.8,0.7-2.6c0.4-0.8,1-1.4,1.7-1.9s1.5-0.8,2.4-1.1c0.6-0.2,1.6-0.3,2.9-0.5c2.7-0.3,4.6-0.7,5.9-1.1c0-0.5,0-0.7,0-0.9
		c0-1.4-0.3-2.3-0.9-2.9c-0.8-0.7-2.1-1.1-3.8-1.1c-1.6,0-2.7,0.3-3.5,0.8c-0.7,0.5-1.3,1.5-1.6,2.9L328,437
		c0.3-1.4,0.8-2.5,1.5-3.4s1.6-1.5,2.9-2s2.8-0.7,4.4-0.7c1.7,0,3,0.2,4.1,0.6c1,0.4,1.8,0.9,2.3,1.5s0.8,1.3,1,2.3
		c0.1,0.6,0.2,1.6,0.2,3.1v4.4c0,3.1,0.1,5,0.2,5.8s0.4,1.6,0.8,2.3h-3.5C341.6,450.3,341.4,449.5,341.3,448.6z M341,441.2
		c-1.2,0.5-3,0.9-5.4,1.3c-1.4,0.2-2.3,0.4-2.9,0.7c-0.6,0.2-1,0.6-1.3,1.1s-0.5,1-0.5,1.6c0,0.9,0.3,1.6,1,2.2s1.6,0.9,2.9,0.9
		s2.4-0.3,3.4-0.8s1.7-1.3,2.2-2.3c0.4-0.7,0.5-1.9,0.5-3.3L341,441.2L341,441.2z"/>
	<path d="M356.8,448l0.5,2.9c-0.9,0.2-1.8,0.3-2.5,0.3c-1.2,0-2.1-0.2-2.8-0.6c-0.7-0.4-1.1-0.9-1.4-1.5s-0.4-1.9-0.4-3.9V434h-2.4
		v-2.6h2.4v-4.8l3.3-2v6.8h3.3v2.6h-3.3v11.4c0,0.9,0.1,1.6,0.2,1.8c0.1,0.3,0.3,0.5,0.6,0.6s0.6,0.2,1.1,0.2
		C355.7,448.2,356.2,448.1,356.8,448z"/>
	<path d="M360,427.8V424h3.3v3.8H360z M360,451v-19.5h3.3V451H360z"/>
	<path d="M367.1,441.2c0-3.6,1-6.3,3-8c1.7-1.4,3.7-2.2,6.1-2.2c2.7,0,4.9,0.9,6.6,2.6s2.6,4.2,2.6,7.3c0,2.5-0.4,4.5-1.1,5.9
		c-0.8,1.4-1.9,2.6-3.3,3.4s-3,1.2-4.7,1.2c-2.7,0-4.9-0.9-6.6-2.6C368,447,367.1,444.5,367.1,441.2z M370.6,441.2
		c0,2.5,0.5,4.4,1.6,5.6s2.5,1.9,4.1,1.9s3-0.6,4.1-1.9s1.6-3.2,1.6-5.7c0-2.4-0.5-4.2-1.6-5.5c-1.1-1.2-2.5-1.9-4.1-1.9
		c-1.7,0-3,0.6-4.1,1.9C371.1,436.8,370.6,438.7,370.6,441.2z"/>
	<path d="M389.3,451v-19.5h3v2.8c1.4-2.1,3.5-3.2,6.2-3.2c1.2,0,2.3,0.2,3.2,0.6c1,0.4,1.7,1,2.2,1.7s0.8,1.5,1,2.4
		c0.1,0.6,0.2,1.7,0.2,3.2v12h-3.3v-11.9c0-1.4-0.1-2.4-0.4-3c-0.3-0.7-0.7-1.2-1.4-1.6c-0.7-0.4-1.4-0.6-2.3-0.6
		c-1.4,0-2.6,0.4-3.7,1.3s-1.5,2.6-1.5,5.1V451H389.3L389.3,451z"/>
	<path d="M411.2,451v-3.8h3.8v3.8c0,1.4-0.2,2.5-0.7,3.4s-1.3,1.5-2.3,2l-0.9-1.4c0.7-0.3,1.2-0.8,1.5-1.4s0.5-1.5,0.6-2.6H411.2
		L411.2,451z"/>
</g>
<g>
	<path d="M37.3,492.1v-27h3.3v27H37.3z"/>
	<path d="M58.5,489.7c-1.2,1-2.4,1.8-3.5,2.2c-1.1,0.4-2.4,0.6-3.7,0.6c-2.1,0-3.8-0.5-5-1.6c-1.2-1-1.7-2.4-1.7-4
		c0-1,0.2-1.8,0.7-2.6c0.4-0.8,1-1.4,1.7-1.9s1.5-0.8,2.4-1.1c0.7-0.2,1.6-0.3,2.9-0.5c2.7-0.3,4.6-0.7,5.9-1.1c0-0.5,0-0.7,0-0.9
		c0-1.4-0.3-2.3-0.9-2.9c-0.8-0.7-2.1-1.1-3.8-1.1c-1.6,0-2.7,0.3-3.5,0.8c-0.7,0.5-1.3,1.5-1.6,2.9l-3.2-0.4
		c0.3-1.4,0.8-2.5,1.5-3.4s1.7-1.5,2.9-2s2.8-0.7,4.4-0.7c1.7,0,3,0.2,4.1,0.6c1,0.4,1.8,0.9,2.3,1.5s0.8,1.3,1,2.3
		c0.1,0.6,0.2,1.6,0.2,3.1v4.4c0,3.1,0.1,5,0.2,5.8s0.4,1.6,0.8,2.3h-3.5C58.8,491.4,58.6,490.6,58.5,489.7z M58.2,482.3
		c-1.2,0.5-3,0.9-5.4,1.3c-1.4,0.2-2.3,0.4-2.9,0.7c-0.6,0.2-1,0.6-1.3,1.1s-0.5,1-0.5,1.6c0,0.9,0.3,1.6,1,2.2s1.6,0.9,2.9,0.9
		c1.3,0,2.4-0.3,3.4-0.8s1.7-1.3,2.2-2.3c0.4-0.7,0.5-1.9,0.5-3.3L58.2,482.3L58.2,482.3z"/>
	<path d="M75.8,486.3l3.3-0.5c0.2,1.3,0.7,2.3,1.5,3s2,1,3.5,1s2.7-0.3,3.4-0.9s1.1-1.3,1.1-2.2c0-0.7-0.3-1.3-1-1.8
		c-0.5-0.3-1.6-0.7-3.4-1.1c-2.4-0.6-4.1-1.1-5.1-1.6c-0.9-0.4-1.7-1.1-2.1-1.9c-0.5-0.8-0.7-1.7-0.7-2.6s0.2-1.7,0.6-2.4
		c0.4-0.7,0.9-1.4,1.6-1.9c0.5-0.4,1.2-0.7,2.1-1s1.8-0.4,2.9-0.4c1.5,0,2.9,0.2,4,0.7c1.2,0.4,2,1,2.6,1.8s0.9,1.8,1.1,3l-3.2,0.4
		c-0.1-1-0.6-1.8-1.3-2.4c-0.7-0.6-1.7-0.8-3-0.8c-1.5,0-2.6,0.3-3.3,0.8c-0.7,0.5-1,1.1-1,1.8c0,0.4,0.1,0.8,0.4,1.2
		c0.3,0.4,0.7,0.7,1.3,0.9c0.3,0.1,1.3,0.4,2.9,0.8c2.3,0.6,4,1.1,4.9,1.5s1.7,1,2.2,1.7c0.5,0.8,0.8,1.7,0.8,2.8
		c0,1.1-0.3,2.1-1,3.1c-0.6,1-1.6,1.7-2.8,2.3c-1.2,0.5-2.6,0.8-4.1,0.8c-2.5,0-4.5-0.5-5.8-1.6C77.1,489.9,76.2,488.4,75.8,486.3z"
		/>
	<path d="M108.8,485l3.3,0.4c-0.4,2.2-1.3,4-2.7,5.3s-3.3,1.9-5.4,1.9c-2.7,0-4.8-0.9-6.5-2.6c-1.6-1.7-2.4-4.3-2.4-7.5
		c0-2.1,0.3-4,1-5.5c0.7-1.6,1.8-2.8,3.2-3.6c1.4-0.8,3-1.2,4.7-1.2c2.1,0,3.9,0.5,5.2,1.6c1.3,1.1,2.2,2.6,2.6,4.6l-3.2,0.5
		c-0.3-1.3-0.8-2.3-1.6-3c-0.8-0.7-1.7-1-2.8-1c-1.7,0-3,0.6-4.1,1.8c-1,1.2-1.6,3.1-1.6,5.7s0.5,4.5,1.5,5.7s2.3,1.8,3.9,1.8
		c1.3,0,2.4-0.4,3.3-1.2C108,487.8,108.5,486.6,108.8,485z"/>
	<path d="M114.9,468.9v-3.8h3.3v3.8H114.9z M114.9,492.1v-19.5h3.3v19.5H114.9z"/>
	<path d="M136.6,485.8l3.4,0.4c-0.5,2-1.5,3.6-3,4.7s-3.3,1.7-5.6,1.7c-2.9,0-5.1-0.9-6.8-2.6c-1.7-1.8-2.5-4.2-2.5-7.4
		c0-3.3,0.8-5.8,2.5-7.7c1.7-1.8,3.9-2.7,6.6-2.7c2.6,0,4.7,0.9,6.4,2.7c1.7,1.8,2.5,4.3,2.5,7.5c0,0.2,0,0.5,0,0.9h-14.6
		c0.1,2.1,0.7,3.8,1.8,4.9c1.1,1.1,2.5,1.7,4.1,1.7c1.2,0,2.3-0.3,3.1-1C135.4,488.2,136.1,487.2,136.6,485.8z M125.7,480.5h10.9
		c-0.1-1.6-0.6-2.9-1.3-3.7c-1.1-1.3-2.4-1.9-4.1-1.9c-1.5,0-2.8,0.5-3.8,1.5S125.8,478.8,125.7,480.5z"/>
	<path d="M144.2,492.1v-19.5h3v2.8c1.4-2.1,3.5-3.2,6.2-3.2c1.2,0,2.3,0.2,3.2,0.6c1,0.4,1.7,1,2.2,1.7s0.8,1.5,1,2.4
		c0.1,0.6,0.2,1.7,0.2,3.2v12h-3.3v-11.9c0-1.4-0.1-2.4-0.4-3c-0.3-0.7-0.7-1.2-1.4-1.6s-1.4-0.6-2.3-0.6c-1.4,0-2.6,0.4-3.7,1.3
		c-1,0.9-1.5,2.6-1.5,5.1v10.7H144.2L144.2,492.1z"/>
	<path d="M177.9,485l3.3,0.4c-0.4,2.2-1.3,4-2.7,5.3s-3.3,1.9-5.4,1.9c-2.7,0-4.8-0.9-6.5-2.6c-1.6-1.7-2.4-4.3-2.4-7.5
		c0-2.1,0.4-4,1-5.5c0.7-1.6,1.8-2.8,3.2-3.6c1.4-0.8,3-1.2,4.7-1.2c2.1,0,3.9,0.5,5.2,1.6c1.4,1.1,2.2,2.6,2.6,4.6l-3.2,0.5
		c-0.3-1.3-0.9-2.3-1.6-3c-0.8-0.7-1.7-1-2.8-1c-1.7,0-3,0.6-4.1,1.8c-1,1.2-1.6,3.1-1.6,5.7s0.5,4.5,1.5,5.7s2.3,1.8,3.9,1.8
		c1.3,0,2.4-0.4,3.3-1.2C177.1,487.8,177.7,486.6,177.9,485z"/>
	<path d="M197.4,485.8l3.4,0.4c-0.5,2-1.5,3.6-3,4.7s-3.3,1.7-5.6,1.7c-2.9,0-5.1-0.9-6.8-2.6c-1.7-1.8-2.5-4.2-2.5-7.4
		c0-3.3,0.8-5.8,2.5-7.7c1.7-1.8,3.9-2.7,6.6-2.7c2.6,0,4.7,0.9,6.4,2.7c1.7,1.8,2.5,4.3,2.5,7.5c0,0.2,0,0.5,0,0.9h-14.6
		c0.1,2.1,0.7,3.8,1.8,4.9s2.5,1.7,4.1,1.7c1.2,0,2.3-0.3,3.1-1C196.2,488.2,196.9,487.2,197.4,485.8z M186.5,480.5h10.9
		c-0.1-1.6-0.6-2.9-1.3-3.7c-1.1-1.3-2.4-1.9-4.1-1.9c-1.5,0-2.8,0.5-3.8,1.5C187.2,477.4,186.6,478.8,186.5,480.5z"/>
	<path d="M228.8,485.8l3.4,0.4c-0.5,2-1.5,3.6-3,4.7s-3.3,1.7-5.6,1.7c-2.9,0-5.1-0.9-6.8-2.6c-1.7-1.8-2.5-4.2-2.5-7.4
		c0-3.3,0.8-5.8,2.5-7.7c1.7-1.8,3.9-2.7,6.6-2.7c2.6,0,4.7,0.9,6.4,2.7c1.7,1.8,2.5,4.3,2.5,7.5c0,0.2,0,0.5,0,0.9h-14.6
		c0.1,2.1,0.7,3.8,1.8,4.9s2.5,1.7,4.1,1.7c1.2,0,2.3-0.3,3.1-1C227.6,488.2,228.3,487.2,228.8,485.8z M218,480.5h10.9
		c-0.1-1.6-0.6-2.9-1.3-3.7c-1.1-1.3-2.4-1.9-4.1-1.9c-1.5,0-2.8,0.5-3.8,1.5C218.6,477.4,218.1,478.8,218,480.5z"/>
	<path d="M243.7,489.2l0.5,2.9c-0.9,0.2-1.8,0.3-2.5,0.3c-1.2,0-2.1-0.2-2.8-0.6s-1.1-0.9-1.4-1.5c-0.3-0.6-0.4-1.9-0.4-3.9v-11.2
		h-2.4v-2.6h2.4v-4.8l3.3-2v6.8h3.3v2.6h-3.3v11.4c0,0.9,0.1,1.6,0.2,1.8s0.3,0.5,0.6,0.6c0.3,0.2,0.6,0.2,1.1,0.2
		C242.6,489.3,243,489.2,243.7,489.2z"/>
	<path d="M257.3,492.1v-27h3.3v27H257.3z"/>
	<path d="M278.5,489.7c-1.2,1-2.4,1.8-3.5,2.2c-1.1,0.4-2.4,0.6-3.7,0.6c-2.1,0-3.8-0.5-5-1.6c-1.2-1-1.7-2.4-1.7-4
		c0-1,0.2-1.8,0.7-2.6c0.4-0.8,1-1.4,1.7-1.9s1.5-0.8,2.4-1.1c0.6-0.2,1.6-0.3,2.9-0.5c2.7-0.3,4.6-0.7,5.9-1.1c0-0.5,0-0.7,0-0.9
		c0-1.4-0.3-2.3-0.9-2.9c-0.8-0.7-2.1-1.1-3.8-1.1c-1.6,0-2.7,0.3-3.5,0.8c-0.7,0.5-1.3,1.5-1.6,2.9l-3.2-0.4
		c0.3-1.4,0.8-2.5,1.5-3.4s1.6-1.5,2.9-2s2.8-0.7,4.4-0.7c1.7,0,3,0.2,4.1,0.6c1,0.4,1.8,0.9,2.3,1.5s0.8,1.3,1,2.3
		c0.1,0.6,0.2,1.6,0.2,3.1v4.4c0,3.1,0.1,5,0.2,5.8s0.4,1.6,0.8,2.3h-3.5C278.8,491.4,278.6,490.6,278.5,489.7z M278.2,482.3
		c-1.2,0.5-3,0.9-5.4,1.3c-1.4,0.2-2.3,0.4-2.9,0.7c-0.6,0.2-1,0.6-1.3,1.1s-0.5,1-0.5,1.6c0,0.9,0.3,1.6,1,2.2s1.6,0.9,2.9,0.9
		s2.4-0.3,3.4-0.8s1.7-1.3,2.2-2.3c0.4-0.7,0.5-1.9,0.5-3.3L278.2,482.3L278.2,482.3z"/>
	<path d="M309.9,485l3.3,0.4c-0.4,2.2-1.3,4-2.7,5.3s-3.3,1.9-5.4,1.9c-2.7,0-4.8-0.9-6.5-2.6c-1.6-1.7-2.4-4.3-2.4-7.5
		c0-2.1,0.4-4,1-5.5c0.7-1.6,1.8-2.8,3.2-3.6c1.4-0.8,3-1.2,4.7-1.2c2.1,0,3.9,0.5,5.2,1.6c1.4,1.1,2.2,2.6,2.6,4.6l-3.2,0.5
		c-0.3-1.3-0.9-2.3-1.6-3c-0.8-0.7-1.7-1-2.8-1c-1.7,0-3,0.6-4.1,1.8c-1,1.2-1.6,3.1-1.6,5.7s0.5,4.5,1.5,5.7s2.3,1.8,3.9,1.8
		c1.3,0,2.4-0.4,3.3-1.2C309.1,487.8,309.7,486.6,309.9,485z"/>
	<path d="M328.8,492.1v-2.9c-1.5,2.2-3.6,3.3-6.2,3.3c-1.2,0-2.2-0.2-3.2-0.7c-1-0.4-1.7-1-2.2-1.7s-0.8-1.5-1-2.5
		c-0.1-0.6-0.2-1.7-0.2-3.1v-12.1h3.3v10.8c0,1.7,0.1,2.9,0.2,3.5c0.2,0.9,0.6,1.6,1.3,2.1s1.5,0.7,2.5,0.7s1.9-0.3,2.8-0.8
		s1.5-1.2,1.9-2.1s0.5-2.1,0.5-3.8v-10.5h3.3v19.5L328.8,492.1L328.8,492.1z"/>
	<path d="M336.9,492.1v-27h3.3v27H336.9z"/>
	<path d="M352.6,489.2l0.5,2.9c-0.9,0.2-1.8,0.3-2.5,0.3c-1.2,0-2.1-0.2-2.8-0.6c-0.7-0.4-1.1-0.9-1.4-1.5s-0.4-1.9-0.4-3.9v-11.2
		h-2.4v-2.6h2.4v-4.8l3.3-2v6.8h3.3v2.6h-3.3v11.4c0,0.9,0.1,1.6,0.2,1.8c0.1,0.3,0.3,0.5,0.6,0.6s0.6,0.2,1.1,0.2
		C351.5,489.3,352,489.2,352.6,489.2z"/>
	<path d="M368.7,492.1v-2.9c-1.5,2.2-3.6,3.3-6.2,3.3c-1.2,0-2.2-0.2-3.2-0.7c-1-0.4-1.7-1-2.2-1.7s-0.8-1.5-1-2.5
		c-0.1-0.6-0.2-1.7-0.2-3.1v-12.1h3.3v10.8c0,1.7,0.1,2.9,0.2,3.5c0.2,0.9,0.6,1.6,1.3,2.1s1.5,0.7,2.5,0.7s1.9-0.3,2.8-0.8
		s1.5-1.2,1.9-2.1s0.5-2.1,0.5-3.8v-10.5h3.3v19.5L368.7,492.1L368.7,492.1z"/>
	<path d="M376.8,492.1v-19.5h3v3c0.8-1.4,1.5-2.3,2.1-2.7c0.6-0.4,1.4-0.7,2.1-0.7c1.1,0,2.3,0.4,3.4,1.1l-1.1,3.1
		c-0.8-0.5-1.6-0.7-2.4-0.7c-0.7,0-1.4,0.2-2,0.7s-1,1-1.2,1.8c-0.4,1.2-0.6,2.5-0.6,3.9v10.2L376.8,492.1L376.8,492.1z"/>
	<path d="M402.7,485.8l3.4,0.4c-0.5,2-1.5,3.6-3,4.7s-3.3,1.7-5.6,1.7c-2.9,0-5.1-0.9-6.8-2.6c-1.7-1.8-2.5-4.2-2.5-7.4
		c0-3.3,0.8-5.8,2.5-7.7c1.7-1.8,3.9-2.7,6.6-2.7c2.6,0,4.7,0.9,6.4,2.7c1.7,1.8,2.5,4.3,2.5,7.5c0,0.2,0,0.5,0,0.9h-14.6
		c0.1,2.1,0.7,3.8,1.8,4.9c1.1,1.1,2.5,1.7,4.1,1.7c1.2,0,2.3-0.3,3.1-1C401.6,488.2,402.2,487.2,402.7,485.8z M391.9,480.5h10.9
		c-0.1-1.6-0.6-2.9-1.3-3.7c-1.1-1.3-2.4-1.9-4.1-1.9c-1.5,0-2.8,0.5-3.8,1.5S392,478.8,391.9,480.5z"/>
</g>
<g>
	<g>
		<path class="st2" d="M525.9,171.4v18.5c0,4.9-1.3,8.9-3.9,11.7c-2.6,2.9-6.1,4.3-10.5,4.3c-4.4,0-7.9-1.4-10.5-4.3
			c-2.6-2.9-3.9-6.8-3.9-11.7v-18.5h6.1V191c0,2.7,0.8,4.9,2.4,6.5c1.6,1.7,3.6,2.5,6,2.5c2.5,0,4.5-0.8,6-2.5
			c1.6-1.7,2.3-3.9,2.3-6.5v-19.6H525.9"/>
	</g>
	<g>
		<path class="st2" d="M533.3,205.4v-18.5c0-4.9,1.3-8.9,3.9-11.7c2.6-2.9,6.1-4.3,10.5-4.3s7.9,1.4,10.5,4.3
			c2.6,2.9,3.9,6.8,3.9,11.7v18.5h-6v-19.6c0-2.7-0.8-4.8-2.3-6.5c-1.6-1.7-3.6-2.5-6-2.5s-4.4,0.8-6,2.5s-2.4,3.9-2.4,6.5v19.6
			H533.3"/>
	</g>
	<g>
		<path class="st2" d="M569.9,158.7c0-1,0.4-1.9,1.1-2.6c0.7-0.7,1.6-1.1,2.6-1.1s1.9,0.4,2.6,1.1c0.7,0.7,1.1,1.6,1.1,2.6
			c0,1.1-0.3,1.9-1.1,2.7c-0.7,0.7-1.6,1.1-2.6,1.1s-1.9-0.4-2.6-1.1C570.2,160.6,569.9,159.8,569.9,158.7 M576.6,205.4h-6.1v-33.9
			h6.1V205.4z"/>
	</g>
	<g>
		<polygon class="st2" points="603.1,205.4 603.1,161.9 584.8,161.9 584.8,155.8 666.8,155.8 666.8,161.9 609.7,161.9 609.7,205.4 
					"/>
	</g>
	<g>
		<path class="st2" d="M666.7,171.4V191c0,4.6-1.2,8.3-3.6,10.9c-2.4,2.7-5.7,4-9.7,4c-2.1,0-4.1-0.4-5.8-1.3
			c-1.8-0.9-3.3-2.2-4.6-3.9c-1.4,1.7-2.9,3-4.7,3.9s-3.7,1.3-5.7,1.3c-4.1,0-7.3-1.3-9.8-4c-2.4-2.7-3.6-6.3-3.6-10.9v-19.6h6.1
			v20.7c0,2.4,0.7,4.3,2,5.8s3.1,2.2,5.3,2.2s4-0.7,5.3-2.2c1.4-1.5,2.1-3.4,2.1-5.8v-20.7h6v20.7c0,2.4,0.7,4.3,2,5.8
			c1.4,1.5,3.1,2.2,5.3,2.2s3.9-0.7,5.3-2.2c1.4-1.5,2.1-3.4,2.1-5.8v-20.7H666.7"/>
	</g>
	<g>
		<path class="st2" d="M674.1,158.7c0-1,0.4-1.9,1.1-2.6c0.7-0.7,1.6-1.1,2.6-1.1s1.9,0.4,2.6,1.1c0.7,0.7,1.1,1.6,1.1,2.6
			c0,1.1-0.4,1.9-1.1,2.7c-0.7,0.7-1.6,1.1-2.6,1.1s-1.9-0.4-2.6-1.1C674.4,160.6,674.1,159.8,674.1,158.7 M680.8,205.4h-6.1v-33.9
			h6.1V205.4z"/>
	</g>
	<path class="st2" d="M688.6,205.4v-18.5c0-4.9,1.3-8.9,3.9-11.7c2.6-2.9,6.1-4.3,10.5-4.3s7.9,1.4,10.5,4.3
		c2.6,2.9,3.9,6.8,3.9,11.7v18.5h-6v-19.6c0-2.7-0.8-4.8-2.3-6.5c-1.6-1.7-3.6-2.5-6-2.5s-4.4,0.8-6,2.5s-2.4,3.9-2.4,6.5v19.6
		H688.6"/>
</g>
</svg>
