<?xml version="1.0" encoding="utf-8"?>
<!-- Generator: Adobe Illustrator 24.0.0, SVG Export Plug-In . SVG Version: 6.00 Build 0)  -->
<svg version="1.1" id="Layer_1" xmlns="http://www.w3.org/2000/svg" xmlns:xlink="http://www.w3.org/1999/xlink" x="0px" y="0px"
	 viewBox="0 0 1224.72 576" style="enable-background:new 0 0 1224.72 576;" xml:space="preserve">
<style type="text/css">
	.st0{opacity:0.25;}
	.st1{fill:#0062AE;}
	.st2{fill:#CDD23E;}
	.st3{fill:#611336;}
</style>
<g class="st0">
	
		<image style="overflow:visible;" width="1219" height="513" xlink:href="F3D7066B.png"  transform="matrix(0.24 0 0 0.24 463.1302 121.8548)">
	</image>
</g>
<g>
	<path d="M453.073,34.814c0,2.231-1.821,4.046-4.046,4.046c-2.233,0-4.038-1.815-4.038-4.046c0-2.231,1.805-4.044,4.038-4.044
		C451.252,30.77,453.073,32.583,453.073,34.814"/>
	<path d="M453.073,49.192c0,2.231-1.821,4.044-4.046,4.044c-2.233,0-4.038-1.813-4.038-4.044c0-2.231,1.805-4.044,4.038-4.044
		C451.252,45.149,453.073,46.961,453.073,49.192"/>
	<path d="M453.073,64.779c0,2.229-1.821,4.044-4.046,4.044c-2.233,0-4.038-1.815-4.038-4.044c0-2.231,1.805-4.046,4.038-4.046
		C451.252,60.733,453.073,62.548,453.073,64.779"/>
	<path d="M453.073,80.375c0,2.229-1.821,4.044-4.046,4.044c-2.233,0-4.038-1.815-4.038-4.044c0-2.231,1.805-4.046,4.038-4.046
		C451.252,76.329,453.073,78.144,453.073,80.375"/>
	<path d="M453.073,97.165c0,2.231-1.821,4.044-4.046,4.044c-2.233,0-4.038-1.813-4.038-4.044s1.805-4.044,4.038-4.044
		C451.252,93.121,453.073,94.934,453.073,97.165"/>
	<path d="M453.073,113.955c0,2.231-1.821,4.046-4.046,4.046c-2.233,0-4.038-1.815-4.038-4.046s1.805-4.044,4.038-4.044
		C451.252,109.911,453.073,111.724,453.073,113.955"/>
	<path d="M453.073,131.233c0,2.229-1.821,4.044-4.046,4.044c-2.233,0-4.038-1.815-4.038-4.044c0-2.231,1.805-4.046,4.038-4.046
		C451.252,127.187,453.073,129.002,453.073,131.233"/>
	<path d="M453.073,148.502c0,2.229-1.821,4.044-4.046,4.044c-2.233,0-4.038-1.815-4.038-4.044c0-2.231,1.805-4.046,4.038-4.046
		C451.252,144.456,453.073,146.271,453.073,148.502"/>
	<path d="M453.073,167.217c0,2.229-1.821,4.044-4.046,4.044c-2.233,0-4.038-1.815-4.038-4.044c0-2.231,1.805-4.046,4.038-4.046
		C451.252,163.172,453.073,164.986,453.073,167.217"/>
	<path d="M453.073,185.925c0,2.231-1.821,4.046-4.046,4.046c-2.233,0-4.038-1.815-4.038-4.046c0-2.229,1.805-4.044,4.038-4.044
		C451.252,181.881,453.073,183.695,453.073,185.925"/>
	<path d="M453.073,205.598c0,2.231-1.821,4.044-4.046,4.044c-2.233,0-4.038-1.813-4.038-4.044c0-2.231,1.805-4.044,4.038-4.044
		C451.252,201.554,453.073,203.367,453.073,205.598"/>
	<path d="M453.073,225.753c0,2.231-1.821,4.044-4.046,4.044c-2.233,0-4.038-1.813-4.038-4.044c0-2.231,1.805-4.046,4.038-4.046
		C451.252,221.707,453.073,223.522,453.073,225.753"/>
	<path d="M453.073,246.864c0,2.231-1.821,4.044-4.046,4.044c-2.233,0-4.038-1.813-4.038-4.044c0-2.231,1.805-4.044,4.038-4.044
		C451.252,242.82,453.073,244.633,453.073,246.864"/>
	<path d="M453.073,270.856c0,2.229-1.821,4.042-4.046,4.042c-2.233,0-4.038-1.813-4.038-4.042c0-2.233,1.805-4.044,4.038-4.044
		C451.252,266.812,453.073,268.623,453.073,270.856"/>
	<path d="M453.073,297.239c0,2.231-1.821,4.046-4.046,4.046c-2.233,0-4.038-1.815-4.038-4.046c0-2.231,1.805-4.042,4.038-4.042
		C451.252,293.197,453.073,295.008,453.073,297.239"/>
	<path d="M453.073,328.427c0,2.231-1.821,4.046-4.046,4.046c-2.233,0-4.038-1.815-4.038-4.046s1.805-4.042,4.038-4.042
		C451.252,324.385,453.073,326.196,453.073,328.427"/>
	<path d="M453.073,362.02c0,2.227-1.821,4.038-4.046,4.038c-2.233,0-4.038-1.811-4.038-4.038c0-2.239,1.805-4.046,4.038-4.046
		C451.252,357.974,453.073,359.78,453.073,362.02"/>
	<path d="M453.073,400.357c0,2.239-1.821,4.046-4.046,4.046c-2.233,0-4.038-1.807-4.038-4.046c0-2.223,1.805-4.042,4.038-4.042
		C451.252,396.315,453.073,398.134,453.073,400.357"/>
	<path d="M453.073,443.62c0,2.235-1.821,4.034-4.046,4.034c-2.233,0-4.038-1.799-4.038-4.034c0-2.243,1.805-4.054,4.038-4.054
		C451.252,439.567,453.073,441.377,453.073,443.62"/>
	<path d="M453.073,491.597c0,2.239-1.821,4.038-4.046,4.038c-2.233,0-4.038-1.799-4.038-4.038c0-2.239,1.805-4.046,4.038-4.046
		C451.252,487.551,453.073,489.358,453.073,491.597"/>
	<path d="M453.073,544.382c0,2.231-1.821,4.038-4.046,4.038c-2.233,0-4.038-1.807-4.038-4.038c0-2.231,1.805-4.046,4.038-4.046
		C451.252,540.336,453.073,542.151,453.073,544.382"/>
	<rect x="141.597" y="253.989" width="237.342" height="9.95"/>
	<rect x="128.167" y="270.905" width="263.713" height="9.95"/>
	<rect x="115.727" y="287.825" width="289.09" height="9.956"/>
	<rect x="141.597" y="128.54" width="237.342" height="9.95"/>
	<polygon points="189.619,122.134 260.271,100.985 329.435,122.134 358.292,122.134 260.271,91.784 160.756,122.134 	"/>
	<polygon points="141.599,122.134 259.528,86.061 378.942,122.134 378.942,111.434 260.271,74.864 141.599,111.434 	"/>
	<path d="M155.536,241.096c0,0,0,7.461,8.453,7.461c8.463,0,7.966-7.461,7.966-7.461v-96.531h-6.224v96.776c0,0,0,1.746-2.239,1.746
		c-2.241,0-1.74-2.237-1.74-2.237v-96.286h-6.216V241.096z"/>
	<polygon points="194.592,248.557 199.567,248.557 199.567,186.036 205.787,248.557 211.013,248.557 211.013,144.565 
		205.787,144.565 205.787,200.146 199.567,144.565 194.592,144.565 	"/>
	<polygon points="234.151,248.557 250.071,248.557 250.071,243.083 241.112,243.083 241.112,196.065 247.834,196.065 
		247.834,190.346 241.112,190.346 241.112,149.791 247.834,149.791 247.834,144.565 234.151,144.565 	"/>
	<path d="M325.7,175.417V152.03c0,0-0.248-7.463-8.208-7.463c-7.956,0-7.956,7.463-7.956,7.463v89.068c0,0-0.261,7.459,7.956,7.459
		c8.208,0,8.208-7.459,8.208-7.459v-26.125h-6.216v26.125c0,0,0,1.987-1.991,1.987c-1.864,0-2.241-1.987-2.241-1.987V152.03
		c0,0,0-2.241,2.241-2.241c1.991,0,1.991,2.241,1.991,2.241v23.388H325.7z"/>
	<path d="M365.258,152.032c0,0,0.499-7.467-8.21-7.467c-8.703,0-8.703,7.467-8.703,7.467v89.064c0,0,0,7.461,8.204,7.461
		c8.708,0,8.708-7.461,8.708-7.461V152.032z M359.288,241.096c0,0,0.248,1.991-2.239,1.991s-2.487-1.991-2.487-1.991v-89.064
		c0,0,0-2.241,2.235-2.241c2.49,0,2.49,2.241,2.49,2.241V241.096z"/>
	<path d="M280.178,241.096c0,0,0,1.991-1.622,1.862c-1.617-0.122-1.617-1.862-1.617-1.862v-26.121h-6.467v26.121
		c0,0-0.245,7.461,7.956,7.461c8.216,0,8.216-7.461,8.216-7.461s0-17.417-0.006-22.498c-0.021-12.208-9.698-35.472-9.698-43.173
		v-23.393c0,0-0.251-2.241,1.489-2.241c1.75,0,1.75,2.241,1.75,2.241v23.384h6.465v-23.384c0,0,0.247-7.713-7.96-7.467
		c-8.212,0.249-8.212,7.467-8.212,7.467v19.901c0,13.06,9.706,35.077,9.706,45.153V241.096z"/>
	<path class="st1" d="M1124.725,180.225v24.281l0.055,0.921l-0.931-0.055h-11.78l-0.927,0.055l0.055-0.921v-22.15
		c0-6.458-3.72-9.535-8.3-9.535c-4.592,0-8.3,3.077-8.3,9.535v22.15l0.059,0.921l-0.935-0.055h-11.788l-0.931,0.055l0.059-0.921
		v-22.15c0-12.053,9.781-21.824,21.836-21.824c5.126,0,9.84,1.775,13.555,4.733l0.279,0.811l0.247-0.788
		c0.381-0.41,0.778-0.807,1.186-1.196l0.805-0.171l-0.738-0.346c-3.213-3.594-5.193-8.329-5.193-13.532v-48.438l-0.063-0.919
		l0.939,0.057h11.78l0.939-0.057l-0.063,0.919v48.438c0,5.262,3.02,7.764,6.756,7.764c3.72,0,6.745-2.502,6.745-7.764v-48.438
		l-0.051-0.919l0.935,0.057h11.78l0.927-0.057l-0.063,0.919v48.438c0,5.202-1.968,9.938-5.181,13.532l-0.734,0.346l0.797,0.171
		c0.401,0.389,0.798,0.786,1.19,1.196l0.255,0.788l0.259-0.811c3.728-2.958,8.433-4.733,13.563-4.733
		c12.055,0,21.828,9.771,21.828,21.824v22.15l0.059,0.921l-0.923-0.055h-11.78l-0.939,0.055l0.055-0.921v-22.15
		c0-6.458-3.716-9.535-8.3-9.535c-4.572,0-8.3,3.077-8.3,9.535v22.15l0.059,0.921l-0.939-0.055h-11.78l-0.915,0.055l0.059-0.921
		v-24.281c0-6.687-3.861-9.881-8.606-9.881C1128.566,170.344,1124.725,173.538,1124.725,180.225"/>
	<path d="M859.21,259.378c-1.736,1.365-3.857,2.538-7.102,2.538c-4.266,0-7.907-3.105-7.907-11.511
		c0-8.662,2.973-12.662,7.852-12.662c3.272,0,5.578,1.159,7.157,2.928V259.378z M859.21,265.145h12.468v-1.306l-4.615-1.104V220.31
		h-12.813v1.453l4.961,1.389v14.319c-2.203-1.818-5.467-3.313-9.847-3.313c-7.778,0-13.524,6.825-13.524,16.325
		c0,9.712,5.252,15.357,13.599,15.357c4.034,0,7.428-1.565,9.773-3.726V265.145z"/>
	<polygon points="976.426,220.31 976.426,221.691 971.748,222.926 971.748,262.525 976.426,263.76 976.426,265.145 956.971,265.145 
		956.971,263.705 963.2,262.525 963.2,230.987 948.655,265.145 945.277,265.145 930.963,230.849 930.963,262.525 936.997,263.564 
		936.997,265.145 922.907,265.145 922.907,263.76 926.91,262.598 926.91,222.864 922.907,221.691 922.907,220.31 935.465,220.31 
		949.394,254.633 963.711,220.31 	"/>
	<path d="M995.999,236.359c5.354,0,8.194,5.998,8.194,13.575c0,7.508-2.84,13.705-8.194,13.705c-5.307,0-8.197-6.196-8.197-13.705
		C987.802,242.425,990.693,236.359,995.999,236.359 M995.999,234.161c-8.822,0-16.741,6.126-16.741,15.834
		c0,9.441,7.982,15.842,16.741,15.842c8.814,0,16.789-6.401,16.789-15.842C1012.788,240.286,1004.814,234.161,995.999,234.161"/>
	<path d="M1158.152,260.117c-1.587,1.029-2.958,2.066-5.44,2.066c-3.999,0.072-5.087-2.404-5.087-5.307
		c0-2.962,1.991-4.949,5.633-5.576l4.894-0.552V260.117z M1158.152,243.521v5.159l-6.949,0.344
		c-6.76,0.22-10.963,3.865-10.963,8.887c0,5.108,3.802,7.923,8.815,7.923c4.144,0,7.102-1.993,9.097-3.441v2.752h11.419v-1.304
		l-3.7-1.104v-20.526c0-4.472-2.958-8.05-9.651-8.05c-6.815,0-11.085,1.927-13.489,2.958v7.092h3.414l1.123-5.896
		c0.778-0.33,2.891-1.063,6.273-0.786C1157.598,237.867,1158.093,240.705,1158.152,243.521"/>
	<polygon points="1190.189,263.839 1190.189,265.145 1173.114,265.145 1173.114,263.839 1177.725,262.735 1177.725,222.928 
		1173.114,221.762 1173.114,220.31 1185.578,220.31 1185.578,262.735 	"/>
	<path d="M795.38,163.284l-6.689-1.308v-1.444h15.508v1.373l-4.765,1.379v27.123c0,11.279-6.151,15.851-18.745,15.851
		c-12.915,0-18.155-4.94-18.155-15.145v-28.042l-4.616-1.167v-1.373h19.833v1.512l-6.749,1.168v27.482
		c0,8.316,2.828,12.403,11.509,12.403c9.404,0,12.868-4.24,12.868-13.159V163.284z"/>
	<path d="M822.059,204.062v1.308h-16.737v-1.308l4.537-1.108v-25.62l-4.12-1.173v-1.44h11.972v4.674
		c1.387-1.164,5.723-5.024,11.301-5.024c5.786,0,8.744,3.235,8.744,8.891v19.626l4.4,1.1v1.381h-16.242v-1.381l4.066-1.035v-18.805
		c0-2.956-0.907-5.576-4.612-5.576c-3.308,0-6.689,2.341-7.656,2.958v21.424L822.059,204.062z"/>
	<polygon points="857.356,202.955 861.901,204.062 861.901,205.374 844.885,205.374 844.885,204.062 849.504,202.955 
		849.504,177.332 845.38,176.165 845.38,174.726 857.356,174.726 	"/>
	<path d="M857.777,164.179c0,2.339-2.074,4.268-4.545,4.268c-2.423,0-4.545-1.929-4.545-4.268c0-2.337,2.121-4.338,4.545-4.338
		C855.703,159.841,857.777,161.842,857.777,164.179"/>
	<polygon points="992.641,202.955 997.19,204.062 997.19,205.374 980.181,205.374 980.181,204.062 984.789,202.955 984.789,177.332 
		980.653,176.165 980.653,174.726 992.641,174.726 	"/>
	<path d="M993.042,164.179c0,2.339-2.051,4.268-4.545,4.268c-2.396,0-4.541-1.929-4.541-4.268c0-2.337,2.145-4.338,4.541-4.338
		C990.991,159.841,993.042,161.842,993.042,164.179"/>
	<polygon points="864.395,176.859 862.18,175.957 862.18,174.724 877.067,174.724 877.067,175.957 872.31,177.13 879.137,195.786 
		885.905,176.992 881.781,175.957 881.781,174.724 891.982,174.724 891.982,175.957 889.492,177.13 877.825,205.851 875.28,205.851 
			"/>
	<path d="M913.574,185.742h-12.197c0.691-5.234,2.765-9.095,6.422-9.095C911.92,176.647,913.307,181.476,913.574,185.742
		 M901.04,188.152h20.253c-0.208-8.473-4.604-13.782-13.493-13.782c-8.752,0-15.229,7.581-15.229,15.844
		c0,9.577,6.265,15.842,15.296,15.842c7.711,0,11.713-3.032,14.055-4.751l-1.312-2.07c-1.791,1.104-5.374,3.52-11.305,3.174
		C903.381,201.99,900.415,195.79,901.04,188.152"/>
	<path d="M974.018,175.957l-0.691,7.508h-2.816l-0.687-5.093c-1.041-0.558-2.419-1.726-5.456-1.726c-2.471,0-4.4,1.304-4.4,4.003
		c0,3.16,3.508,4.403,7.016,5.984c3.382,1.442,8.889,3.515,8.889,8.954c0,6.2-5.087,10.468-11.226,10.468
		c-5.636,0-8.948-1.312-9.91-1.65l-0.558-8.335l2.907-0.281l1.646,5.655c0.821,0.619,3.092,2.41,5.857,2.335
		c3.936,0,5.778-2.064,5.778-5.026c0-3.509-4.886-5.024-8.123-6.54c-3.036-1.45-7.723-2.754-7.723-9.029
		c0-5.157,4.27-8.81,10.068-8.81C969.54,174.374,972.64,175.545,974.018,175.957"/>
	<polygon points="1049.37,164.596 1046.408,160.188 1035.881,168.449 1037.594,170.93 	"/>
	<path d="M1043.583,185.742h-12.192c0.688-5.234,2.761-9.095,6.41-9.095C1041.926,176.647,1043.309,181.476,1043.583,185.742
		 M1031.049,188.152h20.253c-0.212-8.473-4.612-13.782-13.501-13.782c-8.748,0-15.229,7.581-15.229,15.844
		c0,9.577,6.265,15.842,15.304,15.842c7.703,0,11.705-3.032,14.05-4.751l-1.308-2.07c-1.807,1.104-5.381,3.52-11.313,3.174
		C1033.383,201.99,1030.425,195.79,1031.049,188.152"/>
	<path d="M947.217,174.421c-4.419,0-7.604,3.547-9.376,7.532h-0.157v-7.232h-12.463v1.269l4.607,1.343v25.622l-4.607,1.106v1.308
		h19.153v-1.518l-6.689-1.1v-17.403c1.835-4.016,4.541-5.644,6.253-5.644c1.277,0,1.767,0.261,2.757,1.116
		c0.362,0.285,1.681,0.66,2.471,0.31c1.485-0.65,1.893-1.74,1.893-3.355C951.059,176.004,949.346,174.421,947.217,174.421"/>
	<path d="M1032.628,263.839v1.306h-16.741v-1.306l4.545-1.104v-25.613l-4.124-1.17v-1.45h11.969v4.682
		c1.386-1.17,5.731-5.026,11.305-5.026c5.786,0,8.748,3.237,8.748,8.891v19.63l4.4,1.08v1.384h-16.25v-1.384l4.069-1.025v-18.801
		c0-2.96-0.903-5.576-4.611-5.576c-3.307,0-6.698,2.349-7.66,2.966v21.412L1032.628,263.839z"/>
	<path d="M1101.373,234.21c-4.407,0-7.581,3.537-9.38,7.522h-0.134v-7.231h-12.464v1.278l4.62,1.341v25.617l-4.62,1.104v1.302h19.13
		v-1.504l-6.666-1.114V245.14c1.827-4.02,4.517-5.659,6.238-5.659c1.284,0,1.76,0.271,2.765,1.12
		c0.353,0.288,1.673,0.671,2.451,0.302c1.512-0.638,1.925-1.734,1.925-3.345C1105.238,235.783,1103.525,234.21,1101.373,234.21"/>
	<path d="M1020.177,201.929c-1.143,0.768-2.329,1.337-4.069,1.337c-2.758,0-3.661-2.023-3.661-6.56v-19.301l7.852-1.166v-1.514
		h-7.852v-14.192h-2.565c-0.514,8.115-3.378,13.451-10.641,14.192h-1.19v1.514l6.544,1.166v19.715c0,6.247,1.528,8.934,7.376,8.934
		c4.223,0,7.589-1.589,8.983-2.895L1020.177,201.929z"/>
	<path d="M1075.813,261.712c-1.155,0.776-2.329,1.337-4.081,1.337c-2.765,0-3.649-2.021-3.649-6.57v-19.293l7.852-1.168v-1.514
		h-7.852v-14.196h-2.557c-0.523,8.129-3.406,13.455-10.641,14.196h-1.194v1.514l6.54,1.168v19.711c0,6.244,1.512,8.938,7.365,8.938
		c4.223,0,7.605-1.581,8.976-2.891L1075.813,261.712z"/>
	<path d="M894.959,245.518h-12.181c0.683-5.232,2.75-9.082,6.407-9.082C893.306,236.437,894.692,241.249,894.959,245.518
		 M882.437,247.938h20.253c-0.224-8.475-4.616-13.778-13.504-13.778c-8.744,0-15.229,7.575-15.229,15.834
		c0,9.573,6.266,15.847,15.3,15.847c7.707,0,11.701-3.044,14.05-4.757l-1.312-2.06c-1.799,1.094-5.381,3.506-11.305,3.16
		C884.766,261.771,881.808,255.57,882.437,247.938"/>
	<path d="M1126.952,245.518h-12.193c0.688-5.232,2.762-9.082,6.411-9.082C1125.302,236.437,1126.685,241.245,1126.952,245.518
		 M1132.73,224.374l-2.966-4.409l-10.527,8.274l1.72,2.481L1132.73,224.374z M1114.41,247.934h20.249
		c-0.2-8.471-4.608-13.774-13.489-13.774c-8.76,0-15.229,7.575-15.229,15.834c0,9.565,6.273,15.842,15.287,15.842
		c7.726,0,11.717-3.038,14.051-4.751l-1.304-2.06c-1.78,1.094-5.37,3.498-11.293,3.16
		C1116.759,261.771,1113.793,255.57,1114.41,247.934"/>
</g>
<g>
	<path class="st2" d="M568.773,141.437l0.001,0.062l0.05,0.049h6.615l0.05-0.051c-0.001-0.04-0.055-4.61,0.723-11.694
		c9.214,2.244,20.052,3.481,32.213,3.675l0.051-0.05v-6.666l-0.049-0.05c-11.873-0.204-22.403-1.444-31.3-3.683
		c1.739-10.807,5.641-26.563,14.363-40.358l-0.001-0.001c1.701-2.687,3.514-5.206,5.386-7.486l-0.044-0.082
		c-2.949,0.337-5.95,0.804-9.442,1.469l-0.001,0.001c-8.153,1.539-15.977,3.839-23.253,6.835
		c-5.395,2.222-10.658,4.871-15.642,7.875l-0.009,0.008c-2.529,1.529-5.492,3.369-8.313,5.424l-0.32,0.234l-0.003,0.005
		c-7.053,5.114-13.666,11.138-19.655,17.906c-4.881,5.516-9.38,11.557-13.372,17.957c-6.786,10.878-10.153,19.666-11.023,22.1
		l0.047,0.066h7.161l0.046-0.031c2.724-6.737,10.785-24.119,26.888-40.401c-9.111,20.07-11.024,39.523-11.101,40.344l0.05,0.055
		h6.666l0.05-0.044c0.11-1.056,2.853-26.079,16.222-48.123c1.756,3.873,4.508,7.461,8.185,10.666
		c4.975,4.335,11.548,7.855,19.536,10.465C568.757,134.8,568.742,139.664,568.773,141.437z M570.505,121.081
		c-7.001-2.402-12.631-5.511-16.733-9.245c-3.648-3.321-6.023-7.141-6.866-11.046l-0.054-0.38
		c10.755-7.343,22.756-12.678,35.672-15.863C576.814,95.118,572.77,107.408,570.505,121.081z"/>
	<path class="st2" d="M716.875,218.52l-7.008-0.059l-0.048,0.035c-0.266,0.874-6.752,21.617-26.126,41.37
		c-1.332-2.558-3.213-5.049-5.612-7.405c-3.333-3.273-7.566-6.184-12.58-8.652c5.071-7.011,10.61-16.455,14.825-25.278l-0.045-0.071
		h-7.499l-0.045,0.028c-4.01,8.405-7.974,14.942-13.675,22.554c-9.964-3.715-22.247-6.003-36.513-6.8
		c-4.843-0.277-9.67-0.352-14.365-0.236c0.253-8.766,0.289-15.088,0.291-15.353l-0.05,0l0,0h-0.001l-0.049,0v0l-6.57-0.037v0h-0.1
		c0,0.052-0.043,6.586-0.311,15.73c-0.006,0-0.012,0.001-0.018,0.001l-0.004,0.004c-7.909,0.565-15.598,1.639-21.124,2.947
		c-2.65-10.362-3.943-17.944-4.082-18.775l-0.003-0.021l-0.049,0.008l0,0h-6.661l-0.001-0.008l-0.048,0.008h-0.001c0,0,0,0,0,0
		l-0.049,0.008l0.014,0.087c0.48,2.973,1.861,10.911,4.314,20.481c0,0,0,0,0,0l-0.034,0.061c0.005,0.019,0.011,0.04,0.016,0.06
		c-4.241,1.319-7.309,2.509-10.591,4.105l-0.023,0.067l2.926,5.998l0.067,0.023c2.852-1.395,5.557-2.45,9.306-3.628
		c4.758,16.599,12.206,32.163,19.942,41.662l0.003-0.001c0.229,0.283,0.442,0.538,0.649,0.777c0.099,0.118,0.198,0.238,0.297,0.358
		c0.113,0.137,0.225,0.273,0.339,0.407l1.239,1.39l0.046,0.016l1.835-0.32c0.034-0.007,0.079-0.015,0.136-0.025
		c0.169-0.032,0.452-0.085,0.827-0.171c0.264-0.053,0.592-0.126,0.976-0.216l0.004-0.003c7.914-1.873,35.575-10.316,59.707-40.38
		c13.328,6.166,16.525,13.626,17.146,15.536c-19.171,17.046-42.678,25.87-69.873,26.221l-0.049,0.05v6.67l0.05,0.05
		c14.395-0.188,27.954-2.611,40.301-7.203c10.735-3.993,20.547-9.608,29.164-16.69l0.004,0.004c5.032-3.814,7.536-6.553,7.561-6.58
		l0.001-0.004c11.862-11.297,19.675-23.789,24.141-32.28c4.789-9.106,6.9-15.72,7.128-16.453L716.875,218.52z M581.918,243.852
		l0.004,0.002c4.874-1.153,11.869-2.137,19.197-2.7c-0.516,13.393-1.96,28.574-3.601,37.865
		c-6.068-9.165-12.051-22.614-15.64-35.158C581.892,243.859,581.904,243.855,581.918,243.852z M607.909,240.775
		c4.587-0.123,9.379-0.052,14.258,0.222c12.656,0.708,23.583,2.595,32.483,5.606c-19.826,23.671-42.092,32.606-50.83,35.367
		C605.987,270.978,607.434,253.383,607.909,240.775z"/>
</g>
<g>
	<path d="M514.177,358.889l3.571,0.901c-0.749,2.934-2.096,5.17-4.041,6.71c-1.945,1.54-4.323,2.31-7.133,2.31
		c-2.908,0-5.273-0.592-7.096-1.776c-1.823-1.184-3.209-2.898-4.16-5.145c-0.951-2.246-1.427-4.657-1.427-7.234
		c0-2.81,0.537-5.261,1.611-7.354c1.074-2.092,2.602-3.682,4.583-4.768c1.981-1.086,4.163-1.629,6.543-1.629
		c2.7,0,4.97,0.688,6.811,2.062c1.841,1.375,3.123,3.308,3.847,5.799l-3.516,0.828c-0.626-1.963-1.534-3.394-2.724-4.289
		c-1.19-0.896-2.688-1.344-4.492-1.344c-2.074,0-3.807,0.497-5.2,1.491c-1.393,0.994-2.372,2.328-2.936,4.004
		c-0.564,1.675-0.847,3.402-0.847,5.182c0,2.294,0.334,4.298,1.003,6.01s1.709,2.991,3.12,3.838s2.939,1.27,4.583,1.27
		c2,0,3.693-0.576,5.081-1.73C512.747,362.87,513.686,361.159,514.177,358.889z"/>
	<path d="M521.724,368.35v-26.985h3.313v9.683c1.546-1.792,3.497-2.688,5.854-2.688c1.448,0,2.706,0.285,3.773,0.855
		c1.067,0.571,1.832,1.359,2.292,2.366c0.46,1.006,0.69,2.466,0.69,4.381v12.388h-3.313v-12.388c0-1.657-0.359-2.862-1.077-3.617
		s-1.733-1.132-3.046-1.132c-0.982,0-1.905,0.255-2.771,0.764c-0.865,0.509-1.481,1.199-1.85,2.07
		c-0.368,0.872-0.552,2.074-0.552,3.608v10.694H521.724z"/>
	<path d="M555.446,365.938c-1.227,1.043-2.409,1.779-3.543,2.209c-1.135,0.429-2.353,0.644-3.654,0.644
		c-2.147,0-3.798-0.524-4.952-1.573c-1.153-1.05-1.73-2.39-1.73-4.022c0-0.957,0.218-1.831,0.653-2.623
		c0.436-0.791,1.006-1.426,1.712-1.905c0.706-0.479,1.5-0.84,2.384-1.086c0.65-0.171,1.632-0.337,2.945-0.497
		c2.675-0.318,4.645-0.699,5.909-1.141c0.012-0.454,0.019-0.742,0.019-0.865c0-1.35-0.313-2.301-0.938-2.854
		c-0.847-0.748-2.105-1.122-3.774-1.122c-1.558,0-2.709,0.272-3.451,0.818c-0.743,0.547-1.292,1.513-1.647,2.899l-3.24-0.441
		c0.294-1.387,0.779-2.507,1.454-3.359c0.675-0.854,1.65-1.51,2.927-1.97s2.755-0.69,4.437-0.69c1.668,0,3.024,0.196,4.068,0.589
		c1.043,0.393,1.81,0.887,2.301,1.482c0.491,0.595,0.834,1.347,1.031,2.255c0.11,0.564,0.166,1.583,0.166,3.055v4.418
		c0,3.08,0.071,5.028,0.212,5.845s0.42,1.599,0.837,2.347h-3.46C555.765,367.662,555.544,366.858,555.446,365.938z M555.17,358.538
		c-1.203,0.491-3.006,0.909-5.412,1.252c-1.362,0.196-2.326,0.418-2.89,0.663c-0.565,0.245-1,0.604-1.307,1.076
		c-0.307,0.473-0.46,0.998-0.46,1.574c0,0.884,0.334,1.62,1.003,2.209s1.647,0.884,2.936,0.884c1.276,0,2.411-0.279,3.405-0.838
		s1.724-1.322,2.19-2.292c0.356-0.748,0.534-1.853,0.534-3.313V358.538z"/>
	<path d="M563.674,345.175v-3.811h3.313v3.811H563.674z M563.674,368.35v-19.549h3.313v19.549H563.674z"/>
	<path d="M571.994,368.35v-19.549h2.982v2.964c0.761-1.387,1.463-2.301,2.107-2.742c0.645-0.442,1.353-0.663,2.126-0.663
		c1.117,0,2.252,0.356,3.406,1.067l-1.142,3.074c-0.81-0.479-1.62-0.718-2.43-0.718c-0.724,0-1.375,0.218-1.951,0.653
		s-0.988,1.04-1.233,1.813c-0.368,1.178-0.552,2.466-0.552,3.865v10.234H571.994z"/>
	<path d="M597.967,362.055l3.423,0.423c-0.54,2.001-1.54,3.553-3,4.657c-1.46,1.104-3.326,1.656-5.596,1.656
		c-2.86,0-5.126-0.88-6.802-2.641c-1.675-1.761-2.513-4.23-2.513-7.409c0-3.289,0.847-5.841,2.541-7.657
		c1.693-1.816,3.89-2.725,6.59-2.725c2.614,0,4.749,0.89,6.405,2.669c1.657,1.779,2.485,4.283,2.485,7.51
		c0,0.197-0.006,0.491-0.019,0.884h-14.579c0.123,2.147,0.73,3.792,1.822,4.934c1.092,1.141,2.454,1.712,4.086,1.712
		c1.215,0,2.252-0.319,3.111-0.957C596.782,364.472,597.464,363.453,597.967,362.055z M587.088,356.698h10.916
		c-0.147-1.645-0.564-2.878-1.251-3.7c-1.056-1.276-2.424-1.914-4.105-1.914c-1.522,0-2.801,0.509-3.838,1.527
		C587.772,353.63,587.198,354.992,587.088,356.698z"/>
	<path d="M634.155,341.364h3.571v15.591c0,2.713-0.308,4.866-0.921,6.461c-0.613,1.596-1.721,2.894-3.322,3.894
		s-3.703,1.5-6.305,1.5c-2.528,0-4.596-0.436-6.203-1.307s-2.755-2.132-3.442-3.783c-0.688-1.649-1.03-3.904-1.03-6.765v-15.591
		h3.57v15.573c0,2.344,0.218,4.07,0.654,5.182c0.435,1.11,1.184,1.967,2.245,2.567c1.062,0.602,2.359,0.902,3.894,0.902
		c2.626,0,4.497-0.596,5.614-1.786c1.116-1.189,1.675-3.479,1.675-6.865V341.364z"/>
	<path d="M643.635,368.35v-26.985h3.663l14.174,21.188v-21.188h3.424v26.985h-3.663l-14.174-21.205v21.205H643.635z"/>
	<path d="M670.97,368.35v-26.985h19.511v3.185h-15.94v8.265h14.929v3.166H674.54v9.186h16.566v3.185H670.97z"/>
	<path d="M694.825,359.68l3.368-0.294c0.16,1.35,0.531,2.457,1.114,3.322s1.487,1.564,2.715,2.099
		c1.227,0.533,2.607,0.801,4.142,0.801c1.362,0,2.564-0.203,3.607-0.608c1.043-0.404,1.819-0.96,2.329-1.665
		c0.509-0.706,0.764-1.476,0.764-2.311c0-0.847-0.245-1.586-0.736-2.218s-1.301-1.163-2.43-1.593
		c-0.725-0.282-2.325-0.721-4.805-1.315c-2.479-0.596-4.215-1.157-5.209-1.685c-1.288-0.675-2.249-1.513-2.881-2.513
		s-0.947-2.119-0.947-3.359c0-1.362,0.386-2.635,1.159-3.819s1.902-2.083,3.387-2.696c1.485-0.614,3.136-0.921,4.952-0.921
		c2,0,3.764,0.322,5.292,0.967c1.527,0.644,2.702,1.592,3.524,2.844s1.264,2.669,1.326,4.252l-3.424,0.258
		c-0.185-1.706-0.808-2.994-1.869-3.865s-2.629-1.308-4.702-1.308c-2.16,0-3.734,0.396-4.722,1.188
		c-0.988,0.792-1.482,1.746-1.482,2.862c0,0.97,0.351,1.768,1.05,2.393c0.687,0.626,2.481,1.268,5.384,1.924
		c2.902,0.657,4.894,1.23,5.974,1.722c1.57,0.724,2.729,1.641,3.479,2.752c0.748,1.11,1.123,2.39,1.123,3.838
		c0,1.436-0.411,2.788-1.233,4.059c-0.822,1.27-2.004,2.258-3.543,2.963c-1.541,0.706-3.274,1.059-5.2,1.059
		c-2.442,0-4.488-0.355-6.139-1.067c-1.651-0.712-2.945-1.782-3.885-3.212C695.368,363.101,694.874,361.483,694.825,359.68z"/>
	<path d="M740.439,358.889l3.571,0.901c-0.749,2.934-2.096,5.17-4.04,6.71c-1.945,1.54-4.323,2.31-7.133,2.31
		c-2.909,0-5.274-0.592-7.097-1.776c-1.822-1.184-3.209-2.898-4.16-5.145s-1.426-4.657-1.426-7.234c0-2.81,0.536-5.261,1.61-7.354
		c1.073-2.092,2.602-3.682,4.583-4.768s4.163-1.629,6.544-1.629c2.699,0,4.97,0.688,6.811,2.062
		c1.841,1.375,3.123,3.308,3.848,5.799l-3.517,0.828c-0.625-1.963-1.533-3.394-2.724-4.289s-2.688-1.344-4.491-1.344
		c-2.074,0-3.808,0.497-5.2,1.491s-2.372,2.328-2.937,4.004c-0.564,1.675-0.847,3.402-0.847,5.182c0,2.294,0.335,4.298,1.004,6.01
		c0.668,1.712,1.708,2.991,3.12,3.838c1.41,0.847,2.938,1.27,4.583,1.27c2,0,3.693-0.576,5.08-1.73
		C739.009,362.87,739.947,361.159,740.439,358.889z"/>
	<path d="M747.322,355.207c0-4.479,1.202-7.985,3.607-10.52s5.51-3.802,9.314-3.802c2.491,0,4.736,0.596,6.737,1.786
		c2,1.19,3.524,2.85,4.574,4.979c1.049,2.13,1.573,4.544,1.573,7.243c0,2.737-0.552,5.186-1.656,7.345
		c-1.104,2.16-2.669,3.795-4.694,4.905c-2.024,1.111-4.209,1.666-6.553,1.666c-2.54,0-4.811-0.613-6.811-1.841
		c-2-1.227-3.516-2.901-4.547-5.024C747.838,359.821,747.322,357.575,747.322,355.207z M751.004,355.262
		c0,3.252,0.874,5.814,2.623,7.686c1.748,1.871,3.941,2.807,6.58,2.807c2.688,0,4.899-0.944,6.636-2.834s2.605-4.571,2.605-8.044
		c0-2.197-0.372-4.114-1.114-5.753c-0.742-1.638-1.828-2.908-3.258-3.81c-1.43-0.902-3.034-1.354-4.813-1.354
		c-2.528,0-4.703,0.868-6.525,2.604C751.915,348.302,751.004,351.2,751.004,355.262z"/>
</g>
<g>
	<path d="M507.882,403.186l3.423,0.423c-0.54,2.001-1.54,3.553-3,4.657c-1.46,1.104-3.326,1.656-5.596,1.656
		c-2.86,0-5.126-0.88-6.802-2.641c-1.675-1.761-2.513-4.23-2.513-7.409c0-3.289,0.847-5.841,2.541-7.657
		c1.693-1.816,3.89-2.725,6.59-2.725c2.614,0,4.749,0.89,6.405,2.669c1.657,1.779,2.485,4.283,2.485,7.51
		c0,0.197-0.006,0.491-0.019,0.884h-14.579c0.123,2.147,0.73,3.792,1.822,4.934c1.092,1.141,2.454,1.712,4.086,1.712
		c1.215,0,2.252-0.319,3.111-0.957C506.697,405.603,507.379,404.584,507.882,403.186z M497.003,397.829h10.916
		c-0.147-1.645-0.564-2.878-1.251-3.7c-1.056-1.276-2.424-1.914-4.105-1.914c-1.522,0-2.801,0.509-3.838,1.527
		C497.687,394.761,497.113,396.123,497.003,397.829z"/>
	<path d="M515.466,409.48v-19.549h2.982v2.78c1.436-2.147,3.51-3.222,6.222-3.222c1.178,0,2.261,0.212,3.249,0.635
		c0.988,0.424,1.727,0.979,2.218,1.666c0.491,0.688,0.834,1.504,1.031,2.448c0.123,0.614,0.184,1.688,0.184,3.222v12.02h-3.313
		V397.59c0-1.351-0.129-2.359-0.387-3.028c-0.257-0.669-0.715-1.202-1.371-1.602c-0.657-0.398-1.427-0.599-2.31-0.599
		c-1.412,0-2.629,0.448-3.654,1.344c-1.025,0.896-1.537,2.596-1.537,5.1v10.676H515.466z"/>
	<path d="M546.905,416.973v-27.041h3.019v2.541c0.711-0.994,1.515-1.74,2.411-2.237c0.896-0.497,1.982-0.745,3.258-0.745
		c1.668,0,3.141,0.43,4.417,1.288c1.276,0.859,2.239,2.071,2.89,3.636c0.65,1.564,0.976,3.279,0.976,5.145
		c0,2.001-0.359,3.802-1.077,5.403c-0.718,1.601-1.761,2.828-3.129,3.681c-1.369,0.854-2.807,1.279-4.316,1.279
		c-1.104,0-2.096-0.232-2.973-0.699c-0.877-0.466-1.598-1.055-2.163-1.767v9.517H546.905z M549.905,399.816
		c0,2.516,0.509,4.375,1.528,5.578c1.019,1.202,2.251,1.804,3.7,1.804c1.473,0,2.733-0.623,3.783-1.868
		c1.049-1.246,1.574-3.176,1.574-5.789c0-2.491-0.512-4.356-1.537-5.597c-1.025-1.239-2.249-1.858-3.672-1.858
		c-1.412,0-2.66,0.659-3.746,1.979S549.905,397.301,549.905,399.816z"/>
	<path d="M580.627,407.069c-1.227,1.043-2.409,1.779-3.543,2.209c-1.135,0.429-2.353,0.644-3.654,0.644
		c-2.147,0-3.798-0.524-4.952-1.573c-1.153-1.05-1.73-2.39-1.73-4.022c0-0.957,0.218-1.831,0.653-2.623
		c0.436-0.791,1.006-1.426,1.712-1.905c0.706-0.479,1.5-0.84,2.384-1.086c0.65-0.171,1.632-0.337,2.945-0.497
		c2.675-0.318,4.645-0.699,5.909-1.141c0.012-0.454,0.019-0.742,0.019-0.865c0-1.35-0.313-2.301-0.938-2.854
		c-0.847-0.748-2.105-1.122-3.774-1.122c-1.558,0-2.709,0.272-3.451,0.818c-0.743,0.547-1.292,1.513-1.647,2.899l-3.24-0.441
		c0.294-1.387,0.779-2.507,1.454-3.359c0.675-0.854,1.65-1.51,2.927-1.97s2.755-0.69,4.437-0.69c1.668,0,3.024,0.196,4.068,0.589
		c1.043,0.393,1.81,0.887,2.301,1.482c0.491,0.595,0.834,1.347,1.031,2.255c0.11,0.564,0.166,1.583,0.166,3.055v4.418
		c0,3.08,0.071,5.028,0.212,5.845s0.42,1.599,0.837,2.347h-3.46C580.946,408.793,580.725,407.989,580.627,407.069z M580.351,399.669
		c-1.203,0.491-3.006,0.909-5.412,1.252c-1.362,0.196-2.326,0.418-2.89,0.663c-0.565,0.245-1,0.604-1.307,1.076
		c-0.307,0.473-0.46,0.998-0.46,1.574c0,0.884,0.334,1.62,1.003,2.209s1.647,0.884,2.936,0.884c1.276,0,2.411-0.279,3.405-0.838
		s1.724-1.322,2.19-2.292c0.356-0.748,0.534-1.853,0.534-3.313V399.669z"/>
	<path d="M588.69,417.009l-0.368-3.11c0.724,0.196,1.355,0.294,1.896,0.294c0.736,0,1.325-0.122,1.767-0.368
		c0.441-0.245,0.803-0.589,1.086-1.03c0.208-0.331,0.546-1.153,1.012-2.467c0.062-0.184,0.159-0.454,0.294-0.81l-7.418-19.586h3.571
		l4.068,11.321c0.527,1.436,1,2.944,1.417,4.527c0.38-1.521,0.834-3.006,1.362-4.454l4.179-11.395h3.313l-7.437,19.88
		c-0.798,2.147-1.417,3.627-1.859,4.437c-0.589,1.092-1.264,1.893-2.025,2.402c-0.761,0.509-1.669,0.764-2.724,0.764
		C590.187,417.414,589.475,417.278,588.69,417.009z"/>
	<path d="M606.361,403.645l3.276-0.516c0.184,1.313,0.696,2.319,1.537,3.019c0.84,0.7,2.016,1.05,3.524,1.05
		c1.521,0,2.65-0.31,3.387-0.93s1.105-1.347,1.105-2.182c0-0.748-0.326-1.337-0.977-1.767c-0.453-0.295-1.582-0.669-3.387-1.123
		c-2.429-0.613-4.113-1.145-5.052-1.592c-0.939-0.448-1.651-1.068-2.135-1.859c-0.485-0.792-0.727-1.666-0.727-2.623
		c0-0.871,0.199-1.678,0.598-2.421c0.398-0.742,0.942-1.358,1.629-1.85c0.516-0.381,1.218-0.702,2.108-0.967
		c0.89-0.264,1.843-0.396,2.863-0.396c1.533,0,2.881,0.221,4.039,0.663c1.16,0.441,2.016,1.04,2.568,1.794
		c0.553,0.755,0.934,1.765,1.141,3.028l-3.238,0.441c-0.148-1.006-0.574-1.791-1.279-2.355c-0.707-0.564-1.703-0.847-2.992-0.847
		c-1.521,0-2.607,0.251-3.258,0.754c-0.65,0.504-0.976,1.093-0.976,1.768c0,0.43,0.135,0.816,0.405,1.159
		c0.27,0.356,0.693,0.651,1.27,0.884c0.331,0.123,1.307,0.405,2.927,0.847c2.344,0.626,3.979,1.139,4.904,1.537
		c0.928,0.399,1.654,0.979,2.182,1.739c0.527,0.762,0.791,1.706,0.791,2.835c0,1.104-0.322,2.145-0.965,3.12
		c-0.645,0.976-1.574,1.73-2.789,2.264c-1.215,0.534-2.59,0.801-4.123,0.801c-2.541,0-4.477-0.527-5.808-1.583
		C607.578,407.284,606.729,405.72,606.361,403.645z"/>
	<path d="M639.291,407.069c-1.228,1.043-2.408,1.779-3.543,2.209c-1.136,0.429-2.354,0.644-3.654,0.644
		c-2.147,0-3.798-0.524-4.951-1.573c-1.154-1.05-1.73-2.39-1.73-4.022c0-0.957,0.218-1.831,0.653-2.623
		c0.436-0.791,1.006-1.426,1.712-1.905c0.705-0.479,1.5-0.84,2.384-1.086c0.65-0.171,1.632-0.337,2.945-0.497
		c2.675-0.318,4.645-0.699,5.908-1.141c0.013-0.454,0.019-0.742,0.019-0.865c0-1.35-0.313-2.301-0.938-2.854
		c-0.847-0.748-2.104-1.122-3.773-1.122c-1.559,0-2.709,0.272-3.451,0.818c-0.743,0.547-1.292,1.513-1.647,2.899l-3.24-0.441
		c0.295-1.387,0.779-2.507,1.454-3.359c0.675-0.854,1.65-1.51,2.927-1.97s2.755-0.69,4.437-0.69c1.669,0,3.024,0.196,4.067,0.589
		s1.811,0.887,2.302,1.482c0.49,0.595,0.834,1.347,1.03,2.255c0.11,0.564,0.166,1.583,0.166,3.055v4.418
		c0,3.08,0.07,5.028,0.211,5.845c0.142,0.816,0.421,1.599,0.838,2.347h-3.46C639.611,408.793,639.389,407.989,639.291,407.069z
		 M639.015,399.669c-1.202,0.491-3.007,0.909-5.411,1.252c-1.362,0.196-2.326,0.418-2.891,0.663s-1,0.604-1.307,1.076
		c-0.307,0.473-0.46,0.998-0.46,1.574c0,0.884,0.334,1.62,1.003,2.209s1.647,0.884,2.937,0.884c1.275,0,2.411-0.279,3.405-0.838
		c0.993-0.559,1.724-1.322,2.19-2.292c0.355-0.748,0.533-1.853,0.533-3.313V399.669z"/>
	<path d="M646.894,411.101l3.221,0.479c0.135,0.994,0.509,1.718,1.123,2.172c0.822,0.613,1.944,0.92,3.368,0.92
		c1.534,0,2.718-0.307,3.553-0.92c0.835-0.614,1.399-1.473,1.693-2.577c0.172-0.675,0.252-2.092,0.239-4.252
		c-1.448,1.706-3.252,2.559-5.411,2.559c-2.688,0-4.768-0.97-6.24-2.908s-2.209-4.265-2.209-6.977c0-1.865,0.337-3.586,1.013-5.163
		c0.675-1.577,1.653-2.795,2.936-3.654c1.282-0.858,2.789-1.288,4.52-1.288c2.307,0,4.209,0.933,5.706,2.798v-2.356h3.056v16.898
		c0,3.043-0.311,5.2-0.93,6.47c-0.62,1.271-1.602,2.273-2.945,3.01s-2.997,1.104-4.961,1.104c-2.331,0-4.215-0.524-5.65-1.574
		C647.537,414.791,646.844,413.211,646.894,411.101z M649.636,399.356c0,2.565,0.509,4.437,1.528,5.614
		c1.018,1.178,2.294,1.768,3.828,1.768c1.521,0,2.798-0.586,3.829-1.759c1.03-1.171,1.546-3.009,1.546-5.513
		c0-2.393-0.531-4.196-1.592-5.411c-1.062-1.215-2.341-1.822-3.838-1.822c-1.473,0-2.725,0.598-3.756,1.794
		C650.152,395.224,649.636,397,649.636,399.356z"/>
	<path d="M681.849,403.186l3.424,0.423c-0.54,2.001-1.54,3.553-3.001,4.657c-1.46,1.104-3.325,1.656-5.596,1.656
		c-2.859,0-5.126-0.88-6.801-2.641c-1.676-1.761-2.513-4.23-2.513-7.409c0-3.289,0.847-5.841,2.54-7.657s3.89-2.725,6.59-2.725
		c2.613,0,4.749,0.89,6.405,2.669c1.657,1.779,2.485,4.283,2.485,7.51c0,0.197-0.007,0.491-0.019,0.884h-14.578
		c0.122,2.147,0.729,3.792,1.822,4.934c1.092,1.141,2.454,1.712,4.086,1.712c1.215,0,2.252-0.319,3.111-0.957
		C680.664,405.603,681.345,404.584,681.849,403.186z M670.97,397.829h10.916c-0.147-1.645-0.565-2.878-1.252-3.7
		c-1.056-1.276-2.424-1.914-4.105-1.914c-1.521,0-2.801,0.509-3.838,1.527S671.08,396.123,670.97,397.829z"/>
	<path d="M712.718,409.48v-2.871c-1.522,2.208-3.59,3.313-6.204,3.313c-1.153,0-2.23-0.221-3.23-0.662
		c-1-0.442-1.742-0.997-2.227-1.666c-0.485-0.669-0.826-1.488-1.021-2.457c-0.136-0.65-0.203-1.682-0.203-3.093v-12.112h3.313
		v10.842c0,1.73,0.067,2.896,0.202,3.498c0.209,0.871,0.65,1.555,1.325,2.052s1.51,0.746,2.504,0.746s1.927-0.255,2.798-0.764
		c0.871-0.51,1.488-1.203,1.85-2.08c0.362-0.878,0.543-2.15,0.543-3.82v-10.474h3.313v19.549H712.718z"/>
	<path d="M720.835,409.48v-19.549h2.981v2.964c0.761-1.387,1.464-2.301,2.108-2.742c0.644-0.442,1.353-0.663,2.126-0.663
		c1.116,0,2.251,0.356,3.405,1.067l-1.142,3.074c-0.81-0.479-1.62-0.718-2.43-0.718c-0.725,0-1.374,0.218-1.951,0.653
		s-0.988,1.04-1.233,1.813c-0.368,1.178-0.552,2.466-0.552,3.865v10.234H720.835z"/>
	<path d="M736.482,409.48h-3.074v-26.985h3.313v9.627c1.398-1.754,3.184-2.632,5.356-2.632c1.202,0,2.34,0.242,3.414,0.728
		c1.074,0.484,1.957,1.166,2.65,2.043s1.236,1.936,1.63,3.175c0.393,1.24,0.589,2.565,0.589,3.977c0,3.35-0.829,5.939-2.485,7.768
		s-3.645,2.742-5.964,2.742c-2.308,0-4.117-0.963-5.43-2.89V409.48z M736.445,399.559c0,2.345,0.318,4.038,0.957,5.081
		c1.043,1.705,2.454,2.559,4.233,2.559c1.448,0,2.7-0.629,3.755-1.887c1.056-1.258,1.583-3.133,1.583-5.624
		c0-2.552-0.506-4.436-1.519-5.65c-1.012-1.215-2.236-1.822-3.672-1.822c-1.448,0-2.7,0.629-3.755,1.887
		C736.972,395.359,736.445,397.179,736.445,399.559z"/>
	<path d="M767.148,407.069c-1.228,1.043-2.408,1.779-3.543,2.209c-1.136,0.429-2.354,0.644-3.654,0.644
		c-2.147,0-3.798-0.524-4.951-1.573c-1.154-1.05-1.73-2.39-1.73-4.022c0-0.957,0.218-1.831,0.653-2.623
		c0.436-0.791,1.006-1.426,1.712-1.905c0.705-0.479,1.5-0.84,2.384-1.086c0.65-0.171,1.632-0.337,2.945-0.497
		c2.675-0.318,4.645-0.699,5.908-1.141c0.013-0.454,0.019-0.742,0.019-0.865c0-1.35-0.313-2.301-0.938-2.854
		c-0.847-0.748-2.104-1.122-3.773-1.122c-1.559,0-2.709,0.272-3.451,0.818c-0.743,0.547-1.292,1.513-1.647,2.899l-3.24-0.441
		c0.295-1.387,0.779-2.507,1.454-3.359c0.675-0.854,1.65-1.51,2.927-1.97s2.755-0.69,4.437-0.69c1.669,0,3.024,0.196,4.067,0.589
		s1.811,0.887,2.302,1.482c0.49,0.595,0.834,1.347,1.03,2.255c0.11,0.564,0.166,1.583,0.166,3.055v4.418
		c0,3.08,0.07,5.028,0.211,5.845c0.142,0.816,0.421,1.599,0.838,2.347h-3.46C767.467,408.793,767.245,407.989,767.148,407.069z
		 M766.871,399.669c-1.202,0.491-3.007,0.909-5.411,1.252c-1.362,0.196-2.326,0.418-2.891,0.663s-1,0.604-1.307,1.076
		c-0.307,0.473-0.46,0.998-0.46,1.574c0,0.884,0.334,1.62,1.003,2.209s1.647,0.884,2.937,0.884c1.275,0,2.411-0.279,3.405-0.838
		c0.993-0.559,1.724-1.322,2.19-2.292c0.355-0.748,0.533-1.853,0.533-3.313V399.669z"/>
	<path d="M775.375,386.306v-3.811h3.313v3.811H775.375z M775.375,409.48v-19.549h3.313v19.549H775.375z"/>
	<path d="M783.733,409.48v-19.549h2.981v2.78c1.436-2.147,3.51-3.222,6.222-3.222c1.178,0,2.261,0.212,3.249,0.635
		c0.987,0.424,1.728,0.979,2.218,1.666c0.491,0.688,0.835,1.504,1.031,2.448c0.122,0.614,0.184,1.688,0.184,3.222v12.02h-3.313
		V397.59c0-1.351-0.128-2.359-0.386-3.028s-0.716-1.202-1.372-1.602c-0.656-0.398-1.426-0.599-2.31-0.599
		c-1.411,0-2.63,0.448-3.654,1.344c-1.024,0.896-1.537,2.596-1.537,5.1v10.676H783.733z"/>
</g>
<g>
	<path d="M194.78,355.59c0-4.479,1.203-7.985,3.608-10.52c2.405-2.534,5.51-3.802,9.314-3.802c2.491,0,4.737,0.596,6.737,1.786
		c2,1.19,3.525,2.85,4.574,4.979c1.049,2.13,1.574,4.544,1.574,7.243c0,2.737-0.552,5.186-1.657,7.345
		c-1.104,2.16-2.669,3.795-4.694,4.905c-2.025,1.111-4.209,1.666-6.553,1.666c-2.54,0-4.811-0.613-6.811-1.841
		c-2-1.227-3.516-2.901-4.546-5.024S194.78,357.958,194.78,355.59z M198.462,355.645c0,3.252,0.874,5.814,2.623,7.686
		c1.749,1.871,3.942,2.807,6.581,2.807c2.688,0,4.899-0.944,6.636-2.834c1.736-1.89,2.604-4.571,2.604-8.044
		c0-2.197-0.371-4.114-1.114-5.753c-0.743-1.638-1.829-2.908-3.258-3.81c-1.43-0.902-3.034-1.354-4.813-1.354
		c-2.528,0-4.703,0.868-6.525,2.604C199.373,348.685,198.462,351.583,198.462,355.645z"/>
	<path d="M224.729,368.732v-19.549h2.982v2.964c0.761-1.387,1.463-2.301,2.107-2.742c0.645-0.442,1.353-0.663,2.126-0.663
		c1.117,0,2.252,0.356,3.406,1.067l-1.142,3.074c-0.81-0.479-1.62-0.718-2.43-0.718c-0.724,0-1.375,0.218-1.951,0.653
		s-0.988,1.04-1.233,1.813c-0.368,1.178-0.552,2.466-0.552,3.865v10.234H224.729z"/>
	<path d="M236.712,370.353l3.221,0.479c0.135,0.994,0.509,1.718,1.123,2.172c0.822,0.613,1.945,0.92,3.369,0.92
		c1.534,0,2.718-0.307,3.552-0.92c0.834-0.614,1.399-1.473,1.694-2.577c0.171-0.675,0.251-2.092,0.239-4.252
		c-1.448,1.706-3.252,2.559-5.412,2.559c-2.687,0-4.767-0.97-6.24-2.908s-2.209-4.265-2.209-6.977c0-1.865,0.337-3.586,1.012-5.163
		s1.654-2.795,2.936-3.654c1.282-0.858,2.789-1.288,4.519-1.288c2.307,0,4.209,0.933,5.706,2.798v-2.356h3.056v16.898
		c0,3.043-0.31,5.2-0.929,6.47c-0.62,1.271-1.602,2.273-2.945,3.01s-2.998,1.104-4.961,1.104c-2.332,0-4.215-0.524-5.651-1.574
		C237.357,374.043,236.663,372.463,236.712,370.353z M239.455,358.608c0,2.565,0.509,4.437,1.528,5.614s2.294,1.768,3.829,1.768
		c1.521,0,2.798-0.586,3.829-1.759c1.031-1.171,1.546-3.009,1.546-5.513c0-2.393-0.531-4.196-1.592-5.411s-2.341-1.822-3.838-1.822
		c-1.473,0-2.724,0.598-3.755,1.794S239.455,356.252,239.455,358.608z"/>
	<path d="M271.042,366.321c-1.227,1.043-2.409,1.779-3.543,2.209c-1.135,0.429-2.353,0.644-3.654,0.644
		c-2.147,0-3.798-0.524-4.952-1.573c-1.153-1.05-1.73-2.39-1.73-4.022c0-0.957,0.218-1.831,0.653-2.623
		c0.436-0.791,1.006-1.426,1.712-1.905c0.706-0.479,1.5-0.84,2.384-1.086c0.65-0.171,1.632-0.337,2.945-0.497
		c2.675-0.318,4.645-0.699,5.909-1.141c0.012-0.454,0.019-0.742,0.019-0.865c0-1.35-0.313-2.301-0.938-2.854
		c-0.847-0.748-2.105-1.122-3.774-1.122c-1.558,0-2.709,0.272-3.451,0.818c-0.743,0.547-1.292,1.513-1.647,2.899l-3.24-0.441
		c0.294-1.387,0.779-2.507,1.454-3.359c0.675-0.854,1.65-1.51,2.927-1.97s2.755-0.69,4.437-0.69c1.668,0,3.024,0.196,4.068,0.589
		c1.043,0.393,1.81,0.887,2.301,1.482c0.491,0.595,0.834,1.347,1.031,2.255c0.11,0.564,0.166,1.583,0.166,3.055v4.418
		c0,3.08,0.071,5.028,0.212,5.845s0.42,1.599,0.837,2.347h-3.46C271.361,368.045,271.14,367.241,271.042,366.321z M270.765,358.921
		c-1.203,0.491-3.006,0.909-5.412,1.252c-1.362,0.196-2.326,0.418-2.89,0.663c-0.565,0.245-1,0.604-1.307,1.076
		c-0.307,0.473-0.46,0.998-0.46,1.574c0,0.884,0.334,1.62,1.003,2.209s1.647,0.884,2.936,0.884c1.276,0,2.411-0.279,3.405-0.838
		s1.724-1.322,2.19-2.292c0.356-0.748,0.534-1.853,0.534-3.313V358.921z"/>
	<path d="M279.251,368.732v-19.549h2.982v2.78c1.436-2.147,3.51-3.222,6.222-3.222c1.178,0,2.261,0.212,3.249,0.635
		c0.988,0.424,1.727,0.979,2.218,1.666c0.491,0.688,0.834,1.504,1.031,2.448c0.123,0.614,0.184,1.688,0.184,3.222v12.02h-3.313
		v-11.891c0-1.351-0.129-2.359-0.387-3.028c-0.257-0.669-0.715-1.202-1.371-1.602c-0.657-0.398-1.427-0.599-2.31-0.599
		c-1.412,0-2.629,0.448-3.654,1.344c-1.025,0.896-1.537,2.596-1.537,5.1v10.676H279.251z"/>
	<path d="M300.236,345.558v-3.811h3.313v3.811H300.236z M300.236,368.732v-19.549h3.313v19.549H300.236z"/>
	<path d="M307.267,362.897l3.276-0.516c0.184,1.313,0.696,2.319,1.537,3.019c0.84,0.7,2.016,1.05,3.525,1.05
		c1.521,0,2.651-0.31,3.387-0.93c0.736-0.62,1.104-1.347,1.104-2.182c0-0.748-0.325-1.337-0.976-1.767
		c-0.454-0.295-1.583-0.669-3.387-1.123c-2.43-0.613-4.114-1.145-5.053-1.592c-0.939-0.448-1.651-1.068-2.135-1.859
		c-0.485-0.792-0.727-1.666-0.727-2.623c0-0.871,0.199-1.678,0.598-2.421c0.398-0.742,0.942-1.358,1.629-1.85
		c0.516-0.381,1.218-0.702,2.108-0.967c0.89-0.264,1.843-0.396,2.862-0.396c1.534,0,2.881,0.221,4.041,0.663
		c1.159,0.441,2.015,1.04,2.567,1.794c0.552,0.755,0.933,1.765,1.142,3.028l-3.24,0.441c-0.147-1.006-0.574-1.791-1.279-2.355
		c-0.706-0.564-1.703-0.847-2.991-0.847c-1.522,0-2.608,0.251-3.258,0.754c-0.65,0.504-0.976,1.093-0.976,1.768
		c0,0.43,0.135,0.816,0.405,1.159c0.27,0.356,0.693,0.651,1.27,0.884c0.331,0.123,1.307,0.405,2.927,0.847
		c2.344,0.626,3.979,1.139,4.905,1.537c0.927,0.399,1.654,0.979,2.182,1.739c0.527,0.762,0.792,1.706,0.792,2.835
		c0,1.104-0.322,2.145-0.967,3.12c-0.644,0.976-1.574,1.73-2.789,2.264c-1.215,0.534-2.589,0.801-4.123,0.801
		c-2.54,0-4.476-0.527-5.808-1.583C308.485,366.536,307.635,364.972,307.267,362.897z"/>
	<path d="M340.197,366.321c-1.227,1.043-2.409,1.779-3.543,2.209c-1.135,0.429-2.353,0.644-3.654,0.644
		c-2.147,0-3.798-0.524-4.952-1.573c-1.153-1.05-1.73-2.39-1.73-4.022c0-0.957,0.218-1.831,0.653-2.623
		c0.436-0.791,1.006-1.426,1.712-1.905c0.706-0.479,1.5-0.84,2.384-1.086c0.65-0.171,1.632-0.337,2.945-0.497
		c2.675-0.318,4.645-0.699,5.909-1.141c0.012-0.454,0.019-0.742,0.019-0.865c0-1.35-0.313-2.301-0.938-2.854
		c-0.847-0.748-2.105-1.122-3.774-1.122c-1.558,0-2.709,0.272-3.451,0.818c-0.743,0.547-1.292,1.513-1.647,2.899l-3.24-0.441
		c0.294-1.387,0.779-2.507,1.454-3.359c0.675-0.854,1.65-1.51,2.927-1.97s2.755-0.69,4.437-0.69c1.668,0,3.024,0.196,4.068,0.589
		c1.043,0.393,1.81,0.887,2.301,1.482c0.491,0.595,0.834,1.347,1.031,2.255c0.11,0.564,0.166,1.583,0.166,3.055v4.418
		c0,3.08,0.071,5.028,0.212,5.845s0.42,1.599,0.837,2.347h-3.46C340.516,368.045,340.296,367.241,340.197,366.321z M339.921,358.921
		c-1.203,0.491-3.006,0.909-5.412,1.252c-1.362,0.196-2.326,0.418-2.89,0.663c-0.565,0.245-1,0.604-1.307,1.076
		c-0.307,0.473-0.46,0.998-0.46,1.574c0,0.884,0.334,1.62,1.003,2.209s1.647,0.884,2.936,0.884c1.276,0,2.411-0.279,3.405-0.838
		s1.724-1.322,2.19-2.292c0.356-0.748,0.534-1.853,0.534-3.313V358.921z"/>
	<path d="M355.641,365.769l0.479,2.927c-0.933,0.196-1.767,0.295-2.503,0.295c-1.203,0-2.135-0.19-2.798-0.57
		c-0.663-0.381-1.129-0.881-1.399-1.501c-0.27-0.619-0.405-1.923-0.405-3.911v-11.247h-2.43v-2.577h2.43v-4.841l3.295-1.988v6.829
		h3.332v2.577h-3.332v11.431c0,0.945,0.058,1.553,0.175,1.823c0.117,0.27,0.307,0.484,0.571,0.644
		c0.264,0.16,0.641,0.239,1.132,0.239C354.555,365.897,355.04,365.854,355.641,365.769z"/>
	<path d="M358.899,345.558v-3.811h3.313v3.811H358.899z M358.899,368.732v-19.549h3.313v19.549H358.899z"/>
	<path d="M366.023,358.958c0-3.62,1.006-6.301,3.019-8.044c1.681-1.447,3.73-2.172,6.148-2.172c2.688,0,4.884,0.881,6.59,2.642
		c1.706,1.761,2.559,4.193,2.559,7.298c0,2.517-0.377,4.495-1.132,5.937c-0.755,1.442-1.854,2.563-3.295,3.359
		c-1.442,0.798-3.016,1.196-4.722,1.196c-2.737,0-4.949-0.877-6.636-2.632C366.866,364.787,366.023,362.26,366.023,358.958z
		 M369.428,358.958c0,2.504,0.546,4.378,1.638,5.624c1.092,1.245,2.466,1.868,4.123,1.868c1.645,0,3.013-0.626,4.105-1.878
		c1.092-1.252,1.638-3.159,1.638-5.725c0-2.417-0.549-4.249-1.647-5.494c-1.099-1.246-2.464-1.868-4.096-1.868
		c-1.657,0-3.031,0.619-4.123,1.858C369.974,354.584,369.428,356.455,369.428,358.958z"/>
	<path d="M388.222,368.732v-19.549h2.982v2.78c1.436-2.147,3.51-3.222,6.222-3.222c1.178,0,2.261,0.212,3.249,0.635
		c0.988,0.424,1.727,0.979,2.218,1.666c0.491,0.688,0.834,1.504,1.031,2.448c0.123,0.614,0.184,1.688,0.184,3.222v12.02h-3.313
		v-11.891c0-1.351-0.129-2.359-0.387-3.028c-0.257-0.669-0.715-1.202-1.371-1.602c-0.657-0.398-1.427-0.599-2.31-0.599
		c-1.412,0-2.629,0.448-3.654,1.344c-1.025,0.896-1.537,2.596-1.537,5.1v10.676H388.222z"/>
</g>
<g>
	<path d="M115.954,409.861v-2.467c-1.24,1.939-3.062,2.908-5.467,2.908c-1.559,0-2.991-0.43-4.298-1.288
		c-1.307-0.858-2.319-2.059-3.037-3.599s-1.077-3.311-1.077-5.311c0-1.951,0.325-3.721,0.976-5.311
		c0.65-1.589,1.626-2.807,2.927-3.653c1.3-0.847,2.755-1.271,4.362-1.271c1.178,0,2.228,0.248,3.148,0.745
		c0.92,0.497,1.668,1.145,2.246,1.942v-9.683h3.295v26.985H115.954z M105.48,400.105c0,2.504,0.527,4.375,1.583,5.614
		c1.055,1.239,2.301,1.859,3.737,1.859c1.448,0,2.678-0.592,3.69-1.776c1.013-1.185,1.519-2.991,1.519-5.421
		c0-2.676-0.515-4.639-1.546-5.891c-1.031-1.252-2.301-1.877-3.811-1.877c-1.473,0-2.703,0.601-3.69,1.804
		C105.974,395.62,105.48,397.517,105.48,400.105z"/>
	<path d="M137.619,403.566l3.423,0.423c-0.54,2.001-1.54,3.553-3,4.657c-1.46,1.104-3.326,1.656-5.596,1.656
		c-2.86,0-5.126-0.88-6.802-2.641c-1.675-1.761-2.513-4.23-2.513-7.409c0-3.289,0.847-5.841,2.541-7.657
		c1.693-1.816,3.89-2.725,6.59-2.725c2.614,0,4.749,0.89,6.405,2.669c1.657,1.779,2.485,4.283,2.485,7.51
		c0,0.197-0.006,0.491-0.019,0.884h-14.579c0.123,2.147,0.73,3.792,1.822,4.934c1.092,1.141,2.454,1.712,4.086,1.712
		c1.215,0,2.252-0.319,3.111-0.957C136.435,405.983,137.116,404.965,137.619,403.566z M126.74,398.21h10.916
		c-0.147-1.645-0.564-2.878-1.251-3.7c-1.056-1.276-2.424-1.914-4.105-1.914c-1.522,0-2.801,0.509-3.838,1.527
		C127.424,395.142,126.851,396.504,126.74,398.21z"/>
	<path d="M143.878,404.026l3.276-0.516c0.184,1.313,0.696,2.319,1.537,3.019c0.84,0.7,2.016,1.05,3.525,1.05
		c1.521,0,2.651-0.31,3.387-0.93c0.736-0.62,1.104-1.347,1.104-2.182c0-0.748-0.325-1.337-0.976-1.767
		c-0.454-0.295-1.583-0.669-3.387-1.123c-2.43-0.613-4.114-1.145-5.053-1.592c-0.939-0.448-1.651-1.068-2.135-1.859
		c-0.485-0.792-0.727-1.666-0.727-2.623c0-0.871,0.199-1.678,0.598-2.421c0.398-0.742,0.942-1.358,1.629-1.85
		c0.516-0.381,1.218-0.702,2.108-0.967c0.89-0.264,1.843-0.396,2.862-0.396c1.534,0,2.881,0.221,4.041,0.663
		c1.159,0.441,2.015,1.04,2.567,1.794c0.552,0.755,0.933,1.765,1.142,3.028l-3.24,0.441c-0.147-1.006-0.574-1.791-1.279-2.355
		c-0.706-0.564-1.703-0.847-2.991-0.847c-1.522,0-2.608,0.251-3.258,0.754c-0.65,0.504-0.976,1.093-0.976,1.768
		c0,0.43,0.135,0.816,0.405,1.159c0.27,0.356,0.693,0.651,1.27,0.884c0.331,0.123,1.307,0.405,2.927,0.847
		c2.344,0.626,3.979,1.139,4.905,1.537c0.927,0.399,1.654,0.979,2.182,1.739c0.527,0.762,0.792,1.706,0.792,2.835
		c0,1.104-0.322,2.145-0.967,3.12c-0.644,0.976-1.574,1.73-2.789,2.264c-1.215,0.534-2.589,0.801-4.123,0.801
		c-2.54,0-4.476-0.527-5.808-1.583C145.095,407.665,144.246,406.101,143.878,404.026z"/>
	<path d="M174.912,409.861v-26.985h3.663l14.173,21.188v-21.188h3.424v26.985h-3.663l-14.173-21.205v21.205H174.912z"/>
	<path d="M214.506,407.45c-1.227,1.043-2.409,1.779-3.543,2.209c-1.135,0.429-2.353,0.644-3.654,0.644
		c-2.147,0-3.798-0.524-4.952-1.573c-1.153-1.05-1.73-2.39-1.73-4.022c0-0.957,0.218-1.831,0.653-2.623
		c0.436-0.791,1.006-1.426,1.712-1.905c0.706-0.479,1.5-0.84,2.384-1.086c0.65-0.171,1.632-0.337,2.945-0.497
		c2.675-0.318,4.645-0.699,5.909-1.141c0.012-0.454,0.019-0.742,0.019-0.865c0-1.35-0.313-2.301-0.938-2.854
		c-0.847-0.748-2.105-1.122-3.774-1.122c-1.558,0-2.709,0.272-3.451,0.818c-0.743,0.547-1.292,1.513-1.647,2.899l-3.24-0.441
		c0.294-1.387,0.779-2.507,1.454-3.359c0.675-0.854,1.65-1.51,2.927-1.97s2.755-0.69,4.437-0.69c1.668,0,3.024,0.196,4.068,0.589
		c1.043,0.393,1.81,0.887,2.301,1.482c0.491,0.595,0.834,1.347,1.031,2.255c0.11,0.564,0.166,1.583,0.166,3.055v4.418
		c0,3.08,0.071,5.028,0.212,5.845s0.42,1.599,0.837,2.347h-3.46C214.825,409.174,214.604,408.37,214.506,407.45z M214.23,400.05
		c-1.203,0.491-3.006,0.909-5.412,1.252c-1.362,0.196-2.326,0.418-2.89,0.663c-0.565,0.245-1,0.604-1.307,1.076
		c-0.307,0.473-0.46,0.998-0.46,1.574c0,0.884,0.334,1.62,1.003,2.209s1.647,0.884,2.936,0.884c1.276,0,2.411-0.279,3.405-0.838
		s1.724-1.322,2.19-2.292c0.356-0.748,0.534-1.853,0.534-3.313V400.05z"/>
	<path d="M229.95,406.897l0.479,2.927c-0.933,0.196-1.767,0.295-2.503,0.295c-1.203,0-2.135-0.19-2.798-0.57
		c-0.663-0.381-1.129-0.881-1.399-1.501c-0.27-0.619-0.405-1.923-0.405-3.911V392.89h-2.43v-2.577h2.43v-4.841l3.295-1.988v6.829
		h3.332v2.577h-3.332v11.431c0,0.945,0.058,1.553,0.175,1.823c0.117,0.27,0.307,0.484,0.571,0.644
		c0.264,0.16,0.641,0.239,1.132,0.239C228.863,407.026,229.348,406.983,229.95,406.897z"/>
	<path d="M233.208,386.686v-3.811h3.313v3.811H233.208z M233.208,409.861v-19.549h3.313v19.549H233.208z"/>
	<path d="M240.331,400.087c0-3.62,1.006-6.301,3.019-8.044c1.681-1.447,3.73-2.172,6.148-2.172c2.688,0,4.884,0.881,6.59,2.642
		c1.706,1.761,2.559,4.193,2.559,7.298c0,2.517-0.377,4.495-1.132,5.937c-0.755,1.442-1.854,2.563-3.295,3.359
		c-1.442,0.798-3.016,1.196-4.722,1.196c-2.737,0-4.949-0.877-6.636-2.632C241.175,405.916,240.331,403.389,240.331,400.087z
		 M243.737,400.087c0,2.504,0.546,4.378,1.638,5.624c1.092,1.245,2.466,1.868,4.123,1.868c1.645,0,3.013-0.626,4.105-1.878
		c1.092-1.252,1.638-3.159,1.638-5.725c0-2.417-0.549-4.249-1.647-5.494c-1.099-1.246-2.464-1.868-4.096-1.868
		c-1.657,0-3.031,0.619-4.123,1.858C244.283,395.713,243.737,397.584,243.737,400.087z"/>
	<path d="M262.53,409.861v-19.549h2.982v2.78c1.436-2.147,3.51-3.222,6.222-3.222c1.178,0,2.261,0.212,3.249,0.635
		c0.988,0.424,1.727,0.979,2.218,1.666c0.491,0.688,0.834,1.504,1.031,2.448c0.123,0.614,0.184,1.688,0.184,3.222v12.02h-3.313
		v-11.891c0-1.351-0.129-2.359-0.387-3.028c-0.257-0.669-0.715-1.202-1.371-1.602c-0.657-0.398-1.427-0.599-2.31-0.599
		c-1.412,0-2.629,0.448-3.654,1.344c-1.025,0.896-1.537,2.596-1.537,5.1v10.676H262.53z"/>
	<path d="M282.171,404.026l3.276-0.516c0.184,1.313,0.696,2.319,1.537,3.019c0.84,0.7,2.016,1.05,3.525,1.05
		c1.521,0,2.651-0.31,3.387-0.93c0.736-0.62,1.104-1.347,1.104-2.182c0-0.748-0.325-1.337-0.976-1.767
		c-0.454-0.295-1.583-0.669-3.387-1.123c-2.43-0.613-4.114-1.145-5.053-1.592c-0.939-0.448-1.651-1.068-2.135-1.859
		c-0.485-0.792-0.727-1.666-0.727-2.623c0-0.871,0.199-1.678,0.598-2.421c0.398-0.742,0.942-1.358,1.629-1.85
		c0.516-0.381,1.218-0.702,2.108-0.967c0.89-0.264,1.843-0.396,2.862-0.396c1.534,0,2.881,0.221,4.041,0.663
		c1.159,0.441,2.015,1.04,2.567,1.794c0.552,0.755,0.933,1.765,1.142,3.028l-3.24,0.441c-0.147-1.006-0.574-1.791-1.279-2.355
		c-0.706-0.564-1.703-0.847-2.991-0.847c-1.522,0-2.608,0.251-3.258,0.754c-0.65,0.504-0.976,1.093-0.976,1.768
		c0,0.43,0.135,0.816,0.405,1.159c0.27,0.356,0.693,0.651,1.27,0.884c0.331,0.123,1.307,0.405,2.927,0.847
		c2.344,0.626,3.979,1.139,4.905,1.537c0.927,0.399,1.654,0.979,2.182,1.739c0.527,0.762,0.792,1.706,0.792,2.835
		c0,1.104-0.322,2.145-0.967,3.12c-0.644,0.976-1.574,1.73-2.789,2.264c-1.215,0.534-2.589,0.801-4.123,0.801
		c-2.54,0-4.476-0.527-5.808-1.583C283.389,407.665,282.539,406.101,282.171,404.026z"/>
	<path d="M330.95,382.876h3.571v15.591c0,2.713-0.307,4.866-0.92,6.461c-0.614,1.596-1.721,2.894-3.322,3.894
		c-1.602,1-3.703,1.5-6.305,1.5c-2.528,0-4.596-0.436-6.203-1.307c-1.608-0.871-2.755-2.132-3.442-3.783
		c-0.687-1.649-1.031-3.904-1.031-6.765v-15.591h3.571v15.573c0,2.344,0.218,4.07,0.653,5.182c0.436,1.11,1.184,1.967,2.246,2.567
		c1.062,0.602,2.359,0.902,3.893,0.902c2.626,0,4.498-0.596,5.614-1.786c1.117-1.189,1.675-3.479,1.675-6.865V382.876z"/>
	<path d="M340.043,409.861v-19.549h2.982v2.78c1.436-2.147,3.51-3.222,6.222-3.222c1.178,0,2.261,0.212,3.249,0.635
		c0.988,0.424,1.727,0.979,2.218,1.666c0.491,0.688,0.834,1.504,1.031,2.448c0.123,0.614,0.184,1.688,0.184,3.222v12.02h-3.313
		v-11.891c0-1.351-0.129-2.359-0.387-3.028c-0.257-0.669-0.715-1.202-1.371-1.602c-0.657-0.398-1.427-0.599-2.31-0.599
		c-1.412,0-2.629,0.448-3.654,1.344c-1.025,0.896-1.537,2.596-1.537,5.1v10.676H340.043z"/>
	<path d="M361.027,386.686v-3.811h3.313v3.811H361.027z M361.027,409.861v-19.549h3.313v19.549H361.027z"/>
	<path d="M382.766,403.566l3.423,0.423c-0.54,2.001-1.54,3.553-3,4.657c-1.46,1.104-3.326,1.656-5.596,1.656
		c-2.86,0-5.126-0.88-6.802-2.641c-1.675-1.761-2.513-4.23-2.513-7.409c0-3.289,0.847-5.841,2.541-7.657
		c1.693-1.816,3.89-2.725,6.59-2.725c2.614,0,4.749,0.89,6.405,2.669c1.657,1.779,2.485,4.283,2.485,7.51
		c0,0.197-0.006,0.491-0.019,0.884h-14.579c0.123,2.147,0.73,3.792,1.822,4.934c1.092,1.141,2.454,1.712,4.086,1.712
		c1.215,0,2.252-0.319,3.111-0.957C381.582,405.983,382.263,404.965,382.766,403.566z M371.887,398.21h10.916
		c-0.147-1.645-0.564-2.878-1.251-3.7c-1.056-1.276-2.424-1.914-4.105-1.914c-1.522,0-2.801,0.509-3.838,1.527
		C372.571,395.142,371.998,396.504,371.887,398.21z"/>
	<path d="M389.025,404.026l3.276-0.516c0.184,1.313,0.696,2.319,1.537,3.019c0.84,0.7,2.016,1.05,3.525,1.05
		c1.521,0,2.651-0.31,3.387-0.93c0.736-0.62,1.104-1.347,1.104-2.182c0-0.748-0.325-1.337-0.976-1.767
		c-0.454-0.295-1.583-0.669-3.387-1.123c-2.43-0.613-4.114-1.145-5.053-1.592c-0.939-0.448-1.651-1.068-2.135-1.859
		c-0.485-0.792-0.727-1.666-0.727-2.623c0-0.871,0.199-1.678,0.598-2.421c0.398-0.742,0.942-1.358,1.629-1.85
		c0.516-0.381,1.218-0.702,2.108-0.967c0.89-0.264,1.843-0.396,2.862-0.396c1.534,0,2.881,0.221,4.041,0.663
		c1.159,0.441,2.015,1.04,2.567,1.794c0.552,0.755,0.933,1.765,1.142,3.028l-3.24,0.441c-0.147-1.006-0.574-1.791-1.279-2.355
		c-0.706-0.564-1.703-0.847-2.991-0.847c-1.522,0-2.608,0.251-3.258,0.754c-0.65,0.504-0.976,1.093-0.976,1.768
		c0,0.43,0.135,0.816,0.405,1.159c0.27,0.356,0.693,0.651,1.27,0.884c0.331,0.123,1.307,0.405,2.927,0.847
		c2.344,0.626,3.979,1.139,4.905,1.537c0.927,0.399,1.654,0.979,2.182,1.739c0.527,0.762,0.792,1.706,0.792,2.835
		c0,1.104-0.322,2.145-0.967,3.12c-0.644,0.976-1.574,1.73-2.789,2.264c-1.215,0.534-2.589,0.801-4.123,0.801
		c-2.54,0-4.476-0.527-5.808-1.583C390.242,407.665,389.393,406.101,389.025,404.026z"/>
</g>
<g>
	<path d="M143.043,458.48v-27.041h3.019v2.541c0.711-0.994,1.515-1.74,2.411-2.237c0.896-0.497,1.982-0.745,3.258-0.745
		c1.668,0,3.141,0.43,4.417,1.288c1.276,0.859,2.239,2.071,2.89,3.636c0.65,1.564,0.976,3.279,0.976,5.145
		c0,2.001-0.359,3.802-1.077,5.403c-0.718,1.601-1.761,2.828-3.129,3.681c-1.369,0.854-2.807,1.279-4.316,1.279
		c-1.104,0-2.096-0.232-2.973-0.699c-0.877-0.466-1.598-1.055-2.163-1.767v9.517H143.043z M146.043,441.324
		c0,2.516,0.509,4.375,1.528,5.578c1.019,1.202,2.251,1.804,3.7,1.804c1.473,0,2.733-0.623,3.783-1.868
		c1.049-1.246,1.574-3.176,1.574-5.789c0-2.491-0.512-4.356-1.537-5.597c-1.025-1.239-2.249-1.858-3.672-1.858
		c-1.412,0-2.66,0.659-3.746,1.979S146.043,438.809,146.043,441.324z"/>
	<path d="M162.775,441.214c0-3.62,1.006-6.301,3.019-8.044c1.681-1.447,3.73-2.172,6.148-2.172c2.688,0,4.884,0.881,6.59,2.642
		c1.706,1.761,2.559,4.193,2.559,7.298c0,2.517-0.377,4.495-1.132,5.937c-0.755,1.442-1.854,2.563-3.295,3.359
		c-1.442,0.798-3.016,1.196-4.722,1.196c-2.737,0-4.949-0.877-6.636-2.632C163.619,447.043,162.775,444.516,162.775,441.214z
		 M166.181,441.214c0,2.504,0.546,4.378,1.638,5.624c1.092,1.245,2.466,1.868,4.123,1.868c1.645,0,3.013-0.626,4.105-1.878
		c1.092-1.252,1.638-3.159,1.638-5.725c0-2.417-0.549-4.249-1.647-5.494c-1.099-1.246-2.464-1.868-4.096-1.868
		c-1.657,0-3.031,0.619-4.123,1.858C166.727,436.84,166.181,438.711,166.181,441.214z"/>
	<path d="M197.786,450.988v-2.871c-1.522,2.208-3.589,3.313-6.203,3.313c-1.154,0-2.23-0.221-3.23-0.662
		c-1-0.442-1.743-0.997-2.228-1.666s-0.825-1.488-1.021-2.457c-0.135-0.65-0.203-1.682-0.203-3.093v-12.112h3.313v10.842
		c0,1.73,0.067,2.896,0.203,3.498c0.208,0.871,0.65,1.555,1.325,2.052s1.509,0.746,2.503,0.746s1.926-0.255,2.798-0.764
		c0.871-0.51,1.488-1.203,1.85-2.08c0.362-0.878,0.543-2.15,0.543-3.82v-10.474h3.313v19.549H197.786z"/>
	<path d="M205.903,450.988v-19.549h2.982v2.964c0.761-1.387,1.463-2.301,2.107-2.742c0.645-0.442,1.353-0.663,2.126-0.663
		c1.117,0,2.252,0.356,3.406,1.067l-1.142,3.074c-0.81-0.479-1.62-0.718-2.43-0.718c-0.724,0-1.375,0.218-1.951,0.653
		s-0.988,1.04-1.233,1.813c-0.368,1.178-0.552,2.466-0.552,3.865v10.234H205.903z"/>
	<path d="M228.894,450.988v-26.985h3.313v26.985H228.894z"/>
	<path d="M237.141,427.574v-3.847h3.552v3.037c0,1.645-0.19,2.828-0.57,3.553c-0.528,0.993-1.35,1.742-2.467,2.245l-0.81-1.307
		c0.663-0.27,1.157-0.696,1.482-1.279s0.506-1.384,0.543-2.402H237.141z"/>
	<path d="M259.1,444.693l3.423,0.423c-0.54,2.001-1.54,3.553-3,4.657c-1.46,1.104-3.326,1.656-5.596,1.656
		c-2.86,0-5.126-0.88-6.802-2.641c-1.675-1.761-2.513-4.23-2.513-7.409c0-3.289,0.847-5.841,2.541-7.657
		c1.693-1.816,3.89-2.725,6.59-2.725c2.614,0,4.749,0.89,6.405,2.669c1.657,1.779,2.485,4.283,2.485,7.51
		c0,0.197-0.006,0.491-0.019,0.884h-14.579c0.123,2.147,0.73,3.792,1.822,4.934c1.092,1.141,2.454,1.712,4.086,1.712
		c1.215,0,2.252-0.319,3.111-0.957C257.916,447.11,258.597,446.092,259.1,444.693z M248.221,439.337h10.916
		c-0.147-1.645-0.564-2.878-1.251-3.7c-1.056-1.276-2.424-1.914-4.105-1.914c-1.522,0-2.801,0.509-3.838,1.527
		C248.905,436.269,248.332,437.631,248.221,439.337z M251.793,429.01l2.448-5.153h4.344l-4.049,5.153H251.793z"/>
	<path d="M279.366,450.988v-2.467c-1.24,1.939-3.062,2.908-5.467,2.908c-1.559,0-2.991-0.43-4.298-1.288
		c-1.307-0.858-2.319-2.059-3.037-3.599s-1.077-3.311-1.077-5.311c0-1.951,0.325-3.721,0.976-5.311
		c0.65-1.589,1.626-2.807,2.927-3.653c1.3-0.847,2.755-1.271,4.362-1.271c1.178,0,2.228,0.248,3.148,0.745
		c0.92,0.497,1.668,1.145,2.246,1.942v-9.683h3.295v26.985H279.366z M268.893,441.232c0,2.504,0.527,4.375,1.583,5.614
		c1.055,1.239,2.301,1.859,3.737,1.859c1.448,0,2.678-0.592,3.69-1.776c1.013-1.185,1.519-2.991,1.519-5.421
		c0-2.676-0.515-4.639-1.546-5.891c-1.031-1.252-2.301-1.877-3.811-1.877c-1.473,0-2.703,0.601-3.69,1.804
		C269.386,436.747,268.893,438.644,268.893,441.232z"/>
	<path d="M300.461,450.988v-2.871c-1.522,2.208-3.589,3.313-6.203,3.313c-1.154,0-2.23-0.221-3.23-0.662
		c-1-0.442-1.743-0.997-2.228-1.666s-0.825-1.488-1.021-2.457c-0.135-0.65-0.203-1.682-0.203-3.093v-12.112h3.313v10.842
		c0,1.73,0.067,2.896,0.203,3.498c0.208,0.871,0.65,1.555,1.325,2.052s1.509,0.746,2.503,0.746s1.926-0.255,2.798-0.764
		c0.871-0.51,1.488-1.203,1.85-2.08c0.362-0.878,0.543-2.15,0.543-3.82v-10.474h3.313v19.549H300.461z"/>
	<path d="M321.372,443.828l3.258,0.423c-0.356,2.246-1.267,4.004-2.733,5.274c-1.466,1.27-3.267,1.904-5.402,1.904
		c-2.675,0-4.826-0.874-6.452-2.623c-1.626-1.748-2.439-4.255-2.439-7.519c0-2.111,0.35-3.958,1.049-5.541
		c0.699-1.583,1.764-2.771,3.193-3.562c1.43-0.792,2.985-1.188,4.667-1.188c2.123,0,3.859,0.537,5.209,1.61
		c1.35,1.074,2.215,2.599,2.596,4.574l-3.222,0.497c-0.307-1.313-0.85-2.301-1.629-2.963c-0.779-0.663-1.721-0.994-2.825-0.994
		c-1.669,0-3.025,0.598-4.068,1.794c-1.043,1.197-1.564,3.09-1.564,5.679c0,2.627,0.503,4.535,1.509,5.725
		c1.006,1.19,2.319,1.786,3.939,1.786c1.3,0,2.386-0.398,3.258-1.196C320.586,446.712,321.138,445.484,321.372,443.828z"/>
	<path d="M340.221,448.577c-1.227,1.043-2.409,1.779-3.543,2.209c-1.135,0.429-2.353,0.644-3.654,0.644
		c-2.147,0-3.798-0.524-4.952-1.573c-1.153-1.05-1.73-2.39-1.73-4.022c0-0.957,0.218-1.831,0.653-2.623
		c0.436-0.791,1.006-1.426,1.712-1.905c0.706-0.479,1.5-0.84,2.384-1.086c0.65-0.171,1.632-0.337,2.945-0.497
		c2.675-0.318,4.645-0.699,5.909-1.141c0.012-0.454,0.019-0.742,0.019-0.865c0-1.35-0.313-2.301-0.938-2.854
		c-0.847-0.748-2.105-1.122-3.774-1.122c-1.558,0-2.709,0.272-3.451,0.818c-0.743,0.547-1.292,1.513-1.647,2.899l-3.24-0.441
		c0.294-1.387,0.779-2.507,1.454-3.359c0.675-0.854,1.65-1.51,2.927-1.97s2.755-0.69,4.437-0.69c1.668,0,3.024,0.196,4.068,0.589
		c1.043,0.393,1.81,0.887,2.301,1.482c0.491,0.595,0.834,1.347,1.031,2.255c0.11,0.564,0.166,1.583,0.166,3.055v4.418
		c0,3.08,0.071,5.028,0.212,5.845s0.42,1.599,0.837,2.347h-3.46C340.54,450.301,340.319,449.497,340.221,448.577z M339.944,441.177
		c-1.203,0.491-3.006,0.909-5.412,1.252c-1.362,0.196-2.326,0.418-2.89,0.663c-0.565,0.245-1,0.604-1.307,1.076
		c-0.307,0.473-0.46,0.998-0.46,1.574c0,0.884,0.334,1.62,1.003,2.209s1.647,0.884,2.936,0.884c1.276,0,2.411-0.279,3.405-0.838
		s1.724-1.322,2.19-2.292c0.356-0.748,0.534-1.853,0.534-3.313V441.177z"/>
	<path d="M355.665,448.024l0.479,2.927c-0.933,0.196-1.767,0.295-2.503,0.295c-1.203,0-2.135-0.19-2.798-0.57
		c-0.663-0.381-1.129-0.881-1.399-1.501c-0.27-0.619-0.405-1.923-0.405-3.911v-11.247h-2.43v-2.577h2.43v-4.841l3.295-1.988v6.829
		h3.332v2.577h-3.332v11.431c0,0.945,0.058,1.553,0.175,1.823c0.117,0.27,0.307,0.484,0.571,0.644
		c0.264,0.16,0.641,0.239,1.132,0.239C354.578,448.153,355.063,448.11,355.665,448.024z"/>
	<path d="M358.923,427.813v-3.811h3.313v3.811H358.923z M358.923,450.988v-19.549h3.313v19.549H358.923z"/>
	<path d="M366.046,441.214c0-3.62,1.006-6.301,3.019-8.044c1.681-1.447,3.73-2.172,6.148-2.172c2.688,0,4.884,0.881,6.59,2.642
		c1.706,1.761,2.559,4.193,2.559,7.298c0,2.517-0.377,4.495-1.132,5.937c-0.755,1.442-1.854,2.563-3.295,3.359
		c-1.442,0.798-3.016,1.196-4.722,1.196c-2.737,0-4.949-0.877-6.636-2.632C366.889,447.043,366.046,444.516,366.046,441.214z
		 M369.451,441.214c0,2.504,0.546,4.378,1.638,5.624c1.092,1.245,2.466,1.868,4.123,1.868c1.645,0,3.013-0.626,4.105-1.878
		c1.092-1.252,1.638-3.159,1.638-5.725c0-2.417-0.549-4.249-1.647-5.494c-1.099-1.246-2.464-1.868-4.096-1.868
		c-1.657,0-3.031,0.619-4.123,1.858C369.997,436.84,369.451,438.711,369.451,441.214z"/>
	<path d="M388.245,450.988v-19.549h2.982v2.78c1.436-2.147,3.51-3.222,6.222-3.222c1.178,0,2.261,0.212,3.249,0.635
		c0.988,0.424,1.727,0.979,2.218,1.666c0.491,0.688,0.834,1.504,1.031,2.448c0.123,0.614,0.184,1.688,0.184,3.222v12.02h-3.313
		v-11.891c0-1.351-0.129-2.359-0.387-3.028c-0.257-0.669-0.715-1.202-1.371-1.602c-0.657-0.398-1.427-0.599-2.31-0.599
		c-1.412,0-2.629,0.448-3.654,1.344c-1.025,0.896-1.537,2.596-1.537,5.1v10.676H388.245z"/>
	<path d="M410.076,450.988v-3.773h3.773v3.773c0,1.387-0.246,2.506-0.736,3.359c-0.491,0.853-1.27,1.513-2.337,1.979l-0.92-1.417
		c0.699-0.307,1.215-0.758,1.546-1.354c0.332-0.595,0.516-1.451,0.552-2.567H410.076z"/>
</g>
<g>
	<path d="M36.17,492.117v-26.985h3.313v26.985H36.17z"/>
	<path d="M57.376,489.706c-1.227,1.043-2.409,1.779-3.543,2.209c-1.135,0.429-2.353,0.644-3.654,0.644
		c-2.147,0-3.798-0.524-4.952-1.573c-1.153-1.05-1.73-2.39-1.73-4.022c0-0.957,0.218-1.831,0.653-2.623
		c0.436-0.791,1.006-1.426,1.712-1.905c0.706-0.479,1.5-0.84,2.384-1.086c0.65-0.171,1.632-0.337,2.945-0.497
		c2.675-0.318,4.645-0.699,5.909-1.141c0.012-0.454,0.019-0.742,0.019-0.865c0-1.35-0.313-2.301-0.938-2.854
		c-0.847-0.748-2.105-1.122-3.774-1.122c-1.558,0-2.709,0.272-3.451,0.818c-0.743,0.547-1.292,1.513-1.647,2.899l-3.24-0.441
		c0.294-1.387,0.779-2.507,1.454-3.359c0.675-0.854,1.65-1.51,2.927-1.97s2.755-0.69,4.437-0.69c1.668,0,3.024,0.196,4.068,0.589
		c1.043,0.393,1.81,0.887,2.301,1.482c0.491,0.595,0.834,1.347,1.031,2.255c0.11,0.564,0.166,1.583,0.166,3.055v4.418
		c0,3.08,0.071,5.028,0.212,5.845s0.42,1.599,0.837,2.347h-3.46C57.694,491.43,57.474,490.626,57.376,489.706z M57.099,482.306
		c-1.203,0.491-3.006,0.909-5.412,1.252c-1.362,0.196-2.326,0.418-2.89,0.663c-0.565,0.245-1,0.604-1.307,1.076
		c-0.307,0.473-0.46,0.998-0.46,1.574c0,0.884,0.334,1.62,1.003,2.209s1.647,0.884,2.936,0.884c1.276,0,2.411-0.279,3.405-0.838
		s1.724-1.322,2.19-2.292c0.356-0.748,0.534-1.853,0.534-3.313V482.306z"/>
	<path d="M74.734,486.282l3.276-0.516c0.184,1.313,0.696,2.319,1.537,3.019c0.84,0.7,2.016,1.05,3.525,1.05
		c1.521,0,2.651-0.31,3.387-0.93c0.736-0.62,1.104-1.347,1.104-2.182c0-0.748-0.325-1.337-0.976-1.767
		c-0.454-0.295-1.583-0.669-3.387-1.123c-2.43-0.613-4.114-1.145-5.053-1.592c-0.939-0.448-1.651-1.068-2.135-1.859
		c-0.485-0.792-0.727-1.666-0.727-2.623c0-0.871,0.199-1.678,0.598-2.421c0.398-0.742,0.942-1.358,1.629-1.85
		c0.516-0.381,1.218-0.702,2.108-0.967c0.89-0.264,1.843-0.396,2.862-0.396c1.534,0,2.881,0.221,4.041,0.663
		c1.159,0.441,2.015,1.04,2.567,1.794c0.552,0.755,0.933,1.765,1.142,3.028l-3.24,0.441c-0.147-1.006-0.574-1.791-1.279-2.355
		c-0.706-0.564-1.703-0.847-2.991-0.847c-1.522,0-2.608,0.251-3.258,0.754c-0.65,0.504-0.976,1.093-0.976,1.768
		c0,0.43,0.135,0.816,0.405,1.159c0.27,0.356,0.693,0.651,1.27,0.884c0.331,0.123,1.307,0.405,2.927,0.847
		c2.344,0.626,3.979,1.139,4.905,1.537c0.927,0.399,1.654,0.979,2.182,1.739c0.527,0.762,0.792,1.706,0.792,2.835
		c0,1.104-0.322,2.145-0.967,3.12c-0.644,0.976-1.574,1.73-2.789,2.264c-1.215,0.534-2.589,0.801-4.123,0.801
		c-2.54,0-4.476-0.527-5.808-1.583C75.951,489.921,75.102,488.356,74.734,486.282z"/>
	<path d="M107.664,484.957l3.258,0.423c-0.356,2.246-1.267,4.004-2.733,5.274c-1.466,1.27-3.267,1.904-5.402,1.904
		c-2.675,0-4.826-0.874-6.452-2.623c-1.626-1.748-2.439-4.255-2.439-7.519c0-2.111,0.35-3.958,1.049-5.541
		c0.699-1.583,1.764-2.771,3.193-3.562c1.43-0.792,2.985-1.188,4.667-1.188c2.123,0,3.859,0.537,5.209,1.61
		c1.35,1.074,2.215,2.599,2.596,4.574l-3.222,0.497c-0.307-1.313-0.85-2.301-1.629-2.963c-0.779-0.663-1.721-0.994-2.825-0.994
		c-1.669,0-3.025,0.598-4.068,1.794c-1.043,1.197-1.564,3.09-1.564,5.679c0,2.627,0.503,4.535,1.509,5.725
		c1.006,1.19,2.319,1.786,3.939,1.786c1.3,0,2.386-0.398,3.258-1.196C106.878,487.841,107.43,486.613,107.664,484.957z"/>
	<path d="M113.775,468.942v-3.811h3.313v3.811H113.775z M113.775,492.117v-19.549h3.313v19.549H113.775z"/>
	<path d="M135.514,485.822l3.423,0.423c-0.54,2.001-1.54,3.553-3,4.657c-1.46,1.104-3.326,1.656-5.596,1.656
		c-2.86,0-5.126-0.88-6.802-2.641c-1.675-1.761-2.513-4.23-2.513-7.409c0-3.289,0.847-5.841,2.541-7.657
		c1.693-1.816,3.89-2.725,6.59-2.725c2.614,0,4.749,0.89,6.405,2.669c1.657,1.779,2.485,4.283,2.485,7.51
		c0,0.197-0.006,0.491-0.019,0.884h-14.579c0.123,2.147,0.73,3.792,1.822,4.934c1.092,1.141,2.454,1.712,4.086,1.712
		c1.215,0,2.252-0.319,3.111-0.957C134.33,488.239,135.011,487.221,135.514,485.822z M124.635,480.466h10.916
		c-0.147-1.645-0.564-2.878-1.251-3.7c-1.056-1.276-2.424-1.914-4.105-1.914c-1.522,0-2.801,0.509-3.838,1.527
		C125.32,477.397,124.746,478.76,124.635,480.466z"/>
	<path d="M143.098,492.117v-19.549h2.982v2.78c1.436-2.147,3.51-3.222,6.222-3.222c1.178,0,2.261,0.212,3.249,0.635
		c0.988,0.424,1.727,0.979,2.218,1.666c0.491,0.688,0.834,1.504,1.031,2.448c0.123,0.614,0.184,1.688,0.184,3.222v12.02h-3.313
		v-11.891c0-1.351-0.129-2.359-0.387-3.028c-0.257-0.669-0.715-1.202-1.371-1.602c-0.657-0.398-1.427-0.599-2.31-0.599
		c-1.412,0-2.629,0.448-3.654,1.344c-1.025,0.896-1.537,2.596-1.537,5.1v10.676H143.098z"/>
	<path d="M176.82,484.957l3.258,0.423c-0.356,2.246-1.267,4.004-2.733,5.274c-1.466,1.27-3.267,1.904-5.402,1.904
		c-2.675,0-4.826-0.874-6.452-2.623c-1.626-1.748-2.439-4.255-2.439-7.519c0-2.111,0.35-3.958,1.049-5.541
		c0.699-1.583,1.764-2.771,3.193-3.562c1.43-0.792,2.985-1.188,4.667-1.188c2.123,0,3.859,0.537,5.209,1.61
		c1.35,1.074,2.215,2.599,2.596,4.574l-3.222,0.497c-0.307-1.313-0.85-2.301-1.629-2.963c-0.779-0.663-1.721-0.994-2.825-0.994
		c-1.669,0-3.025,0.598-4.068,1.794c-1.043,1.197-1.564,3.09-1.564,5.679c0,2.627,0.503,4.535,1.509,5.725
		c1.006,1.19,2.319,1.786,3.939,1.786c1.3,0,2.386-0.398,3.258-1.196C176.034,487.841,176.587,486.613,176.82,484.957z"/>
	<path d="M196.295,485.822l3.423,0.423c-0.54,2.001-1.54,3.553-3,4.657c-1.46,1.104-3.326,1.656-5.596,1.656
		c-2.86,0-5.126-0.88-6.802-2.641c-1.675-1.761-2.513-4.23-2.513-7.409c0-3.289,0.847-5.841,2.541-7.657
		c1.693-1.816,3.89-2.725,6.59-2.725c2.614,0,4.749,0.89,6.405,2.669c1.657,1.779,2.485,4.283,2.485,7.51
		c0,0.197-0.006,0.491-0.019,0.884h-14.579c0.123,2.147,0.73,3.792,1.822,4.934c1.092,1.141,2.454,1.712,4.086,1.712
		c1.215,0,2.252-0.319,3.111-0.957C195.11,488.239,195.791,487.221,196.295,485.822z M185.416,480.466h10.916
		c-0.147-1.645-0.564-2.878-1.251-3.7c-1.056-1.276-2.424-1.914-4.105-1.914c-1.522,0-2.801,0.509-3.838,1.527
		C186.1,477.397,185.526,478.76,185.416,480.466z"/>
	<path d="M227.734,485.822l3.423,0.423c-0.54,2.001-1.54,3.553-3,4.657c-1.46,1.104-3.326,1.656-5.596,1.656
		c-2.86,0-5.126-0.88-6.802-2.641c-1.675-1.761-2.513-4.23-2.513-7.409c0-3.289,0.847-5.841,2.541-7.657
		c1.693-1.816,3.89-2.725,6.59-2.725c2.614,0,4.749,0.89,6.405,2.669c1.657,1.779,2.485,4.283,2.485,7.51
		c0,0.197-0.006,0.491-0.019,0.884h-14.579c0.123,2.147,0.73,3.792,1.822,4.934c1.092,1.141,2.454,1.712,4.086,1.712
		c1.215,0,2.252-0.319,3.111-0.957C226.549,488.239,227.231,487.221,227.734,485.822z M216.855,480.466h10.916
		c-0.147-1.645-0.564-2.878-1.251-3.7c-1.056-1.276-2.424-1.914-4.105-1.914c-1.522,0-2.801,0.509-3.838,1.527
		C217.539,477.397,216.965,478.76,216.855,480.466z"/>
	<path d="M242.552,489.153l0.479,2.927c-0.933,0.196-1.767,0.295-2.503,0.295c-1.203,0-2.135-0.19-2.798-0.57
		c-0.663-0.381-1.129-0.881-1.399-1.501c-0.27-0.619-0.405-1.923-0.405-3.911v-11.247h-2.43v-2.577h2.43v-4.841l3.295-1.988v6.829
		h3.332v2.577h-3.332v11.431c0,0.945,0.058,1.553,0.175,1.823c0.117,0.27,0.307,0.484,0.571,0.644
		c0.264,0.16,0.641,0.239,1.132,0.239C241.465,489.282,241.95,489.239,242.552,489.153z"/>
	<path d="M256.192,492.117v-26.985h3.313v26.985H256.192z"/>
	<path d="M277.397,489.706c-1.227,1.043-2.409,1.779-3.543,2.209c-1.135,0.429-2.353,0.644-3.654,0.644
		c-2.147,0-3.798-0.524-4.952-1.573c-1.153-1.05-1.73-2.39-1.73-4.022c0-0.957,0.218-1.831,0.653-2.623
		c0.436-0.791,1.006-1.426,1.712-1.905c0.706-0.479,1.5-0.84,2.384-1.086c0.65-0.171,1.632-0.337,2.945-0.497
		c2.675-0.318,4.645-0.699,5.909-1.141c0.012-0.454,0.019-0.742,0.019-0.865c0-1.35-0.313-2.301-0.938-2.854
		c-0.847-0.748-2.105-1.122-3.774-1.122c-1.558,0-2.709,0.272-3.451,0.818c-0.743,0.547-1.292,1.513-1.647,2.899l-3.24-0.441
		c0.294-1.387,0.779-2.507,1.454-3.359c0.675-0.854,1.65-1.51,2.927-1.97s2.755-0.69,4.437-0.69c1.668,0,3.024,0.196,4.068,0.589
		c1.043,0.393,1.81,0.887,2.301,1.482c0.491,0.595,0.834,1.347,1.031,2.255c0.11,0.564,0.166,1.583,0.166,3.055v4.418
		c0,3.08,0.071,5.028,0.212,5.845s0.42,1.599,0.837,2.347h-3.46C277.715,491.43,277.495,490.626,277.397,489.706z M277.12,482.306
		c-1.203,0.491-3.006,0.909-5.412,1.252c-1.362,0.196-2.326,0.418-2.89,0.663c-0.565,0.245-1,0.604-1.307,1.076
		c-0.307,0.473-0.46,0.998-0.46,1.574c0,0.884,0.334,1.62,1.003,2.209s1.647,0.884,2.936,0.884c1.276,0,2.411-0.279,3.405-0.838
		s1.724-1.322,2.19-2.292c0.356-0.748,0.534-1.853,0.534-3.313V482.306z"/>
	<path d="M308.836,484.957l3.258,0.423c-0.356,2.246-1.267,4.004-2.733,5.274c-1.466,1.27-3.267,1.904-5.402,1.904
		c-2.675,0-4.826-0.874-6.452-2.623c-1.626-1.748-2.439-4.255-2.439-7.519c0-2.111,0.35-3.958,1.049-5.541
		c0.699-1.583,1.764-2.771,3.193-3.562c1.43-0.792,2.985-1.188,4.667-1.188c2.123,0,3.859,0.537,5.209,1.61
		c1.35,1.074,2.215,2.599,2.596,4.574l-3.222,0.497c-0.307-1.313-0.85-2.301-1.629-2.963c-0.779-0.663-1.721-0.994-2.825-0.994
		c-1.669,0-3.025,0.598-4.068,1.794c-1.043,1.197-1.564,3.09-1.564,5.679c0,2.627,0.503,4.535,1.509,5.725
		c1.006,1.19,2.319,1.786,3.939,1.786c1.3,0,2.386-0.398,3.258-1.196C308.05,487.841,308.603,486.613,308.836,484.957z"/>
	<path d="M327.74,492.117v-2.871c-1.522,2.208-3.589,3.313-6.203,3.313c-1.154,0-2.23-0.221-3.23-0.662
		c-1-0.442-1.743-0.997-2.228-1.666s-0.825-1.488-1.021-2.457c-0.135-0.65-0.203-1.682-0.203-3.093v-12.112h3.313v10.842
		c0,1.73,0.067,2.896,0.203,3.498c0.208,0.871,0.65,1.555,1.325,2.052s1.509,0.746,2.503,0.746s1.926-0.255,2.798-0.764
		c0.871-0.51,1.488-1.203,1.85-2.08c0.362-0.878,0.543-2.15,0.543-3.82v-10.474h3.313v19.549H327.74z"/>
	<path d="M335.821,492.117v-26.985h3.313v26.985H335.821z"/>
	<path d="M351.505,489.153l0.479,2.927c-0.933,0.196-1.767,0.295-2.503,0.295c-1.203,0-2.135-0.19-2.798-0.57
		c-0.663-0.381-1.129-0.881-1.399-1.501c-0.27-0.619-0.405-1.923-0.405-3.911v-11.247h-2.43v-2.577h2.43v-4.841l3.295-1.988v6.829
		h3.332v2.577h-3.332v11.431c0,0.945,0.058,1.553,0.175,1.823c0.117,0.27,0.307,0.484,0.571,0.644
		c0.264,0.16,0.641,0.239,1.132,0.239C350.418,489.282,350.903,489.239,351.505,489.153z"/>
	<path d="M367.555,492.117v-2.871c-1.522,2.208-3.589,3.313-6.203,3.313c-1.154,0-2.23-0.221-3.23-0.662
		c-1-0.442-1.743-0.997-2.228-1.666s-0.825-1.488-1.021-2.457c-0.135-0.65-0.203-1.682-0.203-3.093v-12.112h3.313v10.842
		c0,1.73,0.067,2.896,0.203,3.498c0.208,0.871,0.65,1.555,1.325,2.052s1.509,0.746,2.503,0.746s1.926-0.255,2.798-0.764
		c0.871-0.51,1.488-1.203,1.85-2.08c0.362-0.878,0.543-2.15,0.543-3.82v-10.474h3.313v19.549H367.555z"/>
	<path d="M375.673,492.117v-19.549h2.982v2.964c0.761-1.387,1.463-2.301,2.107-2.742c0.645-0.442,1.353-0.663,2.126-0.663
		c1.117,0,2.252,0.356,3.406,1.067l-1.142,3.074c-0.81-0.479-1.62-0.718-2.43-0.718c-0.724,0-1.375,0.218-1.951,0.653
		s-0.988,1.04-1.233,1.813c-0.368,1.178-0.552,2.466-0.552,3.865v10.234H375.673z"/>
	<path d="M401.646,485.822l3.423,0.423c-0.54,2.001-1.54,3.553-3,4.657c-1.46,1.104-3.326,1.656-5.596,1.656
		c-2.86,0-5.126-0.88-6.802-2.641c-1.675-1.761-2.513-4.23-2.513-7.409c0-3.289,0.847-5.841,2.541-7.657
		c1.693-1.816,3.89-2.725,6.59-2.725c2.614,0,4.749,0.89,6.405,2.669c1.657,1.779,2.485,4.283,2.485,7.51
		c0,0.197-0.006,0.491-0.019,0.884h-14.579c0.123,2.147,0.73,3.792,1.822,4.934c1.092,1.141,2.454,1.712,4.086,1.712
		c1.215,0,2.252-0.319,3.111-0.957C400.461,488.239,401.142,487.221,401.646,485.822z M390.767,480.466h10.916
		c-0.147-1.645-0.564-2.878-1.251-3.7c-1.056-1.276-2.424-1.914-4.105-1.914c-1.522,0-2.801,0.509-3.838,1.527
		C391.451,477.397,390.877,478.76,390.767,480.466z"/>
</g>
<g>
	<g>
		<path class="st3" d="M524.777,171.446v18.495c0,4.936-1.308,8.854-3.924,11.739c-2.612,2.889-6.128,4.329-10.523,4.329
			c-4.381,0-7.874-1.44-10.474-4.329c-2.606-2.885-3.914-6.803-3.914-11.739v-18.495h6.083v19.601c0,2.671,0.786,4.853,2.365,6.531
			c1.577,1.687,3.58,2.526,6.019,2.526c2.457,0,4.464-0.839,6.02-2.526c1.554-1.677,2.329-3.859,2.329-6.531v-19.601H524.777"/>
	</g>
	<g>
		<path class="st3" d="M532.23,205.372v-18.493c0-4.937,1.312-8.856,3.938-11.737c2.63-2.891,6.136-4.332,10.513-4.332
			s7.874,1.442,10.474,4.332c2.606,2.881,3.909,6.8,3.909,11.737v18.493h-6.024v-19.603c0-2.671-0.772-4.845-2.321-6.528
			c-1.557-1.687-3.565-2.526-6.022-2.526c-2.445,0-4.447,0.839-6.025,2.526c-1.573,1.683-2.365,3.857-2.365,6.528v19.603H532.23"/>
	</g>
	<g>
		<path class="st3" d="M568.757,158.719c0-1.008,0.358-1.868,1.074-2.581c0.709-0.713,1.583-1.068,2.618-1.068
			c1.035,0,1.905,0.35,2.606,1.053c0.703,0.703,1.053,1.565,1.053,2.596c0,1.059-0.35,1.95-1.053,2.673
			c-0.701,0.724-1.571,1.088-2.606,1.088c-1.012,0-1.88-0.367-2.606-1.102C569.118,160.642,568.757,159.758,568.757,158.719
			 M575.472,205.372h-6.076v-33.924h6.076V205.372z"/>
	</g>
	<g>
		<polygon class="st3" points="601.965,205.372 601.965,161.95 583.731,161.95 583.731,155.813 665.708,155.813 665.708,161.95 
			608.568,161.95 608.568,205.372 		"/>
	</g>
	<g>
		<path class="st3" d="M665.63,171.446v19.601c0,4.618-1.21,8.265-3.63,10.945c-2.419,2.675-5.672,4.017-9.741,4.017
			c-2.121,0-4.07-0.446-5.837-1.338c-1.771-0.89-3.299-2.196-4.565-3.906c-1.367,1.738-2.911,3.046-4.666,3.928
			c-1.752,0.876-3.661,1.316-5.735,1.316c-4.085,0-7.337-1.345-9.769-4.036c-2.431-2.684-3.645-6.328-3.645-10.926v-19.601h6.077
			v20.669c0,2.398,0.672,4.326,2.019,5.796c1.343,1.459,3.119,2.192,5.326,2.192c2.184,0,3.968-0.736,5.342-2.213
			c1.382-1.477,2.074-3.4,2.074-5.774v-20.669h6.025v20.669c0,2.398,0.672,4.326,2.011,5.796c1.355,1.459,3.127,2.192,5.342,2.192
			c2.16,0,3.924-0.736,5.295-2.213c1.375-1.477,2.058-3.4,2.058-5.774v-20.669H665.63"/>
	</g>
	<g>
		<path class="st3" d="M672.959,158.719c0-1.008,0.354-1.868,1.069-2.581c0.715-0.713,1.591-1.068,2.624-1.068
			c1.037,0,1.905,0.35,2.604,1.053c0.703,0.703,1.057,1.565,1.057,2.596c0,1.059-0.354,1.95-1.057,2.673
			c-0.699,0.724-1.567,1.088-2.604,1.088c-1.006,0-1.882-0.367-2.604-1.102C673.321,160.642,672.959,159.758,672.959,158.719
			 M679.677,205.372h-6.081v-33.924h6.081V205.372z"/>
	</g>
	<path class="st3" d="M687.537,205.372v-18.493c0-4.937,1.312-8.856,3.936-11.737c2.628-2.891,6.132-4.332,10.515-4.332
		c4.376,0,7.868,1.442,10.476,4.332c2.596,2.881,3.901,6.8,3.901,11.737v18.493h-6.026v-19.603c0-2.671-0.77-4.845-2.318-6.528
		c-1.555-1.687-3.567-2.526-6.025-2.526c-2.435,0-4.439,0.839-6.018,2.526c-1.579,1.683-2.365,3.857-2.365,6.528v19.603H687.537"/>
</g>
</svg>
