<?xml version="1.0" encoding="utf-8"?>
<!-- Generator: Adobe Illustrator 24.0.0, SVG Export Plug-In . SVG Version: 6.00 Build 0)  -->
<svg version="1.1" id="Layer_1" xmlns="http://www.w3.org/2000/svg" xmlns:xlink="http://www.w3.org/1999/xlink" x="0px" y="0px"
	 viewBox="0 0 390.5 147.6" style="enable-background:new 0 0 390.5 147.6;" xml:space="preserve">
<style type="text/css">
	.st0{clip-path:url(#SVGID_2_);}
	.st1{clip-path:url(#SVGID_4_);}
	.st2{clip-path:url(#SVGID_6_);}
	.st3{clip-path:url(#SVGID_8_);}
	.st4{clip-path:url(#SVGID_10_);}
	.st5{clip-path:url(#SVGID_12_);}
	.st6{clip-path:url(#SVGID_14_);}
	.st7{clip-path:url(#SVGID_16_);}
	.st8{clip-path:url(#SVGID_18_);}
	.st9{clip-path:url(#SVGID_20_);}
	.st10{clip-path:url(#SVGID_22_);}
	.st11{clip-path:url(#SVGID_24_);}
	.st12{clip-path:url(#SVGID_26_);}
	.st13{clip-path:url(#SVGID_28_);}
	.st14{clip-path:url(#SVGID_30_);}
	.st15{clip-path:url(#SVGID_32_);}
	.st16{clip-path:url(#SVGID_34_);}
	.st17{clip-path:url(#SVGID_36_);}
	.st18{clip-path:url(#SVGID_38_);}
	.st19{clip-path:url(#SVGID_40_);}
	.st20{clip-path:url(#SVGID_42_);}
	.st21{clip-path:url(#SVGID_44_);}
	.st22{clip-path:url(#SVGID_46_);}
	.st23{clip-path:url(#SVGID_48_);}
	.st24{clip-path:url(#SVGID_50_);}
	.st25{clip-path:url(#SVGID_52_);}
	.st26{clip-path:url(#SVGID_54_);}
	.st27{clip-path:url(#SVGID_56_);}
	.st28{clip-path:url(#SVGID_58_);}
	.st29{clip-path:url(#SVGID_60_);}
	.st30{clip-path:url(#SVGID_62_);}
	.st31{clip-path:url(#SVGID_64_);}
	.st32{enable-background:new    ;}
	.st33{fill:#121617;}
</style>
<g>
	<g>
		<g>
			<defs>
				<rect id="SVGID_1_" x="-3" width="396.5" height="147.6"/>
			</defs>
			<clipPath id="SVGID_2_">
				<use xlink:href="#SVGID_1_"  style="overflow:visible;"/>
			</clipPath>
			<path class="st0" d="M144.7,6.4c0,0.7-0.5,1.2-1.2,1.2c-0.7,0-1.2-0.5-1.2-1.2s0.5-1.2,1.2-1.2C144.2,5.2,144.7,5.8,144.7,6.4"/>
		</g>
	</g>
	<g>
		<g>
			<defs>
				<rect id="SVGID_3_" x="-3" width="396.5" height="147.6"/>
			</defs>
			<clipPath id="SVGID_4_">
				<use xlink:href="#SVGID_3_"  style="overflow:visible;"/>
			</clipPath>
			<path class="st1" d="M144.7,10.6c0,0.7-0.5,1.2-1.2,1.2c-0.7,0-1.2-0.5-1.2-1.2s0.5-1.2,1.2-1.2C144.2,9.4,144.7,10,144.7,10.6"
				/>
		</g>
	</g>
	<g>
		<g>
			<defs>
				<rect id="SVGID_5_" x="-3" width="396.5" height="147.6"/>
			</defs>
			<clipPath id="SVGID_6_">
				<use xlink:href="#SVGID_5_"  style="overflow:visible;"/>
			</clipPath>
			<path class="st2" d="M144.7,15.2c0,0.7-0.5,1.2-1.2,1.2c-0.7,0-1.2-0.5-1.2-1.2s0.5-1.2,1.2-1.2C144.2,14,144.7,14.5,144.7,15.2"
				/>
		</g>
	</g>
	<g>
		<g>
			<defs>
				<rect id="SVGID_7_" x="-3" width="396.5" height="147.6"/>
			</defs>
			<clipPath id="SVGID_8_">
				<use xlink:href="#SVGID_7_"  style="overflow:visible;"/>
			</clipPath>
			<path class="st3" d="M144.7,19.7c0,0.7-0.5,1.2-1.2,1.2c-0.7,0-1.2-0.5-1.2-1.2s0.5-1.2,1.2-1.2
				C144.2,18.5,144.7,19.1,144.7,19.7"/>
		</g>
	</g>
	<g>
		<g>
			<defs>
				<rect id="SVGID_9_" x="-3" width="396.5" height="147.6"/>
			</defs>
			<clipPath id="SVGID_10_">
				<use xlink:href="#SVGID_9_"  style="overflow:visible;"/>
			</clipPath>
			<path class="st4" d="M144.7,24.6c0,0.7-0.5,1.2-1.2,1.2c-0.7,0-1.2-0.5-1.2-1.2c0-0.7,0.5-1.2,1.2-1.2
				C144.2,23.4,144.7,24,144.7,24.6"/>
		</g>
	</g>
	<g>
		<g>
			<defs>
				<rect id="SVGID_11_" x="-3" width="396.5" height="147.6"/>
			</defs>
			<clipPath id="SVGID_12_">
				<use xlink:href="#SVGID_11_"  style="overflow:visible;"/>
			</clipPath>
			<path class="st5" d="M144.7,29.5c0,0.7-0.5,1.2-1.2,1.2c-0.7,0-1.2-0.5-1.2-1.2s0.5-1.2,1.2-1.2
				C144.2,28.3,144.7,28.9,144.7,29.5"/>
		</g>
	</g>
	<g>
		<g>
			<defs>
				<rect id="SVGID_13_" x="-3" width="396.5" height="147.6"/>
			</defs>
			<clipPath id="SVGID_14_">
				<use xlink:href="#SVGID_13_"  style="overflow:visible;"/>
			</clipPath>
			<path class="st6" d="M144.7,34.5c0,0.7-0.5,1.2-1.2,1.2c-0.7,0-1.2-0.5-1.2-1.2s0.5-1.2,1.2-1.2
				C144.2,33.4,144.7,33.9,144.7,34.5"/>
		</g>
	</g>
	<g>
		<g>
			<defs>
				<rect id="SVGID_15_" x="-3" width="396.5" height="147.6"/>
			</defs>
			<clipPath id="SVGID_16_">
				<use xlink:href="#SVGID_15_"  style="overflow:visible;"/>
			</clipPath>
			<path class="st7" d="M144.7,39.6c0,0.7-0.5,1.2-1.2,1.2c-0.7,0-1.2-0.5-1.2-1.2s0.5-1.2,1.2-1.2
				C144.2,38.4,144.7,38.9,144.7,39.6"/>
		</g>
	</g>
	<g>
		<g>
			<defs>
				<rect id="SVGID_17_" x="-3" width="396.5" height="147.6"/>
			</defs>
			<clipPath id="SVGID_18_">
				<use xlink:href="#SVGID_17_"  style="overflow:visible;"/>
			</clipPath>
			<path class="st8" d="M144.7,45c0,0.7-0.5,1.2-1.2,1.2c-0.7,0-1.2-0.5-1.2-1.2s0.5-1.2,1.2-1.2C144.2,43.9,144.7,44.4,144.7,45"/>
		</g>
	</g>
	<g>
		<g>
			<defs>
				<rect id="SVGID_19_" x="-3" width="396.5" height="147.6"/>
			</defs>
			<clipPath id="SVGID_20_">
				<use xlink:href="#SVGID_19_"  style="overflow:visible;"/>
			</clipPath>
			<path class="st9" d="M144.7,50.5c0,0.7-0.5,1.2-1.2,1.2c-0.7,0-1.2-0.5-1.2-1.2s0.5-1.2,1.2-1.2
				C144.2,49.3,144.7,49.9,144.7,50.5"/>
		</g>
	</g>
	<g>
		<g>
			<defs>
				<rect id="SVGID_21_" x="-3" width="396.5" height="147.6"/>
			</defs>
			<clipPath id="SVGID_22_">
				<use xlink:href="#SVGID_21_"  style="overflow:visible;"/>
			</clipPath>
			<path class="st10" d="M144.7,56.2c0,0.7-0.5,1.2-1.2,1.2c-0.7,0-1.2-0.5-1.2-1.2s0.5-1.2,1.2-1.2
				C144.2,55.1,144.7,55.6,144.7,56.2"/>
		</g>
	</g>
	<g>
		<g>
			<defs>
				<rect id="SVGID_23_" x="-3" width="396.5" height="147.6"/>
			</defs>
			<clipPath id="SVGID_24_">
				<use xlink:href="#SVGID_23_"  style="overflow:visible;"/>
			</clipPath>
			<path class="st11" d="M144.7,62.1c0,0.7-0.5,1.2-1.2,1.2c-0.7,0-1.2-0.5-1.2-1.2s0.5-1.2,1.2-1.2
				C144.2,60.9,144.7,61.5,144.7,62.1"/>
		</g>
	</g>
	<g>
		<g>
			<defs>
				<rect id="SVGID_25_" x="-3" width="396.5" height="147.6"/>
			</defs>
			<clipPath id="SVGID_26_">
				<use xlink:href="#SVGID_25_"  style="overflow:visible;"/>
			</clipPath>
			<path class="st12" d="M144.7,68.3c0,0.7-0.5,1.2-1.2,1.2c-0.7,0-1.2-0.5-1.2-1.2s0.5-1.2,1.2-1.2
				C144.2,67.1,144.7,67.6,144.7,68.3"/>
		</g>
	</g>
	<g>
		<g>
			<defs>
				<rect id="SVGID_27_" x="-3" width="396.5" height="147.6"/>
			</defs>
			<clipPath id="SVGID_28_">
				<use xlink:href="#SVGID_27_"  style="overflow:visible;"/>
			</clipPath>
			<path class="st13" d="M144.7,75.3c0,0.7-0.5,1.2-1.2,1.2c-0.7,0-1.2-0.5-1.2-1.2c0-0.7,0.5-1.2,1.2-1.2
				C144.2,74.1,144.7,74.6,144.7,75.3"/>
		</g>
	</g>
	<g>
		<g>
			<defs>
				<rect id="SVGID_29_" x="-3" width="396.5" height="147.6"/>
			</defs>
			<clipPath id="SVGID_30_">
				<use xlink:href="#SVGID_29_"  style="overflow:visible;"/>
			</clipPath>
			<path class="st14" d="M144.7,83c0,0.7-0.5,1.2-1.2,1.2c-0.7,0-1.2-0.5-1.2-1.2c0-0.7,0.5-1.2,1.2-1.2
				C144.2,81.8,144.7,82.3,144.7,83"/>
		</g>
	</g>
	<g>
		<g>
			<defs>
				<rect id="SVGID_31_" x="-3" width="396.5" height="147.6"/>
			</defs>
			<clipPath id="SVGID_32_">
				<use xlink:href="#SVGID_31_"  style="overflow:visible;"/>
			</clipPath>
			<path class="st15" d="M144.7,92.1c0,0.7-0.5,1.2-1.2,1.2c-0.7,0-1.2-0.5-1.2-1.2c0-0.7,0.5-1.2,1.2-1.2
				C144.2,90.9,144.7,91.4,144.7,92.1"/>
		</g>
	</g>
	<g>
		<g>
			<defs>
				<rect id="SVGID_33_" x="-3" width="396.5" height="147.6"/>
			</defs>
			<clipPath id="SVGID_34_">
				<use xlink:href="#SVGID_33_"  style="overflow:visible;"/>
			</clipPath>
			<path class="st16" d="M144.7,101.9c0,0.7-0.5,1.2-1.2,1.2c-0.7,0-1.2-0.5-1.2-1.2c0-0.7,0.5-1.2,1.2-1.2
				C144.2,100.7,144.7,101.2,144.7,101.9"/>
		</g>
	</g>
	<g>
		<g>
			<defs>
				<rect id="SVGID_35_" x="-3" width="396.5" height="147.6"/>
			</defs>
			<clipPath id="SVGID_36_">
				<use xlink:href="#SVGID_35_"  style="overflow:visible;"/>
			</clipPath>
			<path class="st17" d="M144.7,113.1c0,0.7-0.5,1.2-1.2,1.2c-0.7,0-1.2-0.5-1.2-1.2c0-0.6,0.5-1.2,1.2-1.2
				C144.2,111.9,144.7,112.4,144.7,113.1"/>
		</g>
	</g>
	<g>
		<g>
			<defs>
				<rect id="SVGID_37_" x="-3" width="396.5" height="147.6"/>
			</defs>
			<clipPath id="SVGID_38_">
				<use xlink:href="#SVGID_37_"  style="overflow:visible;"/>
			</clipPath>
			<path class="st18" d="M144.7,125.7c0,0.7-0.5,1.2-1.2,1.2c-0.7,0-1.2-0.5-1.2-1.2c0-0.7,0.5-1.2,1.2-1.2
				C144.2,124.5,144.7,125,144.7,125.7"/>
		</g>
	</g>
	<g>
		<g>
			<defs>
				<rect id="SVGID_39_" x="-3" width="396.5" height="147.6"/>
			</defs>
			<clipPath id="SVGID_40_">
				<use xlink:href="#SVGID_39_"  style="overflow:visible;"/>
			</clipPath>
			<path class="st19" d="M144.7,139.7c0,0.7-0.5,1.2-1.2,1.2c-0.7,0-1.2-0.5-1.2-1.2c0-0.7,0.5-1.2,1.2-1.2
				C144.2,138.5,144.7,139,144.7,139.7"/>
		</g>
	</g>
	<g>
		<g>
			<defs>
				<rect id="SVGID_41_" x="-3" width="396.5" height="147.6"/>
			</defs>
			<clipPath id="SVGID_42_">
				<use xlink:href="#SVGID_41_"  style="overflow:visible;"/>
			</clipPath>
			<rect x="54.2" y="70.4" class="st20" width="69.3" height="2.9"/>
		</g>
	</g>
	<g>
		<g>
			<defs>
				<rect id="SVGID_43_" x="-3" width="396.5" height="147.6"/>
			</defs>
			<clipPath id="SVGID_44_">
				<use xlink:href="#SVGID_43_"  style="overflow:visible;"/>
			</clipPath>
			<rect x="50.2" y="75.3" class="st21" width="76.9" height="2.9"/>
		</g>
	</g>
	<g>
		<g>
			<defs>
				<rect id="SVGID_45_" x="-3" width="396.5" height="147.6"/>
			</defs>
			<clipPath id="SVGID_46_">
				<use xlink:href="#SVGID_45_"  style="overflow:visible;"/>
			</clipPath>
			<rect x="46.6" y="80.2" class="st22" width="84.4" height="2.9"/>
		</g>
	</g>
	<g>
		<g>
			<defs>
				<rect id="SVGID_47_" x="-3" width="396.5" height="147.6"/>
			</defs>
			<clipPath id="SVGID_48_">
				<use xlink:href="#SVGID_47_"  style="overflow:visible;"/>
			</clipPath>
			<rect x="54.2" y="33.8" class="st23" width="69.3" height="2.9"/>
		</g>
	</g>
	<g>
		<g>
			<defs>
				<rect id="SVGID_49_" x="-3" width="396.5" height="147.6"/>
			</defs>
			<clipPath id="SVGID_50_">
				<use xlink:href="#SVGID_49_"  style="overflow:visible;"/>
			</clipPath>
			<polygon class="st24" points="68.2,31.9 88.8,25.7 109,31.9 117.4,31.9 88.8,23 59.8,31.9 			"/>
		</g>
	</g>
	<g>
		<g>
			<defs>
				<rect id="SVGID_51_" x="-3" width="396.5" height="147.6"/>
			</defs>
			<clipPath id="SVGID_52_">
				<use xlink:href="#SVGID_51_"  style="overflow:visible;"/>
			</clipPath>
			<polygon class="st25" points="54.2,31.9 88.6,21.4 123.4,31.9 123.4,28.8 88.8,18.1 54.2,28.8 			"/>
		</g>
	</g>
	<g>
		<g>
			<defs>
				<rect id="SVGID_53_" x="-3" width="396.5" height="147.6"/>
			</defs>
			<clipPath id="SVGID_54_">
				<use xlink:href="#SVGID_53_"  style="overflow:visible;"/>
			</clipPath>
			<path class="st26" d="M58.2,66.6c0,0,0,2.2,2.5,2.2c2.5,0,2.3-2.2,2.3-2.2V38.4h-1.8v28.2c0,0,0,0.5-0.7,0.5
				c-0.7,0-0.5-0.7-0.5-0.7V38.4h-1.8V66.6z"/>
		</g>
	</g>
	<g>
		<g>
			<defs>
				<rect id="SVGID_55_" x="-3" width="396.5" height="147.6"/>
			</defs>
			<clipPath id="SVGID_56_">
				<use xlink:href="#SVGID_55_"  style="overflow:visible;"/>
			</clipPath>
			<polygon class="st27" points="69.6,68.8 71.1,68.8 71.1,50.5 72.9,68.8 74.4,68.8 74.4,38.4 72.9,38.4 72.9,54.7 71.1,38.4 
				69.6,38.4 			"/>
		</g>
	</g>
	<g>
		<g>
			<defs>
				<rect id="SVGID_57_" x="-3" width="396.5" height="147.6"/>
			</defs>
			<clipPath id="SVGID_58_">
				<use xlink:href="#SVGID_57_"  style="overflow:visible;"/>
			</clipPath>
			<polygon class="st28" points="81.2,68.8 85.8,68.8 85.8,67.2 83.2,67.2 83.2,53.5 85.2,53.5 85.2,51.8 83.2,51.8 83.2,40 
				85.2,40 85.2,38.4 81.2,38.4 			"/>
		</g>
	</g>
	<g>
		<g>
			<defs>
				<rect id="SVGID_59_" x="-3" width="396.5" height="147.6"/>
			</defs>
			<clipPath id="SVGID_60_">
				<use xlink:href="#SVGID_59_"  style="overflow:visible;"/>
			</clipPath>
			<path class="st29" d="M107.9,47.4v-6.8c0,0-0.1-2.2-2.4-2.2c-2.3,0-2.3,2.2-2.3,2.2v26c0,0-0.1,2.2,2.3,2.2
				c2.4,0,2.4-2.2,2.4-2.2V59h-1.8v7.6c0,0,0,0.6-0.6,0.6c-0.5,0-0.7-0.6-0.7-0.6v-26c0,0,0-0.7,0.7-0.7c0.6,0,0.6,0.7,0.6,0.7v6.8
				H107.9z"/>
		</g>
	</g>
	<g>
		<g>
			<defs>
				<rect id="SVGID_61_" x="-3" width="396.5" height="147.6"/>
			</defs>
			<clipPath id="SVGID_62_">
				<use xlink:href="#SVGID_61_"  style="overflow:visible;"/>
			</clipPath>
			<path class="st30" d="M119.4,40.6c0,0,0.1-2.2-2.4-2.2c-2.5,0-2.5,2.2-2.5,2.2v26c0,0,0,2.2,2.4,2.2c2.5,0,2.5-2.2,2.5-2.2
				L119.4,40.6z M117.7,66.6c0,0,0.1,0.6-0.7,0.6c-0.7,0-0.7-0.6-0.7-0.6v-26c0,0,0-0.7,0.7-0.7c0.7,0,0.7,0.7,0.7,0.7V66.6z"/>
		</g>
	</g>
	<g>
		<g>
			<defs>
				<rect id="SVGID_63_" x="-3" width="396.5" height="147.6"/>
			</defs>
			<clipPath id="SVGID_64_">
				<use xlink:href="#SVGID_63_"  style="overflow:visible;"/>
			</clipPath>
			<path class="st31" d="M94.6,66.6c0,0,0,0.6-0.5,0.5c-0.5,0-0.5-0.5-0.5-0.5V59h-1.9v7.6c0,0-0.1,2.2,2.3,2.2
				c2.4,0,2.4-2.2,2.4-2.2s0-5.1,0-6.6c0-3.6-2.8-10.4-2.8-12.6v-6.8c0,0-0.1-0.7,0.4-0.7c0.5,0,0.5,0.7,0.5,0.7v6.8h1.9v-6.8
				c0,0,0.1-2.3-2.3-2.2c-2.4,0.1-2.4,2.2-2.4,2.2v5.8c0,3.8,2.8,10.2,2.8,13.2V66.6z"/>
		</g>
	</g>
</g>
<g class="st32">
	<path class="st33" d="M156.2,51.3V38.5h2.6v12.9L156.2,51.3L156.2,51.3z"/>
	<path class="st33" d="M169.8,51.3h-2.5v-4.8c0-1-0.1-1.7-0.2-2s-0.3-0.5-0.5-0.7s-0.5-0.2-0.9-0.2c-0.4,0-0.8,0.1-1.2,0.4
		s-0.6,0.5-0.7,0.9s-0.2,1.1-0.2,2.1v4.2h-2.5V42h2.3v1.4c0.8-1.1,1.8-1.6,3.1-1.6c0.5,0,1,0.1,1.5,0.3s0.8,0.4,1,0.8s0.4,0.7,0.5,1
		s0.1,0.9,0.1,1.7L169.8,51.3L169.8,51.3z"/>
	<path class="st33" d="M176.6,42v2h-1.7v3.8c0,0.8,0,1.2,0,1.3s0.1,0.2,0.2,0.3s0.3,0.1,0.4,0.1c0.2,0,0.6-0.1,1-0.2l0.2,1.9
		c-0.6,0.2-1.2,0.4-2,0.4c-0.4,0-0.8-0.1-1.2-0.2c-0.4-0.1-0.6-0.3-0.8-0.6c-0.2-0.2-0.3-0.6-0.3-1c-0.1-0.3-0.1-0.9-0.1-1.7V44
		h-1.1v-2h1.1v-1.9l2.5-1.4V42L176.6,42L176.6,42z"/>
	<path class="st33" d="M183.7,48.4l2.5,0.4c-0.3,0.9-0.8,1.6-1.5,2.1s-1.5,0.7-2.6,0.7c-1.6,0-2.8-0.5-3.6-1.6
		c-0.6-0.8-0.9-1.9-0.9-3.2c0-1.5,0.4-2.8,1.2-3.6s1.8-1.3,3.1-1.3c1.4,0,2.5,0.5,3.3,1.4c0.8,0.9,1.2,2.3,1.2,4.2h-6.2
		c0,0.7,0.2,1.3,0.6,1.7c0.4,0.4,0.9,0.6,1.4,0.6c0.4,0,0.7-0.1,1-0.3S183.6,48.8,183.7,48.4z M183.8,45.9c0-0.7-0.2-1.3-0.6-1.6
		c-0.4-0.4-0.8-0.6-1.3-0.6c-0.5,0-1,0.2-1.3,0.6s-0.5,0.9-0.5,1.6H183.8z"/>
	<path class="st33" d="M190.7,51.3h-2.5V42h2.3v1.3c0.4-0.6,0.7-1,1.1-1.2s0.7-0.3,1.1-0.3c0.6,0,1.1,0.2,1.6,0.5l-0.8,2.2
		c-0.4-0.3-0.8-0.4-1.2-0.4c-0.3,0-0.6,0.1-0.9,0.3c-0.2,0.2-0.4,0.5-0.6,1s-0.2,1.5-0.2,3.1L190.7,51.3L190.7,51.3z"/>
	<path class="st33" d="M203.8,51.3h-2.5v-4.8c0-1-0.1-1.7-0.2-2s-0.3-0.5-0.5-0.7s-0.5-0.2-0.9-0.2c-0.4,0-0.8,0.1-1.2,0.4
		s-0.6,0.5-0.7,0.9s-0.2,1.1-0.2,2.1v4.2h-2.5V42h2.3v1.4c0.8-1.1,1.8-1.6,3.1-1.6c0.5,0,1,0.1,1.5,0.3s0.8,0.4,1,0.8s0.4,0.7,0.5,1
		s0.1,0.9,0.1,1.7L203.8,51.3L203.8,51.3z"/>
	<path class="st33" d="M208.1,44.9l-2.2-0.4c0.3-0.9,0.7-1.6,1.3-2s1.5-0.7,2.7-0.7c1.1,0,1.9,0.1,2.5,0.4c0.5,0.3,0.9,0.6,1.1,1
		s0.3,1.1,0.3,2.2l0,2.9c0,0.8,0,1.4,0.1,1.8s0.2,0.8,0.4,1.3H212c-0.1-0.2-0.1-0.4-0.2-0.7c0-0.1-0.1-0.2-0.1-0.3
		c-0.4,0.4-0.9,0.7-1.4,0.9s-1,0.3-1.5,0.3c-1,0-1.7-0.3-2.3-0.8s-0.8-1.2-0.8-2c0-0.5,0.1-1,0.4-1.4c0.3-0.4,0.6-0.7,1.1-0.9
		c0.5-0.2,1.1-0.4,2-0.6c1.2-0.2,2-0.4,2.4-0.6V45c0-0.5-0.1-0.8-0.4-1c-0.2-0.2-0.7-0.3-1.3-0.3c-0.4,0-0.8,0.1-1,0.3
		C208.5,44.1,208.3,44.4,208.1,44.9z M211.4,46.9c-0.3,0.1-0.8,0.2-1.5,0.4s-1.1,0.3-1.3,0.4c-0.3,0.2-0.5,0.5-0.5,0.9
		c0,0.3,0.1,0.6,0.4,0.9s0.6,0.4,1,0.4c0.4,0,0.9-0.1,1.3-0.4c0.3-0.2,0.5-0.5,0.6-0.8c0.1-0.2,0.1-0.6,0.1-1.2L211.4,46.9
		L211.4,46.9z"/>
	<path class="st33" d="M220.6,42v2h-1.7v3.8c0,0.8,0,1.2,0,1.3s0.1,0.2,0.2,0.3s0.3,0.1,0.4,0.1c0.2,0,0.6-0.1,1-0.2l0.2,1.9
		c-0.6,0.2-1.2,0.4-2,0.4c-0.4,0-0.8-0.1-1.2-0.2c-0.4-0.1-0.6-0.3-0.8-0.6c-0.2-0.2-0.3-0.6-0.3-1c-0.1-0.3-0.1-0.9-0.1-1.7V44
		h-1.1v-2h1.1v-1.9l2.5-1.4V42L220.6,42L220.6,42z"/>
	<path class="st33" d="M222.3,40.7v-2.3h2.5v2.3H222.3z M222.3,51.3V42h2.5v9.3H222.3z"/>
	<path class="st33" d="M226.7,46.5c0-0.8,0.2-1.6,0.6-2.4s1-1.4,1.7-1.8s1.6-0.6,2.5-0.6c1.4,0,2.6,0.5,3.5,1.4
		c0.9,0.9,1.4,2.1,1.4,3.5c0,1.4-0.5,2.6-1.4,3.5s-2.1,1.4-3.4,1.4c-0.9,0-1.7-0.2-2.4-0.6s-1.4-1-1.8-1.7
		C226.9,48.5,226.7,47.6,226.7,46.5z M229.3,46.7c0,0.9,0.2,1.6,0.7,2.1s1,0.7,1.6,0.7s1.2-0.2,1.6-0.7s0.7-1.2,0.7-2.1
		c0-0.9-0.2-1.6-0.7-2.1s-1-0.7-1.6-0.7s-1.2,0.2-1.6,0.7S229.3,45.7,229.3,46.7z"/>
	<path class="st33" d="M246.8,51.3h-2.5v-4.8c0-1-0.1-1.7-0.2-2s-0.3-0.5-0.5-0.7s-0.5-0.2-0.9-0.2c-0.4,0-0.8,0.1-1.2,0.4
		s-0.6,0.5-0.7,0.9s-0.2,1.1-0.2,2.1v4.2h-2.5V42h2.3v1.4c0.8-1.1,1.8-1.6,3.1-1.6c0.5,0,1,0.1,1.5,0.3s0.8,0.4,1,0.8s0.4,0.7,0.5,1
		s0.1,0.9,0.1,1.7L246.8,51.3L246.8,51.3z"/>
	<path class="st33" d="M251.1,44.9l-2.2-0.4c0.3-0.9,0.7-1.6,1.3-2s1.5-0.7,2.7-0.7c1.1,0,1.9,0.1,2.5,0.4c0.5,0.3,0.9,0.6,1.1,1
		s0.3,1.1,0.3,2.2l0,2.9c0,0.8,0,1.4,0.1,1.8s0.2,0.8,0.4,1.3H255c-0.1-0.2-0.1-0.4-0.2-0.7c0-0.1-0.1-0.2-0.1-0.3
		c-0.4,0.4-0.9,0.7-1.4,0.9s-1,0.3-1.5,0.3c-1,0-1.7-0.3-2.3-0.8s-0.8-1.2-0.8-2c0-0.5,0.1-1,0.4-1.4c0.3-0.4,0.6-0.7,1.1-0.9
		c0.5-0.2,1.1-0.4,2-0.6c1.2-0.2,2-0.4,2.4-0.6V45c0-0.5-0.1-0.8-0.4-1c-0.2-0.2-0.7-0.3-1.3-0.3c-0.4,0-0.8,0.1-1,0.3
		C251.5,44.1,251.3,44.4,251.1,44.9z M254.4,46.9c-0.3,0.1-0.8,0.2-1.5,0.4s-1.1,0.3-1.3,0.4c-0.3,0.2-0.5,0.5-0.5,0.9
		c0,0.3,0.1,0.6,0.4,0.9s0.6,0.4,1,0.4c0.4,0,0.9-0.1,1.3-0.4c0.3-0.2,0.5-0.5,0.6-0.8c0.1-0.2,0.1-0.6,0.1-1.2L254.4,46.9
		L254.4,46.9z"/>
	<path class="st33" d="M259.3,51.3V38.5h2.5v12.9L259.3,51.3L259.3,51.3z"/>
	<path class="st33" d="M277.6,46.6l2.5,0.8c-0.4,1.4-1,2.5-1.9,3.1c-0.9,0.7-2,1-3.4,1c-1.7,0-3.1-0.6-4.2-1.8
		c-1.1-1.2-1.7-2.8-1.7-4.8c0-2.1,0.6-3.8,1.7-5c1.1-1.2,2.6-1.8,4.4-1.8c1.6,0,2.9,0.5,3.8,1.4c0.6,0.6,1,1.3,1.3,2.4l-2.6,0.6
		c-0.2-0.7-0.5-1.2-1-1.6s-1.1-0.6-1.8-0.6c-1,0-1.7,0.3-2.3,1s-0.9,1.8-0.9,3.3c0,1.6,0.3,2.8,0.9,3.5s1.3,1,2.3,1
		c0.7,0,1.3-0.2,1.8-0.7S277.3,47.5,277.6,46.6z"/>
	<path class="st33" d="M281.7,46.5c0-0.8,0.2-1.6,0.6-2.4s1-1.4,1.7-1.8s1.6-0.6,2.5-0.6c1.4,0,2.6,0.5,3.5,1.4
		c0.9,0.9,1.4,2.1,1.4,3.5c0,1.4-0.5,2.6-1.4,3.5s-2.1,1.4-3.4,1.4c-0.9,0-1.7-0.2-2.4-0.6s-1.4-1-1.8-1.7
		C281.9,48.5,281.7,47.6,281.7,46.5z M284.3,46.7c0,0.9,0.2,1.6,0.7,2.1s1,0.7,1.6,0.7s1.2-0.2,1.6-0.7s0.7-1.2,0.7-2.1
		c0-0.9-0.2-1.6-0.7-2.1s-1-0.7-1.6-0.7s-1.2,0.2-1.6,0.7S284.3,45.7,284.3,46.7z"/>
	<path class="st33" d="M295.1,44.9l-2.2-0.4c0.3-0.9,0.7-1.6,1.3-2s1.5-0.7,2.7-0.7c1.1,0,1.9,0.1,2.5,0.4c0.5,0.3,0.9,0.6,1.1,1
		s0.3,1.1,0.3,2.2l0,2.9c0,0.8,0,1.4,0.1,1.8s0.2,0.8,0.4,1.3H299c-0.1-0.2-0.1-0.4-0.2-0.7c0-0.1-0.1-0.2-0.1-0.3
		c-0.4,0.4-0.9,0.7-1.4,0.9s-1,0.3-1.5,0.3c-1,0-1.7-0.3-2.3-0.8s-0.8-1.2-0.8-2c0-0.5,0.1-1,0.4-1.4c0.3-0.4,0.6-0.7,1.1-0.9
		c0.5-0.2,1.1-0.4,2-0.6c1.2-0.2,2-0.4,2.4-0.6V45c0-0.5-0.1-0.8-0.4-1c-0.2-0.2-0.7-0.3-1.3-0.3c-0.4,0-0.8,0.1-1,0.3
		C295.5,44.1,295.3,44.4,295.1,44.9z M298.4,46.9c-0.3,0.1-0.8,0.2-1.5,0.4s-1.1,0.3-1.3,0.4c-0.3,0.2-0.5,0.5-0.5,0.9
		c0,0.3,0.1,0.6,0.4,0.9s0.6,0.4,1,0.4c0.4,0,0.9-0.1,1.3-0.4c0.3-0.2,0.5-0.5,0.6-0.8c0.1-0.2,0.1-0.6,0.1-1.2L298.4,46.9
		L298.4,46.9z"/>
	<path class="st33" d="M303.3,51.3V38.5h2.5v12.9L303.3,51.3L303.3,51.3z"/>
	<path class="st33" d="M308.3,40.7v-2.3h2.5v2.3H308.3z M308.3,51.3V42h2.5v9.3H308.3z"/>
	<path class="st33" d="M317.6,42v2h-1.7v3.8c0,0.8,0,1.2,0,1.3s0.1,0.2,0.2,0.3s0.3,0.1,0.4,0.1c0.2,0,0.6-0.1,1-0.2l0.2,1.9
		c-0.6,0.2-1.2,0.4-2,0.4c-0.4,0-0.8-0.1-1.2-0.2c-0.4-0.1-0.6-0.3-0.8-0.6c-0.2-0.2-0.3-0.6-0.3-1c-0.1-0.3-0.1-0.9-0.1-1.7V44
		h-1.1v-2h1.1v-1.9l2.5-1.4V42L317.6,42L317.6,42z"/>
	<path class="st33" d="M319.3,40.7v-2.3h2.5v2.3H319.3z M319.3,51.3V42h2.5v9.3H319.3z"/>
	<path class="st33" d="M323.7,46.5c0-0.8,0.2-1.6,0.6-2.4s1-1.4,1.7-1.8s1.6-0.6,2.5-0.6c1.4,0,2.6,0.5,3.5,1.4
		c0.9,0.9,1.4,2.1,1.4,3.5c0,1.4-0.5,2.6-1.4,3.5s-2.1,1.4-3.4,1.4c-0.9,0-1.7-0.2-2.4-0.6s-1.4-1-1.8-1.7
		C323.9,48.5,323.7,47.6,323.7,46.5z M326.3,46.7c0,0.9,0.2,1.6,0.7,2.1s1,0.7,1.6,0.7s1.2-0.2,1.6-0.7s0.7-1.2,0.7-2.1
		c0-0.9-0.2-1.6-0.7-2.1s-1-0.7-1.6-0.7s-1.2,0.2-1.6,0.7S326.3,45.7,326.3,46.7z"/>
	<path class="st33" d="M343.8,51.3h-2.5v-4.8c0-1-0.1-1.7-0.2-2s-0.3-0.5-0.5-0.7s-0.5-0.2-0.9-0.2c-0.4,0-0.8,0.1-1.2,0.4
		s-0.6,0.5-0.7,0.9s-0.2,1.1-0.2,2.1v4.2h-2.5V42h2.3v1.4c0.8-1.1,1.8-1.6,3.1-1.6c0.5,0,1,0.1,1.5,0.3s0.8,0.4,1,0.8s0.4,0.7,0.5,1
		s0.1,0.9,0.1,1.7L343.8,51.3L343.8,51.3z"/>
</g>
<g class="st32">
	<path class="st33" d="M155.7,65.6c0-0.8,0.2-1.6,0.6-2.4s1-1.4,1.7-1.8s1.6-0.6,2.5-0.6c1.4,0,2.6,0.5,3.5,1.4
		c0.9,0.9,1.4,2.1,1.4,3.5c0,1.4-0.5,2.6-1.4,3.5s-2.1,1.4-3.4,1.4c-0.9,0-1.7-0.2-2.4-0.6s-1.4-1-1.8-1.7
		C155.9,67.5,155.7,66.6,155.7,65.6z M158.3,65.7c0,0.9,0.2,1.6,0.7,2.1s1,0.7,1.6,0.7s1.2-0.2,1.6-0.7s0.7-1.2,0.7-2.1
		c0-0.9-0.2-1.6-0.7-2.1s-1-0.7-1.6-0.7s-1.2,0.2-1.6,0.7C158.5,64,158.3,64.8,158.3,65.7z"/>
	<path class="st33" d="M166.2,61h1.4v-0.7c0-0.8,0.1-1.4,0.3-1.8s0.5-0.7,0.9-0.9c0.4-0.2,1-0.4,1.7-0.4c0.7,0,1.4,0.1,2.1,0.3
		l-0.3,1.7c-0.4-0.1-0.8-0.1-1.1-0.1c-0.4,0-0.6,0.1-0.8,0.3c-0.2,0.2-0.2,0.5-0.2,1V61h1.8V63H170v7.4h-2.5V63h-1.4L166.2,61
		L166.2,61z"/>
	<path class="st33" d="M178.2,70.3V57.5h2.6v12.9H178.2z"/>
	<path class="st33" d="M191.8,70.3h-2.5v-4.8c0-1-0.1-1.7-0.2-2s-0.3-0.5-0.5-0.7s-0.5-0.2-0.9-0.2c-0.4,0-0.8,0.1-1.2,0.4
		s-0.6,0.5-0.7,0.9c-0.1,0.4-0.2,1.1-0.2,2.1v4.2h-2.5V61h2.3v1.4c0.8-1.1,1.8-1.6,3.1-1.6c0.5,0,1,0.1,1.5,0.3s0.8,0.4,1,0.8
		s0.4,0.7,0.5,1s0.1,0.9,0.1,1.7L191.8,70.3L191.8,70.3z"/>
	<path class="st33" d="M202.4,63.8l-2.4,0.4c-0.1-0.5-0.3-0.9-0.6-1.1s-0.7-0.4-1.1-0.4c-0.6,0-1.1,0.2-1.5,0.6s-0.6,1.1-0.6,2.1
		c0,1.1,0.2,1.9,0.6,2.3s0.9,0.7,1.5,0.7c0.5,0,0.9-0.1,1.2-0.4s0.5-0.7,0.6-1.4l2.4,0.4c-0.3,1.1-0.7,2-1.4,2.5s-1.7,0.9-2.9,0.9
		c-1.4,0-2.5-0.4-3.3-1.3s-1.2-2.1-1.2-3.6c0-1.5,0.4-2.7,1.2-3.6c0.8-0.9,1.9-1.3,3.3-1.3c1.1,0,2,0.2,2.7,0.7
		S202.1,62.8,202.4,63.8z"/>
	<path class="st33" d="M204.3,70.3V57.5h2.5v12.9H204.3z"/>
	<path class="st33" d="M215.4,70.3V69c-0.3,0.5-0.8,0.9-1.3,1.2s-1.1,0.4-1.8,0.4c-0.6,0-1.2-0.1-1.7-0.4s-0.9-0.7-1.1-1.2
		s-0.3-1.2-0.3-2.1V61h2.5v4.3c0,1.3,0,2.1,0.1,2.4c0.1,0.3,0.3,0.5,0.5,0.7c0.2,0.2,0.5,0.3,0.9,0.3c0.4,0,0.8-0.1,1.1-0.3
		c0.3-0.2,0.6-0.5,0.7-0.9c0.1-0.3,0.2-1.2,0.2-2.5V61h2.5v9.3L215.4,70.3L215.4,70.3z"/>
	<path class="st33" d="M219.4,67.7l2.5-0.4c0.1,0.5,0.3,0.8,0.6,1.1c0.3,0.3,0.8,0.4,1.4,0.4c0.6,0,1.1-0.1,1.4-0.4
		c0.2-0.2,0.3-0.4,0.3-0.7c0-0.2-0.1-0.3-0.2-0.5c-0.1-0.1-0.4-0.2-0.8-0.3c-2-0.4-3.3-0.8-3.8-1.2c-0.7-0.5-1.1-1.2-1.1-2.1
		c0-0.8,0.3-1.5,1-2s1.6-0.8,3-0.8c1.3,0,2.2,0.2,2.8,0.6s1,1,1.3,1.8l-2.3,0.4c-0.1-0.4-0.3-0.6-0.6-0.8s-0.7-0.3-1.2-0.3
		c-0.6,0-1.1,0.1-1.4,0.3c-0.2,0.1-0.3,0.3-0.3,0.5c0,0.2,0.1,0.3,0.2,0.4c0.2,0.2,1,0.4,2.3,0.7s2.2,0.7,2.8,1.1
		c0.5,0.4,0.8,1.1,0.8,1.8c0,0.9-0.4,1.6-1.1,2.2s-1.8,0.9-3.2,0.9c-1.3,0-2.3-0.3-3-0.8S219.6,68.6,219.4,67.7z"/>
	<path class="st33" d="M230.3,59.8v-2.3h2.5v2.3H230.3z M230.3,70.3V61h2.5v9.3H230.3z"/>
	<path class="st33" d="M237.9,70.3l-3.8-9.3h2.6l1.8,4.8l0.5,1.6c0.1-0.4,0.2-0.7,0.3-0.8c0.1-0.3,0.2-0.5,0.3-0.8l1.8-4.8h2.5
		l-3.7,9.3H237.9z"/>
	<path class="st33" d="M250.7,67.4l2.5,0.4c-0.3,0.9-0.8,1.6-1.5,2.1s-1.5,0.7-2.6,0.7c-1.6,0-2.8-0.5-3.6-1.6
		c-0.6-0.8-0.9-1.9-0.9-3.2c0-1.5,0.4-2.8,1.2-3.6s1.8-1.3,3.1-1.3c1.4,0,2.5,0.5,3.3,1.4c0.8,0.9,1.2,2.3,1.2,4.2h-6.2
		c0,0.7,0.2,1.3,0.6,1.7c0.4,0.4,0.9,0.6,1.4,0.6c0.4,0,0.7-0.1,1-0.3S250.6,67.8,250.7,67.4z M250.9,64.9c0-0.7-0.2-1.3-0.6-1.6
		c-0.4-0.4-0.8-0.6-1.3-0.6c-0.5,0-1,0.2-1.3,0.6s-0.5,0.9-0.5,1.6H250.9z"/>
	<path class="st33" d="M262.2,63.9l-2.2-0.4c0.3-0.9,0.7-1.6,1.3-2s1.5-0.7,2.7-0.7c1.1,0,1.9,0.1,2.5,0.4c0.5,0.3,0.9,0.6,1.1,1
		s0.3,1.1,0.3,2.2l0,2.9c0,0.8,0,1.4,0.1,1.8s0.2,0.8,0.4,1.3H266c-0.1-0.2-0.1-0.4-0.2-0.7c0-0.1-0.1-0.2-0.1-0.3
		c-0.4,0.4-0.9,0.7-1.4,0.9s-1,0.3-1.5,0.3c-1,0-1.7-0.3-2.3-0.8s-0.8-1.2-0.8-2c0-0.5,0.1-1,0.4-1.4c0.3-0.4,0.6-0.7,1.1-0.9
		c0.5-0.2,1.1-0.4,2-0.6c1.2-0.2,2-0.4,2.4-0.6V64c0-0.5-0.1-0.8-0.4-1c-0.2-0.2-0.7-0.3-1.3-0.3c-0.4,0-0.8,0.1-1,0.3
		C262.5,63.1,262.3,63.4,262.2,63.9z M265.5,65.9c-0.3,0.1-0.8,0.2-1.5,0.4s-1.1,0.3-1.3,0.4c-0.3,0.2-0.5,0.5-0.5,0.9
		c0,0.3,0.1,0.6,0.4,0.9s0.6,0.4,1,0.4c0.4,0,0.9-0.1,1.3-0.4c0.3-0.2,0.5-0.5,0.6-0.8c0.1-0.2,0.1-0.6,0.1-1.2L265.5,65.9
		L265.5,65.9z"/>
	<path class="st33" d="M278.8,70.3h-2.5v-4.8c0-1-0.1-1.7-0.2-2s-0.3-0.5-0.5-0.7s-0.5-0.2-0.9-0.2c-0.4,0-0.8,0.1-1.2,0.4
		s-0.6,0.5-0.7,0.9c-0.1,0.4-0.2,1.1-0.2,2.1v4.2h-2.5V61h2.3v1.4c0.8-1.1,1.8-1.6,3.1-1.6c0.5,0,1,0.1,1.5,0.3s0.8,0.4,1,0.8
		s0.4,0.7,0.5,1s0.1,0.9,0.1,1.7L278.8,70.3L278.8,70.3z"/>
	<path class="st33" d="M289.9,70.3h-2.3V69c-0.4,0.5-0.8,0.9-1.3,1.2s-1,0.4-1.6,0.4c-1.1,0-2-0.4-2.8-1.3c-0.8-0.9-1.1-2.1-1.1-3.6
		c0-1.6,0.4-2.8,1.1-3.6c0.7-0.8,1.7-1.2,2.8-1.2c1,0,1.9,0.4,2.7,1.3v-4.6h2.5V70.3z M283.3,65.5c0,1,0.1,1.7,0.4,2.2
		c0.4,0.6,1,1,1.7,1c0.6,0,1.1-0.2,1.5-0.7c0.4-0.5,0.6-1.2,0.6-2.2c0-1.1-0.2-1.8-0.6-2.3s-0.9-0.7-1.5-0.7c-0.6,0-1.1,0.2-1.5,0.7
		C283.5,63.9,283.3,64.6,283.3,65.5z"/>
</g>
<g class="st32">
	<path class="st33" d="M155.6,85.2l2.5-0.2c0.2,0.8,0.5,1.5,0.9,1.9s1.1,0.6,1.9,0.6c0.8,0,1.5-0.2,1.9-0.5s0.6-0.8,0.6-1.2
		c0-0.3-0.1-0.6-0.3-0.8s-0.5-0.4-0.9-0.6c-0.3-0.1-1-0.3-2.1-0.6c-1.4-0.3-2.4-0.8-2.9-1.3c-0.8-0.7-1.2-1.6-1.2-2.6
		c0-0.7,0.2-1.3,0.6-1.8c0.4-0.6,0.9-1,1.6-1.3s1.5-0.4,2.5-0.4c1.6,0,2.8,0.4,3.7,1.1s1.2,1.7,1.3,2.8l-2.6,0.1
		c-0.1-0.7-0.4-1.1-0.7-1.4c-0.4-0.3-0.9-0.4-1.6-0.4c-0.8,0-1.3,0.2-1.8,0.5c-0.3,0.2-0.4,0.5-0.4,0.8c0,0.3,0.1,0.6,0.4,0.8
		c0.3,0.3,1.1,0.6,2.4,0.9s2.2,0.6,2.8,0.9c0.6,0.3,1.1,0.8,1.4,1.3c0.3,0.6,0.5,1.2,0.5,2.1c0,0.7-0.2,1.4-0.6,2.1s-1,1.1-1.7,1.4
		c-0.8,0.3-1.7,0.5-2.8,0.5c-1.6,0-2.9-0.4-3.8-1.1S155.8,86.6,155.6,85.2z"/>
	<path class="st33" d="M174.4,89.4V88c-0.3,0.5-0.8,0.9-1.3,1.2s-1.1,0.4-1.8,0.4c-0.6,0-1.2-0.1-1.7-0.4s-0.9-0.7-1.1-1.2
		s-0.3-1.2-0.3-2.1V80h2.5v4.3c0,1.3,0,2.1,0.1,2.4c0.1,0.3,0.3,0.5,0.5,0.7c0.2,0.2,0.5,0.3,0.9,0.3c0.4,0,0.8-0.1,1.1-0.3
		c0.3-0.2,0.6-0.5,0.7-0.9c0.1-0.3,0.2-1.2,0.2-2.5V80h2.5v9.3L174.4,89.4L174.4,89.4z"/>
	<path class="st33" d="M178.4,86.7l2.5-0.4c0.1,0.5,0.3,0.8,0.6,1.1c0.3,0.3,0.8,0.4,1.4,0.4c0.6,0,1.1-0.1,1.4-0.4
		c0.2-0.2,0.3-0.4,0.3-0.7c0-0.2-0.1-0.3-0.2-0.5c-0.1-0.1-0.4-0.2-0.8-0.3c-2-0.4-3.3-0.8-3.8-1.2c-0.7-0.5-1.1-1.2-1.1-2.1
		c0-0.8,0.3-1.5,1-2s1.6-0.8,3-0.8c1.3,0,2.2,0.2,2.8,0.6s1,1,1.3,1.8l-2.3,0.4c-0.1-0.4-0.3-0.6-0.6-0.8s-0.7-0.3-1.2-0.3
		c-0.6,0-1.1,0.1-1.4,0.3c-0.2,0.1-0.3,0.3-0.3,0.5c0,0.2,0.1,0.3,0.2,0.4c0.2,0.2,1,0.4,2.3,0.7s2.2,0.7,2.8,1.1
		c0.5,0.4,0.8,1.1,0.8,1.8c0,0.9-0.4,1.6-1.1,2.2s-1.8,0.9-3.2,0.9c-1.3,0-2.3-0.3-3-0.8S178.7,87.6,178.4,86.7z"/>
	<path class="st33" d="M193.6,80v2h-1.7v3.8c0,0.8,0,1.2,0,1.3s0.1,0.2,0.2,0.3s0.3,0.1,0.4,0.1c0.2,0,0.6-0.1,1-0.2l0.2,1.9
		c-0.6,0.2-1.2,0.4-2,0.4c-0.4,0-0.8-0.1-1.2-0.2c-0.4-0.1-0.6-0.3-0.8-0.6c-0.2-0.2-0.3-0.6-0.3-1c-0.1-0.3-0.1-0.9-0.1-1.7V82
		h-1.1v-2h1.1v-1.9l2.5-1.4V80L193.6,80L193.6,80z"/>
	<path class="st33" d="M197.1,82.9l-2.2-0.4c0.3-0.9,0.7-1.6,1.3-2s1.5-0.7,2.7-0.7c1.1,0,1.9,0.1,2.5,0.4c0.5,0.3,0.9,0.6,1.1,1
		s0.3,1.1,0.3,2.2l0,2.9c0,0.8,0,1.4,0.1,1.8s0.2,0.8,0.4,1.3H201c-0.1-0.2-0.1-0.4-0.2-0.7c0-0.1-0.1-0.2-0.1-0.3
		c-0.4,0.4-0.9,0.7-1.4,0.9s-1,0.3-1.5,0.3c-1,0-1.7-0.3-2.3-0.8c-0.6-0.5-0.8-1.2-0.8-2c0-0.5,0.1-1,0.4-1.4
		c0.3-0.4,0.6-0.7,1.1-0.9c0.5-0.2,1.1-0.4,2-0.6c1.2-0.2,2-0.4,2.4-0.6V83c0-0.5-0.1-0.8-0.4-1c-0.2-0.2-0.7-0.3-1.3-0.3
		c-0.4,0-0.8,0.1-1,0.3C197.5,82.1,197.3,82.4,197.1,82.9z M200.4,84.9c-0.3,0.1-0.8,0.2-1.5,0.4s-1.1,0.3-1.3,0.4
		c-0.3,0.2-0.5,0.5-0.5,0.9c0,0.3,0.1,0.6,0.4,0.9s0.6,0.4,1,0.4c0.4,0,0.9-0.1,1.3-0.4c0.3-0.2,0.5-0.5,0.6-0.8
		c0.1-0.2,0.1-0.6,0.1-1.2L200.4,84.9L200.4,84.9z"/>
	<path class="st33" d="M205.3,78.8v-2.3h2.5v2.3H205.3z M205.3,89.4V80h2.5v9.3H205.3z"/>
	<path class="st33" d="M218.8,89.4h-2.5v-4.8c0-1-0.1-1.7-0.2-2s-0.3-0.5-0.5-0.7s-0.5-0.2-0.9-0.2c-0.4,0-0.8,0.1-1.2,0.4
		s-0.6,0.5-0.7,0.9s-0.2,1.1-0.2,2.1v4.2h-2.5V80h2.3v1.4c0.8-1.1,1.8-1.6,3.1-1.6c0.5,0,1,0.1,1.5,0.3s0.8,0.4,1,0.8s0.4,0.7,0.5,1
		s0.1,0.9,0.1,1.7L218.8,89.4L218.8,89.4z"/>
	<path class="st33" d="M223.1,82.9l-2.2-0.4c0.3-0.9,0.7-1.6,1.3-2s1.5-0.7,2.7-0.7c1.1,0,1.9,0.1,2.5,0.4c0.5,0.3,0.9,0.6,1.1,1
		s0.3,1.1,0.3,2.2l0,2.9c0,0.8,0,1.4,0.1,1.8s0.2,0.8,0.4,1.3H227c-0.1-0.2-0.1-0.4-0.2-0.7c0-0.1-0.1-0.2-0.1-0.3
		c-0.4,0.4-0.9,0.7-1.4,0.9s-1,0.3-1.5,0.3c-1,0-1.7-0.3-2.3-0.8s-0.8-1.2-0.8-2c0-0.5,0.1-1,0.4-1.4c0.3-0.4,0.6-0.7,1.1-0.9
		c0.5-0.2,1.1-0.4,2-0.6c1.2-0.2,2-0.4,2.4-0.6V83c0-0.5-0.1-0.8-0.4-1c-0.2-0.2-0.7-0.3-1.3-0.3c-0.4,0-0.8,0.1-1,0.3
		C223.5,82.1,223.3,82.4,223.1,82.9z M226.5,84.9c-0.3,0.1-0.8,0.2-1.5,0.4s-1.1,0.3-1.3,0.4c-0.3,0.2-0.5,0.5-0.5,0.9
		c0,0.3,0.1,0.6,0.4,0.9s0.6,0.4,1,0.4c0.4,0,0.9-0.1,1.3-0.4c0.3-0.2,0.5-0.5,0.6-0.8c0.1-0.2,0.1-0.6,0.1-1.2L226.5,84.9
		L226.5,84.9z"/>
	<path class="st33" d="M231.2,89.4V76.5h2.5v4.6c0.8-0.9,1.7-1.3,2.7-1.3c1.1,0,2.1,0.4,2.8,1.2c0.7,0.8,1.1,2,1.1,3.5
		c0,1.6-0.4,2.8-1.1,3.7s-1.7,1.3-2.8,1.3c-0.5,0-1.1-0.1-1.6-0.4c-0.5-0.3-1-0.7-1.3-1.2v1.4L231.2,89.4L231.2,89.4z M233.7,84.5
		c0,1,0.2,1.7,0.5,2.1c0.4,0.7,1,1,1.7,1c0.5,0,1-0.2,1.4-0.7c0.4-0.5,0.6-1.2,0.6-2.2c0-1.1-0.2-1.8-0.6-2.3s-0.9-0.7-1.5-0.7
		c-0.6,0-1.1,0.2-1.5,0.7S233.7,83.6,233.7,84.5z"/>
	<path class="st33" d="M242.3,89.4V76.5h2.5v12.9L242.3,89.4L242.3,89.4z"/>
	<path class="st33" d="M252.7,86.4l2.5,0.4c-0.3,0.9-0.8,1.6-1.5,2.1s-1.5,0.7-2.6,0.7c-1.6,0-2.8-0.5-3.6-1.6
		c-0.6-0.8-0.9-1.9-0.9-3.2c0-1.5,0.4-2.8,1.2-3.6s1.8-1.3,3.1-1.3c1.4,0,2.5,0.5,3.3,1.4c0.8,0.9,1.2,2.3,1.2,4.2h-6.2
		c0,0.7,0.2,1.3,0.6,1.7c0.4,0.4,0.9,0.6,1.4,0.6c0.4,0,0.7-0.1,1-0.3S252.6,86.9,252.7,86.4z M252.9,83.9c0-0.7-0.2-1.3-0.6-1.6
		c-0.4-0.4-0.8-0.6-1.3-0.6c-0.5,0-1,0.2-1.3,0.6s-0.5,0.9-0.5,1.6H252.9z"/>
	<path class="st33" d="M270.6,84.6l2.5,0.8c-0.4,1.4-1,2.5-1.9,3.1c-0.9,0.7-2,1-3.4,1c-1.7,0-3.1-0.6-4.2-1.8
		c-1.1-1.2-1.7-2.8-1.7-4.8c0-2.1,0.6-3.8,1.7-5c1.1-1.2,2.6-1.8,4.4-1.8c1.6,0,2.9,0.5,3.8,1.4c0.6,0.6,1,1.3,1.3,2.4l-2.6,0.6
		c-0.2-0.7-0.5-1.2-1-1.6s-1.1-0.6-1.8-0.6c-1,0-1.7,0.3-2.3,1s-0.9,1.8-0.9,3.3c0,1.6,0.3,2.8,0.9,3.5s1.3,1,2.3,1
		c0.7,0,1.3-0.2,1.8-0.7S270.4,85.6,270.6,84.6z"/>
	<path class="st33" d="M275.3,78.8v-2.3h2.5v2.3H275.3z M275.3,89.4V80h2.5v9.3H275.3z"/>
	<path class="st33" d="M284.6,80v2h-1.7v3.8c0,0.8,0,1.2,0,1.3s0.1,0.2,0.2,0.3s0.3,0.1,0.4,0.1c0.2,0,0.6-0.1,1-0.2l0.2,1.9
		c-0.6,0.2-1.2,0.4-2,0.4c-0.4,0-0.8-0.1-1.2-0.2c-0.4-0.1-0.6-0.3-0.8-0.6c-0.2-0.2-0.3-0.6-0.3-1c-0.1-0.3-0.1-0.9-0.1-1.7V82
		h-1.1v-2h1.1v-1.9l2.5-1.4V80L284.6,80L284.6,80z"/>
	<path class="st33" d="M286.3,78.8v-2.3h2.5v2.3H286.3z M286.3,89.4V80h2.5v9.3H286.3z"/>
	<path class="st33" d="M296.7,86.4l2.5,0.4c-0.3,0.9-0.8,1.6-1.5,2.1s-1.5,0.7-2.6,0.7c-1.6,0-2.8-0.5-3.6-1.6
		c-0.6-0.8-0.9-1.9-0.9-3.2c0-1.5,0.4-2.8,1.2-3.6s1.8-1.3,3.1-1.3c1.4,0,2.5,0.5,3.3,1.4c0.8,0.9,1.2,2.3,1.2,4.2h-6.2
		c0,0.7,0.2,1.3,0.6,1.7c0.4,0.4,0.9,0.6,1.4,0.6c0.4,0,0.7-0.1,1-0.3S296.6,86.9,296.7,86.4z M296.9,83.9c0-0.7-0.2-1.3-0.6-1.6
		c-0.4-0.4-0.8-0.6-1.3-0.6c-0.5,0-1,0.2-1.3,0.6s-0.5,0.9-0.5,1.6H296.9z"/>
	<path class="st33" d="M300.5,86.7l2.5-0.4c0.1,0.5,0.3,0.8,0.6,1.1c0.3,0.3,0.8,0.4,1.4,0.4c0.6,0,1.1-0.1,1.4-0.4
		c0.2-0.2,0.3-0.4,0.3-0.7c0-0.2-0.1-0.3-0.2-0.5c-0.1-0.1-0.4-0.2-0.8-0.3c-2-0.4-3.3-0.8-3.8-1.2c-0.7-0.5-1.1-1.2-1.1-2.1
		c0-0.8,0.3-1.5,1-2s1.6-0.8,3-0.8c1.3,0,2.2,0.2,2.8,0.6s1,1,1.3,1.8l-2.3,0.4c-0.1-0.4-0.3-0.6-0.6-0.8s-0.7-0.3-1.2-0.3
		c-0.6,0-1.1,0.1-1.4,0.3c-0.2,0.1-0.3,0.3-0.3,0.5c0,0.2,0.1,0.3,0.2,0.4c0.2,0.2,1,0.4,2.3,0.7s2.2,0.7,2.8,1.1
		c0.5,0.4,0.8,1.1,0.8,1.8c0,0.9-0.4,1.6-1.1,2.2s-1.8,0.9-3.2,0.9c-1.3,0-2.3-0.3-3-0.8S300.7,87.6,300.5,86.7z"/>
	<path class="st33" d="M315,85.6v-1.8h10v1.8H315z"/>
	<path class="st33" d="M331.3,89.4V76.5h2.6v12.9L331.3,89.4L331.3,89.4z"/>
	<path class="st33" d="M344.6,84.6l2.5,0.8c-0.4,1.4-1,2.5-1.9,3.1c-0.9,0.7-2,1-3.4,1c-1.7,0-3.1-0.6-4.2-1.8
		c-1.1-1.2-1.7-2.8-1.7-4.8c0-2.1,0.6-3.8,1.7-5c1.1-1.2,2.6-1.8,4.4-1.8c1.6,0,2.9,0.5,3.8,1.4c0.6,0.6,1,1.3,1.3,2.4l-2.6,0.6
		c-0.2-0.7-0.5-1.2-1-1.6s-1.1-0.6-1.8-0.6c-1,0-1.7,0.3-2.3,1s-0.9,1.8-0.9,3.3c0,1.6,0.3,2.8,0.9,3.5s1.3,1,2.3,1
		c0.7,0,1.3-0.2,1.8-0.7S344.4,85.6,344.6,84.6z"/>
	<path class="st33" d="M357.6,84.6l2.5,0.8c-0.4,1.4-1,2.5-1.9,3.1c-0.9,0.7-2,1-3.4,1c-1.7,0-3.1-0.6-4.2-1.8
		c-1.1-1.2-1.7-2.8-1.7-4.8c0-2.1,0.6-3.8,1.7-5c1.1-1.2,2.6-1.8,4.4-1.8c1.6,0,2.9,0.5,3.8,1.4c0.6,0.6,1,1.3,1.3,2.4l-2.6,0.6
		c-0.2-0.7-0.5-1.2-1-1.6s-1.1-0.6-1.8-0.6c-1,0-1.7,0.3-2.3,1s-0.9,1.8-0.9,3.3c0,1.6,0.3,2.8,0.9,3.5s1.3,1,2.3,1
		c0.7,0,1.3-0.2,1.8-0.7S357.4,85.6,357.6,84.6z"/>
	<path class="st33" d="M374,89.4h-2.8l-1.1-2.9h-5.1l-1.1,2.9h-2.8l5-12.9h2.8L374,89.4z M369.2,84.3l-1.8-4.8l-1.7,4.8H369.2z"/>
	<path class="st33" d="M375.4,89.4V76.5h5.5c1.4,0,2.4,0.1,3,0.3s1.1,0.6,1.5,1.2s0.6,1.3,0.6,2c0,1-0.3,1.8-0.9,2.4s-1.4,1-2.5,1.2
		c0.6,0.3,1,0.7,1.4,1.1s0.9,1.1,1.5,2.1l1.6,2.5h-3.1l-1.9-2.8c-0.7-1-1.1-1.6-1.4-1.9s-0.5-0.4-0.8-0.5c-0.3-0.1-0.7-0.1-1.3-0.1
		H378v5.4C378,89.4,375.4,89.4,375.4,89.4z M378,81.9h1.9c1.2,0,2-0.1,2.3-0.2s0.6-0.3,0.7-0.5s0.3-0.6,0.3-1c0-0.4-0.1-0.8-0.3-1.1
		c-0.2-0.3-0.6-0.4-1-0.5c-0.2,0-0.8,0-1.9,0h-2L378,81.9L378,81.9z"/>
</g>
<g class="st32">
	<path d="M65.4,96h1v4.6c0,0.8-0.1,1.4-0.3,1.9s-0.5,0.8-1,1.1c-0.5,0.3-1.1,0.4-1.8,0.4c-0.7,0-1.3-0.1-1.8-0.4s-0.8-0.6-1-1.1
		s-0.3-1.1-0.3-2V96h1v4.5c0,0.7,0.1,1.2,0.2,1.5c0.1,0.3,0.3,0.6,0.7,0.8c0.3,0.2,0.7,0.3,1.1,0.3c0.8,0,1.3-0.2,1.6-0.5
		c0.3-0.3,0.5-1,0.5-2C65.4,100.5,65.4,96,65.4,96z"/>
	<path d="M68,103.9v-5.7h0.9V99c0.4-0.6,1-0.9,1.8-0.9c0.3,0,0.7,0.1,0.9,0.2c0.3,0.1,0.5,0.3,0.6,0.5c0.1,0.2,0.2,0.4,0.3,0.7
		c0,0.2,0.1,0.5,0.1,0.9v3.5h-1v-3.5c0-0.4,0-0.7-0.1-0.9s-0.2-0.4-0.4-0.5c-0.2-0.1-0.4-0.2-0.7-0.2c-0.4,0-0.8,0.1-1.1,0.4
		c-0.3,0.3-0.4,0.8-0.4,1.5v3.1L68,103.9L68,103.9z"/>
	<path d="M74.1,97.1V96h1v1.1H74.1z M74.1,103.9v-5.7h1v5.7H74.1z"/>
	<path d="M78.7,103l0.1,0.9c-0.3,0.1-0.5,0.1-0.7,0.1c-0.4,0-0.6-0.1-0.8-0.2c-0.2-0.1-0.3-0.3-0.4-0.4s-0.1-0.6-0.1-1.1v-3.3H76
		v-0.8h0.7v-1.4l1-0.6v2h1v0.8h-1v3.3c0,0.3,0,0.5,0.1,0.5c0,0.1,0.1,0.1,0.2,0.2c0.1,0,0.2,0.1,0.3,0.1C78.4,103,78.5,103,78.7,103
		z"/>
	<path d="M83.5,102l1,0.1c-0.2,0.6-0.4,1-0.9,1.4s-1,0.5-1.6,0.5c-0.8,0-1.5-0.3-2-0.8c-0.5-0.5-0.7-1.2-0.7-2.2
		c0-1,0.2-1.7,0.7-2.2S81.2,98,82,98c0.8,0,1.4,0.3,1.9,0.8c0.5,0.5,0.7,1.3,0.7,2.2c0,0.1,0,0.1,0,0.3h-4.3c0,0.6,0.2,1.1,0.5,1.4
		c0.3,0.3,0.7,0.5,1.2,0.5c0.4,0,0.7-0.1,0.9-0.3S83.4,102.4,83.5,102z M80.4,100.5h3.2c0-0.5-0.2-0.8-0.4-1.1
		c-0.3-0.4-0.7-0.6-1.2-0.6c-0.4,0-0.8,0.1-1.1,0.4C80.6,99.6,80.4,100,80.4,100.5z"/>
	<path d="M89.4,103.9v-0.7c-0.4,0.6-0.9,0.8-1.6,0.8c-0.5,0-0.9-0.1-1.3-0.4s-0.7-0.6-0.9-1.1c-0.2-0.4-0.3-1-0.3-1.6
		c0-0.6,0.1-1.1,0.3-1.6s0.5-0.8,0.9-1.1c0.4-0.2,0.8-0.4,1.3-0.4c0.3,0,0.7,0.1,0.9,0.2c0.3,0.1,0.5,0.3,0.7,0.6V96h1v7.9
		C90.3,103.9,89.4,103.9,89.4,103.9z M86.4,101c0,0.7,0.2,1.3,0.5,1.6s0.7,0.5,1.1,0.5c0.4,0,0.8-0.2,1.1-0.5
		c0.3-0.3,0.4-0.9,0.4-1.6c0-0.8-0.2-1.4-0.5-1.7s-0.7-0.5-1.1-0.5c-0.4,0-0.8,0.2-1.1,0.5C86.5,99.7,86.4,100.3,86.4,101z"/>
	<path d="M95,103.9V96h1.1l4.1,6.2V96h1v7.9h-1.1L96,97.7v6.2H95z"/>
	<path d="M106.6,103.2c-0.4,0.3-0.7,0.5-1,0.6c-0.3,0.1-0.7,0.2-1.1,0.2c-0.6,0-1.1-0.2-1.4-0.5c-0.3-0.3-0.5-0.7-0.5-1.2
		c0-0.3,0.1-0.5,0.2-0.8c0.1-0.2,0.3-0.4,0.5-0.6s0.4-0.2,0.7-0.3c0.2-0.1,0.5-0.1,0.9-0.1c0.8-0.1,1.4-0.2,1.7-0.3
		c0-0.1,0-0.2,0-0.3c0-0.4-0.1-0.7-0.3-0.8c-0.2-0.2-0.6-0.3-1.1-0.3c-0.5,0-0.8,0.1-1,0.2c-0.2,0.2-0.4,0.4-0.5,0.8l-0.9-0.1
		c0.1-0.4,0.2-0.7,0.4-1s0.5-0.4,0.9-0.6c0.4-0.1,0.8-0.2,1.3-0.2c0.5,0,0.9,0.1,1.2,0.2s0.5,0.3,0.7,0.4s0.2,0.4,0.3,0.7
		c0,0.2,0,0.5,0,0.9v1.3c0,0.9,0,1.5,0.1,1.7c0,0.2,0.1,0.5,0.2,0.7h-1C106.7,103.7,106.6,103.4,106.6,103.2z M106.5,101
		c-0.4,0.1-0.9,0.3-1.6,0.4c-0.4,0.1-0.7,0.1-0.8,0.2c-0.2,0.1-0.3,0.2-0.4,0.3s-0.1,0.3-0.1,0.5c0,0.3,0.1,0.5,0.3,0.6
		s0.5,0.3,0.9,0.3c0.4,0,0.7-0.1,1-0.2s0.5-0.4,0.6-0.7c0.1-0.2,0.2-0.5,0.2-1L106.5,101L106.5,101z"/>
	<path d="M111.1,103l0.1,0.9c-0.3,0.1-0.5,0.1-0.7,0.1c-0.4,0-0.6-0.1-0.8-0.2c-0.2-0.1-0.3-0.3-0.4-0.4s-0.1-0.6-0.1-1.1v-3.3h-0.7
		v-0.8h0.7v-1.4l1-0.6v2h1v0.8h-1v3.3c0,0.3,0,0.5,0.1,0.5c0,0.1,0.1,0.1,0.2,0.2c0.1,0,0.2,0.1,0.3,0.1
		C110.8,103,110.9,103,111.1,103z"/>
	<path d="M112,97.1V96h1v1.1H112z M112,103.9v-5.7h1v5.7H112z"/>
	<path d="M114.1,101c0-1.1,0.3-1.8,0.9-2.3c0.5-0.4,1.1-0.6,1.8-0.6c0.8,0,1.4,0.3,1.9,0.8s0.7,1.2,0.7,2.1c0,0.7-0.1,1.3-0.3,1.7
		c-0.2,0.4-0.5,0.7-1,1c-0.4,0.2-0.9,0.3-1.4,0.3c-0.8,0-1.4-0.3-1.9-0.8C114.4,102.7,114.1,102,114.1,101z M115.1,101
		c0,0.7,0.2,1.3,0.5,1.6s0.7,0.5,1.2,0.5c0.5,0,0.9-0.2,1.2-0.5s0.5-0.9,0.5-1.7c0-0.7-0.2-1.2-0.5-1.6c-0.3-0.4-0.7-0.5-1.2-0.5
		c-0.5,0-0.9,0.2-1.2,0.5S115.1,100.3,115.1,101z"/>
	<path d="M120.6,103.9v-5.7h0.9V99c0.4-0.6,1-0.9,1.8-0.9c0.3,0,0.7,0.1,0.9,0.2c0.3,0.1,0.5,0.3,0.6,0.5c0.1,0.2,0.2,0.4,0.3,0.7
		c0,0.2,0.1,0.5,0.1,0.9v3.5h-1v-3.5c0-0.4,0-0.7-0.1-0.9s-0.2-0.4-0.4-0.5c-0.2-0.1-0.4-0.2-0.7-0.2c-0.4,0-0.8,0.1-1.1,0.4
		c-0.3,0.3-0.4,0.8-0.4,1.5v3.1L120.6,103.9L120.6,103.9z"/>
	<path d="M126.3,102.2l1-0.2c0.1,0.4,0.2,0.7,0.4,0.9c0.2,0.2,0.6,0.3,1,0.3c0.4,0,0.8-0.1,1-0.3s0.3-0.4,0.3-0.6
		c0-0.2-0.1-0.4-0.3-0.5c-0.1-0.1-0.5-0.2-1-0.3c-0.7-0.2-1.2-0.3-1.5-0.5c-0.3-0.1-0.5-0.3-0.6-0.5c-0.1-0.2-0.2-0.5-0.2-0.8
		c0-0.3,0.1-0.5,0.2-0.7c0.1-0.2,0.3-0.4,0.5-0.5c0.1-0.1,0.4-0.2,0.6-0.3c0.3-0.1,0.5-0.1,0.8-0.1c0.4,0,0.8,0.1,1.2,0.2
		c0.3,0.1,0.6,0.3,0.8,0.5c0.2,0.2,0.3,0.5,0.3,0.9l-0.9,0.1c0-0.3-0.2-0.5-0.4-0.7c-0.2-0.2-0.5-0.2-0.9-0.2c-0.4,0-0.8,0.1-1,0.2
		s-0.3,0.3-0.3,0.5c0,0.1,0,0.2,0.1,0.3c0.1,0.1,0.2,0.2,0.4,0.3c0.1,0,0.4,0.1,0.9,0.2c0.7,0.2,1.2,0.3,1.4,0.4
		c0.3,0.1,0.5,0.3,0.6,0.5s0.2,0.5,0.2,0.8c0,0.3-0.1,0.6-0.3,0.9c-0.2,0.3-0.5,0.5-0.8,0.7c-0.4,0.2-0.8,0.2-1.2,0.2
		c-0.7,0-1.3-0.2-1.7-0.5C126.7,103.2,126.4,102.8,126.3,102.2z"/>
</g>
<g class="st32">
	<path d="M3.3,115.9V108H9v0.9H4.4v2.4h4.4v0.9H4.4v2.7h4.8v0.9L3.3,115.9L3.3,115.9z"/>
	<path d="M14.2,115.9v-0.7c-0.4,0.6-0.9,0.8-1.6,0.8c-0.5,0-0.9-0.1-1.3-0.4s-0.7-0.6-0.9-1.1c-0.2-0.4-0.3-1-0.3-1.6
		c0-0.6,0.1-1.1,0.3-1.6s0.5-0.8,0.9-1.1c0.4-0.2,0.8-0.4,1.3-0.4c0.3,0,0.7,0.1,0.9,0.2c0.3,0.1,0.5,0.3,0.7,0.6V108h1v7.9
		C15.1,115.9,14.2,115.9,14.2,115.9z M11.2,113c0,0.7,0.2,1.3,0.5,1.6s0.7,0.5,1.1,0.5c0.4,0,0.8-0.2,1.1-0.5
		c0.3-0.3,0.4-0.9,0.4-1.6c0-0.8-0.1-1.4-0.5-1.7s-0.7-0.5-1.1-0.5c-0.4,0-0.8,0.2-1.1,0.5C11.3,111.7,11.2,112.3,11.2,113z"/>
	<path d="M20.4,115.9V115c-0.4,0.6-1,1-1.8,1c-0.3,0-0.7-0.1-0.9-0.2c-0.3-0.1-0.5-0.3-0.6-0.5c-0.1-0.2-0.2-0.4-0.3-0.7
		c0-0.2-0.1-0.5-0.1-0.9v-3.5h1v3.2c0,0.5,0,0.8,0.1,1c0.1,0.3,0.2,0.5,0.4,0.6c0.2,0.1,0.4,0.2,0.7,0.2s0.6-0.1,0.8-0.2
		s0.4-0.4,0.5-0.6c0.1-0.3,0.2-0.6,0.2-1.1v-3.1h1v5.7L20.4,115.9L20.4,115.9z"/>
	<path d="M26.5,113.8l1,0.1c-0.1,0.7-0.4,1.2-0.8,1.5c-0.4,0.4-1,0.6-1.6,0.6c-0.8,0-1.4-0.3-1.9-0.8c-0.5-0.5-0.7-1.2-0.7-2.2
		c0-0.6,0.1-1.2,0.3-1.6s0.5-0.8,0.9-1c0.4-0.2,0.9-0.3,1.4-0.3c0.6,0,1.1,0.2,1.5,0.5s0.6,0.8,0.8,1.3l-0.9,0.1
		c-0.1-0.4-0.2-0.7-0.5-0.9c-0.2-0.2-0.5-0.3-0.8-0.3c-0.5,0-0.9,0.2-1.2,0.5c-0.3,0.3-0.5,0.9-0.5,1.7c0,0.8,0.1,1.3,0.4,1.7
		c0.3,0.3,0.7,0.5,1.1,0.5c0.4,0,0.7-0.1,1-0.3C26.3,114.6,26.4,114.3,26.5,113.8z"/>
	<path d="M32,115.2c-0.4,0.3-0.7,0.5-1,0.6c-0.3,0.1-0.7,0.2-1.1,0.2c-0.6,0-1.1-0.2-1.4-0.5c-0.3-0.3-0.5-0.7-0.5-1.2
		c0-0.3,0.1-0.5,0.2-0.8c0.1-0.2,0.3-0.4,0.5-0.6s0.4-0.2,0.7-0.3c0.2-0.1,0.5-0.1,0.9-0.1c0.8-0.1,1.4-0.2,1.7-0.3
		c0-0.1,0-0.2,0-0.3c0-0.4-0.1-0.7-0.3-0.8c-0.2-0.2-0.6-0.3-1.1-0.3c-0.5,0-0.8,0.1-1,0.2c-0.2,0.2-0.4,0.4-0.5,0.8l-0.9-0.1
		c0.1-0.4,0.2-0.7,0.4-1s0.5-0.4,0.9-0.6c0.4-0.1,0.8-0.2,1.3-0.2c0.5,0,0.9,0.1,1.2,0.2c0.3,0.1,0.5,0.3,0.7,0.4s0.2,0.4,0.3,0.7
		c0,0.2,0,0.5,0,0.9v1.3c0,0.9,0,1.5,0.1,1.7s0.1,0.5,0.2,0.7h-1C32.1,115.7,32,115.4,32,115.2z M31.9,113c-0.4,0.1-0.9,0.3-1.6,0.4
		c-0.4,0.1-0.7,0.1-0.8,0.2c-0.2,0.1-0.3,0.2-0.4,0.3s-0.1,0.3-0.1,0.5c0,0.3,0.1,0.5,0.3,0.6s0.5,0.3,0.9,0.3c0.4,0,0.7-0.1,1-0.2
		s0.5-0.4,0.6-0.7c0.1-0.2,0.2-0.5,0.2-1L31.9,113L31.9,113z"/>
	<path d="M36.5,115l0.1,0.9c-0.3,0.1-0.5,0.1-0.7,0.1c-0.4,0-0.6-0.1-0.8-0.2c-0.2-0.1-0.3-0.3-0.4-0.4s-0.1-0.6-0.1-1.1v-3.3h-0.7
		v-0.8h0.7v-1.4l1-0.6v2h1v0.8h-1v3.3c0,0.3,0,0.5,0.1,0.5c0,0.1,0.1,0.1,0.2,0.2c0.1,0,0.2,0.1,0.3,0.1C36.2,115,36.3,115,36.5,115
		z"/>
	<path d="M37.5,109.1V108h1v1.1H37.5z M37.5,115.9v-5.7h1v5.7H37.5z"/>
	<path d="M39.5,113c0-1.1,0.3-1.8,0.9-2.3c0.5-0.4,1.1-0.6,1.8-0.6c0.8,0,1.4,0.3,1.9,0.8s0.7,1.2,0.7,2.1c0,0.7-0.1,1.3-0.3,1.7
		c-0.2,0.4-0.5,0.7-1,1c-0.4,0.2-0.9,0.3-1.4,0.3c-0.8,0-1.4-0.3-1.9-0.8C39.8,114.7,39.5,114,39.5,113z M40.5,113
		c0,0.7,0.2,1.3,0.5,1.6s0.7,0.5,1.2,0.5c0.5,0,0.9-0.2,1.2-0.5s0.5-0.9,0.5-1.7c0-0.7-0.2-1.2-0.5-1.6c-0.3-0.4-0.7-0.5-1.2-0.5
		c-0.5,0-0.9,0.2-1.2,0.5S40.5,112.3,40.5,113z"/>
	<path d="M46,115.9v-5.7h0.9v0.8c0.4-0.6,1-0.9,1.8-0.9c0.3,0,0.7,0.1,0.9,0.2c0.3,0.1,0.5,0.3,0.6,0.5c0.1,0.2,0.2,0.4,0.3,0.7
		c0,0.2,0.1,0.5,0.1,0.9v3.5h-1v-3.5c0-0.4,0-0.7-0.1-0.9s-0.2-0.4-0.4-0.5c-0.2-0.1-0.4-0.2-0.7-0.2c-0.4,0-0.8,0.1-1.1,0.4
		c-0.3,0.3-0.4,0.8-0.4,1.5v3.1L46,115.9L46,115.9z"/>
	<path d="M55.8,115.2c-0.4,0.3-0.7,0.5-1,0.6c-0.3,0.1-0.7,0.2-1.1,0.2c-0.6,0-1.1-0.2-1.4-0.5c-0.3-0.3-0.5-0.7-0.5-1.2
		c0-0.3,0.1-0.5,0.2-0.8c0.1-0.2,0.3-0.4,0.5-0.6s0.4-0.2,0.7-0.3c0.2-0.1,0.5-0.1,0.9-0.1c0.8-0.1,1.4-0.2,1.7-0.3
		c0-0.1,0-0.2,0-0.3c0-0.4-0.1-0.7-0.3-0.8c-0.2-0.2-0.6-0.3-1.1-0.3c-0.5,0-0.8,0.1-1,0.2c-0.2,0.2-0.4,0.4-0.5,0.8l-0.9-0.1
		c0.1-0.4,0.2-0.7,0.4-1s0.5-0.4,0.9-0.6c0.4-0.1,0.8-0.2,1.3-0.2c0.5,0,0.9,0.1,1.2,0.2s0.5,0.3,0.7,0.4s0.2,0.4,0.3,0.7
		c0,0.2,0,0.5,0,0.9v1.3c0,0.9,0,1.5,0.1,1.7s0.1,0.5,0.2,0.7h-1C55.9,115.7,55.9,115.4,55.8,115.2z M55.8,113
		c-0.4,0.1-0.9,0.3-1.6,0.4c-0.4,0.1-0.7,0.1-0.8,0.2c-0.2,0.1-0.3,0.2-0.4,0.3s-0.1,0.3-0.1,0.5c0,0.3,0.1,0.5,0.3,0.6
		s0.5,0.3,0.9,0.3c0.4,0,0.7-0.1,1-0.2s0.5-0.4,0.6-0.7c0.1-0.2,0.2-0.5,0.2-1L55.8,113L55.8,113z"/>
	<path d="M58.2,115.9V108h1v7.9H58.2z"/>
	<path d="M60.9,115.9v-1.1H62v1.1c0,0.4-0.1,0.7-0.2,1s-0.4,0.4-0.7,0.6l-0.3-0.4c0.2-0.1,0.4-0.2,0.5-0.4s0.2-0.4,0.2-0.7
		L60.9,115.9L60.9,115.9z"/>
	<path d="M66.6,113.3l1-0.1c0,0.4,0.2,0.7,0.3,1c0.2,0.3,0.4,0.5,0.8,0.6c0.4,0.2,0.8,0.2,1.2,0.2c0.4,0,0.7-0.1,1.1-0.2
		s0.5-0.3,0.7-0.5c0.1-0.2,0.2-0.4,0.2-0.7c0-0.2-0.1-0.5-0.2-0.6s-0.4-0.3-0.7-0.5c-0.2-0.1-0.7-0.2-1.4-0.4s-1.2-0.3-1.5-0.5
		c-0.4-0.2-0.7-0.4-0.8-0.7c-0.2-0.3-0.3-0.6-0.3-1c0-0.4,0.1-0.8,0.3-1.1s0.6-0.6,1-0.8c0.4-0.2,0.9-0.3,1.4-0.3
		c0.6,0,1.1,0.1,1.5,0.3c0.4,0.2,0.8,0.5,1,0.8s0.4,0.8,0.4,1.2l-1,0.1c-0.1-0.5-0.2-0.9-0.5-1.1c-0.3-0.3-0.8-0.4-1.4-0.4
		c-0.6,0-1.1,0.1-1.4,0.3c-0.3,0.2-0.4,0.5-0.4,0.8c0,0.3,0.1,0.5,0.3,0.7c0.2,0.2,0.7,0.4,1.6,0.6c0.8,0.2,1.4,0.4,1.7,0.5
		c0.5,0.2,0.8,0.5,1,0.8s0.3,0.7,0.3,1.1c0,0.4-0.1,0.8-0.4,1.2c-0.2,0.4-0.6,0.7-1,0.9c-0.4,0.2-1,0.3-1.5,0.3
		c-0.7,0-1.3-0.1-1.8-0.3c-0.5-0.2-0.9-0.5-1.1-0.9C66.7,114.3,66.6,113.9,66.6,113.3z"/>
	<path d="M77.9,113.8l1,0.1c-0.1,0.7-0.4,1.2-0.8,1.5c-0.4,0.4-1,0.6-1.6,0.6c-0.8,0-1.4-0.3-1.9-0.8c-0.5-0.5-0.7-1.2-0.7-2.2
		c0-0.6,0.1-1.2,0.3-1.6s0.5-0.8,0.9-1c0.4-0.2,0.9-0.3,1.4-0.3c0.6,0,1.1,0.2,1.5,0.5s0.6,0.8,0.8,1.3l-0.9,0.1
		c-0.1-0.4-0.2-0.7-0.5-0.9c-0.2-0.2-0.5-0.3-0.8-0.3c-0.5,0-0.9,0.2-1.2,0.5c-0.3,0.3-0.5,0.9-0.5,1.7c0,0.8,0.1,1.3,0.4,1.7
		c0.3,0.3,0.7,0.5,1.1,0.5c0.4,0,0.7-0.1,1-0.3C77.6,114.6,77.8,114.3,77.9,113.8z"/>
	<path d="M79.6,109.1V108h1v1.1H79.6z M79.6,115.9v-5.7h1v5.7H79.6z"/>
	<path d="M86,114l1,0.1c-0.2,0.6-0.4,1-0.9,1.4s-1,0.5-1.6,0.5c-0.8,0-1.5-0.3-2-0.8c-0.5-0.5-0.7-1.2-0.7-2.2c0-1,0.2-1.7,0.7-2.2
		s1.1-0.8,1.9-0.8c0.8,0,1.4,0.3,1.9,0.8c0.5,0.5,0.7,1.3,0.7,2.2c0,0.1,0,0.1,0,0.3h-4.3c0,0.6,0.2,1.1,0.5,1.4
		c0.3,0.3,0.7,0.5,1.2,0.5c0.4,0,0.7-0.1,0.9-0.3S85.8,114.4,86,114z M82.8,112.5H86c0-0.5-0.2-0.8-0.4-1.1
		c-0.3-0.4-0.7-0.6-1.2-0.6c-0.4,0-0.8,0.1-1.1,0.4C83,111.6,82.8,112,82.8,112.5z"/>
	<path d="M88.2,115.9v-5.7h0.9v0.8c0.4-0.6,1-0.9,1.8-0.9c0.3,0,0.7,0.1,0.9,0.2c0.3,0.1,0.5,0.3,0.6,0.5c0.1,0.2,0.2,0.4,0.3,0.7
		c0,0.2,0.1,0.5,0.1,0.9v3.5h-1v-3.5c0-0.4,0-0.7-0.1-0.9s-0.2-0.4-0.4-0.5c-0.2-0.1-0.4-0.2-0.7-0.2c-0.4,0-0.8,0.1-1.1,0.4
		c-0.3,0.3-0.4,0.8-0.4,1.5v3.1L88.2,115.9L88.2,115.9z"/>
	<path d="M96.4,115l0.1,0.9c-0.3,0.1-0.5,0.1-0.7,0.1c-0.4,0-0.6-0.1-0.8-0.2c-0.2-0.1-0.3-0.3-0.4-0.4s-0.1-0.6-0.1-1.1v-3.3h-0.7
		v-0.8h0.7v-1.4l1-0.6v2h1v0.8h-1v3.3c0,0.3,0,0.5,0.1,0.5c0,0.1,0.1,0.1,0.2,0.2c0.1,0,0.2,0.1,0.3,0.1C96.1,115,96.2,115,96.4,115
		z"/>
	<path d="M97.4,109.1V108h1v1.1H97.4z M97.4,115.9v-5.7h1v5.7H97.4z"/>
	<path d="M100.1,115.9v-5h-0.9v-0.7h0.9v-0.6c0-0.6,0.1-1,0.4-1.3s0.6-0.5,1.2-0.5c0.4,0,0.7,0,1,0.1l-0.2,0.8c-0.2,0-0.4,0-0.5,0
		c-0.3,0-0.6,0.1-0.7,0.2s-0.2,0.4-0.2,0.8v0.4h1.1v0.7H101v5L100.1,115.9L100.1,115.9z M102.9,109.1V108h1v1.1H102.9z M102.9,115.9
		v-5.7h1v5.7H102.9z"/>
	<path d="M109,113.8l1,0.1c-0.1,0.7-0.4,1.2-0.8,1.5c-0.4,0.4-1,0.6-1.6,0.6c-0.8,0-1.4-0.3-1.9-0.8c-0.5-0.5-0.7-1.2-0.7-2.2
		c0-0.6,0.1-1.2,0.3-1.6s0.5-0.8,0.9-1c0.4-0.2,0.9-0.3,1.4-0.3c0.6,0,1.1,0.2,1.5,0.5s0.6,0.8,0.8,1.3L109,112
		c-0.1-0.4-0.2-0.7-0.5-0.9c-0.2-0.2-0.5-0.3-0.8-0.3c-0.5,0-0.9,0.2-1.2,0.5c-0.3,0.3-0.5,0.9-0.5,1.7c0,0.8,0.1,1.3,0.4,1.7
		c0.3,0.3,0.7,0.5,1.1,0.5c0.4,0,0.7-0.1,1-0.3C108.8,114.6,109,114.3,109,113.8z"/>
	<path d="M117.6,115.2c-0.4,0.3-0.7,0.5-1,0.6c-0.3,0.1-0.7,0.2-1.1,0.2c-0.6,0-1.1-0.2-1.4-0.5c-0.3-0.3-0.5-0.7-0.5-1.2
		c0-0.3,0.1-0.5,0.2-0.8c0.1-0.2,0.3-0.4,0.5-0.6s0.4-0.2,0.7-0.3c0.2-0.1,0.5-0.1,0.9-0.1c0.8-0.1,1.4-0.2,1.7-0.3
		c0-0.1,0-0.2,0-0.3c0-0.4-0.1-0.7-0.3-0.8c-0.2-0.2-0.6-0.3-1.1-0.3c-0.5,0-0.8,0.1-1,0.2c-0.2,0.2-0.4,0.4-0.5,0.8l-0.9-0.1
		c0.1-0.4,0.2-0.7,0.4-1s0.5-0.4,0.9-0.6c0.4-0.1,0.8-0.2,1.3-0.2c0.5,0,0.9,0.1,1.2,0.2s0.5,0.3,0.7,0.4s0.2,0.4,0.3,0.7
		c0,0.2,0,0.5,0,0.9v1.3c0,0.9,0,1.5,0.1,1.7c0,0.2,0.1,0.5,0.2,0.7h-1C117.7,115.7,117.6,115.4,117.6,115.2z M117.5,113
		c-0.4,0.1-0.9,0.3-1.6,0.4c-0.4,0.1-0.7,0.1-0.8,0.2c-0.2,0.1-0.3,0.2-0.4,0.3s-0.1,0.3-0.1,0.5c0,0.3,0.1,0.5,0.3,0.6
		s0.5,0.3,0.9,0.3c0.4,0,0.7-0.1,1-0.2s0.5-0.4,0.6-0.7c0.1-0.2,0.2-0.5,0.2-1L117.5,113L117.5,113z"/>
	<path d="M120,115.9v-5.7h0.9v0.8c0.4-0.6,1-0.9,1.8-0.9c0.3,0,0.7,0.1,0.9,0.2c0.3,0.1,0.5,0.3,0.6,0.5c0.1,0.2,0.2,0.4,0.3,0.7
		c0,0.2,0.1,0.5,0.1,0.9v3.5h-1v-3.5c0-0.4,0-0.7-0.1-0.9s-0.2-0.4-0.4-0.5c-0.2-0.1-0.4-0.2-0.7-0.2c-0.4,0-0.8,0.1-1.1,0.4
		c-0.3,0.3-0.4,0.8-0.4,1.5v3.1L120,115.9L120,115.9z"/>
	<path d="M129.8,115.9v-0.7c-0.4,0.6-0.9,0.8-1.6,0.8c-0.5,0-0.9-0.1-1.3-0.4s-0.7-0.6-0.9-1.1c-0.2-0.4-0.3-1-0.3-1.6
		c0-0.6,0.1-1.1,0.3-1.6s0.5-0.8,0.9-1.1c0.4-0.2,0.8-0.4,1.3-0.4c0.3,0,0.6,0.1,0.9,0.2c0.3,0.1,0.5,0.3,0.7,0.6V108h1v7.9
		C130.7,115.9,129.8,115.9,129.8,115.9z M126.7,113c0,0.7,0.2,1.3,0.5,1.6s0.7,0.5,1.1,0.5c0.4,0,0.8-0.2,1.1-0.5
		c0.3-0.3,0.4-0.9,0.4-1.6c0-0.8-0.1-1.4-0.5-1.7s-0.7-0.5-1.1-0.5c-0.4,0-0.8,0.2-1.1,0.5C126.9,111.7,126.7,112.3,126.7,113z"/>
</g>
<g class="st32">
	<path d="M34.6,125.1l1,0.3c-0.2,0.9-0.6,1.5-1.2,2s-1.3,0.7-2.1,0.7c-0.8,0-1.5-0.2-2.1-0.5c-0.5-0.3-0.9-0.8-1.2-1.5
		c-0.3-0.7-0.4-1.4-0.4-2.1c0-0.8,0.2-1.5,0.5-2.1c0.3-0.6,0.8-1.1,1.3-1.4c0.6-0.3,1.2-0.5,1.9-0.5c0.8,0,1.5,0.2,2,0.6
		c0.5,0.4,0.9,1,1.1,1.7l-1,0.2c-0.2-0.6-0.4-1-0.8-1.3s-0.8-0.4-1.3-0.4c-0.6,0-1.1,0.1-1.5,0.4c-0.4,0.3-0.7,0.7-0.9,1.2
		c-0.2,0.5-0.2,1-0.2,1.5c0,0.7,0.1,1.3,0.3,1.8c0.2,0.5,0.5,0.9,0.9,1.1s0.9,0.4,1.3,0.4c0.6,0,1.1-0.2,1.5-0.5
		C34.2,126.3,34.5,125.8,34.6,125.1z"/>
	<path d="M40.6,127.9V127c-0.4,0.6-1,1-1.8,1c-0.3,0-0.7-0.1-0.9-0.2c-0.3-0.1-0.5-0.3-0.7-0.5c-0.1-0.2-0.2-0.4-0.3-0.7
		c0-0.2-0.1-0.5-0.1-0.9v-3.5h1v3.2c0,0.5,0,0.8,0.1,1c0.1,0.3,0.2,0.5,0.4,0.6c0.2,0.1,0.4,0.2,0.7,0.2s0.6-0.1,0.8-0.2
		s0.4-0.4,0.5-0.6c0.1-0.3,0.2-0.6,0.2-1.1v-3.1h1v5.7L40.6,127.9L40.6,127.9z"/>
	<path d="M42.9,127.9V120h1v7.9H42.9z"/>
	<path d="M47.5,127l0.1,0.9c-0.3,0.1-0.5,0.1-0.7,0.1c-0.4,0-0.6-0.1-0.8-0.2c-0.2-0.1-0.3-0.3-0.4-0.4s-0.1-0.6-0.1-1.1v-3.3h-0.7
		v-0.8h0.7v-1.4l1-0.6v2h1v0.8h-1v3.3c0,0.3,0,0.5,0.1,0.5c0,0.1,0.1,0.1,0.2,0.2c0.1,0,0.2,0.1,0.3,0.1C47.2,127,47.3,127,47.5,127
		z"/>
	<path d="M52.2,127.9V127c-0.4,0.6-1,1-1.8,1c-0.3,0-0.7-0.1-0.9-0.2c-0.3-0.1-0.5-0.3-0.7-0.5c-0.1-0.2-0.2-0.4-0.3-0.7
		c0-0.2-0.1-0.5-0.1-0.9v-3.5h1v3.2c0,0.5,0,0.8,0.1,1c0.1,0.3,0.2,0.5,0.4,0.6c0.2,0.1,0.4,0.2,0.7,0.2s0.6-0.1,0.8-0.2
		s0.4-0.4,0.5-0.6c0.1-0.3,0.2-0.6,0.2-1.1v-3.1h1v5.7L52.2,127.9L52.2,127.9z"/>
	<path d="M54.6,127.9v-5.7h0.9v0.9c0.2-0.4,0.4-0.7,0.6-0.8c0.2-0.1,0.4-0.2,0.6-0.2c0.3,0,0.7,0.1,1,0.3l-0.3,0.9
		c-0.2-0.1-0.5-0.2-0.7-0.2c-0.2,0-0.4,0.1-0.6,0.2s-0.3,0.3-0.4,0.5c-0.1,0.3-0.2,0.7-0.2,1.1v3L54.6,127.9L54.6,127.9z"/>
	<path d="M62,127.2c-0.4,0.3-0.7,0.5-1,0.6c-0.3,0.1-0.7,0.2-1.1,0.2c-0.6,0-1.1-0.2-1.4-0.5c-0.3-0.3-0.5-0.7-0.5-1.2
		c0-0.3,0.1-0.5,0.2-0.8c0.1-0.2,0.3-0.4,0.5-0.6s0.4-0.2,0.7-0.3c0.2-0.1,0.5-0.1,0.9-0.1c0.8-0.1,1.4-0.2,1.7-0.3
		c0-0.1,0-0.2,0-0.3c0-0.4-0.1-0.7-0.3-0.8c-0.2-0.2-0.6-0.3-1.1-0.3c-0.5,0-0.8,0.1-1,0.2c-0.2,0.2-0.4,0.4-0.5,0.8l-0.9-0.1
		c0.1-0.4,0.2-0.7,0.4-1s0.5-0.4,0.9-0.6c0.4-0.1,0.8-0.2,1.3-0.2c0.5,0,0.9,0.1,1.2,0.2s0.5,0.3,0.7,0.4s0.2,0.4,0.3,0.7
		c0,0.2,0,0.5,0,0.9v1.3c0,0.9,0,1.5,0.1,1.7c0,0.2,0.1,0.5,0.2,0.7h-1C62.1,127.7,62,127.4,62,127.2z M61.9,125
		c-0.4,0.1-0.9,0.3-1.6,0.4c-0.4,0.1-0.7,0.1-0.8,0.2c-0.2,0.1-0.3,0.2-0.4,0.3s-0.1,0.3-0.1,0.5c0,0.3,0.1,0.5,0.3,0.6
		s0.5,0.3,0.9,0.3c0.4,0,0.7-0.1,1-0.2s0.5-0.4,0.6-0.7c0.1-0.2,0.2-0.5,0.2-1L61.9,125L61.9,125z"/>
	<path d="M64.3,127.9V120h1v7.9H64.3z"/>
	<path d="M69.7,124c0-1.3,0.4-2.3,1.1-3.1s1.6-1.1,2.7-1.1c0.7,0,1.4,0.2,2,0.5c0.6,0.3,1,0.8,1.3,1.5c0.3,0.6,0.5,1.3,0.5,2.1
		c0,0.8-0.2,1.5-0.5,2.1s-0.8,1.1-1.4,1.4s-1.2,0.5-1.9,0.5c-0.7,0-1.4-0.2-2-0.5c-0.6-0.4-1-0.8-1.3-1.5S69.7,124.7,69.7,124z
		 M70.7,124c0,0.9,0.3,1.7,0.8,2.2c0.5,0.5,1.2,0.8,1.9,0.8c0.8,0,1.4-0.3,1.9-0.8c0.5-0.6,0.8-1.3,0.8-2.3c0-0.6-0.1-1.2-0.3-1.7
		c-0.2-0.5-0.5-0.8-1-1.1c-0.4-0.3-0.9-0.4-1.4-0.4c-0.7,0-1.4,0.3-1.9,0.8C71,122,70.7,122.9,70.7,124z"/>
	<path d="M78.4,127.9v-5.7h0.9v0.9c0.2-0.4,0.4-0.7,0.6-0.8c0.2-0.1,0.4-0.2,0.6-0.2c0.3,0,0.7,0.1,1,0.3l-0.3,0.9
		c-0.2-0.1-0.5-0.2-0.7-0.2c-0.2,0-0.4,0.1-0.6,0.2s-0.3,0.3-0.4,0.5c-0.1,0.3-0.2,0.7-0.2,1.1v3L78.4,127.9L78.4,127.9z"/>
	<path d="M81.9,128.3l0.9,0.1c0,0.3,0.1,0.5,0.3,0.6c0.2,0.2,0.6,0.3,1,0.3c0.4,0,0.8-0.1,1-0.3s0.4-0.4,0.5-0.8
		c0.1-0.2,0.1-0.6,0.1-1.2c-0.4,0.5-0.9,0.7-1.6,0.7c-0.8,0-1.4-0.3-1.8-0.8s-0.6-1.2-0.6-2c0-0.5,0.1-1,0.3-1.5s0.5-0.8,0.9-1.1
		c0.4-0.3,0.8-0.4,1.3-0.4c0.7,0,1.2,0.3,1.7,0.8v-0.7h0.9v4.9c0,0.9-0.1,1.5-0.3,1.9c-0.2,0.4-0.5,0.7-0.9,0.9
		c-0.4,0.2-0.9,0.3-1.4,0.3c-0.7,0-1.2-0.2-1.6-0.5C82.1,129.4,81.9,129,81.9,128.3z M82.7,124.9c0,0.7,0.1,1.3,0.4,1.6
		s0.7,0.5,1.1,0.5c0.4,0,0.8-0.2,1.1-0.5s0.5-0.9,0.5-1.6c0-0.7-0.2-1.2-0.5-1.6c-0.3-0.4-0.7-0.5-1.1-0.5c-0.4,0-0.8,0.2-1.1,0.5
		C82.8,123.7,82.7,124.2,82.7,124.9z"/>
	<path d="M91.9,127.2c-0.4,0.3-0.7,0.5-1,0.6c-0.3,0.1-0.7,0.2-1.1,0.2c-0.6,0-1.1-0.2-1.4-0.5c-0.3-0.3-0.5-0.7-0.5-1.2
		c0-0.3,0.1-0.5,0.2-0.8c0.1-0.2,0.3-0.4,0.5-0.6s0.4-0.2,0.7-0.3c0.2-0.1,0.5-0.1,0.9-0.1c0.8-0.1,1.4-0.2,1.7-0.3
		c0-0.1,0-0.2,0-0.3c0-0.4-0.1-0.7-0.3-0.8c-0.2-0.2-0.6-0.3-1.1-0.3c-0.5,0-0.8,0.1-1,0.2c-0.2,0.2-0.4,0.4-0.5,0.8l-0.9-0.1
		c0.1-0.4,0.2-0.7,0.4-1s0.5-0.4,0.9-0.6c0.4-0.1,0.8-0.2,1.3-0.2c0.5,0,0.9,0.1,1.2,0.2s0.5,0.3,0.7,0.4s0.2,0.4,0.3,0.7
		c0,0.2,0,0.5,0,0.9v1.3c0,0.9,0,1.5,0.1,1.7c0,0.2,0.1,0.5,0.2,0.7h-1C92,127.7,91.9,127.4,91.9,127.2z M91.8,125
		c-0.4,0.1-0.9,0.3-1.6,0.4c-0.4,0.1-0.7,0.1-0.8,0.2c-0.2,0.1-0.3,0.2-0.4,0.3s-0.1,0.3-0.1,0.5c0,0.3,0.1,0.5,0.3,0.6
		s0.5,0.3,0.9,0.3c0.4,0,0.7-0.1,1-0.2s0.5-0.4,0.6-0.7c0.1-0.2,0.2-0.5,0.2-1L91.8,125L91.8,125z"/>
	<path d="M94.3,127.9v-5.7h0.9v0.8c0.4-0.6,1-0.9,1.8-0.9c0.3,0,0.7,0.1,0.9,0.2c0.3,0.1,0.5,0.3,0.6,0.5c0.1,0.2,0.2,0.4,0.3,0.7
		c0,0.2,0.1,0.5,0.1,0.9v3.5h-1v-3.5c0-0.4,0-0.7-0.1-0.9s-0.2-0.4-0.4-0.5c-0.2-0.1-0.4-0.2-0.7-0.2c-0.4,0-0.8,0.1-1.1,0.4
		c-0.3,0.3-0.4,0.8-0.4,1.5v3.1L94.3,127.9L94.3,127.9z"/>
	<path d="M100.4,121.1V120h1v1.1H100.4z M100.4,127.9v-5.7h1v5.7H100.4z"/>
	<path d="M102.4,127.9v-0.8l3.6-4.2c-0.4,0-0.8,0-1.1,0h-2.3v-0.8h4.7v0.6l-3.1,3.6l-0.6,0.7c0.4,0,0.8,0,1.2,0h2.6v0.8L102.4,127.9
		L102.4,127.9z"/>
	<path d="M112.1,127.2c-0.4,0.3-0.7,0.5-1,0.6c-0.3,0.1-0.7,0.2-1.1,0.2c-0.6,0-1.1-0.2-1.4-0.5c-0.3-0.3-0.5-0.7-0.5-1.2
		c0-0.3,0.1-0.5,0.2-0.8c0.1-0.2,0.3-0.4,0.5-0.6s0.4-0.2,0.7-0.3c0.2-0.1,0.5-0.1,0.9-0.1c0.8-0.1,1.4-0.2,1.7-0.3
		c0-0.1,0-0.2,0-0.3c0-0.4-0.1-0.7-0.3-0.8c-0.2-0.2-0.6-0.3-1.1-0.3c-0.5,0-0.8,0.1-1,0.2c-0.2,0.2-0.4,0.4-0.5,0.8l-0.9-0.1
		c0.1-0.4,0.2-0.7,0.4-1s0.5-0.4,0.9-0.6c0.4-0.1,0.8-0.2,1.3-0.2c0.5,0,0.9,0.1,1.2,0.2s0.5,0.3,0.7,0.4s0.2,0.4,0.3,0.7
		c0,0.2,0,0.5,0,0.9v1.3c0,0.9,0,1.5,0.1,1.7c0,0.2,0.1,0.5,0.2,0.7h-1C112.2,127.7,112.1,127.4,112.1,127.2z M112,125
		c-0.4,0.1-0.9,0.3-1.6,0.4c-0.4,0.1-0.7,0.1-0.8,0.2c-0.2,0.1-0.3,0.2-0.4,0.3s-0.1,0.3-0.1,0.5c0,0.3,0.1,0.5,0.3,0.6
		s0.5,0.3,0.9,0.3c0.4,0,0.7-0.1,1-0.2s0.5-0.4,0.6-0.7c0.1-0.2,0.2-0.5,0.2-1L112,125L112,125z"/>
	<path d="M116.6,127l0.1,0.9c-0.3,0.1-0.5,0.1-0.7,0.1c-0.4,0-0.6-0.1-0.8-0.2c-0.2-0.1-0.3-0.3-0.4-0.4s-0.1-0.6-0.1-1.1v-3.3H114
		v-0.8h0.7v-1.4l1-0.6v2h1v0.8h-1v3.3c0,0.3,0,0.5,0.1,0.5c0,0.1,0.1,0.1,0.2,0.2c0.1,0,0.2,0.1,0.3,0.1
		C116.3,127,116.4,127,116.6,127z"/>
	<path d="M117.6,121.1V120h1v1.1H117.6z M117.6,127.9v-5.7h1v5.7H117.6z"/>
	<path d="M119.6,125c0-1.1,0.3-1.8,0.9-2.3c0.5-0.4,1.1-0.6,1.8-0.6c0.8,0,1.4,0.3,1.9,0.8s0.7,1.2,0.7,2.1c0,0.7-0.1,1.3-0.3,1.7
		c-0.2,0.4-0.5,0.7-1,1c-0.4,0.2-0.9,0.3-1.4,0.3c-0.8,0-1.4-0.3-1.9-0.8C119.9,126.7,119.6,126,119.6,125z M120.6,125
		c0,0.7,0.2,1.3,0.5,1.6s0.7,0.5,1.2,0.5c0.5,0,0.9-0.2,1.2-0.5s0.5-0.9,0.5-1.7c0-0.7-0.2-1.2-0.5-1.6c-0.3-0.4-0.7-0.5-1.2-0.5
		c-0.5,0-0.9,0.2-1.2,0.5S120.6,124.3,120.6,125z"/>
	<path d="M126.1,127.9v-5.7h0.9v0.8c0.4-0.6,1-0.9,1.8-0.9c0.3,0,0.7,0.1,0.9,0.2c0.3,0.1,0.5,0.3,0.6,0.5c0.1,0.2,0.2,0.4,0.3,0.7
		c0,0.2,0.1,0.5,0.1,0.9v3.5h-1v-3.5c0-0.4,0-0.7-0.1-0.9s-0.2-0.4-0.4-0.5c-0.2-0.1-0.4-0.2-0.7-0.2c-0.4,0-0.8,0.1-1.1,0.4
		c-0.3,0.3-0.4,0.8-0.4,1.5v3.1L126.1,127.9L126.1,127.9z"/>
</g>
</svg>
