<?xml version="1.0" encoding="utf-8"?>
<!-- Generator: Adobe Illustrator 24.0.0, SVG Export Plug-In . SVG Version: 6.00 Build 0)  -->
<svg version="1.1" id="Layer_1" xmlns="http://www.w3.org/2000/svg" xmlns:xlink="http://www.w3.org/1999/xlink" x="0px" y="0px"
	 viewBox="0 0 396.455 147.625" style="enable-background:new 0 0 396.455 147.625;" xml:space="preserve">
<style type="text/css">
	.st0{clip-path:url(#SVGID_2_);}
	.st1{clip-path:url(#SVGID_4_);}
	.st2{clip-path:url(#SVGID_6_);}
	.st3{clip-path:url(#SVGID_8_);}
	.st4{clip-path:url(#SVGID_10_);}
	.st5{clip-path:url(#SVGID_12_);}
	.st6{clip-path:url(#SVGID_14_);}
	.st7{clip-path:url(#SVGID_16_);}
	.st8{clip-path:url(#SVGID_18_);}
	.st9{clip-path:url(#SVGID_20_);}
	.st10{clip-path:url(#SVGID_22_);}
	.st11{clip-path:url(#SVGID_24_);}
	.st12{clip-path:url(#SVGID_26_);}
	.st13{clip-path:url(#SVGID_28_);}
	.st14{clip-path:url(#SVGID_30_);}
	.st15{clip-path:url(#SVGID_32_);}
	.st16{clip-path:url(#SVGID_34_);}
	.st17{clip-path:url(#SVGID_36_);}
	.st18{clip-path:url(#SVGID_38_);}
	.st19{clip-path:url(#SVGID_40_);}
	.st20{clip-path:url(#SVGID_42_);}
	.st21{clip-path:url(#SVGID_44_);}
	.st22{clip-path:url(#SVGID_46_);}
	.st23{clip-path:url(#SVGID_48_);}
	.st24{clip-path:url(#SVGID_50_);}
	.st25{clip-path:url(#SVGID_52_);}
	.st26{clip-path:url(#SVGID_54_);}
	.st27{clip-path:url(#SVGID_56_);}
	.st28{clip-path:url(#SVGID_58_);}
	.st29{clip-path:url(#SVGID_60_);}
	.st30{clip-path:url(#SVGID_62_);}
	.st31{clip-path:url(#SVGID_64_);}
	.st32{enable-background:new    ;}
	.st33{fill:#121617;}
</style>
<g>
	<g>
		<defs>
			<rect id="SVGID_1_" width="396.455" height="147.625"/>
		</defs>
		<clipPath id="SVGID_2_">
			<use xlink:href="#SVGID_1_"  style="overflow:visible;"/>
		</clipPath>
		<path class="st0" d="M147.702,6.415c0,0.651-0.531,1.18-1.18,1.18c-0.652,0-1.179-0.529-1.179-1.18s0.527-1.18,1.179-1.18
			C147.171,5.235,147.702,5.764,147.702,6.415"/>
	</g>
	<g>
		<defs>
			<rect id="SVGID_3_" width="396.455" height="147.625"/>
		</defs>
		<clipPath id="SVGID_4_">
			<use xlink:href="#SVGID_3_"  style="overflow:visible;"/>
		</clipPath>
		<path class="st1" d="M147.702,10.61c0,0.651-0.531,1.18-1.18,1.18c-0.652,0-1.179-0.529-1.179-1.18s0.527-1.18,1.179-1.18
			C147.171,9.43,147.702,9.959,147.702,10.61"/>
	</g>
	<g>
		<defs>
			<rect id="SVGID_5_" width="396.455" height="147.625"/>
		</defs>
		<clipPath id="SVGID_6_">
			<use xlink:href="#SVGID_5_"  style="overflow:visible;"/>
		</clipPath>
		<path class="st2" d="M147.702,15.158c0,0.651-0.531,1.18-1.18,1.18c-0.652,0-1.179-0.529-1.179-1.18s0.527-1.18,1.179-1.18
			C147.171,13.978,147.702,14.507,147.702,15.158"/>
	</g>
	<g>
		<defs>
			<rect id="SVGID_7_" width="396.455" height="147.625"/>
		</defs>
		<clipPath id="SVGID_8_">
			<use xlink:href="#SVGID_7_"  style="overflow:visible;"/>
		</clipPath>
		<path class="st3" d="M147.702,19.709c0,0.651-0.531,1.18-1.18,1.18c-0.652,0-1.179-0.529-1.179-1.18s0.527-1.18,1.179-1.18
			C147.171,18.529,147.702,19.058,147.702,19.709"/>
	</g>
	<g>
		<defs>
			<rect id="SVGID_9_" width="396.455" height="147.625"/>
		</defs>
		<clipPath id="SVGID_10_">
			<use xlink:href="#SVGID_9_"  style="overflow:visible;"/>
		</clipPath>
		<path class="st4" d="M147.702,24.608c0,0.651-0.531,1.18-1.18,1.18c-0.652,0-1.179-0.529-1.179-1.18
			c0-0.651,0.527-1.18,1.179-1.18C147.171,23.428,147.702,23.957,147.702,24.608"/>
	</g>
	<g>
		<defs>
			<rect id="SVGID_11_" width="396.455" height="147.625"/>
		</defs>
		<clipPath id="SVGID_12_">
			<use xlink:href="#SVGID_11_"  style="overflow:visible;"/>
		</clipPath>
		<path class="st5" d="M147.702,29.508c0,0.651-0.531,1.18-1.18,1.18c-0.652,0-1.179-0.529-1.179-1.18s0.527-1.18,1.179-1.18
			C147.171,28.328,147.702,28.857,147.702,29.508"/>
	</g>
	<g>
		<defs>
			<rect id="SVGID_13_" width="396.455" height="147.625"/>
		</defs>
		<clipPath id="SVGID_14_">
			<use xlink:href="#SVGID_13_"  style="overflow:visible;"/>
		</clipPath>
		<path class="st6" d="M147.702,34.549c0,0.651-0.531,1.18-1.18,1.18c-0.652,0-1.179-0.529-1.179-1.18s0.527-1.18,1.179-1.18
			C147.171,33.369,147.702,33.898,147.702,34.549"/>
	</g>
	<g>
		<defs>
			<rect id="SVGID_15_" width="396.455" height="147.625"/>
		</defs>
		<clipPath id="SVGID_16_">
			<use xlink:href="#SVGID_15_"  style="overflow:visible;"/>
		</clipPath>
		<path class="st7" d="M147.702,39.588c0,0.651-0.531,1.18-1.18,1.18c-0.652,0-1.179-0.529-1.179-1.18s0.527-1.18,1.179-1.18
			C147.171,38.408,147.702,38.937,147.702,39.588"/>
	</g>
	<g>
		<defs>
			<rect id="SVGID_17_" width="396.455" height="147.625"/>
		</defs>
		<clipPath id="SVGID_18_">
			<use xlink:href="#SVGID_17_"  style="overflow:visible;"/>
		</clipPath>
		<path class="st8" d="M147.702,45.049c0,0.651-0.531,1.18-1.18,1.18c-0.652,0-1.179-0.529-1.179-1.18s0.527-1.18,1.179-1.18
			C147.171,43.869,147.702,44.398,147.702,45.049"/>
	</g>
	<g>
		<defs>
			<rect id="SVGID_19_" width="396.455" height="147.625"/>
		</defs>
		<clipPath id="SVGID_20_">
			<use xlink:href="#SVGID_19_"  style="overflow:visible;"/>
		</clipPath>
		<path class="st9" d="M147.702,50.508c0,0.651-0.531,1.18-1.18,1.18c-0.652,0-1.179-0.529-1.179-1.18s0.527-1.18,1.179-1.18
			C147.171,49.328,147.702,49.857,147.702,50.508"/>
	</g>
	<g>
		<defs>
			<rect id="SVGID_21_" width="396.455" height="147.625"/>
		</defs>
		<clipPath id="SVGID_22_">
			<use xlink:href="#SVGID_21_"  style="overflow:visible;"/>
		</clipPath>
		<path class="st10" d="M147.702,56.248c0,0.651-0.531,1.18-1.18,1.18c-0.652,0-1.179-0.529-1.179-1.18s0.527-1.18,1.179-1.18
			C147.171,55.068,147.702,55.597,147.702,56.248"/>
	</g>
	<g>
		<defs>
			<rect id="SVGID_23_" width="396.455" height="147.625"/>
		</defs>
		<clipPath id="SVGID_24_">
			<use xlink:href="#SVGID_23_"  style="overflow:visible;"/>
		</clipPath>
		<path class="st11" d="M147.702,62.129c0,0.651-0.531,1.18-1.18,1.18c-0.652,0-1.179-0.529-1.179-1.18s0.527-1.18,1.179-1.18
			C147.171,60.949,147.702,61.478,147.702,62.129"/>
	</g>
	<g>
		<defs>
			<rect id="SVGID_25_" width="396.455" height="147.625"/>
		</defs>
		<clipPath id="SVGID_26_">
			<use xlink:href="#SVGID_25_"  style="overflow:visible;"/>
		</clipPath>
		<path class="st12" d="M147.702,68.289c0,0.651-0.531,1.18-1.18,1.18c-0.652,0-1.179-0.529-1.179-1.18s0.527-1.18,1.179-1.18
			C147.171,67.109,147.702,67.638,147.702,68.289"/>
	</g>
	<g>
		<defs>
			<rect id="SVGID_27_" width="396.455" height="147.625"/>
		</defs>
		<clipPath id="SVGID_28_">
			<use xlink:href="#SVGID_27_"  style="overflow:visible;"/>
		</clipPath>
		<path class="st13" d="M147.702,75.29c0,0.65-0.531,1.179-1.18,1.179c-0.652,0-1.179-0.529-1.179-1.179
			c0-0.652,0.527-1.18,1.179-1.18C147.171,74.11,147.702,74.638,147.702,75.29"/>
	</g>
	<g>
		<defs>
			<rect id="SVGID_29_" width="396.455" height="147.625"/>
		</defs>
		<clipPath id="SVGID_30_">
			<use xlink:href="#SVGID_29_"  style="overflow:visible;"/>
		</clipPath>
		<path class="st14" d="M147.702,82.988c0,0.65-0.531,1.18-1.18,1.18c-0.652,0-1.179-0.53-1.179-1.18c0-0.651,0.527-1.18,1.179-1.18
			C147.171,81.808,147.702,82.337,147.702,82.988"/>
	</g>
	<g>
		<defs>
			<rect id="SVGID_31_" width="396.455" height="147.625"/>
		</defs>
		<clipPath id="SVGID_32_">
			<use xlink:href="#SVGID_31_"  style="overflow:visible;"/>
		</clipPath>
		<path class="st15" d="M147.702,92.089c0,0.65-0.531,1.18-1.18,1.18c-0.652,0-1.179-0.53-1.179-1.18c0-0.652,0.527-1.18,1.179-1.18
			C147.171,90.909,147.702,91.437,147.702,92.089"/>
	</g>
	<g>
		<defs>
			<rect id="SVGID_33_" width="396.455" height="147.625"/>
		</defs>
		<clipPath id="SVGID_34_">
			<use xlink:href="#SVGID_33_"  style="overflow:visible;"/>
		</clipPath>
		<path class="st16" d="M147.702,101.89c0,0.65-0.531,1.18-1.18,1.18c-0.652,0-1.179-0.53-1.179-1.18c0-0.652,0.527-1.18,1.179-1.18
			C147.171,100.71,147.702,101.238,147.702,101.89"/>
	</g>
	<g>
		<defs>
			<rect id="SVGID_35_" width="396.455" height="147.625"/>
		</defs>
		<clipPath id="SVGID_36_">
			<use xlink:href="#SVGID_35_"  style="overflow:visible;"/>
		</clipPath>
		<path class="st17" d="M147.702,113.077c0,0.652-0.531,1.18-1.18,1.18c-0.652,0-1.179-0.528-1.179-1.18
			c0-0.648,0.527-1.18,1.179-1.18C147.171,111.897,147.702,112.429,147.702,113.077"/>
	</g>
	<g>
		<defs>
			<rect id="SVGID_37_" width="396.455" height="147.625"/>
		</defs>
		<clipPath id="SVGID_38_">
			<use xlink:href="#SVGID_37_"  style="overflow:visible;"/>
		</clipPath>
		<path class="st18" d="M147.702,125.7c0,0.652-0.531,1.178-1.18,1.178c-0.652,0-1.179-0.526-1.179-1.178
			c0-0.654,0.527-1.182,1.179-1.182C147.171,124.518,147.702,125.046,147.702,125.7"/>
	</g>
	<g>
		<defs>
			<rect id="SVGID_39_" width="396.455" height="147.625"/>
		</defs>
		<clipPath id="SVGID_40_">
			<use xlink:href="#SVGID_39_"  style="overflow:visible;"/>
		</clipPath>
		<path class="st19" d="M147.702,139.7c0,0.652-0.531,1.178-1.18,1.178c-0.652,0-1.179-0.526-1.179-1.178
			c0-0.654,0.527-1.182,1.179-1.182C147.171,138.518,147.702,139.046,147.702,139.7"/>
	</g>
	<g>
		<defs>
			<rect id="SVGID_41_" width="396.455" height="147.625"/>
		</defs>
		<clipPath id="SVGID_42_">
			<use xlink:href="#SVGID_41_"  style="overflow:visible;"/>
		</clipPath>
		<rect x="57.155" y="70.368" class="st20" width="69.254" height="2.903"/>
	</g>
	<g>
		<defs>
			<rect id="SVGID_43_" width="396.455" height="147.625"/>
		</defs>
		<clipPath id="SVGID_44_">
			<use xlink:href="#SVGID_43_"  style="overflow:visible;"/>
		</clipPath>
		<rect x="53.236" y="75.305" class="st21" width="76.949" height="2.903"/>
	</g>
	<g>
		<defs>
			<rect id="SVGID_45_" width="396.455" height="147.625"/>
		</defs>
		<clipPath id="SVGID_46_">
			<use xlink:href="#SVGID_45_"  style="overflow:visible;"/>
		</clipPath>
		<rect x="49.606" y="80.241" class="st22" width="84.354" height="2.904"/>
	</g>
	<g>
		<defs>
			<rect id="SVGID_47_" width="396.455" height="147.625"/>
		</defs>
		<clipPath id="SVGID_48_">
			<use xlink:href="#SVGID_47_"  style="overflow:visible;"/>
		</clipPath>
		<rect x="57.155" y="33.764" class="st23" width="69.254" height="2.903"/>
	</g>
	<g>
		<defs>
			<rect id="SVGID_49_" width="396.455" height="147.625"/>
		</defs>
		<clipPath id="SVGID_50_">
			<use xlink:href="#SVGID_49_"  style="overflow:visible;"/>
		</clipPath>
		<polygon class="st24" points="71.167,31.894 91.782,25.723 111.964,31.894 120.384,31.894 91.782,23.038 62.745,31.894 		"/>
	</g>
	<g>
		<defs>
			<rect id="SVGID_51_" width="396.455" height="147.625"/>
		</defs>
		<clipPath id="SVGID_52_">
			<use xlink:href="#SVGID_51_"  style="overflow:visible;"/>
		</clipPath>
		<polygon class="st25" points="57.155,31.894 91.565,21.368 126.409,31.894 126.409,28.772 91.782,18.101 57.155,28.772 		"/>
	</g>
	<g>
		<defs>
			<rect id="SVGID_53_" width="396.455" height="147.625"/>
		</defs>
		<clipPath id="SVGID_54_">
			<use xlink:href="#SVGID_53_"  style="overflow:visible;"/>
		</clipPath>
		<path class="st26" d="M61.222,66.606c0,0,0,2.177,2.467,2.177c2.469,0,2.324-2.177,2.324-2.177V38.439h-1.816v28.239
			c0,0,0,0.509-0.653,0.509c-0.654,0-0.508-0.653-0.508-0.653V38.439h-1.814V66.606z"/>
	</g>
	<g>
		<defs>
			<rect id="SVGID_55_" width="396.455" height="147.625"/>
		</defs>
		<clipPath id="SVGID_56_">
			<use xlink:href="#SVGID_55_"  style="overflow:visible;"/>
		</clipPath>
		<polygon class="st27" points="72.618,68.783 74.069,68.783 74.069,50.54 75.884,68.783 77.409,68.783 77.409,38.439 
			75.884,38.439 75.884,54.657 74.069,38.439 72.618,38.439 		"/>
	</g>
	<g>
		<defs>
			<rect id="SVGID_57_" width="396.455" height="147.625"/>
		</defs>
		<clipPath id="SVGID_58_">
			<use xlink:href="#SVGID_57_"  style="overflow:visible;"/>
		</clipPath>
		<polygon class="st28" points="84.161,68.783 88.806,68.783 88.806,67.186 86.192,67.186 86.192,53.466 88.153,53.466 
			88.153,51.797 86.192,51.797 86.192,39.964 88.153,39.964 88.153,38.439 84.161,38.439 		"/>
	</g>
	<g>
		<defs>
			<rect id="SVGID_59_" width="396.455" height="147.625"/>
		</defs>
		<clipPath id="SVGID_60_">
			<use xlink:href="#SVGID_59_"  style="overflow:visible;"/>
		</clipPath>
		<path class="st29" d="M110.874,47.441v-6.824c0,0-0.072-2.178-2.395-2.178c-2.322,0-2.322,2.178-2.322,2.178v25.989
			c0,0-0.076,2.177,2.322,2.177c2.395,0,2.395-2.177,2.395-2.177v-7.623h-1.814v7.623c0,0,0,0.58-0.581,0.58
			c-0.544,0-0.654-0.58-0.654-0.58V40.617c0,0,0-0.654,0.654-0.654c0.581,0,0.581,0.654,0.581,0.654v6.824H110.874z"/>
	</g>
	<g>
		<defs>
			<rect id="SVGID_61_" width="396.455" height="147.625"/>
		</defs>
		<clipPath id="SVGID_62_">
			<use xlink:href="#SVGID_61_"  style="overflow:visible;"/>
		</clipPath>
		<path class="st30" d="M122.417,40.618c0,0,0.145-2.179-2.396-2.179c-2.539,0-2.539,2.179-2.539,2.179v25.988
			c0,0,0,2.177,2.394,2.177c2.541,0,2.541-2.177,2.541-2.177S122.417,40.618,122.417,40.618z M120.675,66.606
			c0,0,0.072,0.581-0.654,0.581c-0.725,0-0.725-0.581-0.725-0.581V40.618c0,0,0-0.654,0.652-0.654c0.727,0,0.727,0.654,0.727,0.654
			V66.606z"/>
	</g>
	<g>
		<defs>
			<rect id="SVGID_63_" width="396.455" height="147.625"/>
		</defs>
		<clipPath id="SVGID_64_">
			<use xlink:href="#SVGID_63_"  style="overflow:visible;"/>
		</clipPath>
		<path class="st31" d="M97.591,66.606c0,0,0,0.581-0.473,0.543c-0.472-0.035-0.472-0.543-0.472-0.543v-7.622h-1.887v7.622
			c0,0-0.072,2.177,2.322,2.177c2.397,0,2.397-2.177,2.397-2.177s0-5.082-0.002-6.565c-0.006-3.562-2.83-10.35-2.83-12.597v-6.826
			c0,0-0.073-0.654,0.435-0.654c0.51,0,0.51,0.654,0.51,0.654v6.823h1.887v-6.823c0,0,0.072-2.251-2.323-2.179
			c-2.396,0.073-2.396,2.179-2.396,2.179v5.807c0,3.811,2.832,10.235,2.832,13.175V66.606z"/>
	</g>
</g>
<g class="st32">
	<path class="st33" d="M159.216,51.341V38.457h2.602v12.885H159.216z"/>
	<path class="st33" d="M172.769,51.341h-2.47v-4.764c0-1.008-0.053-1.659-0.158-1.955s-0.277-0.526-0.514-0.69
		s-0.523-0.246-0.857-0.246c-0.428,0-0.812,0.117-1.151,0.352s-0.573,0.545-0.699,0.932s-0.189,1.102-0.189,2.145v4.228h-2.47
		v-9.334h2.294v1.371c0.814-1.055,1.84-1.582,3.076-1.582c0.545,0,1.043,0.099,1.494,0.295s0.792,0.446,1.024,0.751
		s0.393,0.65,0.483,1.037s0.136,0.94,0.136,1.661V51.341z"/>
	<path class="st33" d="M179.554,42.007v1.969h-1.688v3.762c0,0.762,0.016,1.206,0.048,1.332s0.105,0.229,0.22,0.312
		s0.253,0.123,0.417,0.123c0.229,0,0.56-0.079,0.993-0.237l0.211,1.916c-0.574,0.246-1.225,0.369-1.951,0.369
		c-0.445,0-0.847-0.074-1.204-0.225c-0.357-0.148-0.62-0.342-0.787-0.58c-0.167-0.236-0.283-0.558-0.347-0.962
		c-0.053-0.287-0.079-0.867-0.079-1.74v-4.069h-1.134v-1.969h1.134v-1.854l2.479-1.441v3.296H179.554z"/>
	<path class="st33" d="M186.673,48.371l2.461,0.413c-0.316,0.902-0.816,1.59-1.499,2.062s-1.537,0.707-2.562,0.707
		c-1.623,0-2.824-0.53-3.604-1.591c-0.615-0.85-0.923-1.922-0.923-3.217c0-1.547,0.404-2.758,1.213-3.634s1.831-1.314,3.067-1.314
		c1.389,0,2.484,0.459,3.287,1.375c0.803,0.918,1.187,2.322,1.151,4.215h-6.188c0.018,0.732,0.217,1.303,0.598,1.709
		c0.381,0.408,0.855,0.611,1.424,0.611c0.387,0,0.712-0.105,0.976-0.316S186.538,48.839,186.673,48.371z M186.813,45.875
		c-0.018-0.715-0.202-1.258-0.554-1.631c-0.352-0.371-0.779-0.558-1.283-0.558c-0.539,0-0.984,0.196-1.336,0.589
		s-0.524,0.926-0.519,1.6H186.813z"/>
	<path class="st33" d="M193.643,51.341h-2.47v-9.334h2.294v1.327c0.393-0.627,0.746-1.04,1.059-1.239s0.669-0.299,1.068-0.299
		c0.563,0,1.104,0.155,1.626,0.466l-0.765,2.153c-0.416-0.27-0.803-0.404-1.16-0.404c-0.346,0-0.639,0.096-0.879,0.285
		c-0.24,0.191-0.429,0.535-0.567,1.033s-0.207,1.541-0.207,3.129V51.341z"/>
	<path class="st33" d="M206.773,51.341h-2.47v-4.764c0-1.008-0.053-1.659-0.158-1.955s-0.276-0.526-0.514-0.69
		s-0.523-0.246-0.857-0.246c-0.428,0-0.812,0.117-1.151,0.352s-0.572,0.545-0.698,0.932s-0.189,1.102-0.189,2.145v4.228h-2.47
		v-9.334h2.294v1.371c0.814-1.055,1.84-1.582,3.076-1.582c0.545,0,1.043,0.099,1.494,0.295s0.793,0.446,1.024,0.751
		s0.393,0.65,0.483,1.037s0.136,0.94,0.136,1.661V51.341z"/>
	<path class="st33" d="M211.124,44.855l-2.241-0.404c0.252-0.902,0.686-1.57,1.301-2.004s1.529-0.65,2.742-0.65
		c1.102,0,1.922,0.131,2.461,0.391c0.539,0.262,0.919,0.593,1.139,0.994s0.329,1.138,0.329,2.21l-0.026,2.883
		c0,0.82,0.04,1.426,0.119,1.815s0.227,0.807,0.443,1.252h-2.443c-0.064-0.164-0.144-0.407-0.237-0.729
		c-0.041-0.146-0.07-0.243-0.088-0.29c-0.422,0.41-0.873,0.718-1.354,0.923s-0.993,0.308-1.538,0.308
		c-0.961,0-1.718-0.261-2.271-0.782s-0.831-1.181-0.831-1.978c0-0.527,0.126-0.998,0.378-1.41c0.252-0.414,0.605-0.73,1.06-0.949
		c0.454-0.221,1.108-0.412,1.964-0.576c1.154-0.217,1.954-0.419,2.399-0.606v-0.246c0-0.475-0.117-0.813-0.352-1.015
		c-0.234-0.203-0.677-0.304-1.327-0.304c-0.439,0-0.782,0.087-1.028,0.259C211.476,44.119,211.276,44.421,211.124,44.855z
		 M214.429,46.859c-0.316,0.105-0.817,0.231-1.503,0.378s-1.134,0.29-1.345,0.431c-0.322,0.229-0.483,0.519-0.483,0.87
		c0,0.346,0.129,0.645,0.387,0.896s0.586,0.378,0.984,0.378c0.445,0,0.87-0.146,1.274-0.439c0.299-0.223,0.495-0.495,0.589-0.817
		c0.064-0.211,0.097-0.612,0.097-1.204V46.859z"/>
	<path class="st33" d="M223.569,42.007v1.969h-1.688v3.762c0,0.762,0.017,1.206,0.049,1.332s0.105,0.229,0.22,0.312
		s0.253,0.123,0.417,0.123c0.229,0,0.56-0.079,0.993-0.237l0.211,1.916c-0.574,0.246-1.225,0.369-1.951,0.369
		c-0.445,0-0.847-0.074-1.204-0.225c-0.357-0.148-0.619-0.342-0.786-0.58c-0.167-0.236-0.283-0.558-0.348-0.962
		c-0.053-0.287-0.079-0.867-0.079-1.74v-4.069h-1.134v-1.969h1.134v-1.854l2.479-1.441v3.296H223.569z"/>
	<path class="st33" d="M225.283,40.742v-2.285h2.47v2.285H225.283z M225.283,51.341v-9.334h2.47v9.334H225.283z"/>
	<path class="st33" d="M229.713,46.542c0-0.82,0.202-1.614,0.606-2.382s0.978-1.354,1.719-1.758s1.568-0.606,2.482-0.606
		c1.412,0,2.569,0.459,3.472,1.375c0.902,0.918,1.354,2.076,1.354,3.477c0,1.412-0.455,2.583-1.366,3.512s-2.059,1.393-3.441,1.393
		c-0.855,0-1.671-0.193-2.447-0.58s-1.367-0.953-1.771-1.701C229.915,48.525,229.713,47.615,229.713,46.542z M232.244,46.674
		c0,0.926,0.22,1.635,0.659,2.127s0.981,0.738,1.626,0.738s1.186-0.246,1.622-0.738s0.654-1.207,0.654-2.145
		c0-0.914-0.218-1.617-0.654-2.109s-0.978-0.738-1.622-0.738s-1.187,0.246-1.626,0.738S232.244,45.749,232.244,46.674z"/>
	<path class="st33" d="M249.77,51.341h-2.47v-4.764c0-1.008-0.053-1.659-0.158-1.955s-0.276-0.526-0.514-0.69
		s-0.523-0.246-0.857-0.246c-0.428,0-0.812,0.117-1.151,0.352s-0.572,0.545-0.698,0.932s-0.189,1.102-0.189,2.145v4.228h-2.47
		v-9.334h2.294v1.371c0.814-1.055,1.84-1.582,3.076-1.582c0.545,0,1.043,0.099,1.494,0.295s0.793,0.446,1.024,0.751
		s0.393,0.65,0.483,1.037s0.136,0.94,0.136,1.661V51.341z"/>
	<path class="st33" d="M254.12,44.855l-2.241-0.404c0.252-0.902,0.686-1.57,1.301-2.004s1.529-0.65,2.742-0.65
		c1.102,0,1.922,0.131,2.461,0.391c0.539,0.262,0.919,0.593,1.139,0.994s0.329,1.138,0.329,2.21l-0.026,2.883
		c0,0.82,0.04,1.426,0.119,1.815s0.227,0.807,0.443,1.252h-2.443c-0.064-0.164-0.144-0.407-0.237-0.729
		c-0.041-0.146-0.07-0.243-0.088-0.29c-0.422,0.41-0.873,0.718-1.354,0.923s-0.993,0.308-1.538,0.308
		c-0.961,0-1.718-0.261-2.271-0.782s-0.831-1.181-0.831-1.978c0-0.527,0.126-0.998,0.378-1.41c0.252-0.414,0.605-0.73,1.06-0.949
		c0.454-0.221,1.108-0.412,1.964-0.576c1.154-0.217,1.954-0.419,2.399-0.606v-0.246c0-0.475-0.117-0.813-0.352-1.015
		c-0.234-0.203-0.677-0.304-1.327-0.304c-0.439,0-0.782,0.087-1.028,0.259C254.472,44.119,254.272,44.421,254.12,44.855z
		 M257.425,46.859c-0.316,0.105-0.817,0.231-1.503,0.378s-1.134,0.29-1.345,0.431c-0.322,0.229-0.483,0.519-0.483,0.87
		c0,0.346,0.129,0.645,0.387,0.896s0.586,0.378,0.984,0.378c0.445,0,0.87-0.146,1.274-0.439c0.299-0.223,0.495-0.495,0.589-0.817
		c0.064-0.211,0.097-0.612,0.097-1.204V46.859z"/>
	<path class="st33" d="M262.285,51.341V38.457h2.47v12.885H262.285z"/>
	<path class="st33" d="M280.549,46.604l2.522,0.8c-0.387,1.406-1.029,2.451-1.929,3.133c-0.899,0.684-2.041,1.024-3.424,1.024
		c-1.711,0-3.117-0.585-4.219-1.753c-1.102-1.17-1.652-2.768-1.652-4.795c0-2.145,0.554-3.811,1.661-4.996
		c1.107-1.188,2.563-1.78,4.368-1.78c1.576,0,2.856,0.466,3.841,1.397c0.586,0.551,1.025,1.342,1.318,2.373l-2.575,0.615
		c-0.152-0.668-0.47-1.195-0.953-1.582s-1.071-0.58-1.763-0.58c-0.955,0-1.729,0.343-2.324,1.028s-0.893,1.796-0.893,3.331
		c0,1.629,0.293,2.789,0.879,3.48s1.348,1.037,2.285,1.037c0.691,0,1.286-0.22,1.784-0.659S280.332,47.547,280.549,46.604z"/>
	<path class="st33" d="M284.715,46.542c0-0.82,0.202-1.614,0.606-2.382s0.978-1.354,1.719-1.758s1.568-0.606,2.482-0.606
		c1.412,0,2.569,0.459,3.472,1.375c0.902,0.918,1.354,2.076,1.354,3.477c0,1.412-0.455,2.583-1.366,3.512s-2.059,1.393-3.441,1.393
		c-0.855,0-1.671-0.193-2.447-0.58s-1.367-0.953-1.771-1.701C284.917,48.525,284.715,47.615,284.715,46.542z M287.246,46.674
		c0,0.926,0.22,1.635,0.659,2.127s0.981,0.738,1.626,0.738s1.186-0.246,1.622-0.738s0.654-1.207,0.654-2.145
		c0-0.914-0.218-1.617-0.654-2.109s-0.978-0.738-1.622-0.738s-1.187,0.246-1.626,0.738S287.246,45.749,287.246,46.674z"/>
	<path class="st33" d="M298.127,44.855l-2.241-0.404c0.252-0.902,0.686-1.57,1.301-2.004s1.529-0.65,2.742-0.65
		c1.102,0,1.922,0.131,2.461,0.391c0.539,0.262,0.919,0.593,1.139,0.994s0.329,1.138,0.329,2.21l-0.026,2.883
		c0,0.82,0.04,1.426,0.119,1.815s0.227,0.807,0.443,1.252h-2.443c-0.064-0.164-0.144-0.407-0.237-0.729
		c-0.041-0.146-0.07-0.243-0.088-0.29c-0.422,0.41-0.873,0.718-1.354,0.923s-0.993,0.308-1.538,0.308
		c-0.961,0-1.718-0.261-2.271-0.782s-0.831-1.181-0.831-1.978c0-0.527,0.126-0.998,0.378-1.41c0.252-0.414,0.605-0.73,1.06-0.949
		c0.454-0.221,1.108-0.412,1.964-0.576c1.154-0.217,1.954-0.419,2.399-0.606v-0.246c0-0.475-0.117-0.813-0.352-1.015
		c-0.234-0.203-0.677-0.304-1.327-0.304c-0.439,0-0.782,0.087-1.028,0.259C298.479,44.119,298.279,44.421,298.127,44.855z
		 M301.432,46.859c-0.316,0.105-0.817,0.231-1.503,0.378s-1.134,0.29-1.345,0.431c-0.322,0.229-0.483,0.519-0.483,0.87
		c0,0.346,0.129,0.645,0.387,0.896s0.586,0.378,0.984,0.378c0.445,0,0.87-0.146,1.274-0.439c0.299-0.223,0.495-0.495,0.589-0.817
		c0.064-0.211,0.097-0.612,0.097-1.204V46.859z"/>
	<path class="st33" d="M306.292,51.341V38.457h2.47v12.885H306.292z"/>
	<path class="st33" d="M311.293,40.742v-2.285h2.47v2.285H311.293z M311.293,51.341v-9.334h2.47v9.334H311.293z"/>
	<path class="st33" d="M320.574,42.007v1.969h-1.688v3.762c0,0.762,0.017,1.206,0.049,1.332s0.105,0.229,0.22,0.312
		s0.253,0.123,0.417,0.123c0.229,0,0.56-0.079,0.993-0.237l0.211,1.916c-0.574,0.246-1.225,0.369-1.951,0.369
		c-0.445,0-0.847-0.074-1.204-0.225c-0.357-0.148-0.619-0.342-0.786-0.58c-0.167-0.236-0.283-0.558-0.348-0.962
		c-0.053-0.287-0.079-0.867-0.079-1.74v-4.069h-1.134v-1.969h1.134v-1.854l2.479-1.441v3.296H320.574z"/>
	<path class="st33" d="M322.288,40.742v-2.285h2.47v2.285H322.288z M322.288,51.341v-9.334h2.47v9.334H322.288z"/>
	<path class="st33" d="M326.718,46.542c0-0.82,0.202-1.614,0.606-2.382s0.978-1.354,1.719-1.758s1.568-0.606,2.482-0.606
		c1.412,0,2.569,0.459,3.472,1.375c0.902,0.918,1.354,2.076,1.354,3.477c0,1.412-0.455,2.583-1.366,3.512s-2.059,1.393-3.441,1.393
		c-0.855,0-1.671-0.193-2.447-0.58s-1.367-0.953-1.771-1.701C326.92,48.525,326.718,47.615,326.718,46.542z M329.249,46.674
		c0,0.926,0.22,1.635,0.659,2.127s0.981,0.738,1.626,0.738s1.186-0.246,1.622-0.738s0.654-1.207,0.654-2.145
		c0-0.914-0.218-1.617-0.654-2.109s-0.978-0.738-1.622-0.738s-1.187,0.246-1.626,0.738S329.249,45.749,329.249,46.674z"/>
	<path class="st33" d="M346.774,51.341h-2.47v-4.764c0-1.008-0.053-1.659-0.158-1.955s-0.276-0.526-0.514-0.69
		s-0.523-0.246-0.857-0.246c-0.428,0-0.812,0.117-1.151,0.352s-0.572,0.545-0.698,0.932s-0.189,1.102-0.189,2.145v4.228h-2.47
		v-9.334h2.294v1.371c0.814-1.055,1.84-1.582,3.076-1.582c0.545,0,1.043,0.099,1.494,0.295s0.793,0.446,1.024,0.751
		s0.393,0.65,0.483,1.037s0.136,0.94,0.136,1.661V51.341z"/>
</g>
<g class="st32">
	<path class="st33" d="M158.706,65.55c0-0.82,0.202-1.614,0.606-2.382s0.977-1.354,1.718-1.758s1.569-0.606,2.483-0.606
		c1.412,0,2.569,0.459,3.472,1.375c0.902,0.918,1.354,2.076,1.354,3.477c0,1.412-0.456,2.583-1.367,3.512s-2.058,1.393-3.441,1.393
		c-0.855,0-1.671-0.193-2.448-0.58s-1.367-0.953-1.771-1.701C158.908,67.533,158.706,66.623,158.706,65.55z M161.237,65.682
		c0,0.926,0.22,1.635,0.659,2.127s0.981,0.738,1.626,0.738s1.185-0.246,1.622-0.738s0.655-1.207,0.655-2.145
		c0-0.914-0.218-1.617-0.655-2.109s-0.977-0.738-1.622-0.738s-1.187,0.246-1.626,0.738S161.237,64.756,161.237,65.682z"/>
	<path class="st33" d="M169.191,61.015h1.371v-0.703c0-0.785,0.083-1.371,0.25-1.758s0.475-0.701,0.923-0.945
		c0.448-0.242,1.015-0.364,1.701-0.364c0.703,0,1.392,0.105,2.065,0.316l-0.334,1.723c-0.393-0.094-0.771-0.141-1.134-0.141
		c-0.357,0-0.614,0.083-0.769,0.251c-0.155,0.166-0.233,0.487-0.233,0.962v0.659h1.846v1.942h-1.846v7.392h-2.47v-7.392h-1.371
		V61.015z"/>
	<path class="st33" d="M181.206,70.349V57.464h2.602v12.885H181.206z"/>
	<path class="st33" d="M194.759,70.349h-2.47v-4.764c0-1.008-0.053-1.659-0.158-1.955s-0.277-0.526-0.514-0.69
		s-0.523-0.246-0.857-0.246c-0.428,0-0.812,0.117-1.151,0.352s-0.573,0.545-0.699,0.932s-0.189,1.102-0.189,2.145v4.228h-2.47
		v-9.334h2.294v1.371c0.814-1.055,1.84-1.582,3.076-1.582c0.545,0,1.043,0.099,1.494,0.295s0.792,0.446,1.024,0.751
		s0.393,0.65,0.483,1.037s0.136,0.94,0.136,1.661V70.349z"/>
	<path class="st33" d="M205.402,63.775l-2.435,0.439c-0.082-0.486-0.268-0.853-0.558-1.099s-0.667-0.369-1.13-0.369
		c-0.615,0-1.105,0.213-1.472,0.638s-0.55,1.135-0.55,2.131c0,1.107,0.187,1.89,0.559,2.347s0.871,0.686,1.498,0.686
		c0.469,0,0.853-0.133,1.151-0.399s0.51-0.726,0.633-1.376l2.426,0.413c-0.252,1.113-0.735,1.954-1.45,2.522
		s-1.673,0.853-2.874,0.853c-1.365,0-2.454-0.431-3.265-1.292s-1.217-2.054-1.217-3.577c0-1.541,0.407-2.74,1.222-3.6
		c0.814-0.857,1.916-1.287,3.305-1.287c1.137,0,2.041,0.245,2.712,0.734S205.109,62.773,205.402,63.775z"/>
	<path class="st33" d="M207.274,70.349V57.464h2.47v12.885H207.274z"/>
	<path class="st33" d="M218.419,70.349v-1.397c-0.34,0.498-0.786,0.891-1.34,1.178s-1.139,0.431-1.754,0.431
		c-0.627,0-1.189-0.138-1.688-0.413s-0.858-0.662-1.081-1.16s-0.334-1.187-0.334-2.065v-5.906h2.47v4.289
		c0,1.313,0.046,2.117,0.137,2.412c0.091,0.297,0.256,0.531,0.496,0.703c0.24,0.174,0.545,0.26,0.914,0.26
		c0.422,0,0.8-0.115,1.134-0.348c0.334-0.23,0.563-0.518,0.686-0.861c0.123-0.342,0.185-1.182,0.185-2.518v-3.938h2.47v9.334
		H218.419z"/>
	<path class="st33" d="M222.4,67.686l2.479-0.378c0.105,0.48,0.319,0.846,0.642,1.094c0.322,0.25,0.773,0.374,1.354,0.374
		c0.639,0,1.119-0.117,1.441-0.352c0.217-0.164,0.325-0.384,0.325-0.659c0-0.188-0.059-0.343-0.176-0.466
		c-0.123-0.117-0.398-0.226-0.826-0.325c-1.992-0.439-3.255-0.841-3.788-1.204c-0.738-0.504-1.107-1.204-1.107-2.101
		c0-0.809,0.319-1.488,0.958-2.039s1.629-0.826,2.971-0.826c1.277,0,2.227,0.208,2.848,0.624s1.049,1.031,1.283,1.846l-2.329,0.431
		c-0.1-0.363-0.288-0.642-0.566-0.835s-0.676-0.29-1.191-0.29c-0.65,0-1.116,0.091-1.397,0.272
		c-0.188,0.129-0.281,0.296-0.281,0.501c0,0.176,0.082,0.325,0.246,0.448c0.223,0.164,0.992,0.396,2.308,0.694
		s2.233,0.665,2.755,1.099c0.516,0.439,0.773,1.052,0.773,1.837c0,0.855-0.357,1.591-1.072,2.206s-1.772,0.923-3.173,0.923
		c-1.271,0-2.277-0.258-3.019-0.773S222.629,68.571,222.4,67.686z"/>
	<path class="st33" d="M233.281,59.75v-2.285h2.47v2.285H233.281z M233.281,70.349v-9.334h2.47v9.334H233.281z"/>
	<path class="st33" d="M240.849,70.349l-3.762-9.334h2.593l1.758,4.764l0.51,1.591c0.135-0.404,0.22-0.671,0.255-0.8
		c0.082-0.264,0.17-0.527,0.264-0.791l1.775-4.764h2.54l-3.709,9.334H240.849z"/>
	<path class="st33" d="M253.698,67.378l2.461,0.413c-0.316,0.902-0.815,1.59-1.498,2.062s-1.537,0.707-2.563,0.707
		c-1.623,0-2.824-0.53-3.604-1.591c-0.615-0.85-0.923-1.922-0.923-3.217c0-1.547,0.404-2.758,1.213-3.634s1.831-1.314,3.067-1.314
		c1.389,0,2.484,0.459,3.287,1.375c0.803,0.918,1.187,2.322,1.151,4.215h-6.188c0.018,0.732,0.217,1.303,0.598,1.709
		c0.381,0.408,0.855,0.611,1.424,0.611c0.387,0,0.712-0.105,0.976-0.316S253.563,67.847,253.698,67.378z M253.839,64.882
		c-0.018-0.715-0.202-1.258-0.554-1.631c-0.352-0.371-0.779-0.558-1.283-0.558c-0.539,0-0.984,0.196-1.336,0.589
		s-0.524,0.926-0.519,1.6H253.839z"/>
	<path class="st33" d="M265.15,63.863l-2.241-0.404c0.252-0.902,0.686-1.57,1.301-2.004s1.529-0.65,2.742-0.65
		c1.102,0,1.922,0.131,2.461,0.391c0.539,0.262,0.919,0.593,1.139,0.994s0.329,1.138,0.329,2.21l-0.026,2.883
		c0,0.82,0.04,1.426,0.119,1.815s0.227,0.807,0.443,1.252h-2.443c-0.064-0.164-0.144-0.407-0.237-0.729
		c-0.041-0.146-0.07-0.243-0.088-0.29c-0.422,0.41-0.873,0.718-1.354,0.923s-0.993,0.308-1.538,0.308
		c-0.961,0-1.718-0.261-2.271-0.782s-0.831-1.181-0.831-1.978c0-0.527,0.126-0.998,0.378-1.41c0.252-0.414,0.605-0.73,1.06-0.949
		c0.454-0.221,1.108-0.412,1.964-0.576c1.154-0.217,1.954-0.419,2.399-0.606v-0.246c0-0.475-0.117-0.813-0.352-1.015
		c-0.234-0.203-0.677-0.304-1.327-0.304c-0.439,0-0.782,0.087-1.028,0.259C265.502,63.126,265.303,63.429,265.15,63.863z
		 M268.455,65.867c-0.316,0.105-0.817,0.231-1.503,0.378s-1.134,0.29-1.345,0.431c-0.322,0.229-0.483,0.519-0.483,0.87
		c0,0.346,0.129,0.645,0.387,0.896s0.586,0.378,0.984,0.378c0.445,0,0.87-0.146,1.274-0.439c0.299-0.223,0.495-0.495,0.589-0.817
		c0.064-0.211,0.097-0.612,0.097-1.204V65.867z"/>
	<path class="st33" d="M281.806,70.349h-2.47v-4.764c0-1.008-0.053-1.659-0.158-1.955s-0.276-0.526-0.514-0.69
		s-0.523-0.246-0.857-0.246c-0.428,0-0.812,0.117-1.151,0.352s-0.572,0.545-0.698,0.932s-0.189,1.102-0.189,2.145v4.228h-2.47
		v-9.334h2.294v1.371c0.814-1.055,1.84-1.582,3.076-1.582c0.545,0,1.043,0.099,1.494,0.295s0.793,0.446,1.024,0.751
		s0.393,0.65,0.483,1.037s0.136,0.94,0.136,1.661V70.349z"/>
	<path class="st33" d="M292.871,70.349h-2.294v-1.371c-0.381,0.533-0.83,0.931-1.349,1.191c-0.519,0.26-1.042,0.391-1.569,0.391
		c-1.072,0-1.99-0.432-2.755-1.297c-0.765-0.863-1.147-2.069-1.147-3.616c0-1.582,0.372-2.784,1.116-3.608
		c0.744-0.822,1.685-1.234,2.821-1.234c1.043,0,1.945,0.434,2.707,1.301v-4.641h2.47V70.349z M286.279,65.48
		c0,0.996,0.138,1.717,0.413,2.162c0.398,0.645,0.955,0.967,1.67,0.967c0.568,0,1.052-0.242,1.45-0.725
		c0.398-0.484,0.598-1.206,0.598-2.167c0-1.072-0.193-1.844-0.58-2.315s-0.882-0.708-1.485-0.708c-0.586,0-1.076,0.233-1.472,0.698
		C286.478,63.859,286.279,64.554,286.279,65.48z"/>
</g>
<g class="st32">
	<path class="st33" d="M158.636,85.165l2.531-0.246c0.152,0.85,0.461,1.474,0.927,1.872s1.094,0.598,1.885,0.598
		c0.838,0,1.469-0.177,1.894-0.531s0.637-0.77,0.637-1.244c0-0.305-0.089-0.563-0.268-0.777s-0.491-0.4-0.936-0.559
		c-0.305-0.105-0.999-0.293-2.083-0.563c-1.395-0.346-2.373-0.771-2.936-1.274c-0.791-0.709-1.187-1.573-1.187-2.593
		c0-0.656,0.186-1.27,0.558-1.842c0.372-0.57,0.908-1.006,1.608-1.305s1.545-0.448,2.536-0.448c1.617,0,2.834,0.354,3.652,1.063
		s1.247,1.655,1.288,2.839l-2.602,0.114c-0.111-0.662-0.35-1.139-0.716-1.428c-0.366-0.291-0.916-0.436-1.648-0.436
		c-0.756,0-1.348,0.155-1.775,0.466c-0.275,0.199-0.413,0.466-0.413,0.8c0,0.305,0.129,0.565,0.387,0.782
		c0.328,0.275,1.125,0.563,2.391,0.861s2.202,0.608,2.808,0.927c0.606,0.32,1.081,0.756,1.424,1.311
		c0.343,0.553,0.514,1.237,0.514,2.052c0,0.738-0.205,1.43-0.615,2.074s-0.99,1.124-1.74,1.437c-0.75,0.313-1.685,0.471-2.804,0.471
		c-1.629,0-2.88-0.376-3.753-1.129S158.806,86.606,158.636,85.165z"/>
	<path class="st33" d="M177.427,89.357V87.96c-0.34,0.498-0.787,0.891-1.34,1.178s-1.138,0.431-1.753,0.431
		c-0.627,0-1.189-0.138-1.688-0.413s-0.858-0.662-1.081-1.16s-0.334-1.187-0.334-2.065v-5.906h2.47v4.289
		c0,1.313,0.045,2.117,0.136,2.412c0.091,0.297,0.256,0.531,0.497,0.703c0.24,0.174,0.545,0.26,0.914,0.26
		c0.422,0,0.8-0.115,1.134-0.348c0.334-0.23,0.563-0.518,0.686-0.861c0.123-0.342,0.185-1.182,0.185-2.518v-3.938h2.47v9.334
		H177.427z"/>
	<path class="st33" d="M181.408,86.694l2.479-0.378c0.105,0.48,0.319,0.846,0.642,1.094c0.322,0.25,0.773,0.374,1.354,0.374
		c0.639,0,1.119-0.117,1.441-0.352c0.217-0.164,0.325-0.384,0.325-0.659c0-0.188-0.059-0.343-0.176-0.466
		c-0.123-0.117-0.398-0.226-0.826-0.325c-1.992-0.439-3.255-0.841-3.788-1.204c-0.738-0.504-1.107-1.204-1.107-2.101
		c0-0.809,0.319-1.488,0.958-2.039s1.629-0.826,2.971-0.826c1.277,0,2.227,0.208,2.848,0.624s1.049,1.031,1.283,1.846l-2.329,0.431
		c-0.1-0.363-0.289-0.642-0.567-0.835s-0.675-0.29-1.191-0.29c-0.65,0-1.116,0.091-1.397,0.272
		c-0.188,0.129-0.281,0.296-0.281,0.501c0,0.176,0.082,0.325,0.246,0.448c0.223,0.164,0.992,0.396,2.307,0.694
		s2.234,0.665,2.755,1.099c0.516,0.439,0.773,1.052,0.773,1.837c0,0.855-0.357,1.591-1.072,2.206s-1.772,0.923-3.173,0.923
		c-1.271,0-2.278-0.258-3.019-0.773S181.637,87.579,181.408,86.694z"/>
	<path class="st33" d="M196.569,80.023v1.969h-1.688v3.762c0,0.762,0.016,1.206,0.048,1.332s0.105,0.229,0.22,0.312
		s0.253,0.123,0.417,0.123c0.229,0,0.56-0.079,0.993-0.237l0.211,1.916c-0.574,0.246-1.225,0.369-1.951,0.369
		c-0.445,0-0.847-0.074-1.204-0.225c-0.357-0.148-0.62-0.342-0.787-0.58c-0.167-0.236-0.283-0.558-0.347-0.962
		c-0.053-0.287-0.079-0.867-0.079-1.74v-4.069h-1.134v-1.969h1.134v-1.854l2.479-1.441v3.296H196.569z"/>
	<path class="st33" d="M200.129,82.871l-2.241-0.404c0.252-0.902,0.686-1.57,1.301-2.004s1.529-0.65,2.742-0.65
		c1.102,0,1.922,0.131,2.461,0.391c0.539,0.262,0.919,0.593,1.139,0.994s0.329,1.138,0.329,2.21l-0.026,2.883
		c0,0.82,0.04,1.426,0.119,1.815s0.227,0.807,0.443,1.252h-2.443c-0.064-0.164-0.144-0.407-0.237-0.729
		c-0.041-0.146-0.07-0.243-0.088-0.29c-0.422,0.41-0.873,0.718-1.354,0.923s-0.993,0.308-1.538,0.308
		c-0.961,0-1.718-0.261-2.272-0.782c-0.554-0.521-0.831-1.181-0.831-1.978c0-0.527,0.126-0.998,0.378-1.41
		c0.252-0.414,0.605-0.73,1.06-0.949c0.454-0.221,1.108-0.412,1.964-0.576c1.154-0.217,1.954-0.419,2.399-0.606v-0.246
		c0-0.475-0.117-0.813-0.352-1.015c-0.234-0.203-0.677-0.304-1.327-0.304c-0.439,0-0.782,0.087-1.028,0.259
		C200.48,82.135,200.281,82.438,200.129,82.871z M203.434,84.875c-0.316,0.105-0.817,0.231-1.503,0.378s-1.134,0.29-1.345,0.431
		c-0.322,0.229-0.483,0.519-0.483,0.87c0,0.346,0.129,0.645,0.387,0.896s0.586,0.378,0.984,0.378c0.445,0,0.87-0.146,1.274-0.439
		c0.299-0.223,0.495-0.495,0.589-0.817c0.064-0.211,0.097-0.612,0.097-1.204V84.875z"/>
	<path class="st33" d="M208.294,78.758v-2.285h2.47v2.285H208.294z M208.294,89.357v-9.334h2.47v9.334H208.294z"/>
	<path class="st33" d="M221.785,89.357h-2.47v-4.764c0-1.008-0.053-1.659-0.158-1.955s-0.276-0.526-0.514-0.69
		s-0.523-0.246-0.857-0.246c-0.428,0-0.812,0.117-1.151,0.352s-0.572,0.545-0.698,0.932s-0.189,1.102-0.189,2.145v4.228h-2.47
		v-9.334h2.294v1.371c0.814-1.055,1.84-1.582,3.076-1.582c0.545,0,1.043,0.099,1.494,0.295s0.793,0.446,1.024,0.751
		s0.393,0.65,0.483,1.037s0.136,0.94,0.136,1.661V89.357z"/>
	<path class="st33" d="M226.136,82.871l-2.241-0.404c0.252-0.902,0.686-1.57,1.301-2.004s1.529-0.65,2.742-0.65
		c1.102,0,1.922,0.131,2.461,0.391c0.539,0.262,0.919,0.593,1.139,0.994s0.329,1.138,0.329,2.21l-0.026,2.883
		c0,0.82,0.04,1.426,0.119,1.815s0.227,0.807,0.443,1.252h-2.443c-0.064-0.164-0.144-0.407-0.237-0.729
		c-0.041-0.146-0.07-0.243-0.088-0.29c-0.422,0.41-0.873,0.718-1.354,0.923s-0.993,0.308-1.538,0.308
		c-0.961,0-1.718-0.261-2.271-0.782s-0.831-1.181-0.831-1.978c0-0.527,0.126-0.998,0.378-1.41c0.252-0.414,0.605-0.73,1.06-0.949
		c0.454-0.221,1.108-0.412,1.964-0.576c1.154-0.217,1.954-0.419,2.399-0.606v-0.246c0-0.475-0.117-0.813-0.352-1.015
		c-0.234-0.203-0.677-0.304-1.327-0.304c-0.439,0-0.782,0.087-1.028,0.259C226.487,82.135,226.288,82.438,226.136,82.871z
		 M229.44,84.875c-0.316,0.105-0.817,0.231-1.503,0.378s-1.134,0.29-1.345,0.431c-0.322,0.229-0.483,0.519-0.483,0.87
		c0,0.346,0.129,0.645,0.387,0.896s0.586,0.378,0.984,0.378c0.445,0,0.87-0.146,1.274-0.439c0.299-0.223,0.495-0.495,0.589-0.817
		c0.064-0.211,0.097-0.612,0.097-1.204V84.875z"/>
	<path class="st33" d="M234.195,89.357V76.473h2.47v4.641c0.762-0.867,1.664-1.301,2.707-1.301c1.137,0,2.077,0.412,2.821,1.234
		c0.744,0.824,1.116,2.006,1.116,3.547c0,1.594-0.379,2.821-1.138,3.683s-1.681,1.292-2.765,1.292c-0.533,0-1.059-0.134-1.577-0.4
		c-0.519-0.266-0.966-0.66-1.341-1.182v1.371H234.195z M236.647,84.488c0,0.967,0.152,1.682,0.457,2.145
		c0.428,0.656,0.996,0.984,1.705,0.984c0.545,0,1.01-0.232,1.394-0.699c0.384-0.465,0.575-1.199,0.575-2.201
		c0-1.066-0.193-1.835-0.58-2.307s-0.882-0.708-1.485-0.708c-0.592,0-1.084,0.23-1.477,0.69S236.647,83.551,236.647,84.488z"/>
	<path class="st33" d="M245.296,89.357V76.473h2.47v12.885H245.296z"/>
	<path class="st33" d="M255.702,86.387l2.461,0.413c-0.316,0.902-0.815,1.59-1.498,2.062s-1.537,0.707-2.563,0.707
		c-1.623,0-2.824-0.53-3.604-1.591c-0.615-0.85-0.923-1.922-0.923-3.217c0-1.547,0.404-2.758,1.213-3.634s1.831-1.314,3.067-1.314
		c1.389,0,2.484,0.459,3.287,1.375c0.803,0.918,1.187,2.322,1.151,4.215h-6.188c0.018,0.732,0.217,1.303,0.598,1.709
		c0.381,0.408,0.855,0.611,1.424,0.611c0.387,0,0.712-0.105,0.976-0.316S255.567,86.855,255.702,86.387z M255.843,83.891
		c-0.018-0.715-0.202-1.258-0.554-1.631c-0.352-0.371-0.779-0.558-1.283-0.558c-0.539,0-0.984,0.196-1.336,0.589
		s-0.524,0.926-0.519,1.6H255.843z"/>
	<path class="st33" d="M273.57,84.62l2.522,0.8c-0.387,1.406-1.029,2.451-1.929,3.133c-0.899,0.684-2.041,1.024-3.424,1.024
		c-1.711,0-3.117-0.585-4.219-1.753c-1.102-1.17-1.652-2.768-1.652-4.795c0-2.145,0.554-3.811,1.661-4.996
		c1.107-1.188,2.563-1.78,4.368-1.78c1.576,0,2.856,0.466,3.841,1.397c0.586,0.551,1.025,1.342,1.318,2.373l-2.575,0.615
		c-0.152-0.668-0.47-1.195-0.953-1.582s-1.071-0.58-1.763-0.58c-0.955,0-1.729,0.343-2.324,1.028s-0.893,1.796-0.893,3.331
		c0,1.629,0.293,2.789,0.879,3.48s1.348,1.037,2.285,1.037c0.691,0,1.286-0.22,1.784-0.659S273.354,85.563,273.57,84.62z"/>
	<path class="st33" d="M278.308,78.758v-2.285h2.47v2.285H278.308z M278.308,89.357v-9.334h2.47v9.334H278.308z"/>
	<path class="st33" d="M287.589,80.023v1.969h-1.688v3.762c0,0.762,0.017,1.206,0.049,1.332s0.105,0.229,0.22,0.312
		s0.253,0.123,0.417,0.123c0.229,0,0.56-0.079,0.993-0.237l0.211,1.916c-0.574,0.246-1.225,0.369-1.951,0.369
		c-0.445,0-0.847-0.074-1.204-0.225c-0.357-0.148-0.619-0.342-0.786-0.58c-0.167-0.236-0.283-0.558-0.348-0.962
		c-0.053-0.287-0.079-0.867-0.079-1.74v-4.069h-1.134v-1.969h1.134v-1.854l2.479-1.441v3.296H287.589z"/>
	<path class="st33" d="M289.303,78.758v-2.285h2.47v2.285H289.303z M289.303,89.357v-9.334h2.47v9.334H289.303z"/>
	<path class="st33" d="M299.709,86.387l2.461,0.413c-0.316,0.902-0.815,1.59-1.498,2.062s-1.537,0.707-2.563,0.707
		c-1.623,0-2.824-0.53-3.604-1.591c-0.615-0.85-0.923-1.922-0.923-3.217c0-1.547,0.404-2.758,1.213-3.634s1.831-1.314,3.067-1.314
		c1.389,0,2.484,0.459,3.287,1.375c0.803,0.918,1.187,2.322,1.151,4.215h-6.188c0.018,0.732,0.217,1.303,0.598,1.709
		c0.381,0.408,0.855,0.611,1.424,0.611c0.387,0,0.712-0.105,0.976-0.316S299.574,86.855,299.709,86.387z M299.85,83.891
		c-0.018-0.715-0.202-1.258-0.554-1.631c-0.352-0.371-0.779-0.558-1.283-0.558c-0.539,0-0.984,0.196-1.336,0.589
		s-0.524,0.926-0.519,1.6H299.85z"/>
	<path class="st33" d="M303.444,86.694l2.479-0.378c0.105,0.48,0.319,0.846,0.642,1.094c0.322,0.25,0.773,0.374,1.354,0.374
		c0.639,0,1.119-0.117,1.441-0.352c0.217-0.164,0.325-0.384,0.325-0.659c0-0.188-0.059-0.343-0.176-0.466
		c-0.123-0.117-0.398-0.226-0.826-0.325c-1.992-0.439-3.255-0.841-3.788-1.204c-0.738-0.504-1.107-1.204-1.107-2.101
		c0-0.809,0.319-1.488,0.958-2.039s1.629-0.826,2.971-0.826c1.277,0,2.227,0.208,2.848,0.624s1.049,1.031,1.283,1.846l-2.329,0.431
		c-0.1-0.363-0.288-0.642-0.566-0.835s-0.676-0.29-1.191-0.29c-0.65,0-1.116,0.091-1.397,0.272
		c-0.188,0.129-0.281,0.296-0.281,0.501c0,0.176,0.082,0.325,0.246,0.448c0.223,0.164,0.992,0.396,2.308,0.694
		s2.233,0.665,2.755,1.099c0.516,0.439,0.773,1.052,0.773,1.837c0,0.855-0.357,1.591-1.072,2.206s-1.772,0.923-3.173,0.923
		c-1.271,0-2.277-0.258-3.019-0.773S303.673,87.579,303.444,86.694z"/>
	<path class="st33" d="M317.999,85.613v-1.846h10.011v1.846H317.999z"/>
	<path class="st33" d="M334.276,89.357V76.473h2.602v12.885H334.276z"/>
	<path class="st33" d="M347.601,84.62l2.522,0.8c-0.387,1.406-1.029,2.451-1.929,3.133c-0.899,0.684-2.041,1.024-3.424,1.024
		c-1.711,0-3.117-0.585-4.219-1.753c-1.102-1.17-1.652-2.768-1.652-4.795c0-2.145,0.554-3.811,1.661-4.996
		c1.107-1.188,2.563-1.78,4.368-1.78c1.576,0,2.856,0.466,3.841,1.397c0.586,0.551,1.025,1.342,1.318,2.373l-2.575,0.615
		c-0.152-0.668-0.47-1.195-0.953-1.582s-1.071-0.58-1.763-0.58c-0.955,0-1.729,0.343-2.324,1.028s-0.893,1.796-0.893,3.331
		c0,1.629,0.293,2.789,0.879,3.48s1.348,1.037,2.285,1.037c0.691,0,1.286-0.22,1.784-0.659S347.384,85.563,347.601,84.62z"/>
	<path class="st33" d="M360.6,84.62l2.522,0.8c-0.387,1.406-1.029,2.451-1.929,3.133c-0.899,0.684-2.041,1.024-3.424,1.024
		c-1.711,0-3.117-0.585-4.219-1.753c-1.102-1.17-1.652-2.768-1.652-4.795c0-2.145,0.554-3.811,1.661-4.996
		c1.107-1.188,2.563-1.78,4.368-1.78c1.576,0,2.856,0.466,3.841,1.397c0.586,0.551,1.025,1.342,1.318,2.373l-2.575,0.615
		c-0.152-0.668-0.47-1.195-0.953-1.582s-1.071-0.58-1.763-0.58c-0.955,0-1.729,0.343-2.324,1.028s-0.893,1.796-0.893,3.331
		c0,1.629,0.293,2.789,0.879,3.48s1.348,1.037,2.285,1.037c0.691,0,1.286-0.22,1.784-0.659S360.383,85.563,360.6,84.62z"/>
	<path class="st33" d="M376.974,89.357h-2.83l-1.125-2.927h-5.15l-1.063,2.927h-2.76l5.019-12.885h2.751L376.974,89.357z
		 M372.184,84.26l-1.775-4.781l-1.74,4.781H372.184z"/>
	<path class="st33" d="M378.362,89.357V76.473h5.476c1.377,0,2.378,0.116,3.002,0.348s1.123,0.643,1.498,1.234
		s0.563,1.269,0.563,2.03c0,0.967-0.284,1.766-0.853,2.396s-1.418,1.026-2.549,1.19c0.563,0.328,1.027,0.688,1.394,1.081
		s0.859,1.09,1.48,2.092l1.573,2.514h-3.111l-1.881-2.804c-0.668-1.002-1.125-1.633-1.371-1.894s-0.507-0.439-0.782-0.537
		c-0.275-0.096-0.712-0.145-1.31-0.145h-0.527v5.379H378.362z M380.964,81.922h1.925c1.248,0,2.027-0.053,2.338-0.158
		s0.554-0.287,0.729-0.545s0.264-0.58,0.264-0.967c0-0.434-0.115-0.783-0.347-1.051c-0.231-0.266-0.559-0.435-0.98-0.505
		c-0.211-0.029-0.844-0.044-1.898-0.044h-2.03V81.922z"/>
</g>
<g class="st32">
	<path d="M68.346,95.987h1.042v4.55c0,0.791-0.089,1.419-0.269,1.885s-0.502,0.844-0.97,1.136c-0.467,0.292-1.08,0.438-1.839,0.438
		c-0.738,0-1.341-0.128-1.81-0.382s-0.804-0.622-1.004-1.104s-0.301-1.14-0.301-1.974v-4.55h1.042v4.544
		c0,0.684,0.063,1.188,0.191,1.512c0.127,0.324,0.345,0.574,0.655,0.75c0.31,0.175,0.688,0.263,1.136,0.263
		c0.766,0,1.313-0.174,1.638-0.521c0.326-0.348,0.489-1.016,0.489-2.004V95.987z"/>
	<path d="M70.999,103.861v-5.704h0.87v0.812c0.419-0.627,1.024-0.94,1.815-0.94c0.344,0,0.66,0.062,0.948,0.186
		c0.289,0.123,0.504,0.285,0.647,0.485c0.143,0.201,0.244,0.439,0.301,0.715c0.036,0.179,0.054,0.492,0.054,0.939v3.508h-0.967
		v-3.47c0-0.394-0.038-0.688-0.113-0.884s-0.208-0.351-0.4-0.467c-0.192-0.116-0.417-0.175-0.674-0.175
		c-0.412,0-0.767,0.131-1.066,0.392c-0.299,0.262-0.449,0.758-0.449,1.488v3.115H70.999z"/>
	<path d="M77.122,97.1v-1.112h0.967V97.1H77.122z M77.122,103.861v-5.704h0.967v5.704H77.122z"/>
	<path d="M81.671,102.996l0.14,0.854c-0.272,0.058-0.516,0.086-0.73,0.086c-0.351,0-0.623-0.056-0.816-0.167
		c-0.193-0.11-0.33-0.257-0.408-0.438s-0.118-0.561-0.118-1.141v-3.282h-0.709v-0.752h0.709v-1.413l0.961-0.58v1.993h0.972v0.752
		h-0.972v3.335c0,0.276,0.017,0.453,0.051,0.532c0.034,0.079,0.089,0.142,0.166,0.188c0.077,0.046,0.188,0.069,0.331,0.069
		C81.354,103.034,81.496,103.021,81.671,102.996z"/>
	<path d="M86.521,102.024l0.999,0.124c-0.158,0.583-0.449,1.036-0.875,1.358s-0.97,0.483-1.633,0.483
		c-0.834,0-1.496-0.257-1.985-0.771c-0.488-0.514-0.733-1.234-0.733-2.162c0-0.96,0.247-1.704,0.741-2.234s1.135-0.795,1.923-0.795
		c0.763,0,1.386,0.26,1.869,0.778c0.483,0.52,0.725,1.25,0.725,2.191c0,0.058-0.002,0.144-0.005,0.258h-4.254
		c0.036,0.627,0.213,1.107,0.532,1.439c0.319,0.334,0.716,0.5,1.192,0.5c0.354,0,0.657-0.093,0.908-0.279
		S86.375,102.433,86.521,102.024z M83.347,100.461h3.185c-0.043-0.479-0.165-0.839-0.365-1.079
		c-0.308-0.372-0.707-0.559-1.198-0.559c-0.444,0-0.817,0.148-1.12,0.446C83.547,99.566,83.379,99.964,83.347,100.461z"/>
	<path d="M92.435,103.861v-0.72c-0.362,0.565-0.894,0.849-1.595,0.849c-0.455,0-0.873-0.125-1.254-0.376
		c-0.381-0.251-0.677-0.601-0.886-1.05c-0.21-0.449-0.314-0.966-0.314-1.55c0-0.569,0.095-1.086,0.285-1.55s0.475-0.818,0.854-1.066
		c0.379-0.246,0.804-0.37,1.273-0.37c0.344,0,0.65,0.072,0.918,0.218c0.269,0.145,0.487,0.334,0.655,0.566v-2.825h0.961v7.874
		H92.435z M89.379,101.015c0,0.73,0.154,1.276,0.462,1.638c0.308,0.362,0.671,0.543,1.09,0.543c0.422,0,0.781-0.173,1.077-0.519
		c0.295-0.346,0.443-0.872,0.443-1.581c0-0.781-0.15-1.354-0.451-1.719s-0.671-0.549-1.112-0.549c-0.43,0-0.789,0.176-1.077,0.527
		C89.523,99.706,89.379,100.259,89.379,101.015z"/>
	<path d="M98.021,103.861v-7.874h1.069l4.136,6.183v-6.183h0.999v7.874h-1.069l-4.136-6.188v6.188H98.021z"/>
	<path d="M109.574,103.158c-0.358,0.304-0.703,0.519-1.034,0.645c-0.331,0.125-0.687,0.188-1.066,0.188
		c-0.626,0-1.108-0.153-1.445-0.459c-0.336-0.307-0.505-0.697-0.505-1.174c0-0.279,0.063-0.534,0.19-0.766
		c0.127-0.23,0.294-0.416,0.5-0.556c0.206-0.14,0.438-0.245,0.695-0.317c0.19-0.05,0.476-0.098,0.859-0.145
		c0.781-0.093,1.355-0.204,1.724-0.333c0.003-0.133,0.005-0.217,0.005-0.253c0-0.394-0.091-0.671-0.274-0.832
		c-0.247-0.219-0.614-0.328-1.101-0.328c-0.455,0-0.791,0.08-1.007,0.239c-0.217,0.159-0.377,0.441-0.481,0.847l-0.945-0.129
		c0.086-0.405,0.228-0.731,0.424-0.98s0.481-0.44,0.854-0.575c0.373-0.134,0.804-0.201,1.294-0.201c0.487,0,0.883,0.058,1.187,0.172
		s0.528,0.259,0.671,0.433s0.244,0.393,0.301,0.658c0.032,0.164,0.048,0.461,0.048,0.891v1.289c0,0.899,0.021,1.468,0.062,1.706
		c0.041,0.238,0.123,0.466,0.244,0.685h-1.01C109.667,103.661,109.603,103.426,109.574,103.158z M109.494,100.998
		c-0.351,0.144-0.877,0.266-1.579,0.365c-0.397,0.058-0.679,0.122-0.843,0.193c-0.165,0.072-0.292,0.177-0.381,0.314
		s-0.134,0.291-0.134,0.459c0,0.258,0.098,0.473,0.293,0.645c0.195,0.172,0.48,0.258,0.856,0.258c0.373,0,0.704-0.081,0.994-0.244
		s0.503-0.386,0.639-0.668c0.104-0.219,0.156-0.541,0.156-0.967V100.998z"/>
	<path d="M114.081,102.996l0.14,0.854c-0.272,0.058-0.516,0.086-0.73,0.086c-0.351,0-0.623-0.056-0.816-0.167
		c-0.193-0.11-0.33-0.257-0.408-0.438s-0.118-0.561-0.118-1.141v-3.282h-0.709v-0.752h0.709v-1.413l0.961-0.58v1.993h0.972v0.752
		h-0.972v3.335c0,0.276,0.017,0.453,0.051,0.532c0.034,0.079,0.089,0.142,0.166,0.188c0.077,0.046,0.188,0.069,0.331,0.069
		C113.764,103.034,113.905,103.021,114.081,102.996z"/>
	<path d="M115.031,97.1v-1.112h0.967V97.1H115.031z M115.031,103.861v-5.704h0.967v5.704H115.031z"/>
	<path d="M117.11,101.01c0-1.057,0.293-1.839,0.881-2.348c0.491-0.423,1.088-0.634,1.794-0.634c0.784,0,1.425,0.257,1.923,0.771
		s0.747,1.224,0.747,2.13c0,0.734-0.11,1.312-0.331,1.732c-0.22,0.421-0.541,0.747-0.961,0.979c-0.421,0.233-0.88,0.35-1.378,0.35
		c-0.798,0-1.444-0.256-1.937-0.768C117.356,102.71,117.11,101.973,117.11,101.01z M118.104,101.01c0,0.73,0.159,1.277,0.478,1.641
		s0.72,0.545,1.203,0.545c0.48,0,0.879-0.183,1.198-0.548s0.478-0.922,0.478-1.671c0-0.705-0.16-1.239-0.48-1.603
		c-0.321-0.363-0.719-0.546-1.195-0.546c-0.483,0-0.884,0.182-1.203,0.543S118.104,100.279,118.104,101.01z"/>
	<path d="M123.587,103.861v-5.704h0.87v0.812c0.419-0.627,1.024-0.94,1.815-0.94c0.344,0,0.66,0.062,0.948,0.186
		c0.289,0.123,0.504,0.285,0.647,0.485c0.143,0.201,0.244,0.439,0.301,0.715c0.036,0.179,0.054,0.492,0.054,0.939v3.508h-0.967
		v-3.47c0-0.394-0.038-0.688-0.113-0.884s-0.208-0.351-0.4-0.467c-0.192-0.116-0.417-0.175-0.674-0.175
		c-0.412,0-0.767,0.131-1.066,0.392c-0.299,0.262-0.449,0.758-0.449,1.488v3.115H123.587z"/>
	<path d="M129.318,102.158l0.956-0.15c0.054,0.384,0.203,0.678,0.449,0.881c0.245,0.205,0.588,0.307,1.028,0.307
		c0.444,0,0.773-0.091,0.988-0.271s0.322-0.393,0.322-0.637c0-0.218-0.095-0.39-0.285-0.516c-0.132-0.086-0.462-0.194-0.988-0.327
		c-0.709-0.179-1.201-0.334-1.474-0.465c-0.274-0.131-0.482-0.312-0.623-0.542c-0.142-0.231-0.212-0.486-0.212-0.766
		c0-0.254,0.058-0.489,0.174-0.706c0.117-0.217,0.275-0.396,0.476-0.54c0.15-0.111,0.355-0.205,0.615-0.282
		c0.259-0.077,0.538-0.115,0.835-0.115c0.448,0,0.841,0.064,1.179,0.193c0.339,0.129,0.588,0.304,0.75,0.523
		c0.161,0.221,0.272,0.515,0.333,0.884l-0.945,0.129c-0.043-0.294-0.167-0.522-0.374-0.688c-0.206-0.165-0.497-0.247-0.873-0.247
		c-0.444,0-0.761,0.073-0.951,0.22c-0.19,0.147-0.285,0.319-0.285,0.516c0,0.126,0.04,0.238,0.118,0.339
		c0.079,0.104,0.202,0.189,0.371,0.258c0.097,0.036,0.381,0.118,0.854,0.247c0.684,0.183,1.161,0.332,1.431,0.448
		c0.271,0.116,0.483,0.286,0.637,0.508s0.231,0.498,0.231,0.827c0,0.322-0.094,0.626-0.282,0.91
		c-0.188,0.285-0.459,0.505-0.814,0.661c-0.354,0.155-0.755,0.233-1.203,0.233c-0.741,0-1.306-0.154-1.695-0.462
		C129.674,103.221,129.426,102.764,129.318,102.158z"/>
</g>
<g class="st32">
	<path d="M6.33,115.862v-7.874h5.693v0.929H7.372v2.412h4.356v0.924H7.372v2.68h4.834v0.93H6.33z"/>
	<path d="M17.223,115.862v-0.72c-0.362,0.565-0.894,0.849-1.595,0.849c-0.455,0-0.873-0.125-1.254-0.376
		c-0.381-0.251-0.677-0.601-0.886-1.05c-0.21-0.449-0.314-0.966-0.314-1.55c0-0.569,0.095-1.086,0.285-1.55s0.475-0.818,0.854-1.066
		c0.379-0.246,0.804-0.37,1.273-0.37c0.344,0,0.65,0.072,0.918,0.218c0.269,0.145,0.487,0.334,0.655,0.566v-2.825h0.961v7.874
		H17.223z M14.167,113.016c0,0.73,0.154,1.276,0.462,1.638c0.308,0.362,0.671,0.543,1.09,0.543c0.422,0,0.781-0.173,1.077-0.519
		c0.295-0.346,0.443-0.872,0.443-1.581c0-0.781-0.15-1.354-0.451-1.719s-0.671-0.549-1.112-0.549c-0.43,0-0.789,0.176-1.077,0.527
		C14.311,111.707,14.167,112.26,14.167,113.016z"/>
	<path d="M23.378,115.862v-0.838c-0.444,0.645-1.047,0.967-1.81,0.967c-0.336,0-0.651-0.064-0.942-0.193
		c-0.292-0.129-0.509-0.291-0.65-0.486c-0.141-0.195-0.241-0.434-0.298-0.717c-0.04-0.189-0.059-0.49-0.059-0.902v-3.534h0.967
		v3.163c0,0.506,0.02,0.846,0.059,1.021c0.061,0.254,0.19,0.453,0.387,0.599c0.197,0.145,0.44,0.218,0.73,0.218
		s0.562-0.075,0.816-0.224s0.434-0.351,0.54-0.606c0.105-0.256,0.158-0.628,0.158-1.115v-3.056h0.967v5.704H23.378z"/>
	<path d="M29.479,113.772l0.951,0.124c-0.104,0.655-0.37,1.168-0.797,1.539c-0.428,0.37-0.954,0.556-1.577,0.556
		c-0.781,0-1.408-0.255-1.882-0.766c-0.475-0.51-0.712-1.241-0.712-2.193c0-0.616,0.102-1.155,0.306-1.617s0.515-0.809,0.932-1.039
		c0.417-0.231,0.871-0.347,1.361-0.347c0.62,0,1.126,0.156,1.52,0.47s0.646,0.759,0.757,1.335l-0.94,0.146
		c-0.089-0.384-0.248-0.672-0.475-0.865c-0.228-0.193-0.502-0.29-0.825-0.29c-0.487,0-0.883,0.175-1.187,0.523
		c-0.304,0.35-0.457,0.901-0.457,1.657c0,0.767,0.147,1.323,0.44,1.67c0.293,0.348,0.677,0.521,1.149,0.521
		c0.379,0,0.696-0.116,0.951-0.35C29.25,114.614,29.412,114.257,29.479,113.772z"/>
	<path d="M34.979,115.159c-0.358,0.304-0.703,0.519-1.034,0.645c-0.331,0.125-0.687,0.188-1.066,0.188
		c-0.626,0-1.108-0.153-1.445-0.459c-0.336-0.307-0.505-0.697-0.505-1.174c0-0.279,0.063-0.534,0.19-0.766
		c0.127-0.23,0.294-0.416,0.5-0.556c0.206-0.14,0.438-0.245,0.695-0.317c0.19-0.05,0.476-0.098,0.859-0.145
		c0.781-0.093,1.355-0.204,1.724-0.333c0.003-0.133,0.005-0.217,0.005-0.253c0-0.394-0.091-0.671-0.274-0.832
		c-0.247-0.219-0.614-0.328-1.101-0.328c-0.455,0-0.791,0.08-1.007,0.239c-0.217,0.159-0.377,0.441-0.481,0.847l-0.945-0.129
		c0.086-0.405,0.228-0.731,0.424-0.98s0.481-0.44,0.854-0.575c0.373-0.134,0.804-0.201,1.294-0.201c0.487,0,0.883,0.058,1.187,0.172
		s0.528,0.259,0.671,0.433s0.244,0.393,0.301,0.658c0.032,0.164,0.048,0.461,0.048,0.891v1.289c0,0.899,0.021,1.468,0.062,1.706
		c0.041,0.238,0.123,0.466,0.244,0.685h-1.01C35.073,115.662,35.008,115.427,34.979,115.159z M34.899,112.999
		c-0.351,0.144-0.877,0.266-1.579,0.365c-0.397,0.058-0.679,0.122-0.843,0.193c-0.165,0.072-0.292,0.177-0.381,0.314
		s-0.134,0.291-0.134,0.459c0,0.258,0.098,0.473,0.293,0.645c0.195,0.172,0.48,0.258,0.856,0.258c0.373,0,0.704-0.081,0.994-0.244
		s0.503-0.386,0.639-0.668c0.104-0.219,0.156-0.541,0.156-0.967V112.999z"/>
	<path d="M39.486,114.997l0.14,0.854c-0.272,0.058-0.516,0.086-0.73,0.086c-0.351,0-0.623-0.056-0.816-0.167
		c-0.193-0.11-0.33-0.257-0.408-0.438s-0.118-0.561-0.118-1.141v-3.282h-0.709v-0.752h0.709v-1.413l0.961-0.58v1.993h0.972v0.752
		h-0.972v3.335c0,0.276,0.017,0.453,0.051,0.532c0.034,0.079,0.089,0.142,0.166,0.188c0.077,0.046,0.188,0.069,0.331,0.069
		C39.169,115.035,39.311,115.022,39.486,114.997z"/>
	<path d="M40.437,109.101v-1.112h0.967v1.112H40.437z M40.437,115.862v-5.704h0.967v5.704H40.437z"/>
	<path d="M42.515,113.011c0-1.057,0.293-1.839,0.881-2.348c0.491-0.423,1.088-0.634,1.794-0.634c0.784,0,1.425,0.257,1.923,0.771
		s0.747,1.224,0.747,2.13c0,0.734-0.11,1.312-0.331,1.732c-0.22,0.421-0.541,0.747-0.961,0.979c-0.421,0.233-0.88,0.35-1.378,0.35
		c-0.798,0-1.444-0.256-1.937-0.768C42.761,114.711,42.515,113.974,42.515,113.011z M43.509,113.011c0,0.73,0.159,1.277,0.478,1.641
		s0.72,0.545,1.203,0.545c0.48,0,0.879-0.183,1.198-0.548s0.478-0.922,0.478-1.671c0-0.705-0.16-1.239-0.48-1.603
		c-0.321-0.363-0.719-0.546-1.195-0.546c-0.483,0-0.884,0.182-1.203,0.543S43.509,112.28,43.509,113.011z"/>
	<path d="M48.993,115.862v-5.704h0.87v0.812c0.419-0.627,1.024-0.94,1.815-0.94c0.344,0,0.66,0.062,0.948,0.186
		c0.289,0.123,0.504,0.285,0.647,0.485c0.143,0.201,0.244,0.439,0.301,0.715c0.036,0.179,0.054,0.492,0.054,0.939v3.508h-0.967
		v-3.47c0-0.394-0.038-0.688-0.113-0.884s-0.208-0.351-0.4-0.467c-0.192-0.116-0.417-0.175-0.674-0.175
		c-0.412,0-0.767,0.131-1.066,0.392c-0.299,0.262-0.449,0.758-0.449,1.488v3.115H48.993z"/>
	<path d="M58.833,115.159c-0.358,0.304-0.703,0.519-1.034,0.645c-0.331,0.125-0.687,0.188-1.066,0.188
		c-0.626,0-1.108-0.153-1.445-0.459c-0.336-0.307-0.505-0.697-0.505-1.174c0-0.279,0.063-0.534,0.19-0.766
		c0.127-0.23,0.294-0.416,0.5-0.556c0.206-0.14,0.438-0.245,0.695-0.317c0.19-0.05,0.476-0.098,0.859-0.145
		c0.781-0.093,1.355-0.204,1.724-0.333c0.003-0.133,0.005-0.217,0.005-0.253c0-0.394-0.091-0.671-0.274-0.832
		c-0.247-0.219-0.614-0.328-1.101-0.328c-0.455,0-0.791,0.08-1.007,0.239c-0.217,0.159-0.377,0.441-0.481,0.847l-0.945-0.129
		c0.086-0.405,0.228-0.731,0.424-0.98s0.481-0.44,0.854-0.575c0.373-0.134,0.804-0.201,1.294-0.201c0.487,0,0.883,0.058,1.187,0.172
		s0.528,0.259,0.671,0.433s0.244,0.393,0.301,0.658c0.032,0.164,0.048,0.461,0.048,0.891v1.289c0,0.899,0.021,1.468,0.062,1.706
		c0.041,0.238,0.123,0.466,0.244,0.685h-1.01C58.926,115.662,58.861,115.427,58.833,115.159z M58.752,112.999
		c-0.351,0.144-0.877,0.266-1.579,0.365c-0.397,0.058-0.679,0.122-0.843,0.193c-0.165,0.072-0.292,0.177-0.381,0.314
		s-0.134,0.291-0.134,0.459c0,0.258,0.098,0.473,0.293,0.645c0.195,0.172,0.48,0.258,0.856,0.258c0.373,0,0.704-0.081,0.994-0.244
		s0.503-0.386,0.639-0.668c0.104-0.219,0.156-0.541,0.156-0.967V112.999z"/>
	<path d="M61.207,115.862v-7.874h0.967v7.874H61.207z"/>
	<path d="M63.924,115.862v-1.102h1.101v1.102c0,0.404-0.072,0.731-0.215,0.98s-0.371,0.441-0.682,0.577l-0.269-0.413
		c0.204-0.09,0.354-0.222,0.451-0.396s0.15-0.423,0.161-0.749H63.924z"/>
	<path d="M69.553,113.333l0.983-0.086c0.046,0.394,0.155,0.717,0.325,0.969c0.17,0.253,0.435,0.457,0.792,0.612
		c0.358,0.156,0.761,0.233,1.208,0.233c0.397,0,0.749-0.059,1.053-0.177s0.531-0.28,0.68-0.486c0.148-0.206,0.223-0.431,0.223-0.674
		c0-0.247-0.072-0.463-0.215-0.647s-0.379-0.339-0.709-0.465c-0.211-0.082-0.679-0.21-1.402-0.384s-1.23-0.337-1.52-0.491
		c-0.376-0.197-0.656-0.441-0.841-0.733c-0.184-0.292-0.276-0.618-0.276-0.979c0-0.398,0.113-0.77,0.338-1.115
		s0.555-0.607,0.988-0.787c0.433-0.179,0.915-0.268,1.445-0.268c0.583,0,1.099,0.094,1.544,0.281
		c0.446,0.188,0.789,0.465,1.029,0.83s0.369,0.779,0.387,1.24l-0.999,0.076c-0.054-0.498-0.235-0.874-0.545-1.129
		c-0.31-0.254-0.767-0.381-1.372-0.381c-0.63,0-1.089,0.115-1.378,0.347c-0.288,0.23-0.432,0.509-0.432,0.835
		c0,0.283,0.102,0.516,0.306,0.698c0.201,0.183,0.724,0.37,1.571,0.562c0.847,0.191,1.428,0.358,1.743,0.502
		c0.458,0.211,0.797,0.479,1.015,0.803s0.328,0.697,0.328,1.12c0,0.419-0.12,0.813-0.36,1.185c-0.24,0.37-0.584,0.658-1.034,0.864
		c-0.449,0.206-0.955,0.31-1.517,0.31c-0.712,0-1.31-0.104-1.792-0.313c-0.481-0.207-0.859-0.52-1.133-0.937
		C69.711,114.331,69.567,113.858,69.553,113.333z"/>
	<path d="M80.843,113.772l0.951,0.124c-0.104,0.655-0.37,1.168-0.797,1.539c-0.428,0.37-0.954,0.556-1.577,0.556
		c-0.781,0-1.408-0.255-1.882-0.766c-0.475-0.51-0.712-1.241-0.712-2.193c0-0.616,0.102-1.155,0.306-1.617s0.515-0.809,0.932-1.039
		c0.417-0.231,0.871-0.347,1.361-0.347c0.62,0,1.126,0.156,1.52,0.47s0.646,0.759,0.757,1.335l-0.94,0.146
		c-0.089-0.384-0.248-0.672-0.475-0.865c-0.228-0.193-0.502-0.29-0.825-0.29c-0.487,0-0.883,0.175-1.187,0.523
		c-0.304,0.35-0.457,0.901-0.457,1.657c0,0.767,0.147,1.323,0.44,1.67c0.293,0.348,0.677,0.521,1.149,0.521
		c0.379,0,0.696-0.116,0.951-0.35C80.614,114.614,80.775,114.257,80.843,113.772z"/>
	<path d="M82.626,109.101v-1.112h0.967v1.112H82.626z M82.626,115.862v-5.704h0.967v5.704H82.626z"/>
	<path d="M88.97,114.025l0.999,0.124c-0.158,0.583-0.449,1.036-0.875,1.358s-0.97,0.483-1.633,0.483
		c-0.834,0-1.496-0.257-1.985-0.771c-0.488-0.514-0.733-1.234-0.733-2.162c0-0.96,0.247-1.704,0.741-2.234s1.135-0.795,1.923-0.795
		c0.763,0,1.386,0.26,1.869,0.778c0.483,0.52,0.725,1.25,0.725,2.191c0,0.058-0.002,0.144-0.005,0.258h-4.254
		c0.036,0.627,0.213,1.107,0.532,1.439c0.319,0.334,0.716,0.5,1.192,0.5c0.354,0,0.657-0.093,0.908-0.279
		S88.823,114.434,88.97,114.025z M85.795,112.462h3.185c-0.043-0.479-0.165-0.839-0.365-1.079c-0.308-0.372-0.707-0.559-1.198-0.559
		c-0.444,0-0.817,0.148-1.12,0.446C85.995,111.567,85.828,111.965,85.795,112.462z"/>
	<path d="M91.183,115.862v-5.704h0.87v0.812c0.419-0.627,1.024-0.94,1.815-0.94c0.344,0,0.66,0.062,0.948,0.186
		c0.289,0.123,0.504,0.285,0.647,0.485c0.143,0.201,0.244,0.439,0.301,0.715c0.036,0.179,0.054,0.492,0.054,0.939v3.508h-0.967
		v-3.47c0-0.394-0.038-0.688-0.113-0.884s-0.208-0.351-0.4-0.467c-0.192-0.116-0.417-0.175-0.674-0.175
		c-0.412,0-0.767,0.131-1.066,0.392c-0.299,0.262-0.449,0.758-0.449,1.488v3.115H91.183z"/>
	<path d="M99.411,114.997l0.14,0.854c-0.272,0.058-0.516,0.086-0.73,0.086c-0.351,0-0.623-0.056-0.816-0.167
		c-0.193-0.11-0.33-0.257-0.408-0.438s-0.118-0.561-0.118-1.141v-3.282h-0.709v-0.752h0.709v-1.413l0.961-0.58v1.993h0.972v0.752
		h-0.972v3.335c0,0.276,0.017,0.453,0.051,0.532c0.034,0.079,0.089,0.142,0.166,0.188c0.077,0.046,0.188,0.069,0.331,0.069
		C99.094,115.035,99.236,115.022,99.411,114.997z"/>
	<path d="M100.362,109.101v-1.112h0.967v1.112H100.362z M100.362,115.862v-5.704h0.967v5.704H100.362z"/>
	<path d="M103.058,115.862v-4.957h-0.859v-0.747h0.859v-0.554c0-0.565,0.122-0.998,0.365-1.299s0.628-0.451,1.155-0.451
		c0.354,0,0.682,0.041,0.983,0.123l-0.15,0.816c-0.19-0.032-0.363-0.049-0.521-0.049c-0.333,0-0.561,0.066-0.682,0.199
		s-0.183,0.414-0.183,0.844v0.37h1.106v0.747h-1.106v4.957H103.058z M105.862,109.101v-1.112h0.967v1.112H105.862z M105.862,115.862
		v-5.704h0.967v5.704H105.862z"/>
	<path d="M112.022,113.772l0.951,0.124c-0.104,0.655-0.37,1.168-0.797,1.539c-0.428,0.37-0.954,0.556-1.577,0.556
		c-0.781,0-1.408-0.255-1.882-0.766c-0.475-0.51-0.712-1.241-0.712-2.193c0-0.616,0.102-1.155,0.306-1.617s0.515-0.809,0.932-1.039
		c0.417-0.231,0.871-0.347,1.361-0.347c0.62,0,1.126,0.156,1.52,0.47s0.646,0.759,0.757,1.335l-0.94,0.146
		c-0.089-0.384-0.248-0.672-0.475-0.865c-0.228-0.193-0.502-0.29-0.825-0.29c-0.487,0-0.883,0.175-1.187,0.523
		c-0.304,0.35-0.457,0.901-0.457,1.657c0,0.767,0.147,1.323,0.44,1.67c0.293,0.348,0.677,0.521,1.149,0.521
		c0.379,0,0.696-0.116,0.951-0.35C111.793,114.614,111.955,114.257,112.022,113.772z"/>
	<path d="M120.579,115.159c-0.358,0.304-0.703,0.519-1.034,0.645c-0.331,0.125-0.687,0.188-1.066,0.188
		c-0.626,0-1.108-0.153-1.445-0.459c-0.336-0.307-0.505-0.697-0.505-1.174c0-0.279,0.063-0.534,0.19-0.766
		c0.127-0.23,0.294-0.416,0.5-0.556c0.206-0.14,0.438-0.245,0.695-0.317c0.19-0.05,0.476-0.098,0.859-0.145
		c0.781-0.093,1.355-0.204,1.724-0.333c0.003-0.133,0.005-0.217,0.005-0.253c0-0.394-0.091-0.671-0.274-0.832
		c-0.247-0.219-0.614-0.328-1.101-0.328c-0.455,0-0.791,0.08-1.007,0.239c-0.217,0.159-0.377,0.441-0.481,0.847l-0.945-0.129
		c0.086-0.405,0.228-0.731,0.424-0.98s0.481-0.44,0.854-0.575c0.373-0.134,0.804-0.201,1.294-0.201c0.487,0,0.883,0.058,1.187,0.172
		s0.528,0.259,0.671,0.433s0.244,0.393,0.301,0.658c0.032,0.164,0.048,0.461,0.048,0.891v1.289c0,0.899,0.021,1.468,0.062,1.706
		c0.041,0.238,0.123,0.466,0.244,0.685h-1.01C120.672,115.662,120.607,115.427,120.579,115.159z M120.498,112.999
		c-0.351,0.144-0.877,0.266-1.579,0.365c-0.397,0.058-0.679,0.122-0.843,0.193c-0.165,0.072-0.292,0.177-0.381,0.314
		s-0.134,0.291-0.134,0.459c0,0.258,0.098,0.473,0.293,0.645c0.195,0.172,0.48,0.258,0.856,0.258c0.373,0,0.704-0.081,0.994-0.244
		s0.503-0.386,0.639-0.668c0.104-0.219,0.156-0.541,0.156-0.967V112.999z"/>
	<path d="M122.974,115.862v-5.704h0.87v0.812c0.419-0.627,1.024-0.94,1.815-0.94c0.344,0,0.66,0.062,0.948,0.186
		c0.289,0.123,0.504,0.285,0.647,0.485c0.143,0.201,0.244,0.439,0.301,0.715c0.036,0.179,0.054,0.492,0.054,0.939v3.508h-0.967
		v-3.47c0-0.394-0.038-0.688-0.113-0.884s-0.208-0.351-0.4-0.467c-0.192-0.116-0.417-0.175-0.674-0.175
		c-0.412,0-0.767,0.131-1.066,0.392c-0.299,0.262-0.449,0.758-0.449,1.488v3.115H122.974z"/>
	<path d="M132.792,115.862v-0.72c-0.362,0.565-0.894,0.849-1.595,0.849c-0.455,0-0.873-0.125-1.254-0.376
		c-0.381-0.251-0.677-0.601-0.886-1.05c-0.21-0.449-0.314-0.966-0.314-1.55c0-0.569,0.095-1.086,0.285-1.55s0.475-0.818,0.854-1.066
		c0.379-0.246,0.804-0.37,1.273-0.37c0.344,0,0.65,0.072,0.918,0.218c0.269,0.145,0.487,0.334,0.655,0.566v-2.825h0.961v7.874
		H132.792z M129.736,113.016c0,0.73,0.154,1.276,0.462,1.638c0.308,0.362,0.671,0.543,1.09,0.543c0.422,0,0.781-0.173,1.077-0.519
		c0.295-0.346,0.443-0.872,0.443-1.581c0-0.781-0.15-1.354-0.451-1.719s-0.671-0.549-1.112-0.549c-0.43,0-0.789,0.176-1.077,0.527
		C129.88,111.707,129.736,112.26,129.736,113.016z"/>
</g>
<g class="st32">
	<path d="M37.623,125.103l1.042,0.263c-0.218,0.856-0.611,1.509-1.179,1.958c-0.568,0.449-1.262,0.675-2.082,0.675
		c-0.849,0-1.539-0.173-2.071-0.519c-0.531-0.346-0.936-0.847-1.214-1.501c-0.277-0.656-0.416-1.359-0.416-2.111
		c0-0.82,0.157-1.535,0.47-2.146c0.313-0.61,0.759-1.074,1.338-1.392c0.578-0.316,1.214-0.475,1.909-0.475
		c0.788,0,1.45,0.2,1.987,0.602c0.537,0.4,0.911,0.965,1.123,1.691l-1.026,0.242c-0.183-0.573-0.448-0.99-0.795-1.252
		s-0.784-0.393-1.311-0.393c-0.605,0-1.111,0.146-1.518,0.436c-0.406,0.29-0.692,0.68-0.856,1.168
		c-0.165,0.489-0.247,0.993-0.247,1.512c0,0.67,0.098,1.255,0.293,1.754c0.195,0.5,0.499,0.873,0.91,1.12s0.857,0.37,1.337,0.37
		c0.583,0,1.078-0.168,1.482-0.504C37.206,126.265,37.48,125.765,37.623,125.103z"/>
	<path d="M43.563,127.863v-0.838c-0.444,0.645-1.047,0.967-1.81,0.967c-0.336,0-0.651-0.064-0.942-0.193
		c-0.292-0.129-0.509-0.291-0.65-0.486c-0.141-0.195-0.241-0.434-0.298-0.717c-0.04-0.189-0.059-0.49-0.059-0.902v-3.534h0.967
		v3.163c0,0.506,0.02,0.846,0.059,1.021c0.061,0.254,0.19,0.453,0.387,0.599c0.197,0.145,0.44,0.218,0.73,0.218
		s0.562-0.075,0.816-0.224s0.434-0.351,0.54-0.606c0.105-0.256,0.158-0.628,0.158-1.115v-3.056h0.967v5.704H43.563z"/>
	<path d="M45.921,127.863v-7.874h0.967v7.874H45.921z"/>
	<path d="M50.498,126.998l0.14,0.854c-0.272,0.058-0.516,0.086-0.73,0.086c-0.351,0-0.623-0.056-0.816-0.167
		c-0.193-0.11-0.33-0.257-0.408-0.438s-0.118-0.561-0.118-1.141v-3.282h-0.709v-0.752h0.709v-1.413l0.961-0.58v1.993h0.972v0.752
		h-0.972v3.335c0,0.276,0.017,0.453,0.051,0.532c0.034,0.079,0.089,0.142,0.166,0.188c0.077,0.046,0.188,0.069,0.331,0.069
		C50.181,127.036,50.322,127.023,50.498,126.998z"/>
	<path d="M55.181,127.863v-0.838c-0.444,0.645-1.047,0.967-1.81,0.967c-0.336,0-0.651-0.064-0.942-0.193
		c-0.292-0.129-0.509-0.291-0.65-0.486c-0.141-0.195-0.241-0.434-0.298-0.717c-0.04-0.189-0.059-0.49-0.059-0.902v-3.534h0.967
		v3.163c0,0.506,0.02,0.846,0.059,1.021c0.061,0.254,0.19,0.453,0.387,0.599c0.197,0.145,0.44,0.218,0.73,0.218
		s0.562-0.075,0.816-0.224s0.434-0.351,0.54-0.606c0.105-0.256,0.158-0.628,0.158-1.115v-3.056h0.967v5.704H55.181z"/>
	<path d="M57.55,127.863v-5.704h0.87v0.864c0.222-0.404,0.427-0.671,0.615-0.8c0.188-0.129,0.395-0.193,0.621-0.193
		c0.326,0,0.657,0.104,0.994,0.312l-0.333,0.896c-0.236-0.139-0.473-0.209-0.709-0.209c-0.211,0-0.401,0.063-0.569,0.19
		s-0.288,0.304-0.36,0.529c-0.107,0.344-0.161,0.72-0.161,1.128v2.986H57.55z"/>
	<path d="M64.946,127.16c-0.358,0.304-0.703,0.519-1.034,0.645c-0.331,0.125-0.687,0.188-1.066,0.188
		c-0.626,0-1.108-0.153-1.445-0.459c-0.336-0.307-0.505-0.697-0.505-1.174c0-0.279,0.063-0.534,0.19-0.766
		c0.127-0.23,0.294-0.416,0.5-0.556c0.206-0.14,0.438-0.245,0.695-0.317c0.19-0.05,0.476-0.098,0.859-0.145
		c0.781-0.093,1.355-0.204,1.724-0.333c0.003-0.133,0.005-0.217,0.005-0.253c0-0.394-0.091-0.671-0.274-0.832
		c-0.247-0.219-0.614-0.328-1.101-0.328c-0.455,0-0.791,0.08-1.007,0.239c-0.217,0.159-0.377,0.441-0.481,0.847l-0.945-0.129
		c0.086-0.405,0.228-0.731,0.424-0.98s0.481-0.44,0.854-0.575c0.373-0.134,0.804-0.201,1.294-0.201c0.487,0,0.883,0.058,1.187,0.172
		s0.528,0.259,0.671,0.433s0.244,0.393,0.301,0.658c0.032,0.164,0.048,0.461,0.048,0.891v1.289c0,0.899,0.021,1.468,0.062,1.706
		c0.041,0.238,0.123,0.466,0.244,0.685h-1.01C65.039,127.663,64.975,127.428,64.946,127.16z M64.865,125
		c-0.351,0.144-0.877,0.266-1.579,0.365c-0.397,0.058-0.679,0.122-0.843,0.193c-0.165,0.072-0.292,0.177-0.381,0.314
		s-0.134,0.291-0.134,0.459c0,0.258,0.098,0.473,0.293,0.645c0.195,0.172,0.48,0.258,0.856,0.258c0.373,0,0.704-0.081,0.994-0.244
		s0.503-0.386,0.639-0.668c0.104-0.219,0.156-0.541,0.156-0.967V125z"/>
	<path d="M67.32,127.863v-7.874h0.967v7.874H67.32z"/>
	<path d="M72.648,124.028c0-1.307,0.351-2.33,1.053-3.069s1.608-1.109,2.718-1.109c0.727,0,1.382,0.174,1.966,0.521
		c0.583,0.347,1.029,0.831,1.334,1.452c0.307,0.621,0.459,1.326,0.459,2.114c0,0.798-0.161,1.513-0.483,2.143
		s-0.779,1.107-1.37,1.432s-1.228,0.486-1.912,0.486c-0.741,0-1.404-0.18-1.987-0.537c-0.583-0.358-1.026-0.848-1.327-1.467
		S72.648,124.72,72.648,124.028z M73.722,124.045c0,0.948,0.255,1.696,0.765,2.242c0.511,0.546,1.15,0.818,1.92,0.818
		c0.784,0,1.43-0.275,1.936-0.826c0.507-0.552,0.76-1.334,0.76-2.348c0-0.641-0.108-1.2-0.325-1.679
		c-0.217-0.478-0.534-0.849-0.951-1.111c-0.417-0.264-0.885-0.396-1.404-0.396c-0.738,0-1.372,0.254-1.904,0.761
		C73.988,122.014,73.722,122.859,73.722,124.045z"/>
	<path d="M81.387,127.863v-5.704h0.87v0.864c0.222-0.404,0.427-0.671,0.615-0.8c0.188-0.129,0.395-0.193,0.621-0.193
		c0.326,0,0.657,0.104,0.994,0.312l-0.333,0.896c-0.236-0.139-0.473-0.209-0.709-0.209c-0.211,0-0.401,0.063-0.569,0.19
		s-0.288,0.304-0.36,0.529c-0.107,0.344-0.161,0.72-0.161,1.128v2.986H81.387z"/>
	<path d="M84.883,128.336l0.94,0.14c0.04,0.29,0.148,0.501,0.328,0.634c0.24,0.179,0.567,0.269,0.983,0.269
		c0.448,0,0.793-0.09,1.037-0.269s0.408-0.43,0.494-0.752c0.05-0.197,0.073-0.61,0.07-1.24c-0.422,0.497-0.949,0.746-1.579,0.746
		c-0.784,0-1.391-0.283-1.821-0.849s-0.645-1.244-0.645-2.036c0-0.544,0.099-1.046,0.295-1.506s0.482-0.815,0.857-1.066
		c0.374-0.251,0.813-0.376,1.318-0.376c0.673,0,1.228,0.272,1.665,0.816v-0.688h0.892v4.931c0,0.888-0.09,1.518-0.271,1.888
		c-0.181,0.371-0.467,0.663-0.859,0.878c-0.392,0.215-0.875,0.322-1.447,0.322c-0.68,0-1.23-0.152-1.649-0.459
		C85.071,129.413,84.869,128.952,84.883,128.336z M85.684,124.909c0,0.748,0.148,1.294,0.446,1.638s0.669,0.516,1.117,0.516
		c0.444,0,0.816-0.171,1.117-0.513s0.451-0.878,0.451-1.608c0-0.698-0.155-1.225-0.465-1.579c-0.31-0.354-0.683-0.532-1.12-0.532
		c-0.43,0-0.795,0.175-1.096,0.524C85.834,123.703,85.684,124.222,85.684,124.909z"/>
	<path d="M94.9,127.16c-0.358,0.304-0.703,0.519-1.034,0.645c-0.331,0.125-0.687,0.188-1.066,0.188
		c-0.626,0-1.108-0.153-1.445-0.459c-0.336-0.307-0.505-0.697-0.505-1.174c0-0.279,0.063-0.534,0.19-0.766
		c0.127-0.23,0.294-0.416,0.5-0.556c0.206-0.14,0.438-0.245,0.695-0.317c0.19-0.05,0.476-0.098,0.859-0.145
		c0.781-0.093,1.355-0.204,1.724-0.333c0.003-0.133,0.005-0.217,0.005-0.253c0-0.394-0.091-0.671-0.274-0.832
		c-0.247-0.219-0.614-0.328-1.101-0.328c-0.455,0-0.791,0.08-1.007,0.239c-0.217,0.159-0.377,0.441-0.481,0.847l-0.945-0.129
		c0.086-0.405,0.228-0.731,0.424-0.98s0.481-0.44,0.854-0.575c0.373-0.134,0.804-0.201,1.294-0.201c0.487,0,0.883,0.058,1.187,0.172
		s0.528,0.259,0.671,0.433s0.244,0.393,0.301,0.658c0.032,0.164,0.048,0.461,0.048,0.891v1.289c0,0.899,0.021,1.468,0.062,1.706
		c0.041,0.238,0.123,0.466,0.244,0.685h-1.01C94.994,127.663,94.929,127.428,94.9,127.16z M94.82,125
		c-0.351,0.144-0.877,0.266-1.579,0.365c-0.397,0.058-0.679,0.122-0.843,0.193c-0.165,0.072-0.292,0.177-0.381,0.314
		s-0.134,0.291-0.134,0.459c0,0.258,0.098,0.473,0.293,0.645c0.195,0.172,0.48,0.258,0.856,0.258c0.373,0,0.704-0.081,0.994-0.244
		s0.503-0.386,0.639-0.668c0.104-0.219,0.156-0.541,0.156-0.967V125z"/>
	<path d="M97.296,127.863v-5.704h0.87v0.812c0.419-0.627,1.024-0.94,1.815-0.94c0.344,0,0.66,0.062,0.948,0.186
		c0.289,0.123,0.504,0.285,0.647,0.485c0.143,0.201,0.244,0.439,0.301,0.715c0.036,0.179,0.054,0.492,0.054,0.939v3.508h-0.967
		v-3.47c0-0.394-0.038-0.688-0.113-0.884s-0.208-0.351-0.4-0.467c-0.192-0.116-0.417-0.175-0.674-0.175
		c-0.412,0-0.767,0.131-1.066,0.392c-0.299,0.262-0.449,0.758-0.449,1.488v3.115H97.296z"/>
	<path d="M103.419,121.102v-1.112h0.967v1.112H103.419z M103.419,127.863v-5.704h0.967v5.704H103.419z"/>
	<path d="M105.347,127.863v-0.784l3.631-4.168c-0.412,0.021-0.775,0.032-1.09,0.032h-2.326v-0.784h4.662v0.64l-3.088,3.619
		l-0.596,0.661c0.433-0.032,0.84-0.048,1.219-0.048h2.637v0.832H105.347z"/>
	<path d="M115.08,127.16c-0.358,0.304-0.703,0.519-1.034,0.645c-0.331,0.125-0.687,0.188-1.066,0.188
		c-0.626,0-1.108-0.153-1.445-0.459c-0.336-0.307-0.505-0.697-0.505-1.174c0-0.279,0.063-0.534,0.19-0.766
		c0.127-0.23,0.294-0.416,0.5-0.556c0.206-0.14,0.438-0.245,0.695-0.317c0.19-0.05,0.476-0.098,0.859-0.145
		c0.781-0.093,1.355-0.204,1.724-0.333c0.003-0.133,0.005-0.217,0.005-0.253c0-0.394-0.091-0.671-0.274-0.832
		c-0.247-0.219-0.614-0.328-1.101-0.328c-0.455,0-0.791,0.08-1.007,0.239c-0.217,0.159-0.377,0.441-0.481,0.847l-0.945-0.129
		c0.086-0.405,0.228-0.731,0.424-0.98s0.481-0.44,0.854-0.575c0.373-0.134,0.804-0.201,1.294-0.201c0.487,0,0.883,0.058,1.187,0.172
		s0.528,0.259,0.671,0.433s0.244,0.393,0.301,0.658c0.032,0.164,0.048,0.461,0.048,0.891v1.289c0,0.899,0.021,1.468,0.062,1.706
		c0.041,0.238,0.123,0.466,0.244,0.685h-1.01C115.173,127.663,115.108,127.428,115.08,127.16z M114.999,125
		c-0.351,0.144-0.877,0.266-1.579,0.365c-0.397,0.058-0.679,0.122-0.843,0.193c-0.165,0.072-0.292,0.177-0.381,0.314
		s-0.134,0.291-0.134,0.459c0,0.258,0.098,0.473,0.293,0.645c0.195,0.172,0.48,0.258,0.856,0.258c0.373,0,0.704-0.081,0.994-0.244
		s0.503-0.386,0.639-0.668c0.104-0.219,0.156-0.541,0.156-0.967V125z"/>
	<path d="M119.586,126.998l0.14,0.854c-0.272,0.058-0.516,0.086-0.73,0.086c-0.351,0-0.623-0.056-0.816-0.167
		c-0.193-0.11-0.33-0.257-0.408-0.438s-0.118-0.561-0.118-1.141v-3.282h-0.709v-0.752h0.709v-1.413l0.961-0.58v1.993h0.972v0.752
		h-0.972v3.335c0,0.276,0.017,0.453,0.051,0.532c0.034,0.079,0.089,0.142,0.166,0.188c0.077,0.046,0.188,0.069,0.331,0.069
		C119.269,127.036,119.411,127.023,119.586,126.998z"/>
	<path d="M120.537,121.102v-1.112h0.967v1.112H120.537z M120.537,127.863v-5.704h0.967v5.704H120.537z"/>
	<path d="M122.615,125.012c0-1.057,0.293-1.839,0.881-2.348c0.491-0.423,1.088-0.634,1.794-0.634c0.784,0,1.425,0.257,1.923,0.771
		s0.747,1.224,0.747,2.13c0,0.734-0.11,1.312-0.331,1.732c-0.22,0.421-0.541,0.747-0.961,0.979c-0.421,0.233-0.88,0.35-1.378,0.35
		c-0.798,0-1.444-0.256-1.937-0.768C122.861,126.712,122.615,125.975,122.615,125.012z M123.609,125.012
		c0,0.73,0.159,1.277,0.478,1.641s0.72,0.545,1.203,0.545c0.48,0,0.879-0.183,1.198-0.548s0.478-0.922,0.478-1.671
		c0-0.705-0.16-1.239-0.48-1.603c-0.321-0.363-0.719-0.546-1.195-0.546c-0.483,0-0.884,0.182-1.203,0.543
		S123.609,124.281,123.609,125.012z"/>
	<path d="M129.093,127.863v-5.704h0.87v0.812c0.419-0.627,1.024-0.94,1.815-0.94c0.344,0,0.66,0.062,0.948,0.186
		c0.289,0.123,0.504,0.285,0.647,0.485c0.143,0.201,0.244,0.439,0.301,0.715c0.036,0.179,0.054,0.492,0.054,0.939v3.508h-0.967
		v-3.47c0-0.394-0.038-0.688-0.113-0.884s-0.208-0.351-0.4-0.467c-0.192-0.116-0.417-0.175-0.674-0.175
		c-0.412,0-0.767,0.131-1.066,0.392c-0.299,0.262-0.449,0.758-0.449,1.488v3.115H129.093z"/>
</g>
</svg>
